<svg width="242" height="525" viewBox="0 0 242 525" fill="none" xmlns="http://www.w3.org/2000/svg">
<path d="M70.9326 263.378C68.9104 266.039 66.0846 269.213 62.3145 272.677C42.7734 290.629 38.2574 313.713 45.9453 338.821C46.1161 339.378 46.1866 339.769 46.2158 340.028C45.6842 339.997 44.8615 339.831 43.709 339.441C42.4016 338.998 40.8598 338.336 39.1416 337.506C35.7028 335.846 31.7638 333.618 27.8916 331.407C24.0668 329.224 20.2748 327.038 17.2695 325.562C8.9121 321.457 2.5 313.855 2.5 300.903C2.50003 296.362 5.57646 292.185 11.4414 288.172C17.2475 284.199 25.2053 280.797 33.6904 277.681C37.9133 276.13 42.2175 274.668 46.4033 273.247C50.5763 271.831 54.6414 270.453 58.3311 269.087C62.0147 267.723 65.3943 266.346 68.1895 264.919C69.1516 264.428 70.0732 263.915 70.9326 263.378Z" stroke="black" stroke-width="5"/>
<path d="M59.5 273.001L65.408 269.42C72.3239 265.227 78.1215 259.423 82.3048 252.501C85.5573 247.12 87.7686 241.166 88.8202 234.967C103.762 146.883 112.616 94.6895 128 4.00073" stroke="black" stroke-width="8" stroke-linecap="round"/>
<path d="M45 338.177L50.6413 338.835C57.1688 339.596 63.4042 341.97 68.785 345.743C72.8323 348.581 76.3226 352.142 79.005 356.294C119.973 419.707 161.567 507.858 175.599 503.503" stroke="black" stroke-width="8" stroke-linecap="round"/>
<path d="M236.826 183.76C238.197 182.144 240.683 182.981 239.796 184.906C231.459 202.989 194.385 199.001 170 199.001C146.32 199.001 120.603 181.069 113.755 158.547C113.1 156.394 116.818 155.123 118.571 156.535C135.405 170.089 169.657 152.951 143.993 170.762C142.37 171.889 143.07 174.787 145.017 175.123C171.905 179.771 216.09 208.195 236.826 183.76Z" fill="black"/>
<path d="M154.5 153.501C154.5 162.061 141.06 160.001 132.5 160.001C123.94 160.001 117 153.061 117 144.501C117 135.94 123.94 129.001 132.5 129.001C141.06 129.001 154.5 144.94 154.5 153.501Z" fill="black"/>
<path d="M117 128.001L119 133.001" stroke="black" stroke-linecap="round"/>
<path d="M119 126.001L121 131.001" stroke="black" stroke-linecap="round"/>
<path d="M121 125.001L123 130.001" stroke="black" stroke-linecap="round"/>
<path d="M123 124.001L125 129.001" stroke="black" stroke-linecap="round"/>
<path d="M125 123.001L127 128.001" stroke="black" stroke-linecap="round"/>
<path d="M127.687 122.001L128.981 127.228" stroke="black" stroke-linecap="round"/>
<path d="M130.357 122.001L130.925 127.356" stroke="black" stroke-linecap="round"/>
<path d="M132.875 122.001L132.738 127.384" stroke="black" stroke-linecap="round"/>
<path d="M135.635 121.939L135.033 127.29" stroke="black" stroke-linecap="round"/>
<path d="M154.677 133.356L151.274 137.53" stroke="black" stroke-linecap="round"/>
<path d="M153.367 130.85L149.963 135.023" stroke="black" stroke-linecap="round"/>
<path d="M151.757 129.298L148.354 133.471" stroke="black" stroke-linecap="round"/>
<path d="M150.147 127.746L146.744 131.919" stroke="black" stroke-linecap="round"/>
<path d="M148.538 126.193L145.135 130.367" stroke="black" stroke-linecap="round"/>
<path d="M146.272 124.436L143.475 129.038" stroke="black" stroke-linecap="round"/>
<path d="M143.725 123.638L141.582 128.578" stroke="black" stroke-linecap="round"/>
<path d="M141.321 122.885L139.844 128.063" stroke="black" stroke-linecap="round"/>
<path d="M138.707 122.001L137.681 127.287" stroke="black" stroke-linecap="round"/>
<path d="M79 351.001L175.5 500.001" stroke="black" stroke-linecap="round"/>
<path d="M79 351.001L175 502.001" stroke="black" stroke-linecap="round"/>
<path d="M79 351.001L173 502.001" stroke="black" stroke-linecap="round"/>
<path d="M79 351.001L169 498.001" stroke="black" stroke-linecap="round"/>
<path d="M80 353.005L179 502.001" stroke="black" stroke-linecap="round"/>
<path d="M105.871 143.799L119.737 170.178" stroke="black" stroke-linecap="round"/>
<path d="M105.871 143.799L119.737 170.178" stroke="black" stroke-linecap="round"/>
<path d="M152.683 163.001L147 176.001" stroke="black" stroke-linecap="round"/>
<path d="M150.917 163.001L145.235 176.001" stroke="black" stroke-linecap="round"/>
<path d="M148.917 163.001L143.235 176.001" stroke="black" stroke-linecap="round"/>
<path d="M107.817 142.001L121.683 168.38" stroke="black" stroke-linecap="round"/>
<path d="M107.817 139.001L121.683 165.38" stroke="black" stroke-linecap="round"/>
<path d="M107.817 136.001L121.683 162.38" stroke="black" stroke-linecap="round"/>
<path d="M106.817 143.001L120.683 169.38" stroke="black" stroke-linecap="round"/>
<path d="M43 337.001L8 316.001" stroke="black" stroke-linecap="round"/>
<path d="M44 337.001L5 312.001" stroke="black" stroke-linecap="round"/>
<path d="M44 337.001L5 310.001" stroke="black" stroke-linecap="round"/>
<path d="M44 337.001L5 308.001" stroke="black" stroke-linecap="round"/>
<path d="M44 337.001L5 306.001" stroke="black" stroke-linecap="round"/>
<path d="M44 337.001L4 303.001" stroke="black" stroke-linecap="round"/>
<path d="M44 337.001L4 301.001" stroke="black" stroke-linecap="round"/>
<path d="M44 337.001L4 299.001" stroke="black" stroke-linecap="round"/>
<path d="M44 337.001L5 298.001" stroke="black" stroke-linecap="round"/>
<path d="M44 337.001L6 297.001" stroke="black" stroke-linecap="round"/>
<path d="M44 337.001L6 297.001" stroke="black" stroke-linecap="round"/>
<path d="M44 337.001L6 295.001" stroke="black" stroke-linecap="round"/>
<path d="M44 337.001L7 294.001" stroke="black" stroke-linecap="round"/>
<path d="M44 337.001L8 293.001" stroke="black" stroke-linecap="round"/>
<path d="M44 337.001L9 292.001" stroke="black" stroke-linecap="round"/>
<path d="M44 337.001L10 291.001" stroke="black" stroke-linecap="round"/>
<path d="M44 337.001L11 290.001" stroke="black" stroke-linecap="round"/>
<path d="M44 337.001L12 289.001" stroke="black" stroke-linecap="round"/>
<path d="M44 337.001L13 288.001" stroke="black" stroke-linecap="round"/>
<path d="M44 337.001L14 287.001" stroke="black" stroke-linecap="round"/>
<path d="M44 337.001L15 286.001" stroke="black" stroke-linecap="round"/>
<path d="M44 337.001L17 286.001" stroke="black" stroke-linecap="round"/>
<path d="M44 337.001L18 285.001" stroke="black" stroke-linecap="round"/>
<path d="M44 337.001L19 284.001" stroke="black" stroke-linecap="round"/>
<path d="M44 337.001L20 283.001" stroke="black" stroke-linecap="round"/>
<path d="M44 337.001L21 282.001" stroke="black" stroke-linecap="round"/>
<path d="M44 337.001L23 282.001" stroke="black" stroke-linecap="round"/>
<path d="M44 337.001L24 281.001" stroke="black" stroke-linecap="round"/>
<path d="M44 337.001L26 281.001" stroke="black" stroke-linecap="round"/>
<path d="M44 337.001L27 280.001" stroke="black" stroke-linecap="round"/>
<path d="M44 337.001L29 280.001" stroke="black" stroke-linecap="round"/>
<path d="M44 337.001L31 280.001" stroke="black" stroke-linecap="round"/>
<path d="M44 337.001L33 280.001" stroke="black" stroke-linecap="round"/>
<path d="M44 337.001L35 280.001" stroke="black" stroke-linecap="round"/>
<path d="M44 337.001L37 279.001" stroke="black" stroke-linecap="round"/>
<path d="M44 337.001L39 278.001" stroke="black" stroke-linecap="round"/>
<path d="M44 337.001L41 277.001" stroke="black" stroke-linecap="round"/>
<path d="M44 298.001L43 274.001" stroke="black" stroke-linecap="round"/>
<path d="M46 296.001L45 272.001" stroke="black" stroke-linecap="round"/>
<path d="M48 295.001L47 271.001" stroke="black" stroke-linecap="round"/>
<path d="M50 291.001L49 271.001" stroke="black" stroke-linecap="round"/>
<path d="M52 286.001L51 270.001" stroke="black" stroke-linecap="round"/>
<path d="M54 285.001L53 269.001" stroke="black" stroke-linecap="round"/>
<path d="M54 282.001L56 268.001" stroke="black" stroke-linecap="round"/>
</svg>
