<svg width="165" height="180" viewBox="0 0 165 180" fill="none" xmlns="http://www.w3.org/2000/svg">
<path d="M42.0174 120.127C38.5147 119.64 27.7765 117.041 19.276 111.523C12.7185 107.267 9.48896 100.218 8.04976 94.7416C5.97823 86.8589 9.26376 81.7954 12.8487 75.0685C14.5298 71.914 17.8036 70.1226 21.7523 67.9591C24.846 66.264 34.0608 66.4416 39.8873 67.8796C41.6662 68.3186 42.2025 70.5658 44.383 83.9192C46.4327 96.4715 49.1962 120.91 51.3603 134.598C53.8987 150.655 56.4599 153.558 58.933 156.297C63.8885 161.784 70.177 166.609 76.3342 169.877C83.6348 173.75 90.0036 175.02 101.755 175.871C111.836 176.355 130.276 176.947 141.058 176.997C151.841 177.046 154.407 176.536 158.007 174.863" stroke="black" stroke-width="6" stroke-linecap="round"/>
<path d="M39.1787 63.9487H158.78" stroke="black" stroke-width="6" stroke-linecap="round"/>
<path d="M162 64.3379C160.815 66.5084 151.974 78.6377 145.266 89.0369C143.575 91.6586 143.201 95.733 142.445 104.115C141.932 109.791 142.188 118.419 142.538 124.723C143.097 134.795 145.769 141.891 148.149 147.147C151.035 153.522 158 162.141 161.176 169.165C161.813 171.35 161.747 172.856 161.102 174.02C160.66 174.473 159.987 174.647 158.724 174.948" stroke="black" stroke-width="6" stroke-linecap="round"/>
<path d="M39.8354 119.735C40.1737 119.761 41.779 120.318 43.9691 121.816C45.1638 122.634 45.7629 123.421 46.4287 124.349C47.8314 126.475 48.9642 128.416 49.3369 129.334C49.488 129.713 49.562 129.914 49.5255 129.911" stroke="black" stroke-width="6" stroke-linecap="round"/>
<path d="M20.942 114.063C20.942 114.139 20.9319 114.77 20.8633 115.757C20.8222 116.349 18.2144 118.333 14.345 121.218C12.4032 122.666 11.1045 123.004 10.2542 123.34C10.0172 123.434 11.1742 123.803 12.3921 124.125C13.5788 124.44 16.2796 126.356 19.9841 129.007C22.3672 130.712 23.5744 132.135 24.6176 133.452C25.7883 134.931 26.5926 136.616 27.1776 137.96C27.5735 138.869 27.6135 141.705 27.9399 145.333C28.062 146.689 30.4926 146.165 32.6971 146.176C35.4705 146.189 37.9712 146.79 41.9645 148.675C45.0904 150.15 50.1284 153.239 54.4602 156.089C58.792 158.938 62.1831 161.598 64.0638 163.063C66.7343 165.145 68.1336 165.758 69.3459 166.232C69.8434 166.407 70.5153 166.612 71.2621 166.84C71.5766 166.948 71.7601 167.04 72.08 167.314" stroke="black" stroke-width="6" stroke-linecap="round"/>
<path d="M10.2358 75.6095C9.79824 75.4912 8.77349 74.8878 5.09181 71.3626C4.10992 70.4224 3.63828 70.1999 3.24855 69.9965C3.04899 69.8923 2.86578 69.7543 3.13763 69.5953C3.40948 69.4363 4.14705 69.2523 6.08908 68.3818C8.03111 67.5112 11.1552 65.9597 13.8787 64.2974C16.6021 62.6352 18.8301 60.9092 22.6461 57.5558C26.462 54.2024 31.7982 49.2739 34.6684 46.5872C37.5386 43.9005 37.7809 43.6049 38.0075 43.3993C38.2341 43.1938 38.4377 43.0871 38.6201 43.3993C38.8026 43.7116 38.9577 44.4462 39.8012 46.0998C41.9893 50.3897 43.8832 53.106 44.5843 53.8316C45.1472 54.3828 46.1306 55.3055 48.3369 56.9416C50.5433 58.5778 53.9427 60.8995 57.7846 63.4278" stroke="black" stroke-width="6" stroke-linecap="round"/>
<path d="M41.4325 69.4316C41.4343 69.4333 41.4012 69.3431 41.0743 68.7368C40.7935 68.2157 40.2308 67.2849 39.9294 66.7619C39.6279 66.2389 39.5924 66.1578 39.5583 66.0882C39.5242 66.0187 39.4926 65.963 39.3575 65.6645C39.2225 65.366 38.9849 64.8264 38.8568 64.5294C38.7132 64.1963 38.7055 64.1306 38.7098 64.0846C38.7118 64.0635 38.7235 64.0484 38.7376 64.0371C38.8099 63.9794 38.9487 63.9945 39.0191 63.9581C39.0369 63.9494 39.0561 63.9415 39.0743 63.938C39.0925 63.9344 39.1092 63.9354 39.158 63.9657" stroke="black" stroke-width="6" stroke-linecap="round"/>
<path d="M38.9741 42.6162C38.9741 42.2471 39.487 38.9434 43.9541 29.6146C45.6046 26.1678 48.9511 22.2602 51.5231 19.1826C54.095 16.1051 56.1897 14.1684 58.3222 12.4806C60.4548 10.7929 62.5618 9.41288 65.8452 7.93363C69.1287 6.45439 73.5248 4.91775 78.7938 4.00992C84.0629 3.10209 90.0716 2.86962 94.9709 3.06341C99.8702 3.25721 103.478 3.88432 107.4 4.88028C115.534 6.94593 120.09 8.77922 121.308 9.42132C123.458 10.5545 127.352 13.7821 132.429 18.571C134.938 20.9379 136.903 23.5413 139.322 26.895C141.741 30.2488 144.45 34.3674 146.329 37.4174C149.307 42.2534 150.323 44.7037 151.276 47.0081C153.376 52.0867 155.789 56.7291 157.257 59.1483C159.087 61.6625 159.842 62.4808 160.178 62.7286C160.256 62.7011 160.147 62.3625 160.034 62.0137" stroke="black" stroke-width="6" stroke-linecap="round"/>
<path d="M46.0713 52.4014H153.136" stroke="black" stroke-width="6" stroke-linecap="round"/>
<path d="M61.293 53.9038V61.7718" stroke="black" stroke-width="6" stroke-linecap="round"/>
<path d="M73.8145 53.5249V62.3074" stroke="black" stroke-width="6" stroke-linecap="round"/>
<path d="M88.3809 53.7915V62.4395" stroke="black" stroke-width="6" stroke-linecap="round"/>
<path d="M102.221 53.8296V62.1183" stroke="black" stroke-width="6" stroke-linecap="round"/>
<path d="M114.739 53.4697V62.2921" stroke="black" stroke-width="6" stroke-linecap="round"/>
<path d="M127.328 53.481V62.3574" stroke="black" stroke-width="6" stroke-linecap="round"/>
<path d="M137.81 53.7124V62.0067" stroke="black" stroke-width="6" stroke-linecap="round"/>
<path d="M148.149 53.3223V62.1223" stroke="black" stroke-width="6" stroke-linecap="round"/>
<path d="M157.737 58.7704C157.737 58.7621 157.754 58.8715 158.157 59.4715C159.132 60.9226 160.427 62.0269 160.992 62.5645C161.417 62.9701 161.62 63.2514 161.66 63.2715C161.957 63.4198 161.298 62.6688 160.951 62.1742C160.675 61.7811 160.135 61.1393 159.133 59.6195C158.13 58.0996 156.666 55.7312 155.745 54.1981C154.823 52.6651 154.488 52.0393 154.283 51.6793C154.077 51.3194 154.011 51.2443 153.827 51.0864" stroke="black" stroke-width="6" stroke-linecap="round"/>
<path d="M122.967 90.873C122.94 90.873 122.815 91.1749 122.772 91.7481C122.75 92.0259 123.088 92.2508 123.528 92.3703C123.967 92.4897 124.59 92.4902 125.033 92.3681C125.476 92.246 125.722 92.0013 125.872 91.7026C126.022 91.4038 126.07 91.0584 125.887 90.7855C125.476 90.1706 124.509 90.0821 123.808 90.1758C123.436 90.2255 123.139 90.6374 122.922 90.9695C122.706 91.3016 122.606 91.6328 122.729 91.9041C122.998 92.4989 123.944 92.7558 124.711 92.9582C125.078 93.0552 125.455 92.8728 125.723 92.6727C125.992 92.4727 126.155 92.1921 126.128 91.8953C126.101 91.5984 125.881 91.2939 125.415 91.1266C124.95 90.9593 124.247 90.9384 123.817 91.0828C123.387 91.2271 123.253 91.5373 123.183 91.8864C123.113 92.2355 123.111 92.6141 123.311 92.8343C123.743 93.3103 124.76 93.1565 125.55 92.9921C125.939 92.9115 126.174 92.4992 126.333 92.1401C126.493 91.781 126.537 91.4013 126.432 91.0932C126.327 90.785 126.071 90.5598 125.769 90.4311C125.467 90.3023 125.126 90.2768 124.589 90.4419C124.053 90.607 123.33 90.9634 122.582 91.5216" stroke="black" stroke-width="6" stroke-linecap="round"/>
<path d="M115.808 84.764C116.139 84.9021 117.697 85.3383 120.826 85.6486C125.652 86.1273 128.332 84.9243 129.753 84.521C131.567 84.006 134.187 81.8479 136.098 79.8889C137.282 78.3647 138.354 76.7372 139.409 75.1741C139.611 74.8293 139.762 74.4933 140.124 74.2319" stroke="black" stroke-width="6" stroke-linecap="round"/>
<path d="M142.713 131.391C142.007 131.214 138.682 130.644 131.997 130.192C121.686 129.495 115.939 130.909 112.894 131.371C109.007 131.961 103.374 134.547 99.2574 136.906C96.7031 138.748 94.3878 140.719 92.1086 142.611C91.6715 143.029 91.3432 143.438 90.5655 143.75" stroke="black" stroke-width="6" stroke-linecap="round"/>
<path d="M25.5396 96.235C24.7407 95.3689 22.643 92.3371 21.7498 86.795C21.3186 84.1194 21.7784 82.1116 22.1558 80.8047C22.7121 78.8782 26.4285 77.3746 30.8518 76.3782C32.4879 76.0097 33.6518 76.4977 34.3317 76.9238C35.6529 77.752 36.2371 79.1781 38.1761 84.3574C39.4582 87.7819 41.8733 93.8678 43.2903 97.6838C45.8309 104.526 45.7847 106.006 46.8266 112.943C47.7889 119.352 47.6348 121.703 47.9005 123.746C48.1976 126.031 49.2021 128.473 51.4744 134.079C51.955 135.211 52.0916 135.584 52.1889 135.957C52.2863 136.329 52.3403 136.691 52.396 137.776" stroke="black" stroke-width="6" stroke-linecap="round"/>
<path d="M25.4385 104.699C26.9016 104.736 31.9572 106.158 34.7895 107.671C35.185 107.947 35.5072 108.219 36.0914 108.851C36.6756 109.483 37.5122 110.467 38.8701 111.873" stroke="black" stroke-width="6" stroke-linecap="round"/>
</svg>
