<svg width="216" height="178" viewBox="0 0 216 178" fill="none" xmlns="http://www.w3.org/2000/svg">
<path d="M69.8203 89.1507C66.6125 89.2447 58.9727 89.1482 54.0215 87.8226C50.155 86.7874 43.7096 84.4257 39.3584 82.6711C32.8363 80.0412 29.6559 77.464 26.8857 75.074C23.3792 72.0488 21.1279 68.8359 19.586 66.3318C17.5831 63.0788 16.0916 58.4818 14.7656 53.6075C13.5502 49.1397 13.4259 45.4039 13.7224 41.471C14.1815 35.3795 17.422 28.343 21.38 22.1373C24.7787 16.8086 31.843 14.5693 38.8658 12.7849C44.9192 11.2468 51.5047 13.1546 57.1312 15.0246C62.0125 16.6469 65.9673 21.3088 68.9027 25.7712C69.7519 27.0622 70.3948 30.3961 71.3893 35.308C71.8383 37.5258 72.0149 39.2165 72.1284 50.056C72.2419 60.8956 72.2461 80.8405 72.1964 91.7313C72.1467 102.622 72.043 103.855 71.9381 105.953C71.8332 108.051 71.7303 110.977 71.6242 113.992" stroke="black" stroke-width="7" stroke-linecap="round"/>
<path d="M72.7627 114.112L210.587 114.381" stroke="black" stroke-width="7" stroke-linecap="round"/>
<path d="M69.5874 29.3755C69.9788 30.7663 71.3561 33.0973 76.9774 37.1569C81.8721 40.6919 91.4932 46.7627 105.159 53.8935C118.824 61.0243 136.39 68.9138 152.748 75.2093C169.105 81.5047 183.721 85.967 192.23 88.7062C202.822 92.1162 205.566 94.1483 207.225 96.0609C210.219 101.179 211.799 107.857 211.565 112.067C211.192 113.621 210.303 113.993 209.225 114.375" stroke="black" stroke-width="7" stroke-linecap="round"/>
<path d="M73.0996 88.7163C75.4704 88.7163 80.8483 89.3593 84.8339 90.9648C92.4849 94.0466 93.6802 97.2776 94.7723 99.7428C95.0609 100.801 95.222 101.779 95.3285 103.808C95.3797 105.355 95.4251 107.952 95.4718 110.628" stroke="black" stroke-width="7" stroke-linecap="round"/>
<path d="M76.4019 95.3047C77.5281 95.3216 84.2058 97.1725 89.9797 100.569C91.5613 101.499 92.3064 102.885 92.9265 104.154C93.4039 105.131 93.3356 106.379 93.0592 107.591C92.8113 108.678 87.8329 108.782 81.8356 108.883C79.2325 108.927 78.1799 107.388 77.0725 106.072C76.5772 105.483 76.5073 104.838 76.6218 104.388C77.4253 101.23 85.2069 103.58 89.7222 105.56C90.7015 105.989 90.9544 106.418 90.7816 106.641C90.6089 106.865 89.9584 106.96 89.3297 106.813C86.294 106.104 84.4548 102.324 81.9709 101.079C81.2218 100.704 80.171 100.69 79.3463 100.5C78.5215 100.31 77.8958 100.095 77.5571 101.294C77.2185 102.492 77.186 105.109 77.1897 108.023" stroke="black" stroke-width="7" stroke-linecap="round"/>
<path d="M17.2695 55.3188H68.9573" stroke="black" stroke-width="7" stroke-linecap="round"/>
<path d="M17.5454 34.1069H69.5783" stroke="black" stroke-width="7" stroke-linecap="round"/>
<path d="M21.9546 63.6069H67.5899" stroke="black" stroke-width="7" stroke-linecap="round"/>
<path d="M27.6074 72.228H69.4535" stroke="black" stroke-width="7" stroke-linecap="round"/>
<path d="M41.0269 80.4785H69.4119" stroke="black" stroke-width="7" stroke-linecap="round"/>
<path d="M43.6353 43.9844H43.6666" stroke="black" stroke-width="7" stroke-linecap="round"/>
<path d="M22.2407 27.1002C29.0133 27.1002 35.7859 27.1002 43.286 27.1002C50.7861 27.1002 58.8084 27.1002 66.6553 27.0776" stroke="black" stroke-width="7" stroke-linecap="round"/>
<path d="M20.5103 31.5952H49.6598" stroke="black" stroke-width="7" stroke-linecap="round"/>
<path d="M22.7988 26.4399H63.8051" stroke="black" stroke-width="7" stroke-linecap="round"/>
<path d="M25.5859 23.9512H64.2856" stroke="black" stroke-width="7" stroke-linecap="round"/>
<path d="M27.5742 21.1836H61.2907" stroke="black" stroke-width="7" stroke-linecap="round"/>
<path d="M83.5752 20.7524L83.6054 20.8165" stroke="black" stroke-width="7" stroke-linecap="round"/>
<path d="M72.3632 11.1782H72.3315" stroke="black" stroke-width="7" stroke-linecap="round"/>
<path d="M59.6436 5.68799H59.7974" stroke="black" stroke-width="7" stroke-linecap="round"/>
<path d="M44.812 3.5H44.9094" stroke="black" stroke-width="7" stroke-linecap="round"/>
<path d="M29.5952 5.62695H29.6269" stroke="black" stroke-width="7" stroke-linecap="round"/>
<path d="M15.2896 13.668H15.4605" stroke="black" stroke-width="7" stroke-linecap="round"/>
<path d="M7.47412 24.6455H7.56815" stroke="black" stroke-width="7" stroke-linecap="round"/>
<path d="M3.5 39.1875V39.3567" stroke="black" stroke-width="7" stroke-linecap="round"/>
<path d="M5.3916 53.0309V52.999" stroke="black" stroke-width="7" stroke-linecap="round"/>
<path d="M9.85498 62.7266V62.9591" stroke="black" stroke-width="7" stroke-linecap="round"/>
<path d="M17.9194 70.688L18.0849 70.7898" stroke="black" stroke-width="7" stroke-linecap="round"/>
<path d="M27.2261 76.4927V76.7565" stroke="black" stroke-width="7" stroke-linecap="round"/>
<path d="M89.415 31.6855H89.4465" stroke="black" stroke-width="7" stroke-linecap="round"/>
<path d="M91.2114 43.186H91.2669" stroke="black" stroke-width="7" stroke-linecap="round"/>
<path d="M57.7671 90.853C57.8756 90.853 57.9842 90.853 58.7033 91.7288C59.4225 92.6045 60.749 94.356 62.7772 98.135C64.8055 101.914 67.4953 107.667 70.3843 114.009" stroke="black" stroke-width="7" stroke-linecap="round"/>
<path d="M71.1938 117.878C71.2821 117.878 72.1317 117.943 74.8457 118.652C79.9197 119.977 85.0882 123.138 89.8386 126.372C95.3333 130.113 98.5549 134.169 100.486 137.425C101.684 139.444 102.908 142.439 104.563 148.585C106.218 154.73 108.161 163.995 110.094 168.872C112.027 173.75 113.892 173.958 115.072 174.066C116.252 174.173 116.69 174.173 117.079 173.836C118.016 173.025 118.311 171.141 118.516 162.471C118.698 154.791 118.408 140.445 118.311 131.793C118.214 123.141 118.157 120.616 118.111 118.692C118.066 116.767 118.033 115.519 117.999 114.233" stroke="black" stroke-width="7" stroke-linecap="round"/>
<path d="M73.0874 114.233C73.1756 114.233 72.1318 117.943 74.8459 118.652C79.9199 119.977 85.0884 123.138 89.8387 126.372C95.3335 130.113 98.5551 134.169 100.486 137.425C101.684 139.444 102.908 142.439 104.563 148.585C106.218 154.73 108.161 163.995 110.094 168.872C112.027 173.75 113.892 173.958 115.072 174.066C116.252 174.173 116.69 174.173 117.079 173.836C118.016 173.025 118.311 171.141 118.517 162.471C118.698 154.791 118.408 140.445 118.311 131.793C118.214 123.141 118.157 120.616 118.112 118.692C118.066 116.767 118.033 115.519 117.999 114.233" stroke="black" stroke-width="7" stroke-linecap="round"/>
<path d="M126.587 119.174C126.638 119.174 127.122 119.224 128.668 119.769C131.56 120.786 134.505 123.214 137.212 125.698C140.343 128.571 142.179 131.686 143.28 134.186C143.962 135.737 144.66 138.037 145.603 142.757C146.546 147.477 147.653 154.593 148.755 158.338C149.856 162.084 150.919 162.244 151.591 162.327C152.263 162.409 152.513 162.409 152.735 162.15C153.269 161.527 153.437 160.08 153.554 153.422C153.658 147.524 153.492 136.506 153.437 129.861C153.382 123.217 153.349 121.277 153.323 119.799C153.297 118.321 153.279 117.363 153.259 116.375" stroke="black" stroke-width="7" stroke-linecap="round"/>
<path d="M210.587 114.026C210.5 114.026 209.657 114.091 206.965 114.801C201.932 116.129 196.805 119.296 192.093 122.535C186.642 126.283 183.446 130.346 181.531 133.607C180.343 135.63 179.128 138.63 177.487 144.787C175.845 150.943 173.918 160.224 172 165.11C170.082 169.995 168.233 170.204 167.062 170.312C165.892 170.42 165.457 170.42 165.071 170.082C164.142 169.269 163.849 167.382 163.646 158.697C163.465 151.004 163.753 136.632 163.849 127.966C163.946 119.299 164.002 116.769 164.047 114.842" stroke="black" stroke-width="7" stroke-linecap="round"/>
<path d="M122.855 119.265H143.028" stroke="black" stroke-width="6.5" stroke-linecap="round"/>
<path d="M132.587 163.523C132.614 163.523 132.641 163.523 135.349 163.523C138.057 163.523 143.445 163.523 146.705 163.499C149.966 163.474 150.935 163.426 151.934 163.375" stroke="black" stroke-width="6.5" stroke-linecap="round"/>
<path d="M96.5874 174.523C96.6142 174.523 96.641 174.523 99.3489 174.523C102.057 174.523 107.445 174.523 110.705 174.499C113.966 174.474 114.935 174.426 115.934 174.375" stroke="black" stroke-width="6.5" stroke-linecap="round"/>
<path d="M149.587 170.523C149.614 170.523 149.641 170.523 152.349 170.523C155.057 170.523 160.445 170.523 163.705 170.499C166.966 170.474 167.935 170.426 168.934 170.375" stroke="black" stroke-width="6.5" stroke-linecap="round"/>
<path d="M139.673 121.291C139.706 121.281 140.16 121.688 141.218 123.195C141.94 124.223 142.625 126.049 143.524 127.67C144.423 129.292 145.408 130.721 146.482 133.405C147.555 136.088 148.686 139.983 149.341 142.487C149.996 144.991 150.141 145.985 150.214 146.379C150.288 146.773 150.286 146.536 150.015 145.296C149.744 144.055 149.204 141.818 148.787 138.771C148.369 135.724 148.09 131.934 147.849 129.583C147.608 127.231 147.414 126.432 147.095 125.38C145.892 121.413 145.764 120.469 145.815 119.887C145.932 118.555 149.237 119.507 149.436 119.709C149.583 119.974 149.813 121.736 150.08 124.764C150.178 126.18 150.2 127.353 150.248 128.66" stroke="black" stroke-width="6.5" stroke-linecap="round"/>
<path d="M79.5874 148.375H89.1607" stroke="black" stroke-width="6.5" stroke-linecap="round"/>
<path d="M89.4367 147.983C89.5725 146.93 89.8126 143.474 89.5181 138.953C89.2395 134.676 87.6689 132.086 86.9834 130.769C86.219 129.3 84.3975 126.844 82.2946 124.021C81.1794 122.523 80.4334 121.94 79.1809 121.119C73.7843 117.582 70.5589 115.239 70.5876 115.382C70.8591 116.726 74.4941 119.279 77.861 122.828C79.3159 124.362 80.3781 126.409 82.151 130.712C83.1851 133.222 83.9202 136.612 84.4429 138.811C84.9656 141.011 85.1074 141.974 85.1804 143.062C85.2535 144.15 85.2535 145.333 85.2535 146.501" stroke="black" stroke-width="6.5" stroke-linecap="round"/>
<path d="M51.5015 88.4579C51.5015 88.4443 51.7115 88.8253 52.9463 90.6495C53.9353 92.1106 55.8041 94.5585 58.4665 99.1064C61.129 103.654 64.5652 110.203 66.3955 113.656C68.3186 117.286 68.573 117.547 68.7972 117.745C69.2812 118.173 71.6491 119.026 73.2534 119.607C73.5055 119.7 73.8278 119.836 74.1659 119.958C74.504 120.08 74.8481 120.183 75.5217 120.326" stroke="black" stroke-width="6.5" stroke-linecap="round"/>
<path d="M62.2729 90.9961C62.7474 91.1257 63.4531 91.4964 64.5584 92.3305C66.1046 93.4972 67.1412 94.8525 67.9694 96.4421C68.5082 97.5564 69.2879 99.2954 69.7586 100.272C70.2293 101.248 70.3674 101.409 70.3574 101.378" stroke="black" stroke-width="6.5" stroke-linecap="round"/>
<path d="M52.5264 82.8428C54.7275 82.9908 56.9287 83.1388 59.5508 83.3312C62.1729 83.5237 65.1493 83.756 66.8685 83.906C68.5877 84.0561 68.9595 84.1168 69.3759 84.1794" stroke="black" stroke-width="6.5" stroke-linecap="round"/>
<path d="M35.1733 79.9683H70.0665" stroke="black" stroke-width="6.5" stroke-linecap="round"/>
<path d="M25.3423 71.4268H68.9819" stroke="black" stroke-width="6.5" stroke-linecap="round"/>
<path d="M19.1133 62.4126H68.4334" stroke="black" stroke-width="6.5" stroke-linecap="round"/>
<path d="M115.925 62.834C115.925 62.8527 115.925 63.5824 116.231 67.2924C116.537 70.2824 117.15 75.5206 117.433 84.3603C117.716 93.1999 117.651 105.482 117.583 118.137" stroke="black" stroke-width="6.5" stroke-linecap="round"/>
<path d="M122.461 110.219C122.461 110.197 122.461 110.174 122.504 106.417C122.547 102.661 122.633 95.1699 122.747 90.6793C122.861 86.1887 123.001 84.9251 123.073 81.5754C123.145 78.2257 123.145 72.8282 122.94 69.9754C122.736 67.1226 122.327 66.9781 122.087 67.1002C120.234 68.042 121.501 72.3127 121.266 73.5122C121.203 73.8305 121.071 73.5085 121.007 73.2205C120.886 72.6788 120.862 71.3781 121.048 69.755C121.119 69.1395 121.607 69.0461 122.365 69.1621C124.289 69.4567 127.591 71.0084 131.968 73.2679C134.22 74.4306 136.351 75.9671 137.774 76.8779C139.197 77.7888 139.8 78.1147 145.488 79.7604C151.176 81.4061 161.932 84.3619 169.447 86.6029C176.962 88.8439 180.911 90.2806 184.159 91.5783C187.406 92.8761 189.833 93.9913 192.267 95.1685C197.095 97.5026 200.003 99.1689 201.053 100.084C203.637 102.337 204.752 104.822 205.899 109.428C206.137 110.383 206.112 110.683 205.52 110.842C204.928 111.002 203.722 111.023 200.176 110.686C196.631 110.349 190.782 109.652 178.145 109.241C165.508 108.829 146.26 108.724 136.333 108.33C126.405 107.937 126.381 107.258 126.795 104.579C127.209 101.9 128.062 97.2401 128.587 92.0807C129.112 86.9213 129.284 81.4033 129.32 78.1207C129.356 74.838 129.251 73.9579 128.8 77.4385C128.35 80.919 127.558 88.7869 127.15 94.8773C126.742 100.968 126.742 105.042 126.791 107.299C126.839 109.557 126.935 109.873 127.05 110.162C127.164 110.452 127.294 110.704 127.577 110.837C128.237 111.145 130.562 110.223 133.35 108.903C134.359 108.425 134.359 107.986 134.162 104.589C133.966 101.192 133.525 94.7598 133.145 90.7584C132.632 85.3616 132.086 81.8838 132.06 82.1636C131.838 84.5125 132.212 91.3833 132.365 96.2794C132.518 101.176 132.7 103.899 132.535 104.545C132.371 105.191 131.854 103.676 131.559 101.272C131.264 98.8675 131.206 95.6192 131.634 91.9661C132.063 88.3131 132.979 84.3538 133.523 82.1407C134.155 79.5668 134.369 77.9818 135.523 76.1651C137.367 73.2603 142.161 76.0527 143.928 76.5201C144.817 76.7553 145.654 77.116 150.157 79.4449C154.66 81.7739 162.794 86.0932 167.647 88.5561C172.501 91.0189 173.828 91.4945 177.484 92.3405C181.139 93.1865 187.083 94.3886 191.194 95.1532C197.387 96.3048 199.894 96.6479 200.567 96.9594C201.286 97.292 202.347 98.2594 203.551 99.728C204.6 101.007 204.53 102.556 204.474 103.572C204.45 104.011 204.297 104.281 204.023 104.525C202.86 105.56 201.692 105.399 199.358 105.458C197.478 105.505 194.184 105.434 189.05 105.323C183.915 105.211 177.039 105.021 167.002 105.178C156.965 105.335 143.976 105.844 137.255 105.901C130.534 105.959 130.476 105.549 130.62 105.16C130.929 104.322 132.857 103.487 136.218 102.307C138.168 101.622 140.705 101.024 150.706 100.386C160.707 99.7473 178.119 99.1543 187.225 98.8642C196.33 98.574 196.603 98.6046 197.494 98.6517C199.883 98.778 201.854 98.9232 202.511 99.2095C202.787 99.3294 202.775 99.6759 202.674 99.8948C201.811 101.766 197.137 101.985 194.946 102.223C192.723 102.464 190.267 102.061 186.669 101.129C184.085 100.459 180.048 99.0727 173.999 97.8354C167.949 96.598 160.032 95.4705 155.345 94.5714C150.659 93.6724 149.443 93.0361 146.708 91.0226C143.973 89.009 139.755 85.6375 137.296 83.5939C134.193 81.0167 133.539 80.0781 133.667 79.7761C133.772 79.529 134.574 79.7846 139.483 81.6086C144.391 83.4326 153.54 86.9944 160.6 90.1596C167.659 93.3248 172.352 95.9855 175.773 97.776C179.194 99.5665 181.201 100.406 181.668 100.685C182.135 100.963 181.002 100.655 175.795 98.6211C170.588 96.5876 161.342 92.8384 154.45 90.2688C147.558 87.6992 143.302 86.4228 141.176 87.3866C136.935 89.3082 139.417 95.5482 139.732 96.6593C140.007 97.6312 141.631 98.4132 143.893 99.4451C148.816 101.691 151.941 101.398 152.971 101.193C153.403 101.107 153.483 100.577 150.998 97.9979C148.513 95.419 143.418 90.6844 140.255 87.8903C137.092 85.0962 136.015 84.3862 135.536 84.1788C135.057 83.9714 135.207 84.2881 135.501 84.7633C136.194 85.8841 137.962 87.9356 141.144 91.0637C142.958 92.8464 145.494 94.6862 148.019 96.4175C150.544 98.1488 153.064 99.6291 151.408 98.5241C149.752 97.4191 143.845 93.684 141.465 92.0943C139.086 90.5047 140.413 91.1736 143.89 92.4541C147.367 93.7346 152.955 95.6065 158.712 97.5351" stroke="black" stroke-width="6.5" stroke-linecap="round"/>
<path d="M76.9429 85.1904C77.1306 85.1904 79.0119 85.7008 83.4012 87.5182C86.0936 88.633 89.3761 90.9135 91.5044 92.3077C94.4746 94.2533 95.4571 95.2756 96.268 96.473C97.7641 98.9341 99.0617 101.468 99.7701 104.025C100.126 105.639 100.476 107.897 100.611 110.41" stroke="black" stroke-width="6.5" stroke-linecap="round"/>
<path d="M71.3765 77.9463C71.4074 77.9463 73.0634 77.9673 76.5786 78.3313C80.6193 78.7497 83.3525 80.394 85.9298 81.9806C87.823 83.1461 90.7775 85.2442 93.1281 87.0756C95.4788 88.9069 97.1035 90.4593 98.4744 91.9072C100.999 94.5732 102.933 97.5653 104.556 100.499C105.865 102.863 106.372 105.028 106.665 107.06C106.818 108.114 106.823 109.237 106.18 108.825C105.537 108.413 104.205 106.437 101.891 103.833C99.5777 101.229 96.3223 98.0562 92.0006 94.2743C87.679 90.4924 82.3899 86.1979 79.3982 83.8542C76.4066 81.5105 75.8727 81.2478 75.4148 81.0722C74.9569 80.8966 74.5911 80.816 73.8468 80.6965" stroke="black" stroke-width="6.5" stroke-linecap="round"/>
</svg>
