<svg width="240" height="186" viewBox="0 0 240 186" fill="none" xmlns="http://www.w3.org/2000/svg">
<path d="M108.528 4.50195C119.887 0.37939 131.496 1.00098 140 1.00098C142.274 1.00098 143.906 1.32362 145.047 1.89062C146.168 2.44798 146.831 3.24901 147.175 4.27148C147.526 5.31557 147.553 6.62488 147.319 8.19531C147.086 9.76147 146.6 11.5455 145.962 13.5195C145.324 15.493 144.543 17.6343 143.724 19.9189C142.906 22.1997 142.053 24.6174 141.28 27.126C139.735 32.1409 138.5 37.5444 138.5 43.001C138.5 52.5495 135.526 57.9857 130.709 61.1289C125.838 64.3072 118.986 65.2118 111.065 65.4346C107.79 65.5267 104.738 63.781 102.971 60.9893C100.2 56.6133 98.136 53.7176 95.7695 51.793C93.3779 49.8479 90.7137 48.9215 86.8105 48.3799C80.7615 47.5406 76.5477 41.9921 78.6963 36.4736C86.1038 17.4483 97.2094 8.61006 108.528 4.50195Z" fill="#EDE6D6" stroke="black"/>
<path d="M108.698 4.97168C119.955 0.885974 131.46 1.50098 140 1.50098C142.235 1.50098 143.781 1.82008 144.824 2.33887C145.829 2.83838 146.401 3.53643 146.701 4.43066C147.016 5.36797 147.054 6.58715 146.825 8.12109C146.598 9.64683 146.121 11.401 145.486 13.3662C144.852 15.3298 144.075 17.4608 143.254 19.75C142.436 22.0315 141.579 24.4584 140.803 26.9785C139.251 32.0144 138 37.4726 138 43.001C138 52.4353 135.071 57.6854 130.436 60.71C125.692 63.8046 118.97 64.7118 111.052 64.9346C107.966 65.0214 105.073 63.3764 103.393 60.7217C100.625 56.3507 98.5228 53.388 96.085 51.4053C93.5967 49.3816 90.833 48.4334 86.8789 47.8848C81.055 47.0767 77.1632 41.7895 79.1621 36.6553C86.52 17.7573 97.5216 9.02818 108.698 4.97168Z" fill="#EDE6D6" stroke="black" stroke-width="2"/>
<path d="M12 68.4934C12 64.3552 15.3547 61.0005 19.4929 61.0005H220L70.9202 69.5005L20.439 75.9263C15.9614 76.4962 12 73.0071 12 68.4934Z" fill="black"/>
<path d="M221.203 65.5107C221.922 63.1264 220.039 60.7579 217.554 60.9216L69.0324 70.7071C68.9765 70.7108 68.9209 70.719 68.8663 70.7315C67.6367 71.0143 67.8604 72.8279 69.1218 72.8034L215.047 69.9655C217.828 69.9114 220.283 68.1352 221.203 65.5107Z" fill="black"/>
<path d="M221.203 78.6123C221.922 80.9967 220.039 83.3652 217.554 83.2015L69.0324 73.4159C68.9765 73.4122 68.9209 73.4041 68.8663 73.3915C67.6367 73.1088 67.8604 71.2951 69.1218 71.3196L215.047 74.1576C217.828 74.2117 220.283 75.9878 221.203 78.6123Z" fill="black"/>
<path d="M15.148 76.2389C10.4168 70.803 14.1718 62.3154 21.3764 62.1603L49.2151 61.5622C54.6546 61.4453 55.9412 69.1056 50.7623 70.7723C47.1747 71.9266 44.9443 75.5029 45.4868 79.2323L46.8895 88.8739C48.1105 97.2672 37.6355 102.075 32.0671 95.6774L15.148 76.2389Z" fill="#EDE6D6" stroke="black" stroke-width="3"/>
<path d="M222.5 47.5004C231 85.5004 198.624 65.1348 166.5 62.5004C135.572 62.5004 122 69.6294 122 44.5004C122 -13.9995 135.572 2.00041 166.5 2.00041C197.428 2.00041 214 9.50041 222.5 47.5004Z" fill="black"/>
<path d="M94.8206 51.4899L113.821 52.1768L136 52.9788L94.8206 51.4899ZM94.8206 51.4899C95.652 54.2479 93.0599 56.8126 90.3109 55.9518L86.5437 54.7723C84.9321 54.2677 83.1796 54.5061 81.7614 55.4229L80.5558 56.2022C77.5113 58.1704 73.5679 58.0551 70.6436 55.9125L68 53.9756" stroke="black" stroke-width="6" stroke-linecap="round"/>
<path d="M60.5 33.1919C60.4998 39.543 55.3511 44.6919 49 44.6919C42.6489 44.6919 37.5002 39.543 37.5 33.1919C37.5 32.7869 37.4999 32.4381 37.502 32.1372C39.3497 33.1187 42.6272 34.5851 48.3682 34.686L49 34.6919C55.1332 34.6919 58.5824 33.1542 60.4971 32.1372C60.4992 32.4381 60.5 32.7869 60.5 33.1919Z" stroke="black" stroke-width="3"/>
<path d="M45.2549 43.0864C46.3067 43.121 47.5418 43.1431 48.9912 43.1431C51.4255 43.1431 53.2062 43.1249 54.4951 43.1099C53.4971 43.4379 51.9022 43.6743 49.6084 43.6743C48.0044 43.6743 46.5093 43.4385 45.2549 43.0864Z" fill="black" stroke="black" stroke-width="3"/>
<path d="M49 46.0005V60.0005" stroke="black" stroke-width="3" stroke-linecap="round"/>
<path d="M48 57.1143L57.5 61.0662C56.5112 61.4246 55.4578 61.5699 54.4088 61.4927L48.6181 61.0662L48 57.1143Z" fill="black"/>
<path d="M49.1545 57.4995L39.0122 61.2704L39.5907 61.3795C40.3736 61.5271 41.1741 61.5569 41.9658 61.468L48.9947 60.6787L49.1545 57.4995Z" fill="black"/>
<path d="M117 21.5005C117 22.9414 114.314 25.0005 111 25.0005C107.686 25.0005 105 23.4413 105 22.0003C105 20.5594 107.686 23.9568 111 23.9568C114.314 23.9568 117 20.0595 117 21.5005Z" fill="black"/>
<path d="M117 24.3914C117 25.8324 114.314 27.0005 111 27.0005C107.686 27.0005 105 25.8324 105 24.3914C105 22.9504 107.686 25.9568 111 25.9568C114.314 25.9568 117 22.9504 117 24.3914Z" fill="black"/>
<path d="M117 26.3914C117 27.8324 114.314 29.0005 111 29.0005C107.686 29.0005 105 27.8324 105 26.3914C105 24.9504 107.686 27.9568 111 27.9568C114.314 27.9568 117 24.9504 117 26.3914Z" fill="black"/>
<path d="M105 21.6096C105 20.1686 107.686 19.0005 111 19.0005C114.314 19.0005 117 20.1686 117 21.6096C117 23.0505 114.314 20.0442 111 20.0442C107.686 20.0442 105 23.0505 105 21.6096Z" fill="black"/>
<circle cx="112.5" cy="21.5005" r="1.5" fill="black"/>
<path d="M217.378 63.2793L217.438 62.3966C217.588 60.1529 220.626 59.5797 221.583 61.6145C221.848 62.178 221.86 62.8281 221.614 63.4005L221.346 64.0265C220.823 65.2468 220.995 66.6541 221.797 67.7124L223.547 70.0231C227.251 74.9124 223.5 81.8923 217.378 81.5005" stroke="black" stroke-width="3" stroke-linecap="round"/>
<path d="M224.5 74.0004C226.143 85.5005 213.866 81.0004 210 81.0004C206.134 81.0004 203 77.8664 203 74.0004C203 70.1344 206.134 67.0004 210 67.0004C213.866 67.0004 222.5 60.0006 224.5 74.0004Z" fill="black"/>
<path d="M218.322 80.7716C216.599 81.9942 215.861 84.3354 216.81 86.409L222.67 99.2113C226.049 106.596 220.366 114.926 212.257 114.474L70.197 106.55C61.0104 106.037 54.0172 98.11 54.6552 88.9312L54.698 88.3223C55.3228 79.336 63.0395 72.5112 72.0349 72.9897L218.322 80.7716Z" stroke="black" stroke-width="5"/>
<path d="M214.699 81.348L207.42 96.9751C201.41 109.879 186.141 115.551 173.164 109.699L145 97.0005" stroke="black" stroke-width="4" stroke-linecap="round"/>
<path d="M215.699 112.118L208.42 96.4907C202.41 83.587 187.141 77.9153 174.164 83.7664L146 96.4653" stroke="black" stroke-width="4" stroke-linecap="round"/>
<path d="M203 113L215 81.0005" stroke="black" stroke-width="3" stroke-linecap="round"/>
<path d="M149 95.5005C149 100.195 145.765 104 141.774 104C137.783 104 141.774 100.195 141.774 95.5005C141.774 90.8061 137.783 87.0005 141.774 87.0005C145.765 87.0005 149 90.8061 149 95.5005Z" fill="black"/>
<path d="M114.886 101.648C131.437 106.445 135.596 99.677 138.332 101.348C141.069 103.019 137.34 107.479 136.394 109.028C135.448 110.577 125.359 110.034 122.623 108.363C119.886 106.691 113.94 103.197 114.886 101.648Z" fill="black"/>
<path d="M139.5 96.0005C139.5 98.7619 131.918 101.5 127.5 101.5C123.082 101.5 116 98.7619 116 96.0005C116 93.2391 119.582 91.0005 124 91.0005C128.418 91.0005 127.5 96.0005 139.5 96.0005Z" fill="#D9D9D9"/>
<circle cx="120" cy="96.0005" r="2" fill="black"/>
<circle cx="201" cy="96.0005" r="2" fill="black"/>
<path d="M194.917 111.368C194.968 111.368 195.985 110.892 197.63 110.031C198.957 109.336 199.628 109.008 200.122 108.53C200.556 108.11 201.402 107.373 202.083 106.648C203.339 105.31 203.886 104.47 204.051 104.391C204.105 104.365 204.119 104.453 203.653 105.415C203.186 106.377 202.243 108.232 201.719 109.238C201.137 110.354 200.932 110.542 200.538 110.748C200.248 110.859 199.776 110.984 199.489 111.049C199.202 111.113 199.114 111.113 198.934 110.956" stroke="black" stroke-width="3" stroke-linecap="round"/>
<path d="M207.558 101.161C207.583 101.161 208.171 101.161 209.583 101.05C210.426 100.983 211.506 100.715 212.366 100.49C213.227 100.265 213.83 100.044 214.483 99.7086C215.135 99.3735 215.818 98.9308 216.36 98.5186C216.901 98.1065 217.28 97.7383 217.641 97.3147C218.331 96.4229 218.863 95.5067 219.198 94.7162C219.341 94.3596 219.428 94.0936 219.52 93.7251" stroke="black" stroke-width="3" stroke-linecap="round"/>
<path d="M205.463 108.034C205.463 108.037 205.463 108.04 206.126 108.027C206.788 108.014 208.113 107.986 209.41 107.875C210.707 107.765 211.937 107.574 212.974 107.371C214.011 107.168 214.817 106.959 215.658 106.682C216.499 106.404 217.349 106.064 218.043 105.73C218.737 105.396 219.249 105.078 219.954 104.563C220.66 104.048 221.544 103.345 222.102 102.868C222.661 102.391 222.867 102.162 223.171 101.78" stroke="black" stroke-width="3" stroke-linecap="round"/>
<path d="M71.5537 73.5005H98C103.799 73.5005 108.5 78.2015 108.5 84.0005V112.813C108.5 119.594 102.168 124.597 95.5713 123.029L73.71 117.832C69.6987 116.878 66.6168 113.664 65.8311 109.617L61.2461 86.0015C59.988 79.5207 64.9519 73.5005 71.5537 73.5005Z" fill="#EDE6D6" stroke="black" stroke-width="3"/>
<circle cx="51" cy="85.0005" r="4" stroke="black" stroke-width="2"/>
<path d="M52 85.0005C49.7909 85.0005 48 86.7913 48 89.0005C48 89.3358 48.2069 89.8592 48.7803 90.5337C49.3314 91.182 50.1201 91.8493 51.0225 92.4556C51.9209 93.0592 52.8985 93.5796 53.8037 93.9458C54.7022 94.3092 55.4525 94.4873 55.9551 94.4976C55.9677 94.4573 55.9836 94.3957 55.9951 94.3062C56.054 93.8459 55.9674 93.1125 55.751 92.2046C55.3197 90.3953 55.0439 88.5746 54.4375 87.1001C54.1444 86.3875 53.8101 85.8613 53.4248 85.5181C53.0642 85.1969 52.6216 85.0005 52 85.0005Z" stroke="black" stroke-width="2"/>
<path d="M52 89.0005C49.7909 89.0005 48 90.7913 48 93.0005C48 93.3358 48.2069 93.8592 48.7803 94.5337C49.3314 95.182 50.1201 95.8493 51.0225 96.4556C51.9209 97.0592 52.8985 97.5796 53.8037 97.9458C54.7022 98.3092 55.4525 98.4873 55.9551 98.4976C55.9677 98.4573 55.9836 98.3957 55.9951 98.3062C56.054 97.8459 55.9674 97.1125 55.751 96.2046C55.3197 94.3953 55.0439 92.5746 54.4375 91.1001C54.1444 90.3875 53.8101 89.8613 53.4248 89.5181C53.0642 89.1969 52.6216 89.0005 52 89.0005Z" stroke="black" stroke-width="2"/>
<path d="M84.1441 103.683C96.5683 117.324 93.8711 94.8239 84.1441 103.683C93.7316 94.951 87.8068 59.0029 99.7038 72.0652C110.31 83.7103 104.704 115.708 96.5693 128.702C94.9404 131.304 91.0335 132.053 90.4954 129.031C89.5463 123.7 93.0898 113.505 84.1441 103.683Z" fill="black"/>
<circle cx="90" cy="105" r="2" fill="black"/>
<path d="M85.5343 117C85.5343 119.21 78.2512 116 69.2671 116C60.283 116 53 119.21 53 117C53 114.791 60.283 113 69.2671 113C78.2512 113 85.5343 114.791 85.5343 117Z" fill="black"/>
<path d="M98 123L145 120.5L205.5 115H214" stroke="black" stroke-width="3" stroke-linecap="round"/>
<path d="M108 118.5L140.5 117L182.5 114" stroke="black" stroke-width="3" stroke-linecap="round"/>
<path d="M109 114.5L141.5 113L160.5 112.5" stroke="black" stroke-width="3" stroke-linecap="round"/>
<path d="M140 111L155 147.5" stroke="black" stroke-width="3" stroke-linecap="round"/>
<path d="M203 115L188 151.5" stroke="black" stroke-width="3" stroke-linecap="round"/>
<path d="M155.5 138.5C159.781 138.5 163.5 142.385 163.5 147.5C163.5 152.616 159.781 156.5 155.5 156.5C151.219 156.5 147.5 152.616 147.5 147.5C147.5 142.385 151.219 138.5 155.5 138.5Z" fill="#EDE6D6" stroke="black" stroke-width="3"/>
<circle cx="24.5" cy="71.5005" r="4" fill="#EDE6D6" stroke="black" stroke-width="3"/>
<circle cx="12.5" cy="87.5005" r="4" fill="#EDE6D6" stroke="black" stroke-width="3"/>
<path d="M188.5 138.5C192.781 138.5 196.5 142.385 196.5 147.5C196.5 152.616 192.781 156.5 188.5 156.5C184.219 156.5 180.5 152.616 180.5 147.5C180.5 142.385 184.219 138.5 188.5 138.5Z" fill="#EDE6D6" stroke="black" stroke-width="3"/>
<path d="M162 141C168.183 139.048 174.817 139.048 181 141" stroke="black" stroke-width="3" stroke-linecap="round"/>
<path d="M13.2445 81.8641C14.3239 78.3201 16.5366 75.2283 19.5428 73.0632" stroke="black" stroke-width="3" stroke-linecap="round"/>
<path d="M171 140L180.5 184" stroke="black" stroke-width="3" stroke-linecap="round"/>
<path d="M180.5 184H168.5" stroke="black" stroke-width="3" stroke-linecap="round"/>
<path d="M16 77.0005L24.5529 96.0003" stroke="black" stroke-width="3" stroke-linecap="round"/>
<path d="M24.5528 96.0006L29 94.1714" stroke="black" stroke-width="3" stroke-linecap="round"/>
<path d="M206.914 109.276C206.914 109.593 207.078 110.358 207.292 110.742C207.401 110.94 207.268 111.235 207.149 111.445C207.029 111.655 206.864 111.795 206.669 111.869C206.474 111.942 206.254 111.945 206.06 111.866C205.867 111.787 205.707 111.626 205.653 111.458C205.599 111.29 205.656 111.119 205.803 111.05C206.715 110.62 208.277 111.364 209.287 111.632C210.773 112.026 213.941 112.082 216.084 111.926C217.612 111.814 218.732 110.427 219.341 109.425C220.065 108.233 220.409 106.063 220.351 103.203C220.279 99.7206 218.454 96.9255 217.134 95.0763C214.258 91.0463 214.972 88.6348 214.386 88.1076C211.36 85.3828 213.322 93.5187 212.361 94.8413C211.341 96.2462 209.904 97.8156 209.254 99.8042C208.961 100.701 208.83 102.318 208.694 104.232C208.401 108.33 208.696 110.666 209.073 110.748C210.041 110.96 211.105 110.762 212.573 111.042C214.438 111.397 215.875 111.053 216.39 110.669C218.187 109.327 218.709 107.534 218.968 106.97C220.026 104.666 215.518 109.52 214.478 109.719C211.749 110.242 210.475 109.421 210.099 109.311C209.731 109.203 212.29 107.496 216.152 105.056C217.703 104.077 217.855 102.841 217.425 100.793C216.994 98.7454 215.83 95.7238 215.019 95.1707C214.208 94.6177 213.784 96.6249 213.191 98.6698C212.597 100.715 211.847 102.737 211.401 104.419C210.955 106.102 210.835 107.384 210.837 107.95C210.84 108.515 210.968 108.326 211.105 108.056C211.682 106.916 211.729 103.259 212.325 100.08C213.11 95.8947 214.197 92.7477 214.403 92.3755C214.454 92.2852 214.142 92.8419 214.036 94.6054C213.782 98.8542 214.001 101.962 214.167 102.663C214.411 103.693 214.678 104.471 214.897 104.778C215.008 104.932 215.222 104.996 215.409 105.01C215.596 105.024 215.777 104.964 215.993 104.679C216.546 103.949 216.79 102.77 216.871 101.711C217.007 99.9212 215.475 98.6164 215.347 98.2661C215.02 97.3692 215.975 104.528 216.502 106.379C216.632 106.836 216.921 107.288 217.249 107.688C217.71 108.253 218.921 107.761 219.884 107.85C220.228 107.882 220.228 108.147 220.303 108.193C220.496 108.311 220.812 107.833 221.117 107.475C221.432 107.106 221.635 106.707 221.701 104.98C221.868 100.626 221.63 97.3173 221.474 96.6466C221.278 95.8026 221.083 95.2337 221.058 95.083C220.93 94.33 221.755 97.0183 222.16 98.294C222.329 98.7707 222.423 99.2178 222.468 99.9429C222.484 100.458 222.484 101.274 222.224 101.701" stroke="black" stroke-width="3" stroke-linecap="round"/>
<path d="M113.244 114.473C113.17 114.284 112.847 113.611 112.352 112.912C112.136 112.606 111.833 112.396 111.759 112.177C111.631 111.799 113.311 112.056 115.294 112.376C117.511 112.734 119.433 112.892 121.023 113.202C122.95 113.578 125.917 113.069 128.99 112.658C130.227 112.493 130.822 112.517 131.137 112.6C131.452 112.682 131.473 112.85 131.428 113.068C131.199 114.181 129.861 114.699 128.796 114.976C127.943 115.198 126.583 115.134 124.392 115.286C121.12 115.512 118.607 116.053 117.536 116.087C116.043 116.135 114.216 116.557 111.05 116.686C110.618 116.703 110.865 116.508 111.133 116.417C111.401 116.327 111.686 116.279 113.301 116.231C114.917 116.183 117.854 116.135 120.149 116.205C122.444 116.274 124.008 116.463 125.942 116.549C127.876 116.635 130.131 116.613 131.833 116.435C134.645 116.142 136.593 115.23 138.729 114.538C139.977 114.133 141.638 113.886 143.071 113.725C144.505 113.563 145.682 113.563 147.033 113.664C148.385 113.765 149.876 113.966 151.609 114.071C153.342 114.177 155.271 114.181 157.243 113.981C159.215 113.781 161.171 113.377 162.594 113.174C164.016 112.971 164.847 112.982 165.77 113.056" stroke="black" stroke-width="4" stroke-linecap="round"/>
<path d="M108.493 120.055C108.48 120.055 108.632 119.95 109.947 119.784C113.224 119.37 115.915 119.591 117.792 119.424C119.21 119.297 121.592 119.337 123.762 119.205C125.933 119.073 127.825 118.832 129.565 118.707C134.668 118.342 135.453 118.362 137.626 118.229C139.553 118.111 143.164 118.072 145.24 117.974C147.315 117.875 147.747 117.764 151.293 117.479C154.838 117.193 161.484 116.737 164.991 116.483C168.666 116.218 169.15 116.123 170.739 115.948C172.014 115.807 174.239 115.554 176.574 115.424C181.281 115.162 183.959 115.263 184.423 115.2C184.664 115.165 184.916 115.126 185.201 115.104C185.485 115.083 185.794 115.08 186.195 115.046" stroke="black" stroke-width="4" stroke-linecap="round"/>
<path d="M183 100L187.5 111.5" stroke="black" stroke-width="3" stroke-linecap="round"/>
<path d="M177 102L181.5 113.5" stroke="black" stroke-width="3" stroke-linecap="round"/>
</svg>
