<svg width="488" height="452" viewBox="0 0 488 452" fill="none" xmlns="http://www.w3.org/2000/svg">
<path d="M137.351 345.125C137.351 345.483 137.421 346.488 137.72 348.155C137.963 349.509 138.334 351.906 138.672 353.573C139.19 356.127 139.613 357.147 139.71 357.503C139.836 357.971 140.063 358.697 140.541 360.203C140.874 361.25 141.511 362.83 142.101 364.203C142.691 365.575 143.246 366.681 143.61 367.357C143.974 368.033 144.13 368.247 144.244 368.394C144.358 368.542 144.425 368.616 144.565 368.806" stroke="black" stroke-width="5" stroke-linecap="round"/>
<path d="M144.176 367.827C144.183 367.958 144.346 368.433 144.986 369.207C145.331 369.626 145.645 369.964 146.288 370.818C146.507 371.108 147.236 371.783 148.241 372.789C148.787 373.335 149.2 373.81 149.882 374.427C150.718 375.185 151.66 376.024 152.407 376.852C152.729 377.209 152.965 377.406 153.867 378.195C154.769 378.983 156.339 380.35 157.533 381.448C158.726 382.547 159.497 383.336 159.993 383.815C161.034 384.703 161.629 385.247 162.198 385.811C162.47 386.073 162.708 386.284 162.954 386.502" stroke="black" stroke-width="5" stroke-linecap="round"/>
<path d="M137.417 345.502C137.417 345.499 137.417 345.495 137.417 344.098C137.417 342.7 137.417 339.908 137.575 337.338C137.733 334.769 138.049 332.506 138.226 330.864C138.402 329.221 138.431 328.268 138.469 327.637C138.507 327.006 138.554 326.726 138.894 325.74C139.234 324.755 139.865 323.074 140.431 321.703C140.997 320.332 141.478 319.322 142.106 318.164C142.734 317.006 143.495 315.729 145.662 312.978C147.829 310.226 151.378 306.038 153.349 303.754C155.32 301.471 155.604 301.218 155.954 300.959C156.304 300.7 156.712 300.442 157.603 300.142C158.495 299.841 159.859 299.506 161.369 299.33C162.879 299.153 164.495 299.146 165.819 299.23C167.143 299.314 168.127 299.49 168.798 299.648C169.469 299.806 169.796 299.94 170.134 300.078" stroke="black" stroke-width="5" stroke-linecap="round"/>
<path d="M180.782 365.022C180.782 365.015 180.782 364.385 180.762 363.336C180.754 362.913 180.701 362.713 179.286 359.443C177.871 356.173 175.083 349.84 173.414 345.825C171.746 341.811 171.281 340.306 171.002 339.276C170.59 337.747 170.573 336.428 170.653 335.155C170.727 333.986 172.35 333.27 173.428 332.763C174.789 332.123 176.075 332.592 177.134 332.969C178.05 333.296 179.703 333.981 181.11 334.617C182.517 335.252 183.619 335.839 184.139 336.177C184.66 336.515 184.565 336.588 184.468 336.664" stroke="black" stroke-width="5" stroke-linecap="round"/>
<path d="M156.582 335.413C156.583 335.57 156.651 336.031 156.882 336.955C157.029 337.54 157.315 338.585 157.505 339.245C157.766 340.151 157.978 340.597 158.148 340.943C158.255 341.16 158.32 341.272 158.461 341.572C158.582 341.832 158.813 342.306 159.032 342.836C159.251 343.366 159.453 343.937 159.783 344.676C160.112 345.416 160.562 346.306 160.843 346.887C161.124 347.468 161.222 347.713 161.479 348.151C161.736 348.589 162.149 349.212 162.556 349.895" stroke="black" stroke-width="5" stroke-linecap="round"/>
<path d="M160.986 347.254C161.019 347.3 161.129 347.456 161.295 347.72C161.558 348.139 161.744 348.455 161.804 348.568C162.113 349.159 162.447 349.835 162.585 350.128C162.655 350.276 162.776 350.517 163.858 352.237C164.94 353.957 166.981 357.148 168.113 358.887C169.245 360.626 169.407 360.815 169.576 361.021" stroke="black" stroke-width="5" stroke-linecap="round"/>
<path d="M168.009 358.377C168.023 358.431 168.139 358.676 168.687 359.412C169.134 360.012 169.977 361.034 170.73 362.015C171.482 362.995 172.132 363.894 172.877 365.078C173.622 366.262 174.442 367.703 174.982 368.591C175.523 369.48 175.759 369.771 176.111 370.181C176.462 370.59 176.922 371.109 177.181 371.398C177.44 371.686 177.484 371.728 177.485 371.73C177.485 371.732 177.441 371.692 177.394 371.652" stroke="black" stroke-width="5" stroke-linecap="round"/>
<path d="M157.226 336.859C157.193 336.667 157.1 336.201 156.983 335.096C156.924 334.53 156.948 333.702 156.978 333.192C156.992 332.949 157.117 332.701 157.367 332.236C157.523 331.947 157.86 331.449 158.212 330.985C158.564 330.522 158.938 330.118 159.487 329.632C160.036 329.147 160.749 328.593 161.425 328.128C162.102 327.663 162.722 327.304 163.161 327.07C163.6 326.837 163.839 326.739 164.103 326.642C164.368 326.544 164.65 326.45 165.323 326.197C165.996 325.944 167.051 325.536 167.709 325.304C168.366 325.071 168.593 325.027 170.313 324.928C172.032 324.83 175.237 324.679 176.863 324.593C178.49 324.507 178.441 324.49 178.39 324.473" stroke="black" stroke-width="5" stroke-linecap="round"/>
<path d="M175.552 324.599C176.013 324.599 177.114 324.576 177.447 324.488C177.573 324.455 177.764 324.434 178.321 324.41C178.879 324.386 179.798 324.366 180.44 324.323C181.082 324.279 181.418 324.211 181.592 324.155C181.767 324.098 181.769 324.055 181.772 324.01" stroke="black" stroke-width="5" stroke-linecap="round"/>
<path d="M158.69 362.464C158.69 362.46 158.703 362.506 159.705 363.855C160.679 365.166 162.659 367.707 163.851 369.331C165.044 370.956 165.404 371.576 166.057 372.501C166.71 373.426 167.644 374.638 168.119 375.279C168.593 375.92 168.58 375.955 168.566 375.991" stroke="black" stroke-width="5.5" stroke-linecap="round"/>
<path d="M159.61 363.632C159.571 363.602 159.447 363.471 159.145 363C158.884 362.593 158.418 361.836 157.671 360.908C156.924 359.98 155.913 358.903 155.046 357.856C154.179 356.809 153.486 355.826 152.987 355.079C152.487 354.331 152.201 353.849 151.956 353.474C151.711 353.099 151.516 352.846 151.277 352.467C151.038 352.088 150.761 351.591 150.556 351.238C150.351 350.884 150.228 350.69 150.132 350.502C150.037 350.314 149.973 350.138 149.894 349.933" stroke="black" stroke-width="5.5" stroke-linecap="round"/>
<path d="M150.16 350.978C150.158 350.859 150.104 350.46 149.294 348.438C149.006 347.58 148.687 346.415 148.492 344.827C148.298 343.238 148.236 341.261 148.193 339.199" stroke="black" stroke-width="5.5" stroke-linecap="round"/>
<path d="M147.871 341.268C147.871 341.265 147.871 341.263 147.86 339.615C147.849 337.967 147.827 334.673 147.822 332.921C147.817 331.061 147.847 330.892 147.877 330.703C147.898 330.569 147.949 330.363 148.139 329.8C148.328 329.238 148.659 328.326 148.876 327.766C149.092 327.206 149.184 327.025 149.279 326.838" stroke="black" stroke-width="5.5" stroke-linecap="round"/>
<path d="M149.095 328.073C149.095 328.003 149.167 327.606 149.537 326.67C149.746 326.14 149.869 325.805 150.001 325.486C150.294 324.777 150.557 324.076 150.816 323.556C150.964 323.256 151.162 322.89 151.451 322.212C151.739 321.534 152.116 320.555 152.33 320.016C152.573 319.404 152.778 319.131 153.382 318.431C153.817 317.926 154.566 317.16 155.15 316.605C155.734 316.05 156.144 315.74 156.651 315.405C157.159 315.07 157.751 314.719 158.721 314.307C159.691 313.896 161.019 313.433 162.55 313.021C164.08 312.61 165.773 312.262 167.644 312.068C169.514 311.874 171.512 311.843 173.001 311.884C174.491 311.925 175.412 312.039 176.384 312.156" stroke="black" stroke-width="5.5" stroke-linecap="round"/>
<path d="M156.64 285.536H216.927" stroke="black" stroke-width="5.5" stroke-linecap="round"/>
<path d="M138.573 271.86H197.674" stroke="black" stroke-width="5.5" stroke-linecap="round"/>
<path d="M182.406 301.852H233.203" stroke="black" stroke-width="5.5" stroke-linecap="round"/>
<path d="M137.479 273.496C137.469 273.496 137.856 273.626 141.248 275.755C144.301 277.671 149.845 281.618 152.821 283.697C155.796 285.777 155.981 285.955 159.533 288.736C163.085 291.517 169.999 296.894 176.127 301.101C182.256 305.308 187.391 308.182 190.118 309.73C192.846 311.278 193.011 311.414 194.712 312.506C196.413 313.598 199.645 315.642 201.822 316.933C204 318.224 205.024 318.7 205.926 319.186C206.829 319.671 207.577 320.151 208.768 320.976C209.959 321.8 211.57 322.955 212.883 324.041C214.197 325.128 215.165 326.111 216.39 327.598C217.616 329.085 219.071 331.046 219.912 332.144C220.752 333.241 220.935 333.416 221.191 333.646" stroke="black" stroke-width="5.5" stroke-linecap="round"/>
<path d="M207.425 316.81H287.513" stroke="black" stroke-width="5.5" stroke-linecap="round"/>
<path d="M211.53 320.2H286.031" stroke="black" stroke-width="5.5" stroke-linecap="round"/>
<path d="M186.275 303.875H230.96" stroke="black" stroke-width="5.5" stroke-linecap="round"/>
<path d="M162.749 288.565H213.14" stroke="black" stroke-width="5.5" stroke-linecap="round"/>
<path d="M429.015 350.946C429.319 350.992 430.174 351.088 432.514 352.386C434.591 353.539 438.305 355.986 440.479 357.399C443.95 359.657 445.856 361.253 447.6 362.456C447.911 362.657 448.201 362.812 448.45 362.951C448.698 363.091 448.896 363.209 449.1 363.332" stroke="black" stroke-width="5.5" stroke-linecap="round"/>
<path d="M402.705 353.667C402.976 353.873 404.465 355.076 407.946 357.948C410.452 360.015 414.609 363.132 416.808 364.847C419.185 366.7 420.008 367.426 422.663 369.536C424.643 371.11 427.85 373.772 430.842 376.063C433.833 378.354 436.499 380.21 438.143 381.406C439.788 382.601 440.332 383.078 440.893 383.571" stroke="black" stroke-width="5.5" stroke-linecap="round"/>
<path d="M383.352 350.893C383.606 350.981 384.804 351.678 387.021 353.734C388.184 354.932 389.993 356.41 395.287 361.049C399.439 364.812 406.563 371.438 413.378 378.407" stroke="black" stroke-width="5.5" stroke-linecap="round"/>
<path d="M370.916 336.089C370.916 336.106 370.954 338.867 371.111 343.788C371.179 345.959 371.424 347.46 371.735 349.581C372.046 351.702 372.466 354.397 373.092 357.46C373.718 360.523 374.538 363.873 375.803 367.915C377.069 371.958 378.756 376.591 380.039 379.734C381.322 382.876 382.149 384.388 383.45 386.247C386.344 390.382 389.066 393.375 390.342 394.831C391.075 395.667 392.702 397.182 395.183 399.532C398.5 402.364 399.839 403.162 400.931 403.658C401.401 403.86 401.696 403.962 402.176 404.41" stroke="black" stroke-width="5.5" stroke-linecap="round"/>
<path d="M402.176 404.41C402.696 404.639 404.218 405.305 406.341 405.843C408.04 406.273 409.445 406.515 410.449 406.665C410.962 406.742 412.682 406.759 415.867 406.764C419.565 406.77 422.747 406.593 424.773 406.293C427.018 405.96 428.321 405.493 429.647 405.097C430.369 404.881 432.639 403.99 435.705 402.832C437.27 402.242 439.466 400.562 442.383 398.43C443.627 397.521 444.18 397.176 445.439 396.015C447.995 393.656 450.595 390.905 452.389 388.918C454.329 386.771 455.253 385.646 457.237 382.369C457.872 381.321 458.974 380.083 460.253 378.476C460.916 377.643 462.366 375.293 464.48 371.633C465.812 369.328 466.862 367.785 468.093 365.737C469.892 362.746 471.344 359.057 472.472 356.176C473.112 354.541 473.504 353.044 474.142 350.978C474.486 349.863 474.772 348.582 475.045 345.139C475.319 341.695 475.545 336.121 475.603 333.124C475.661 330.127 475.543 329.876 475.422 329.618" stroke="black" stroke-width="5.5" stroke-linecap="round"/>
<path d="M336.352 329.79H474.987" stroke="black" stroke-width="5.5" stroke-linecap="round"/>
<path d="M369.853 332.146H474.323" stroke="black" stroke-width="5.5" stroke-linecap="round"/>
<path d="M224.07 332.942H371.194" stroke="black" stroke-width="5.5" stroke-linecap="round"/>
<path d="M218.435 329.555H341.257" stroke="black" stroke-width="5.5" stroke-linecap="round"/>
<path d="M221.692 334.464C221.889 334.74 222.589 335.667 223.797 336.807C225.197 338.128 225.952 338.993 227.052 340.472C227.741 341.4 227.895 342.624 227.995 343.794C228.116 345.215 227.392 347.149 226.577 348.901C226.004 350.131 224.422 351.427 223.228 352.739C221.963 354.13 221.171 355.042 219.438 356.699C217.55 358.504 215.059 360.323 211.337 363.179C208.643 365.246 203.607 369.166 200.355 371.666C197.104 374.165 195.802 375.142 192.504 377.273C189.206 379.404 183.952 382.659 180.063 384.758C176.174 386.857 173.809 387.7 171.959 388.205C166.57 389.677 163.676 388.822 162 387.749C160.988 387.1 160.508 385.766 159.934 384.735C159.828 384.513 159.75 384.306 159.668 384.043C159.585 383.78 159.501 383.466 159.363 382.981" stroke="black" stroke-width="5.5" stroke-linecap="round"/>
<path d="M159.973 383.142C160.143 383.304 160.967 384.04 161.717 384.649C162.675 385.426 166.342 385.298 168.816 384.927C172.433 384.386 173.969 382.834 175.724 381.704C178.549 379.884 180.662 378.462 181.38 378.087C182.391 377.558 183.248 376.999 186.011 375.289C188.476 373.764 193.135 370.967 199.423 366.788C205.71 362.609 213.494 357.148 217.816 354.065C222.806 350.504 223.908 349.303 224.74 348.34C225.511 347.404 226.168 346.652 226.721 345.856C226.888 345.618 227.102 345.349 227.346 344.97" stroke="black" stroke-width="5.5" stroke-linecap="round"/>
<path d="M121.702 267.143V449.067" stroke="black" stroke-width="5.5" stroke-linecap="round"/>
<path d="M126.26 269.294V447.804" stroke="black" stroke-width="5.5" stroke-linecap="round"/>
<path d="M85.2275 239.801C85.2567 239.801 85.7282 239.976 89.3861 242.034C92.6232 243.855 98.5206 247.503 103.435 250.509C108.349 253.514 112.065 255.83 114.668 257.596C118.75 260.367 120.391 261.912 122.431 263.361C127.266 266.795 131.361 269.693 133.056 270.703C133.82 271.157 134.412 271.451 137.901 273.654C141.389 275.856 147.761 279.949 151.344 282.228C155.528 284.852 156.483 285.393 156.813 285.557C156.808 285.534 156.45 285.294 156.081 285.048" stroke="black" stroke-width="5.5" stroke-linecap="round"/>
<path d="M139.566 272.915H198.043" stroke="black" stroke-width="6" stroke-linecap="round"/>
<path d="M461.142 434.121C461.303 433.763 463.425 431.075 465.165 428.513C466.554 426.467 467.304 423.481 468.433 419.65C469.156 417.194 469.986 413.641 470.653 410.558C471.319 407.476 471.745 404.956 471.987 401.963C472.229 398.969 472.273 395.578 472.522 389.752C472.771 383.926 473.223 375.767 473.689 367.361" stroke="black" stroke-width="6" stroke-linecap="round"/>
<path d="M476.689 330.886C476.689 331.126 476.689 335.607 476.645 342.453C476.625 345.433 476.422 347.048 476.394 349C476.382 349.838 476.31 350.363 476.016 356.096C475.723 361.828 475.195 372.751 474.674 379.925C474.153 387.099 473.656 390.194 473.306 393.462C472.956 396.729 472.768 400.076 472.353 403.616" stroke="black" stroke-width="6" stroke-linecap="round"/>
<path d="M474.588 367.611C474.588 367.582 474.507 367.235 474.302 366.578C474.177 366.254 474.011 365.948 473.88 365.658C473.749 365.369 473.659 365.105 473.565 364.834" stroke="black" stroke-width="6" stroke-linecap="round"/>
<path d="M472.483 334.176C472.483 336.28 472.372 340.539 470.671 346.383C469.881 349.097 468.699 353.047 467.279 357.226C465.858 361.405 464.223 365.69 463.222 368.152C461.998 371.164 461.351 371.926 460.095 373.674C459.048 375.133 457.243 377.806 455.488 380.113C453.732 382.42 452.098 384.294 450.601 386.245C447.663 390.072 446.126 392.569 445.194 393.541C442.462 396.004 441.68 396.525 441.126 396.79C440.823 396.913 440.476 397.013 439.979 397.205" stroke="black" stroke-width="6" stroke-linecap="round"/>
<path d="M447.871 389.084C447.261 389.764 445.853 391.611 443.931 393.444C443.361 393.988 442.693 394.371 440.583 395.562C438.474 396.752 434.899 398.691 432.626 399.838C430.352 400.986 429.488 401.283 427.463 401.921C425.438 402.559 422.278 403.529 420.171 404.096C417.133 404.913 413.088 404.912 408.063 404.797C403.62 404.695 400.761 402.531 398.615 401.103C398.234 400.851 397.946 400.668 397.361 400.258C396.776 399.848 395.902 399.216 394.52 398.319" stroke="black" stroke-width="6" stroke-linecap="round"/>
<path d="M412.682 407.474C411.999 407.411 408.324 405.749 403.244 402.845C399.262 400.569 396.902 398.301 394.548 395.737C390.769 391.62 388.642 388.278 387.888 387.405C387.469 386.92 387.052 386.287 385.312 382.135C383.572 377.982 380.541 370.314 378.656 364.664C376.772 359.014 376.125 355.613 375.781 350.695C375.437 345.776 375.415 339.442 375.393 332.916" stroke="black" stroke-width="6" stroke-linecap="round"/>
<path d="M453.422 231.522C453.637 231.576 455.437 232.761 458.503 235C461.046 236.856 463.033 239.326 464.859 241.42C466.565 243.377 468.516 245.172 470.608 247.656C473.016 250.514 475.066 254.552 476.603 258.051C477.285 259.605 477.648 260.762 478.531 263.349C479.413 265.935 480.774 269.93 481.857 273.983C482.94 278.035 483.704 282.024 484.15 286.253C484.597 290.482 484.702 294.832 484.266 299.781C483.829 304.73 482.847 310.147 481.886 314.277C480.924 318.407 480.012 321.087 479.035 323.668C478.057 326.249 477.041 328.65 475.994 331.124" stroke="black" stroke-width="6" stroke-linecap="round"/>
<path d="M456.542 236.505C456.542 236.532 451.762 236.56 444.507 236.226C442.011 236.111 442.009 235.169 442.02 234.654C442.031 234.14 442.077 233.841 442.1 218.843C442.124 203.845 442.124 174.157 442.124 143.569" stroke="black" stroke-width="6" stroke-linecap="round"/>
<path d="M440.976 143.569V237.818" stroke="black" stroke-width="6" stroke-linecap="round"/>
<path d="M449.82 234.677C449.82 234.002 449.638 232.255 449.349 228.174C449.142 225.268 449.209 220.644 449.083 217.673C448.957 214.701 448.736 213.515 448.387 209.641C448.038 205.767 447.568 199.241 447.295 195.736C447 191.942 446.638 188.294 446.08 181.97C445.818 178.998 445.465 176.523 445.174 174.154C444.615 169.603 444.367 165.438 444.268 161.243C444.215 158.96 443.988 156.37 443.845 153.777C443.702 151.185 443.608 148.67 443.502 147.201C443.397 145.731 443.283 145.384 443.134 144.972" stroke="black" stroke-width="6" stroke-linecap="round"/>
<path d="M443.134 144.972C443.134 144.993 443.134 145.015 443.134 147.755C443.134 150.495 443.134 155.952 443.329 159.666C443.523 163.38 443.912 165.185 445.448 169.949C446.983 174.713 449.653 182.382 451.5 190.008C453.347 197.634 454.291 204.986 454.777 209.049C455.263 213.113 455.263 213.665 455.588 216.666C455.912 219.667 456.562 225.1 456.938 228.075C457.315 231.05 457.399 231.402 457.014 231.337C456.63 231.273 455.774 230.779 454.881 229.616C453.987 228.453 453.082 226.636 452.474 222.695C451.867 218.754 451.584 212.746 450.981 207.46C450.379 202.173 449.465 197.791 448.328 188.162C447.19 178.532 445.857 163.788 445.126 156.061C444.395 148.334 444.308 148.07 444.209 147.669C444.111 147.268 444.003 146.737 444.663 148.721C445.324 150.704 446.755 155.217 448.445 162.258C450.134 169.299 452.038 178.733 453.523 188.264C455.007 197.795 456.015 207.138 456.543 212.1C457.07 217.062 457.088 217.359 457.221 219.384C457.354 221.408 457.601 225.15 457.777 228.27C457.953 231.39 458.05 233.775 458.094 236.331" stroke="black" stroke-width="6" stroke-linecap="round"/>
<path d="M445.643 230.55C445.643 230.564 445.643 230.579 445.667 226.573C445.692 222.566 445.74 214.538 445.854 210.853C445.968 207.168 446.145 208.068 446.278 211.096C446.41 214.123 446.493 219.25 446.578 222.187C446.68 225.719 447.698 229.195 449.029 233.714C449.514 235.36 449.54 235.712 449.28 236.251C447.935 239.034 445.319 239.835 443.551 240.311C442.792 240.515 442.273 240.477 443.487 240.528C450.994 240.84 452.768 240.374 454.497 239.74C455.94 239.12 456.981 238.388 457.337 237.857C457.54 237.584 457.787 237.303 457.861 236.582" stroke="black" stroke-width="6" stroke-linecap="round"/>
<path d="M442.29 146.968C442.303 146.883 442.289 146.564 442.088 145.799C441.924 145.176 441.564 144.096 440.941 140.317C440.319 136.537 439.425 130.095 438.877 126.418C438.329 122.74 438.153 122.021 438.058 121.54C437.963 121.059 437.954 120.838 437.907 120.499" stroke="black" stroke-width="6" stroke-linecap="round"/>
<path d="M438.17 122.36C438.169 122.146 438.099 121.336 437.749 119.963C437.497 118.974 436.979 117.421 436.518 115.612C436.057 113.803 435.639 111.792 435.114 109.746C434.588 107.701 433.967 105.682 433.272 103.586" stroke="black" stroke-width="6" stroke-linecap="round"/>
<path d="M440.783 127.622C440.783 127.679 440.788 128.342 440.83 129.402C440.856 130.038 441.2 131.094 441.689 132.907C441.95 133.873 442.4 134.886 442.807 135.789C443.213 136.692 443.605 137.443 444.105 139.023C444.604 140.603 445.2 142.989 445.579 145.977C445.958 148.965 446.103 152.482 446.174 154.361C446.235 156.373 446.212 156.582 446.182 156.803C446.165 156.952 446.145 157.176 446.07 157.435" stroke="black" stroke-width="6" stroke-linecap="round"/>
<path d="M441.966 133.422C441.966 133.372 441.966 133.322 441.491 131.586C441.016 129.85 440.066 126.43 439.222 123.852C438.378 121.274 437.67 119.641 437.232 118.567C436.794 117.493 436.649 117.025 436.566 116.746C436.482 116.467 436.465 116.391 436.611 116.65C436.757 116.91 437.068 117.508 437.57 118.96C438.072 120.413 438.757 122.701 439.905 125.572C441.053 128.444 442.644 131.83 443.689 134.799C444.734 137.768 445.186 140.218 445.445 142.533C445.704 144.848 445.757 146.954 445.811 149.124" stroke="black" stroke-width="6" stroke-linecap="round"/>
<path d="M437.538 122.277C437.538 122.224 437.538 122.172 437.195 121.266C436.852 120.36 436.167 118.602 435.38 115.758C434.593 112.915 433.725 109.041 432.857 105.496C431.988 101.952 431.144 98.8553 430.676 97.16C430.207 95.4647 430.139 95.2648 430.454 95.7859C430.768 96.3071 431.468 97.5554 431.981 98.5831C432.494 99.6109 432.8 100.38 433.401 102.24C434.002 104.099 434.89 107.025 435.701 110.055C436.511 113.084 437.218 116.128 438.07 119.357C438.922 122.586 439.898 125.909 440.417 127.752C440.937 129.596 440.97 129.861 440.987 130.307C441.004 130.752 441.004 131.372 440.87 131.515C440.205 132.226 439.775 130.046 439.371 128.715C439.184 128.096 439.094 127.576 438.908 126.929C438.499 125.507 438.092 124.545 437.916 124.157C437.827 123.962 437.762 123.758 437.291 122.334C436.82 120.91 435.951 118.27 435.634 117.193C435.318 116.116 435.58 116.684 435.955 117.852C436.33 119.021 436.811 120.772 437.407 123.761C438.004 126.749 438.701 130.921 439.064 133.127C439.428 135.334 439.437 135.449 439.547 135.895C439.657 136.342 439.867 137.115 439.424 134.378C438.982 131.64 437.881 125.369 436.812 120.387C435.743 115.405 434.74 111.902 434.199 109.965C433.658 108.029 433.609 107.765 433.559 107.494" stroke="black" stroke-width="6" stroke-linecap="round"/>
<path d="M423.034 75.98C423.034 76.164 423.062 76.4899 423.666 77.947C424.234 79.3181 425.363 81.9596 426.32 84.5117C427.278 87.0639 428.037 89.4436 428.628 91.1472C429.219 92.8508 429.617 93.8063 429.892 94.5392C430.166 95.2721 430.305 95.7536 430.616 96.7048C430.928 97.6561 431.408 99.0627 431.679 99.8317C431.95 100.601 431.997 100.69 432.095 100.937C432.192 101.185 432.338 101.589 432.489 102.006" stroke="black" stroke-width="6" stroke-linecap="round"/>
<path d="M412.508 59.1255C412.516 59.128 412.524 59.1304 412.838 59.4424C413.152 59.7544 413.773 60.3759 415.181 62.3101C416.588 64.2444 418.763 67.4726 420.287 70.0435C421.811 72.6145 422.617 74.4304 423.101 75.4994C423.584 76.5684 423.719 76.8354 424.171 78.0359C424.623 79.2364 425.388 81.3623 425.801 82.5689C426.287 83.9872 426.362 84.4436 426.599 85.0539C427.333 86.6699 427.491 87.1092 427.691 87.5651C427.75 87.7395 427.826 88.0217 427.905 88.3125" stroke="black" stroke-width="6" stroke-linecap="round"/>
<path d="M424.673 76.9775C424.686 77.2813 424.767 78.0075 425.464 79.3587C426.094 80.5783 427.336 82.8551 428.694 86.2886C430.051 89.722 431.5 94.2362 432.457 97.6408C433.415 101.045 433.838 103.203 434.096 104.46C434.354 105.716 434.435 106.005 434.525 106.376" stroke="black" stroke-width="6" stroke-linecap="round"/>
<path d="M407.555 52.1045C407.571 52.3133 407.82 52.7529 408.725 53.828C409.367 54.591 410.473 55.7157 411.698 56.9419C412.923 58.1681 414.259 59.4414 416.14 61.9589C418.021 64.4764 420.407 68.1997 421.879 70.7866C423.35 73.3735 423.835 74.7113 424.422 76.0654C425.008 77.4194 425.681 78.7492 426.166 79.892C426.651 81.0348 426.928 81.9503 427.205 82.9354" stroke="black" stroke-width="6" stroke-linecap="round"/>
<path d="M391.247 36.2974C393.822 38.7784 396.398 41.2593 398.09 42.9082C399.781 44.5571 400.511 45.2988 401.202 45.918C401.892 46.5371 402.521 47.0114 403.614 48.0172C404.707 49.023 406.245 50.5459 407.169 51.5195C408.409 52.8249 408.822 53.6223 409.307 54.3843C409.881 55.2881 410.616 56.0632 411.307 57.1182C411.741 57.7802 412.423 58.6448 412.897 59.3705C413.636 60.6429 414.029 61.389 414.231 61.7035C414.313 61.8352 414.353 61.9101 414.404 62.0454" stroke="black" stroke-width="6" stroke-linecap="round"/>
<path d="M423.893 78.0665C423.016 76.0918 422.139 74.1172 421.471 72.6488C420.802 71.1804 420.368 70.2781 419.851 69.3529C419.333 68.4276 418.744 67.5068 417.756 66.2531C416.768 64.9993 415.399 63.4406 414.581 62.3695C413.418 60.8465 413.24 60.1035 413.023 59.7885C412.641 59.27 412.297 58.7676 412.097 58.4433C412.005 58.3027 411.93 58.2108 411.826 58.0977" stroke="black" stroke-width="6" stroke-linecap="round"/>
<path d="M377.467 23.7168C377.473 23.7168 377.556 23.7289 378.305 24.1635C378.99 24.5606 380.232 25.4186 381.302 26.2361C382.373 27.0536 383.218 27.8307 384.418 29.0427C385.618 30.2546 387.146 31.8776 389.188 33.6846C391.23 35.4915 393.74 37.4332 395.182 38.597C396.625 39.7608 396.925 40.0879 398.146 41.5103C399.368 42.9327 401.503 45.4405 402.711 46.904C403.919 48.3676 404.136 48.711 404.367 49.0302C404.838 49.6339 405.249 50.0806 405.537 50.3666C405.661 50.4991 405.738 50.606 405.849 50.9119" stroke="black" stroke-width="6" stroke-linecap="round"/>
<path d="M357.947 12.4245C357.943 12.4208 357.939 12.4171 358.048 12.4427C358.158 12.4683 358.38 12.5233 361.177 14.2291C363.973 15.9349 369.338 19.2897 374.405 22.551C379.473 25.8122 384.082 28.8782 387.918 31.9913C391.753 35.1044 394.676 38.1717 397.687 41.3319" stroke="black" stroke-width="6" stroke-linecap="round"/>
<path d="M332.54 5.80615C332.552 5.80615 333.219 5.80615 334.408 5.83427C334.936 5.84676 335.31 5.91861 338.032 6.54147C340.753 7.16434 345.81 8.35215 349.55 9.23144C353.291 10.1107 355.56 10.6455 357.434 11.2446C359.307 11.8437 360.714 12.491 361.534 12.8805C362.354 13.27 362.542 13.3823 362.946 13.6787C363.351 13.9751 363.965 14.4522 366.042 15.7311C368.119 17.0101 371.641 19.0764 375.269 21.2053" stroke="black" stroke-width="6" stroke-linecap="round"/>
<path d="M297.543 6.03735C297.561 6.03735 297.579 6.03735 302.699 5.95136C307.82 5.86537 318.043 5.6934 324.298 5.709C330.553 5.7246 332.53 5.93299 334.023 6.04035C335.515 6.1477 336.463 6.1477 337.246 6.1937C338.03 6.2397 338.62 6.3317 339.397 6.51068" stroke="black" stroke-width="6" stroke-linecap="round"/>
<path d="M256.186 18.0776C256.294 18.0776 256.508 18.0776 256.828 18.0661C257.149 18.0546 258.191 17.5394 260.051 16.5285C261.036 15.9938 262.085 15.3849 265.332 14.1551C268.578 12.9253 273.987 11.0852 278.595 9.81731C283.203 8.5494 286.847 7.90936 289.331 7.50068C291.814 7.092 293.027 6.93407 294.314 6.72193C295.601 6.50978 296.926 6.2482 297.726 6.10715C299.069 5.92143 299.297 5.84849 299.527 5.76806C299.669 5.72187 299.865 5.66478 300.067 5.60596" stroke="black" stroke-width="6" stroke-linecap="round"/>
<path d="M256.254 18.8521V157.331" stroke="black" stroke-width="6" stroke-linecap="round"/>
<path d="M142.005 119.667C142.102 116.829 142.496 111.933 142.967 109.498C143.269 107.941 143.591 105.711 145.615 98.6072C147.639 91.5038 151.329 79.5897 153.86 72.3036C156.392 65.0175 157.654 62.7204 159.24 60.2909C160.826 57.8614 162.698 55.3691 165.579 52.0573C168.46 48.7455 172.292 44.6897 174.599 42.3027C176.906 39.9157 177.572 39.3205 180.024 37.4365C182.475 35.5525 186.693 32.3977 189.476 30.4752C192.26 28.5527 193.481 27.9581 195.853 26.8776C198.226 25.7971 201.711 24.2487 205.843 22.8182C209.974 21.3878 214.644 20.1221 219.943 19.3938C225.242 18.6655 231.028 18.5129 234.869 18.6149C240.447 18.763 242.92 19.7556 244.634 20.5809C246.886 21.8257 249.574 23.5863 252.022 25.437C253.074 26.2741 253.74 26.9037 254.415 27.492" stroke="black" stroke-width="6" stroke-linecap="round"/>
<path d="M137.26 123.253H214.604" stroke="black" stroke-width="6" stroke-linecap="round"/>
<path d="M133.26 132.253H196.764" stroke="black" stroke-width="6" stroke-linecap="round"/>
<path d="M125.26 140.253H227.267" stroke="black" stroke-width="6" stroke-linecap="round"/>
<path d="M139.477 140.253C139.53 141.72 139.316 146.398 139.261 148.401C139.222 149.798 140.404 151.605 142.774 155.229C143.35 156.005 143.727 156.444 144.133 156.851C144.539 157.258 144.963 157.619 145.399 157.991" stroke="black" stroke-width="6" stroke-linecap="round"/>
<path d="M143.26 149.253C148.719 149.253 154.178 149.253 163.977 149.253C173.775 149.253 187.748 149.253 195.127 149.407C202.881 149.568 204.023 150.54 205.385 151.101C207.373 151.598 210.837 153.387 214.458 156.285C215.346 156.979 216.284 157.597 217.26 158.253" stroke="black" stroke-width="6" stroke-linecap="round"/>
<path d="M253.605 160.425H326.39" stroke="black" stroke-width="6" stroke-linecap="round"/>
<path d="M326.391 160.203C326.395 159.616 327.005 156.629 328.475 151.454C329.393 148.221 330.466 143.703 331.249 132.371C332.033 121.039 332.444 103.016 332.712 91.0886C332.98 79.1615 333.092 73.8769 333.207 68.4321" stroke="black" stroke-width="6" stroke-linecap="round"/>
<path d="M137.067 160.872H258.995" stroke="black" stroke-width="6" stroke-linecap="round"/>
<path d="M3 161.882H156.104" stroke="black" stroke-width="6" stroke-linecap="round"/>
<path d="M3.02246 159.338H205.668" stroke="black" stroke-width="6" stroke-linecap="round"/>
<path d="M440.9 259.497C444.456 259.419 447.548 259.058 451.556 257.608C454.35 256.598 458.504 254.552 461.514 252.959C464.523 251.367 466.214 250.167 467.046 249.4C467.877 248.632 467.797 248.334 467.146 247.533C465.372 245.354 462.236 242.709 459.272 240.284C458.059 239.291 457.553 238.641 457.089 238.396C456.342 238.001 453.538 239.748 449.809 241.911C447.916 243.009 446.784 245.436 445.571 248.49C444.498 251.191 444.274 254.064 443.427 255.548C443.173 255.994 442.634 256.277 442.393 255.887C441.577 254.57 442.291 252.018 442.559 249.414C443.088 244.293 442.042 242.477 441.608 241.267C441.3 240.409 443.712 245.507 446.225 249.778C447.318 251.636 447.929 252.928 448.51 253.592C449.092 254.255 449.598 254.267 449.981 254.239C450.615 254.192 451.151 253.901 453.353 252.887C458.735 250.407 462.85 248.888 463.455 248.643C464.861 248.075 459.135 244.48 456.949 243.312C455.757 242.676 454.563 243.252 454.08 243.439C452.08 244.215 451.049 247.467 450.692 248.699C450.601 249.012 450.664 249.413 450.822 249.765C450.979 250.116 451.294 250.419 452.033 250.584C453.887 251 456.476 250.487 458.789 249.878C460.303 249.479 461.085 248.384 461.575 247.423C461.767 247.046 461.636 246.806 461.205 246.618C460.054 246.116 457.637 246.099 455.401 246.14C454.719 246.152 454.966 246.362 455.394 246.535C455.823 246.707 456.427 246.89 457.314 247.068C458.2 247.247 459.351 247.415 460.735 247.589" stroke="black" stroke-width="6" stroke-linecap="round"/>
<path d="M439.777 258.82C439.777 258.802 439.788 257.446 439.901 254.747C440.014 252.069 440.4 248.495 440.357 244.793C440.226 242.691 440.002 241.821 439.691 241.377C439.513 241.15 439.293 240.921 438.589 240.288" stroke="black" stroke-width="6" stroke-linecap="round"/>
<path d="M296.609 259.823H444.754" stroke="black" stroke-width="7" stroke-linecap="round"/>
<path d="M122.636 259.683H334.953" stroke="black" stroke-width="7" stroke-linecap="round"/>
<path d="M126.822 262.169H372.018" stroke="black" stroke-width="7" stroke-linecap="round"/>
<path d="M349.216 262.814H476.258" stroke="black" stroke-width="7" stroke-linecap="round"/>
<path d="M458.577 257.18C458.553 257.18 459.811 257.318 462.864 257.53C466.895 257.811 470.362 257.641 472.055 257.547C472.626 257.516 472.568 257.181 472.42 256.925C469.914 253.997 465.815 249.285 465.238 248.888C465 248.824 464.874 249.04 464.744 249.746" stroke="black" stroke-width="7" stroke-linecap="round"/>
<path d="M85.2285 237.756H330.452" stroke="black" stroke-width="7" stroke-linecap="round"/>
<path d="M305.312 238.548H444.237" stroke="black" stroke-width="7" stroke-linecap="round"/>
<path d="M255.023 240.711H444.238" stroke="black" stroke-width="7" stroke-linecap="round"/>
<path d="M230.897 242.278H436.857" stroke="black" stroke-width="7" stroke-linecap="round"/>
<path d="M97.6758 245.914H267.679" stroke="black" stroke-width="7" stroke-linecap="round"/>
<path d="M93.6724 243.027H317.426" stroke="black" stroke-width="7" stroke-linecap="round"/>
<path d="M263.113 244.765H419.356" stroke="black" stroke-width="7" stroke-linecap="round"/>
<path d="M408.788 245.722H452.015" stroke="black" stroke-width="7" stroke-linecap="round"/>
<path d="M264.834 246.12H452.015" stroke="black" stroke-width="7" stroke-linecap="round"/>
<path d="M280.823 236.985H439.486" stroke="black" stroke-width="7" stroke-linecap="round"/>
<path d="M112.264 238.807H288.66" stroke="black" stroke-width="7" stroke-linecap="round"/>
<path d="M82.5757 235.787H372.171" stroke="black" stroke-width="7" stroke-linecap="round"/>
<path d="M358.15 236.358H443.506" stroke="black" stroke-width="7" stroke-linecap="round"/>
<path d="M276.736 191.834H439.976" stroke="black" stroke-width="7" stroke-linecap="round"/>
<path d="M210.956 186.724H439.976" stroke="black" stroke-width="7" stroke-linecap="round"/>
<path d="M24.8979 186.921H232.262" stroke="black" stroke-width="7" stroke-linecap="round"/>
<path d="M28.6538 188.677H284.517" stroke="black" stroke-width="7" stroke-linecap="round"/>
<path d="M31.0957 191.32H312.454" stroke="black" stroke-width="7" stroke-linecap="round"/>
<path d="M31.6006 193.995H303.805" stroke="black" stroke-width="7" stroke-linecap="round"/>
<path d="M291.351 192.993H448.808" stroke="black" stroke-width="7" stroke-linecap="round"/>
<path d="M266.225 198.043H448.808" stroke="black" stroke-width="7" stroke-linecap="round"/>
<path d="M26.7495 195.536H277.582" stroke="black" stroke-width="7" stroke-linecap="round"/>
<path d="M195.102 345.459V345.498" stroke="black" stroke-width="7" stroke-linecap="round"/>
<path d="M211.578 344.744H211.613" stroke="black" stroke-width="7" stroke-linecap="round"/>
<path d="M451.516 436.313C452.281 436.288 457.805 434.247 461.28 432.139C462.524 431.384 463.649 428.96 464.984 426.372C465.805 424.781 466.336 422.553 467.681 418.049C468.556 415.123 470.02 410.96 470.815 408.552C471.999 404.18 472.277 401.87 472.349 401.099C472.393 400.747 472.452 400.474 472.548 400.15" stroke="black" stroke-width="7" stroke-linecap="round"/>
<path d="M207.161 60.0733C207.166 60.0902 207.372 60.1869 207.695 60.2077C207.832 60.2166 207.845 59.9154 207.764 59.7595C207.684 59.6035 207.491 59.5236 207.315 59.5575C207.139 59.5914 206.986 59.7416 206.992 59.8895C206.999 60.0374 207.17 60.1784 207.385 60.2511C207.6 60.3238 207.853 60.3238 207.929 60.2256C208.005 60.1274 207.896 59.931 207.69 59.829C207.485 59.7269 207.186 59.725 206.777 59.9966" stroke="black" stroke-width="7" stroke-linecap="round"/>
<path d="M190.105 56.6597C190.094 56.6485 190.083 56.6373 195.42 56.626C200.758 56.6146 211.445 56.6034 216.956 56.8953C222.467 57.1871 222.48 57.7823 222.513 58.2391C222.569 58.9992 222.654 61.1315 222.482 64.3984C222.25 68.8115 219.88 70.5567 217.859 72.4663C216.225 74.0098 213.153 76.4961 211.356 77.9653C209.116 79.7978 208.112 80.3014 205.82 81.0923C204.003 81.6652 200.857 82.5865 198.705 83.0986C196.553 83.6107 195.489 83.6856 194.394 83.7628" stroke="black" stroke-width="7" stroke-linecap="round"/>
<path d="M206.562 61.079C206.663 61.2492 207.511 62.0444 208.907 62.4154C209.714 62.6297 210.486 62.1727 210.958 61.6749C211.166 61.4558 211.179 61.1979 210.872 60.949C209.202 59.598 207.488 59.9273 206.32 60.0181C205.905 60.0504 205.899 60.3442 205.979 60.539C206.4 61.5754 207.666 62.3327 208.517 62.6994C208.927 62.8758 209.541 62.8097 210.179 62.7243C210.634 62.468 211.385 61.8922 212.346 61.1821C212.742 60.8718 212.95 60.6631 213.302 60.2682" stroke="black" stroke-width="7" stroke-linecap="round"/>
<path d="M203.794 58.9502C203.794 58.9839 203.794 59.3313 203.971 60.1055C204.22 61.202 205.213 61.8789 205.954 62.2686C207.326 62.9908 208.983 62.8163 210.966 62.4216C212.648 62.0869 213.775 61.189 214.37 60.6011C215.441 59.5418 211.17 62.754 209.869 62.9912C207.462 63.4302 213.86 62.139 215.186 61.0186C215.447 60.7506 215.57 60.5616 215.666 60.3046C215.762 60.0476 215.827 59.7283 216.042 59.0734" stroke="black" stroke-width="7" stroke-linecap="round"/>
<path d="M200.957 58.6611C200.967 59.2798 201.457 61.5145 202.373 63.0263C203.408 64.7358 205.159 65.4592 206.643 66.0219C208.737 66.8163 212.644 66.0582 214.551 65.4104C216.334 64.8047 217.877 63.6682 218.981 62.7896C219.764 61.9057 220.239 61.1321 220.409 60.5201C220.466 60.1049 220.466 59.4774 220.084 58.7504" stroke="black" stroke-width="2" stroke-linecap="round"/>
<path d="M189.542 45.291V50.3262" stroke="black" stroke-width="4" stroke-linecap="round"/>
<path d="M197.987 44.686V49.3368" stroke="black" stroke-width="4" stroke-linecap="round"/>
<path d="M207.019 44.6045V48.8096" stroke="black" stroke-width="4" stroke-linecap="round"/>
<path d="M216.724 44.917V49.5495" stroke="black" stroke-width="4" stroke-linecap="round"/>
<path d="M190.896 69.8862H217.15" stroke="black" stroke-width="4" stroke-linecap="round"/>
<path d="M434.901 117.863C434.901 118.632 435.116 120.257 436.201 125.172C437.018 128.87 438.59 134.962 439.441 138.711C440.292 142.46 440.43 143.667 440.595 146.481C440.759 149.294 440.947 153.677 440.69 153.235C440.433 152.792 439.727 147.392 438.523 142.117C437.318 136.842 435.637 131.856 433.866 125.25C432.094 118.643 430.282 110.566 429.08 105.597C427.479 98.9775 426.725 97.0449 426.648 96.6901C426.636 96.6366 426.669 96.8432 427.276 98.2435C427.883 99.6438 429.061 102.232 431.017 109.185C432.973 116.138 435.672 127.378 437.206 140.509C438.741 153.641 439.031 168.325 439.302 183.553" stroke="black" stroke-width="4" stroke-linecap="round"/>
<path d="M403.685 51.7109C403.702 51.7109 404.783 52.7603 406.987 55.1946C408.188 56.5205 409.279 58.2682 410.776 60.687C412.274 63.1057 414.074 66.2033 417.547 74.6476C421.02 83.092 426.111 96.7892 428.761 103.968C431.411 111.146 431.466 111.391 431.345 112.059" stroke="black" stroke-width="4" stroke-linecap="round"/>
<path d="M377.613 27.3472C378.115 27.5937 380.601 29.6447 383.749 32.5479C385.249 33.9318 386.667 35.008 390.206 38.3837C393.746 41.7594 399.393 47.3697 402.606 50.6688C405.818 53.9679 406.426 54.7859 407.539 56.1659C408.652 57.5458 410.252 59.4629 411.181 60.6098C412.11 61.7567 412.319 62.0753 412.196 62.484" stroke="black" stroke-width="4" stroke-linecap="round"/>
<path d="M374.113 19.7432C374.132 19.7432 374.583 19.7996 376.648 21.0134C378.368 22.024 381.067 24.4275 384.49 27.971C387.913 31.5146 391.879 36.2765 395.953 40.6172C400.027 44.958 404.089 48.7333 408.229 52.702" stroke="black" stroke-width="4" stroke-linecap="round"/>
<path d="M298.968 3.98486C298.946 3.98486 302.129 4.01995 307.504 4.17845C309.687 4.24282 310.753 4.51254 316.244 4.81609C321.735 5.11963 331.615 5.50967 337.728 6.01389C343.841 6.51811 345.887 7.1247 350.35 9.11554C354.813 11.1064 361.632 14.4631 365.802 16.6699C369.972 18.8767 371.287 19.8318 372.941 20.8422C374.595 21.8526 376.547 22.8892 380.377 25.6015C384.206 28.3137 389.852 32.6701 395.67 37.1586" stroke="black" stroke-width="4" stroke-linecap="round"/>
<path d="M386.921 34.7406C386.609 34.6643 385.705 34.4349 383.361 33.0223C382.005 32.2053 379.894 30.5136 378.142 28.9914C376.39 27.4691 375.122 26.0732 371.699 23.5896C368.275 21.106 362.735 17.577 357.735 15.1139C352.734 12.6509 348.442 11.3607 345.873 10.6837C341.718 9.5888 339.779 9.77639 338.043 9.49443C336.925 9.31272 333.85 8.65545 329.124 8.12903C326.854 7.87614 324.819 7.91471 323.153 7.81802C321.487 7.72133 320.245 7.55534 316.609 7.38194C312.973 7.20854 306.98 7.03276 303.402 7.05871C299.825 7.08466 298.846 7.31766 297.837 7.55772" stroke="black" stroke-width="4" stroke-linecap="round"/>
<path d="M256.312 16.4922C256.295 16.4922 256.875 16.0744 259.261 14.6672C261.029 13.6246 264.05 12.1293 265.979 11.1941C267.907 10.2589 268.682 9.98385 271.021 8.9614C273.36 7.93895 277.238 6.17744 281.02 4.92144C284.802 3.66545 288.371 2.96835 293.26 2.53053C298.149 2.09271 304.251 1.93531 308.977 2.0236C313.702 2.11188 316.866 2.45064 320.849 2.72039C324.833 2.99014 329.539 3.18063 332.442 3.37207C336.313 3.62733 338.09 4.17215 341.263 4.94275C343.628 5.51705 347.556 6.32875 350.297 7.08475C354.55 8.25758 357.199 9.64242 359.235 10.5C361.124 11.4213 362.12 11.828 362.521 12.0404C362.705 12.1623 362.851 12.3129 363.057 12.5862" stroke="black" stroke-width="4" stroke-linecap="round"/>
<path d="M259.546 20.4136C260.051 20.2174 261.882 19.0939 265.89 16.7547C268.863 15.0192 274.017 12.6599 277.404 11.1308C280.791 9.60161 282.325 9.09922 284.377 8.5903C286.429 8.08138 288.954 7.58115 292.218 7.12271C295.481 6.66427 299.408 6.26278 301.799 6.05595C304.19 5.84912 304.926 5.84912 305.433 5.84912" stroke="black" stroke-width="4" stroke-linecap="round"/>
<path d="M259.164 26.5479C259.164 26.1763 259.171 24.5601 259.296 22.0838C259.383 20.3647 260.453 18.7097 261.604 16.7694C262.728 15.1133 264.23 13.7087 265.913 12.6517C266.661 12.2274 267.194 12.0307 268.046 11.79" stroke="black" stroke-width="4" stroke-linecap="round"/>
<path d="M260.248 18.4873C260.248 18.5305 260.248 18.5738 260.247 20.5769C260.246 22.58 260.244 26.5418 260.162 34.2571C260.079 41.9724 259.915 53.3212 259.868 59.3939C259.821 65.4666 259.895 65.9193 259.972 66.3858" stroke="black" stroke-width="4" stroke-linecap="round"/>
<path d="M259.375 61.4771V158.255" stroke="black" stroke-width="4" stroke-linecap="round"/>
<path d="M285.327 149.597H326.007" stroke="black" stroke-width="4" stroke-linecap="round"/>
<path d="M307.331 143.358H330.217" stroke="black" stroke-width="4" stroke-linecap="round"/>
</svg>
