<svg width="85" height="133" viewBox="0 0 85 133" fill="none" xmlns="http://www.w3.org/2000/svg">
<path d="M10.312 54.5006C10.2989 54.5006 21.312 52.0005 8.27747 57.7778C7.58346 58.0854 6.67085 58.7672 5.50442 59.9974C3.97755 61.6078 3.30471 63.2692 2.88788 64.5659C2.60949 65.4319 2.36345 66.7698 2.19268 68.3794C1.82661 71.8298 2.04751 74.3655 2.31543 75.5543C2.79951 77.7021 4.07536 79.2756 7.68033 81.4769C10.3431 83.1029 15.8626 85.271 19.6706 87.2542C23.4787 89.2374 25.565 90.6804 28.7948 93.528C32.0245 96.3756 36.3346 100.584 40.7752 104.92" stroke="black" stroke-width="4" stroke-linecap="round"/>
<path d="M10.3696 57.1562C10.4187 57.1562 10.4678 57.1562 18.6443 57.2585C26.8208 57.3607 43.1232 57.5651 51.5426 57.7539C59.9621 57.9428 60.0046 58.1098 60.876 69.022C61.7474 79.9341 64.5616 108.692 66.312 131" stroke="black" stroke-width="4" stroke-linecap="round"/>
<path d="M40.8931 105.283H61.8475" stroke="black" stroke-width="4" stroke-linecap="round"/>
<path d="M21.8096 86.5718H60.2349" stroke="black" stroke-width="4" stroke-linecap="round"/>
<path d="M29.8184 94.1626H61.4813" stroke="black" stroke-width="4" stroke-linecap="round"/>
<path d="M38.8115 100.62H63.2176" stroke="black" stroke-width="4" stroke-linecap="round"/>
<path d="M21.2517 85.7505C21.2219 84.7269 21.2674 82.3708 21.7664 80.5552C22.0055 79.6855 23.65 77.8438 26.2221 75.2108C27.4111 73.9937 28.6409 73.3048 31.0328 72.1072C33.4247 70.9096 37.0122 69.2975 40.8108 67.8425C44.6094 66.3875 48.5104 65.1384 50.8661 64.3266C54.7977 62.7244 55.5093 62.2046 56.136 61.6881C56.3972 61.475 56.5434 61.3615 57.0579 60.918" stroke="black" stroke-width="4" stroke-linecap="round"/>
<path d="M8.14746 55.8738C8.14746 55.8049 8.14746 55.7359 8.15694 54.2531C8.16642 52.7703 8.18538 49.8757 8.56678 46.7219C8.94818 43.5681 9.69145 40.2428 10.5397 37.4411C11.3879 34.6395 12.3186 32.4622 13.0561 30.9154C14.2204 28.4734 15.4803 26.8694 16.5893 25.5669C17.8142 24.1283 19.3286 23.4474 20.9467 23.0686C22.3679 22.7359 23.4564 23.0564 23.7891 23.1905C24.5342 23.4908 25.4276 24.689 27.8821 29.3314C28.5751 30.6422 28.8009 31.9385 29.1109 33.3524C29.421 34.7664 29.6884 36.3157 29.9169 39.9378C30.1454 43.5599 30.3268 49.2079 30.5466 55.0698" stroke="black" stroke-width="4" stroke-linecap="round"/>
<path d="M11.2163 54.9174C11.2163 54.9036 11.2163 52.8914 11.26 49.5247C11.2777 48.1626 11.3911 47.506 11.7848 45.9426C12.1785 44.3792 12.8759 41.9294 13.6348 39.6663C14.3937 37.4031 15.1929 35.4008 15.8045 33.9999C17.3069 30.5579 19.0959 28.7788 20.4062 27.5432C21.0873 26.9008 23.2272 26.9354 25.0615 27.4317C25.8392 27.6421 26.1712 28.4082 26.5835 29.0321C27.247 30.0363 28.0518 32.3292 28.898 35.31C29.5829 37.7227 29.5523 39.5111 29.6403 40.263C29.6635 40.4612 28.9817 37.3207 28.0591 33.5958C27.4357 31.0787 25.6673 28.9551 24.8089 28.0162C24.0266 27.1607 22.5399 26.7804 21.4967 26.6005C20.5674 26.4402 19.0208 27.9654 17.9328 29.3891C16.95 30.675 16.5952 32.7343 16.3143 35.3437C16.1411 36.9531 16.0999 39.1597 15.8834 41.4945C15.667 43.8292 15.3262 46.2297 15.1507 47.9442C14.7034 52.3126 15.5138 54.0418 15.463 54.3675C15.4416 54.5047 15.1995 54.494 14.9681 54.446C14.7366 54.3979 14.4644 54.2896 14.2723 54.029C13.8375 53.4394 13.8694 52.2492 14.4221 48.9963C14.8617 46.4094 16.0804 42.0097 16.928 39.0808C17.7757 36.1518 18.332 34.8495 18.9316 33.6855C20.6925 30.2664 21.8553 29.089 22.5769 28.3658C23.1025 27.8391 21.1941 31.157 19.9058 33.7182C19.3255 34.8717 19.0479 35.8024 18.5052 38.791C17.9626 41.7795 17.2025 46.8166 16.8109 49.7571C16.3288 53.3779 16.5981 54.6174 16.9549 55.5859C17.1228 56.042 17.3047 56.4106 17.3444 55.2098C17.3842 54.009 17.2865 51.2237 17.3709 48.4976C17.4554 45.7716 17.7248 43.1892 18.3023 40.8455C18.8798 38.5017 19.7572 36.4748 20.4021 35.1624C21.3356 33.2629 22.0215 32.6032 22.4324 32.3381C22.8427 32.0733 23.3227 32.1816 23.6774 32.3181C24.7421 32.7278 25.5057 34.4315 26.8628 39.539C27.3398 42.2469 27.9042 46.5567 28.1973 49.3186C28.4904 52.0805 28.4951 53.1639 28.5001 54.2382" stroke="black" stroke-width="4" stroke-linecap="round"/>
<path d="M38.6616 17.7671V56.179" stroke="black" stroke-width="4" stroke-linecap="round"/>
<path d="M43.1274 17.5508V55.7397" stroke="black" stroke-width="4" stroke-linecap="round"/>
<path d="M12.312 16.0005H63.1061" stroke="black" stroke-width="4" stroke-linecap="round"/>
<path d="M63.7227 17.6211V104.463" stroke="black" stroke-width="4" stroke-linecap="round"/>
<path d="M3.94824 67.6152C5.21162 67.6655 9.06898 68.2288 12.0114 69.3264C15.3596 70.5754 17.7936 72.1231 19.2604 73.3251C19.9787 73.9869 20.6438 74.7541 21.1161 75.3699C21.5884 75.9857 21.8477 76.4268 22.2369 77.205" stroke="black" stroke-width="4" stroke-linecap="round"/>
<path d="M4.25049 70.9058C4.25049 72.0201 4.60069 74.4051 5.57227 75.5994C5.94048 76.052 7.79195 77.2165 10.9268 79.1257C15.8499 82.1241 17.9064 83.0882 18.4433 83.1889C18.9021 83.2749 19.0103 81.887 19.3628 80.0782C19.4491 79.6355 19.7073 79.2899 19.8347 79.0221C20.035 78.6009 17.8981 76.6206 14.3879 73.7782C12.7025 72.4135 10.5251 71.8184 7.91208 71.0812C6.9496 70.8097 6.7024 70.8306 7.19024 71.4234C7.67808 72.0162 8.90263 73.2018 10.5129 74.5602C14.0821 77.414 16.2753 79.0624 16.7951 79.4146C17.14 79.6592 17.6496 80.0373 17.7947 80.3751" stroke="black" stroke-width="4" stroke-linecap="round"/>
<path d="M10.2854 71.8159C10.267 71.8343 9.85903 71.8785 9.19653 71.9981C8.61403 72.5679 8.38006 73.427 8.29987 74.2085C8.29057 74.5651 8.34503 74.8406 8.40113 75.1244" stroke="black" stroke-width="4" stroke-linecap="round"/>
<path d="M13.312 2.00049H82.1117" stroke="black" stroke-width="4" stroke-linecap="round"/>
<path d="M13.312 2.00049L12.312 16.0005" stroke="black" stroke-width="4" stroke-linecap="round"/>
<path d="M63.812 16.5005L82.3123 2.00028" stroke="black" stroke-width="4" stroke-linecap="round"/>
<circle cx="52.812" cy="53.5005" r="1.5" fill="black"/>
<circle cx="52.812" cy="48.5005" r="1.5" fill="black"/>
<circle cx="42.812" cy="109.5" r="1.5" fill="black"/>
<circle cx="46.812" cy="109.5" r="1.5" fill="black"/>
<circle cx="50.812" cy="109.5" r="1.5" fill="black"/>
<circle cx="54.812" cy="109.5" r="1.5" fill="black"/>
<circle cx="58.812" cy="109.5" r="1.5" fill="black"/>
<circle cx="58.812" cy="109.5" r="1.5" fill="black"/>
<circle cx="48.812" cy="113.5" r="1.5" fill="black"/>
<circle cx="52.812" cy="113.5" r="1.5" fill="black"/>
<circle cx="56.812" cy="113.5" r="1.5" fill="black"/>
<circle cx="53.812" cy="117.5" r="1.5" fill="black"/>
<circle cx="57.812" cy="117.5" r="1.5" fill="black"/>
<circle cx="58.812" cy="121.5" r="1.5" fill="black"/>
<circle cx="63.812" cy="125.5" r="1.5" fill="black"/>
<circle cx="64.812" cy="129.5" r="1.5" fill="black"/>
<circle cx="62.812" cy="121.5" r="1.5" fill="black"/>
<circle cx="61.812" cy="117.5" r="1.5" fill="black"/>
<circle cx="60.812" cy="113.5" r="1.5" fill="black"/>
<circle cx="52.812" cy="43.5005" r="1.5" fill="black"/>
<circle cx="52.812" cy="38.5005" r="1.5" fill="black"/>
<circle cx="52.812" cy="33.5005" r="1.5" fill="black"/>
<circle cx="52.812" cy="28.5005" r="1.5" fill="black"/>
<circle cx="52.812" cy="23.5005" r="1.5" fill="black"/>
<circle cx="52.812" cy="18.5005" r="1.5" fill="black"/>
<path d="M44.5215 68.2918C44.5967 68.6321 44.9566 69.4014 48.9028 73.1372C50.8382 74.9694 54.0705 77.3491 56.0121 78.9553C58.6608 81.1464 59.7904 82.573 60.6152 83.6936C60.9288 84.1198 61.0316 84.2551 61.0703 84.2417C61.2405 84.1828 60.8494 83.425 59.8482 81.6195C59.0916 80.255 57.6605 78.078 56.6629 76.555C55.139 74.2287 54.1684 73.0475 53.4275 72.238C51.8638 70.5295 50.51 69.6501 49.688 69.0132C48.945 68.4375 48.4545 67.956 48.3444 67.5551C48.2045 67.0455 50.0241 67.2243 51.679 66.7765C55.816 65.657 57.5983 63.6544 57.8052 63.5672C58.0927 63.446 58.0962 64.413 58.3559 66.9062C58.5754 69.0137 59.135 72.813 59.4734 75.0089C59.8118 77.2048 59.9535 77.6775 59.5138 76.7833C59.0741 75.8891 58.0488 73.6137 57.3402 72.1404C55.9403 69.2297 54.7649 68.5646 53.848 67.6482C53.7055 67.5058 53.8807 67.3213 54.2805 67.2496C54.6803 67.1778 55.3731 67.1768 55.9101 67.1375C56.4471 67.0982 56.8074 67.0207 57.2185 66.9376" stroke="black" stroke-width="4" stroke-linecap="round"/>
<path d="M22.5776 29.1299C22.9252 29.4106 24.4368 30.3842 25.6602 31.2188C25.8653 31.3941 25.9728 31.5123 26.0641 31.6255C26.1555 31.7387 26.2273 31.8434 26.3476 32.044" stroke="black" stroke-width="4" stroke-linecap="round"/>
<path d="M8.85352 58.2886C9.04132 58.378 9.22913 58.4675 11.9435 60.231C14.6579 61.9945 19.8932 65.4292 22.7753 67.3198C26.0278 69.4525 26.7347 69.9695 27.3234 70.4435C27.5866 70.6501 27.7778 70.7876 28.3161 71.2943" stroke="black" stroke-width="4" stroke-linecap="round"/>
<path d="M14.7803 59.6801C14.7968 59.6801 14.8133 59.6801 19.1192 59.805C23.4251 59.9299 32.0199 60.1798 36.6656 60.3372C41.3114 60.4947 41.7476 60.5521 44.3622 60.6215C46.9769 60.6908 51.7567 60.7702 54.0545 60.8525C56.3524 60.9348 56.0233 61.0176 52.3842 61.0608C48.745 61.1041 41.8056 61.1053 35.9489 60.837C30.0921 60.5687 25.5282 60.0307 22.1769 59.7361C18.8256 59.4415 16.8252 59.4066 14.7642 59.3706" stroke="black" stroke-width="4" stroke-linecap="round"/>
<path d="M21.9251 32.4316C21.9251 32.4468 21.9438 33.3311 22.6987 36.3757C23.2497 38.5981 24.8877 41.9772 25.7732 44.2096C27.0142 47.3384 27.6829 49.7733 28.4708 52.1511C29.1039 54.0619 29.7216 55.3857 29.9722 56.2099C30.3791 57.5481 27.6457 51.7699 26.199 48.6443C25.1981 46.4819 24.4711 44.7265 23.8704 43.3089C21.7751 38.9567 21.0262 37.5772 20.3951 36.5493C20.2274 36.3424 20.0574 36.1965 19.8823 36.0462" stroke="black" stroke-width="4" stroke-linecap="round"/>
<path d="M19.8823 36.0464C19.8823 36.061 19.9373 36.5025 21.1665 39.5121C22.3407 42.0877 24.6323 46.7918 26.2286 49.9352C27.8249 53.0785 28.6563 54.5187 29.274 55.8086" stroke="black" stroke-width="4" stroke-linecap="round"/>
<path d="M14.7443 3.41457C14.7618 3.41457 15.0194 3.39359 18.0884 4.59806C20.9509 5.72151 26.2932 8.29607 29.2976 9.63473C32.7356 11.1666 35.3957 12.0064 38.7876 13.2057C40.7196 13.8888 41.8888 14.2833 42.5749 14.7455C42.9446 14.9946 38.1733 14.3559 32.516 13.5796C28.8693 13.0791 26.9958 12.7573 25.5729 12.5798C24.6051 12.4591 23.6244 12.0072 22.2154 11.3044C19.849 10.1242 17.2943 8.33545 15.6253 6.91344C15.0797 6.44854 15.3525 6.28635 15.6208 6.23468C16.1884 6.12533 19.8354 7.68418 25.1966 10.1536C29.0309 11.9197 29.7475 12.959 30.3126 13.4069C30.563 13.6054 30.7228 13.7656 30.4729 13.8943C28.4406 14.9404 26.2442 14.0417 23.6977 13.8759C20.6019 13.6744 15.4835 12.4156 13.8579 11.4981C12.1979 10.5613 13.4175 8.09969 13.6784 7.74676C13.8051 7.57535 14.0621 7.55157 14.2905 7.67383C15.4052 8.27072 15.5978 9.58591 16.6177 10.5227C17.5787 11.0777 18.4537 11.4298 19.1398 11.5068C19.5286 11.5329 20.0001 11.5329 20.4859 11.5329" stroke="black" stroke-width="4" stroke-linecap="round"/>
<path d="M64.9643 14.7931C64.8945 14.7931 62.2743 14.7248 58.1057 14.5931C56.0128 14.5269 52.9178 14.0658 48.8602 13.5254C47.0725 13.2873 44.7269 12.9669 40.7849 12.1708C37.0341 11.4134 34.486 10.0159 33.0997 9.2595C31.2001 8.09209 29.092 6.7514 25.5986 5.01966C24.6698 4.54679 23.9914 4.17474 22.7461 3.70312" stroke="black" stroke-width="4" stroke-linecap="round"/>
</svg>
