<svg width="100" height="77" viewBox="0 0 100 77" fill="none" xmlns="http://www.w3.org/2000/svg">
<path d="M87.0657 57.5C87.0657 67.165 71.8809 77 50.0657 77C28.2504 77 0.0656738 77.665 0.0656738 68C0.0656738 58.335 23.0657 50.5 47.5657 58.0509C69.3809 58.0509 87.0657 47.835 87.0657 57.5Z" fill="black"/>
<path d="M63.0586 29.7968L71.3226 45.9329L57.14 29.7964L63.0586 29.7968Z" fill="black" stroke="black" stroke-width="0.02"/>
<circle cx="66.5657" cy="45" r="11.975" stroke="black" stroke-width="0.05"/>
<path d="M65.5657 35.04C72.7298 35.04 78.5256 39.953 78.5256 46C78.5256 52.047 72.7298 56.96 65.5657 56.96C58.4015 56.96 52.6057 52.047 52.6057 46C52.6057 39.953 58.4015 35.04 65.5657 35.04Z" stroke="black" stroke-width="0.08"/>
<path d="M65.0657 34.1504C72.4621 34.1504 78.4153 39.2532 78.4153 45.5C78.4153 51.7468 72.4621 56.8496 65.0657 56.8496C57.6692 56.8496 51.7161 51.7468 51.7161 45.5C51.7161 39.2532 57.6692 34.1504 65.0657 34.1504Z" stroke="black" stroke-width="0.3"/>
<path d="M67.5657 31.1504C73.5355 31.1504 78.4153 36.8787 78.4153 44C78.4153 51.1213 73.5355 56.8496 67.5657 56.8496C61.5959 56.8496 56.7161 51.1213 56.7161 44C56.7161 36.8787 61.5959 31.1504 67.5657 31.1504Z" stroke="black" stroke-width="0.3"/>
<circle cx="61.0657" cy="50.5" r="2.5" fill="black"/>
<circle cx="57.0657" cy="37.5" r="0.5" fill="black"/>
<ellipse cx="69.0657" cy="43" rx="7.5" ry="8" fill="black"/>
<path d="M63.62 48.0033C63.9658 47.7232 64.303 47.4934 64.6215 47.3446C64.9003 47.2144 65.1646 47.1459 65.4047 47.1573C65.6441 47.1687 65.8608 47.2601 66.0481 47.4501C66.1422 47.5457 66.1824 47.6253 66.1796 47.6908C66.1767 47.7554 66.1323 47.8102 66.0478 47.8562C65.9631 47.9022 65.84 47.9377 65.6858 47.9646C65.5317 47.9914 65.3468 48.0094 65.1384 48.0198C64.71 48.0411 64.1827 48.0311 63.62 48.0033ZM61.3618 50.278C61.5113 50.2315 61.649 50.2066 61.7642 50.2107C61.912 50.2159 62.0208 50.2673 62.0717 50.3725C62.1229 50.4787 62.117 50.6438 62.027 50.8811C61.9379 51.1161 61.7663 51.4197 61.4903 51.8044C61.1872 51.4838 60.9577 51.1952 60.7843 50.9386C60.875 50.8341 60.9686 50.7274 61.0636 50.6183C61.1609 50.5066 61.2607 50.3928 61.3618 50.278ZM60.0642 51.0981C60.2155 50.9389 60.398 50.7904 60.5896 50.6616C60.6384 50.7496 60.6942 50.8416 60.7587 50.9377C60.3405 51.4196 59.9735 51.8411 59.6904 52.1214C59.5698 51.7987 59.7505 51.4283 60.0642 51.0981ZM60.6063 50.6493C60.8122 50.5125 61.0293 50.3991 61.2323 50.3219C61.2634 50.3101 61.2948 50.3009 61.3251 50.2909C61.2317 50.397 61.1393 50.5016 61.0492 50.605C60.9551 50.7131 60.8618 50.8185 60.772 50.9219C60.7085 50.8271 60.6542 50.736 60.6063 50.6493ZM59.1339 47.6845C59.1723 47.6778 59.2531 47.678 59.3701 47.6836C59.8368 47.7059 60.8609 47.8159 61.9779 47.91C62.5032 47.9542 63.049 47.9938 63.5667 48.0202C63.3196 48.223 63.0684 48.451 62.8186 48.694C62.3152 49.1835 61.8151 49.7344 61.3516 50.2607C61.3103 50.2736 61.2682 50.2877 61.2256 50.3039C61.0215 50.3815 60.803 50.4946 60.596 50.6319C60.3921 50.2575 60.3255 49.9579 60.3489 49.7144C60.3931 49.2561 60.7496 48.9957 61.0863 48.8237C61.1704 48.7808 61.2529 48.743 61.3289 48.7095C61.4047 48.6761 61.4745 48.6468 61.5319 48.6192C61.5892 48.5917 61.6355 48.5654 61.6644 48.5394C61.6789 48.5265 61.6898 48.5128 61.6951 48.4983C61.7005 48.4833 61.7 48.4679 61.6927 48.4527C61.6856 48.4378 61.6724 48.4231 61.6537 48.4089C61.6349 48.3946 61.6096 48.3806 61.5781 48.3655C61.5145 48.335 61.4228 48.3006 61.2985 48.2625C61.0497 48.1863 60.6679 48.091 60.111 47.9627C59.8325 47.8985 59.618 47.8463 59.4603 47.8044C59.3024 47.7625 59.202 47.7313 59.151 47.7088C59.1382 47.7032 59.1289 47.6983 59.1228 47.6941C59.1198 47.6921 59.1179 47.6906 59.1166 47.6892L59.1159 47.6885C59.1191 47.6869 59.1251 47.6861 59.1339 47.6845Z" fill="#EDE6D6" stroke="black" stroke-width="0.02"/>
<path d="M61.2014 50.3423L79.6432 29.3141L83.9429 29.0521L61.2014 50.3423Z" fill="#EDE6D6" stroke="black" stroke-width="0.09"/>
<path d="M84.0657 28C88.0657 30.88 60.5395 30.0787 50.0658 30.3798C39.5921 30.681 50.7113 30.3798 50.6812 28.783C50.6511 27.1862 58.092 24.2308 68.5657 23.9296C79.0394 23.6285 101.066 19.3799 84.0657 28Z" fill="#070000"/>
<path d="M30.416 19.7959C47.0769 17.4695 67.4431 19.8027 82.2285 21.6885C84.8049 22.0171 86.7406 22.3668 88.0352 22.7158C88.6853 22.8911 89.1499 23.0601 89.4473 23.2148C89.5315 23.2587 89.5957 23.2984 89.6436 23.332C89.6218 23.346 89.5982 23.3644 89.5684 23.3809C89.3238 23.5157 88.9088 23.6655 88.291 23.8164C87.0654 24.1157 85.1724 24.3911 82.585 24.6211C72.6028 25.5085 59.9958 27.4892 50.3018 33.3086C46.7429 35.4451 44.902 38.0015 44.5078 40.6543C44.1144 43.3024 45.1814 45.9194 47.1689 48.1396C51.1346 52.5693 58.8968 55.5929 67.0791 54.502C72.1772 53.8222 76.1832 53.5284 79.1621 53.5156C82.1662 53.5028 84.0582 53.7769 84.9814 54.1797C85.4591 54.3882 85.5143 54.5575 85.5186 54.5869C85.5231 54.6187 85.5146 54.7945 85.1318 55.1211C84.395 55.7498 82.7667 56.5042 80.2217 57.2529C70.1093 60.2281 46.6783 62.784 13.9463 58.2617C12.7613 58.098 11.452 57.9467 10.1885 58.1387C4.64563 58.9809 1.87412 63.4532 0.585938 66.1465C0.602649 65.8312 0.622646 65.4784 0.642578 65.085C0.81053 61.77 1.06543 55.7094 1.06543 45.5C1.06549 37.2297 4.25797 31.4112 9.48633 27.3555C14.74 23.2802 22.0858 20.9591 30.416 19.7959Z" fill="#EDE6D6" stroke="black"/>
<path d="M65.3018 47.4131H65.3022" stroke="black" stroke-width="0.2" stroke-linecap="round"/>
<path d="M60.7969 50.9854H61.4415" stroke="black" stroke-width="0.1" stroke-linecap="round"/>
<path d="M61.45 50.9883V51.8717" stroke="black" stroke-width="0.1" stroke-linecap="round"/>
<path d="M60.8599 51.0391C60.8599 51.0386 60.871 51.0496 60.9056 51.0874C60.9666 51.1539 61.0103 51.211 61.0417 51.252C61.0639 51.2809 61.1012 51.324 61.1396 51.3727C61.2184 51.4727 61.2607 51.5312 61.2674 51.5383C61.3033 51.5776 61.3633 51.6418 61.3784 51.6584C61.384 51.665 61.392 51.6753 61.3955 51.6859" stroke="black" stroke-width="0.1" stroke-linecap="round"/>
<path d="M61.4255 51.6221C61.4248 51.6092 61.4174 51.5657 61.4041 51.5032C61.3956 51.4635 61.3879 51.4067 61.3855 51.3313C61.3832 51.2559 61.3874 51.1633 61.3874 51.1149C61.3875 51.0666 61.3831 51.0653 61.346 51.0652C61.3089 51.0652 61.2392 51.0665 61.1757 51.0731C61.1122 51.0796 61.057 51.0915 61.0133 51.098C60.9392 51.1091 60.9024 51.1046 60.8943 51.1004C60.8903 51.0983 60.8885 51.0939 60.8872 51.0881C60.8858 51.0823 60.8854 51.0746 60.8956 51.0692C60.9517 51.0397 61.0151 51.049 61.0683 51.0502C61.0901 51.0507 61.1273 51.0505 61.147 51.0534C61.1667 51.0562 61.1676 51.0618 61.1653 51.0666C61.1525 51.0939 61.0833 51.0985 61.0344 51.1133C61.0175 51.1184 61.0204 51.128 61.0478 51.181C61.0751 51.234 61.1278 51.3324 61.1618 51.3941C61.2245 51.5078 61.2388 51.5249 61.2448 51.5319C61.2473 51.5347 61.2143 51.4572 61.1673 51.3464C61.123 51.242 61.1114 51.1754 61.1091 51.1487C61.1086 51.1426 61.1146 51.1371 61.1183 51.1326C61.1457 51.0996 61.2343 51.1173 61.2574 51.1167C61.2624 51.1166 61.2659 51.1202 61.2684 51.1242C61.2739 51.133 61.2789 51.1602 61.2874 51.1934C61.2918 51.2104 61.3044 51.2793 61.3244 51.3785C61.3403 51.4568 61.3627 51.5368 61.367 51.558C61.368 51.5635 61.3685 51.5694 61.3687 51.5699C61.3761 51.584 61.3536 51.5138 61.3426 51.4413C61.3356 51.3956 61.336 51.309 61.3339 51.2445C61.3317 51.18 61.3313 51.1398 61.3301 51.1221C61.3289 51.1045 61.3271 51.1107 61.3236 51.1147C61.3168 51.1225 61.2572 51.1222 61.1766 51.1247C61.1487 51.1256 61.1472 51.1316 61.1622 51.1602C61.1771 51.1887 61.2086 51.2411 61.2308 51.2821C61.2678 51.3502 61.2898 51.4234 61.3017 51.4743C61.3035 51.4821 61.2889 51.4542 61.2728 51.4039C61.2566 51.3536 61.2373 51.2819 61.2267 51.238C61.2161 51.1941 61.2148 51.18 61.2065 51.1647" stroke="black" stroke-width="0.1" stroke-linecap="round"/>
<path d="M60.6667 50.6695C60.6665 50.6695 60.6664 50.6695 60.6645 50.6683C60.6626 50.6671 60.6589 50.6646 60.6616 50.6696C60.6717 50.6882 60.6916 50.7226 60.7116 50.767C60.7435 50.838 60.7627 50.8464 60.7728 50.8566C60.7876 50.8715 60.7869 50.8177 60.8079 50.7954C60.8313 50.7705 60.8529 50.7615 60.8779 50.7366C60.8998 50.7149 60.941 50.6671 60.9687 50.6343C60.9865 50.6133 61.004 50.599 61.0159 50.5799C61.0202 50.5728 61.0149 50.568 61.0039 50.5659C60.9753 50.5604 60.9524 50.5614 60.9452 50.5558C60.9292 50.5437 60.9199 50.5326 60.9106 50.5319C60.8513 50.5274 60.789 50.5928 60.771 50.6088C60.7382 50.6379 60.7203 50.6335 60.7133 50.6378C60.7095 50.6401 60.7069 50.6448 60.7092 50.6551C60.7226 50.7149 60.7589 50.7403 60.7696 50.7493C60.7743 50.7533 60.7793 50.754 60.7838 50.7465C60.8084 50.706 60.8092 50.6722 60.8233 50.6487C60.8338 50.6313 60.8661 50.6297 60.9093 50.5979C60.9347 50.5793 60.9561 50.5615 60.9647 50.5452C60.9668 50.541 60.9666 50.5364 60.9656 50.5327C60.9635 50.5253 60.952 50.5192 60.9453 50.5133C60.9197 50.4908 61.0206 50.4789 61.0357 50.4694C61.0566 50.4563 61.0823 50.4563 61.1072 50.4412C61.1269 50.4299 61.1428 50.4179 61.1451 50.4103C61.144 50.4064 61.1383 50.4022 61.1325 50.3979" stroke="black" stroke-width="0.1" stroke-linecap="round"/>
<path d="M61.1098 50.4155C61.103 50.4173 61.0839 50.4267 61.0692 50.4418C61.0523 50.4591 61.042 50.4828 61.0339 50.5052C61.0319 50.5108 61.0327 50.5177 61.0392 50.5213C61.0456 50.5249 61.059 50.5251 61.0673 50.5236C61.0873 50.5078 61.1025 50.4875 61.1101 50.4776C61.1137 50.4726 61.1165 50.4678 61.116 50.4563" stroke="black" stroke-width="0.1" stroke-linecap="round"/>
<path d="M61.1189 50.4189C61.1447 50.4189 61.1993 50.4176 61.206 50.4129C61.2229 50.401 61.2185 50.3797 61.2238 50.3758C61.2263 50.374 61.2302 50.3769 61.2309 50.3799C61.2325 50.3872 61.2246 50.3958 61.2215 50.4003C61.2146 50.4102 61.2407 50.3797 61.2485 50.3762C61.2675 50.3678 61.2237 50.4046 61.2085 50.4153C61.2049 50.4179 61.2011 50.4191 61.2007 50.4179C61.1946 50.4003 61.2341 50.3885 61.2427 50.3816C61.2291 50.3979 61.2217 50.4096 61.2166 50.416C61.2138 50.419 61.2108 50.4215 61.205 50.4242" stroke="black" stroke-width="0.01" stroke-linecap="round"/>
<path d="M61.2534 50.3649C61.2494 50.3697 61.2322 50.3908 61.2164 50.4083C61.1913 50.436 61.1699 50.4502 61.1643 50.453C61.1508 50.4595 61.1876 50.4248 61.2048 50.4167C61.2219 50.4086 61.2318 50.3832 61.2476 50.3723C61.2514 50.3697 61.2542 50.3662 61.2543 50.3631C61.2544 50.3599 61.2516 50.357 61.2473 50.3555C61.2429 50.354 61.2371 50.354 61.2352 50.3556C61.2333 50.3572 61.2355 50.3604 61.2387 50.3623C61.242 50.3642 61.2462 50.3646 61.2467 50.3659C61.2472 50.3672 61.2439 50.3693 61.2439 50.3694C61.2436 50.3812 61.2631 50.354 61.2648 50.349C61.2653 50.3476 61.2585 50.3503 61.2547 50.3542C61.247 50.3622 61.2442 50.3723 61.242 50.3756C61.2354 50.3857 61.2584 50.3579 61.2598 50.3537C61.2637 50.3417 61.2424 50.3773 61.2283 50.3852C61.2225 50.3906 61.2165 50.3986 61.2101 50.4075C61.207 50.4115 61.2041 50.4144 61.2004 50.4161" stroke="black" stroke-width="0.01" stroke-linecap="round"/>
<path d="M61.1942 50.3912C61.2004 50.3845 61.2181 50.367 61.2193 50.3648C61.2265 50.3522 61.196 50.3841 61.1925 50.3862C61.1808 50.3929 61.2087 50.3656 61.2114 50.3636C61.2268 50.352 61.1743 50.3742 61.1667 50.3746C61.1477 50.3756 61.2048 50.3621 61.2079 50.3598C61.2106 50.3579 61.1916 50.3591 61.1866 50.3601C61.1834 50.3607 61.1854 50.3691 61.1771 50.3755C61.1728 50.3788 61.1661 50.3786 61.1653 50.3789C61.1616 50.3806 61.1808 50.3798 61.1883 50.3786C61.1949 50.3776 61.1667 50.3702 61.1546 50.3715C61.154 50.3716 61.1686 50.372 61.1744 50.3704C61.18 50.3689 61.1792 50.3618 61.1805 50.3608C61.1826 50.3591 61.1685 50.3604 61.1686 50.3604C61.1938 50.3604 61.208 50.355 61.211 50.3521C61.2158 50.3475 61.1839 50.3498 61.1657 50.3502C61.1416 50.3508 61.214 50.3425 61.2278 50.3375C61.2424 50.3322 61.1946 50.3529 61.1693 50.3539C61.1633 50.3541 61.159 50.3549 61.1596 50.3552C61.2086 50.3828 61.3029 50.301 61.3032 50.2978C61.3078 50.2519 61.2293 50.3361 61.1869 50.3553C61.185 50.3562 61.2168 50.3452 61.2539 50.3309C61.2625 50.3276 61.2159 50.3473 61.1846 50.368C61.178 50.3724 61.1746 50.3779 61.1724 50.3785C61.1701 50.379 61.1697 50.3751 61.1711 50.3711C61.1772 50.353 61.2037 50.3439 61.2332 50.3334C61.2579 50.3246 61.2752 50.3187 61.2898 50.3072C61.3045 50.2956 61.313 50.2859 61.3171 50.2831C61.3338 50.2716 61.2762 50.3015 61.2633 50.3167C61.2487 50.334 61.2154 50.3519 61.1924 50.3682C61.1824 50.3753 61.2235 50.3409 61.2542 50.3273C61.2733 50.3188 61.3033 50.2977 61.3314 50.2744C61.3406 50.2669 61.3362 50.2643 61.3318 50.2666C61.3083 50.2795 61.2696 50.3138 61.2389 50.3303C61.2312 50.3344 61.2135 50.3498 61.1939 50.366C61.1794 50.378 61.2662 50.3148 61.3386 50.2643C61.3454 50.2596 61.3018 50.2919 61.2722 50.3119C61.2381 50.3349 61.2038 50.3511 61.191 50.3598C61.1875 50.3621 61.1889 50.3579 61.1915 50.3536C61.2041 50.3337 61.2406 50.3159 61.2837 50.2894C61.3283 50.2618 61.3489 50.2516 61.3664 50.2424C61.3739 50.2384 61.383 50.2363 61.3879 50.2349C61.4078 50.2292 61.3444 50.2717 61.2249 50.3351C61.1703 50.3641 61.1289 50.4066 61.1248 50.4084C61.1205 50.4103 61.1281 50.3958 61.1347 50.3893C61.1496 50.3749 61.1694 50.3665 61.186 50.3545C61.2013 50.3435 61.2115 50.3366 61.2142 50.3314C61.2165 50.3268 61.1966 50.3276 61.1814 50.3287C61.1752 50.3292 61.1724 50.3329 61.1729 50.3355C61.1735 50.338 61.1776 50.3402 61.1817 50.3406C61.1977 50.3425 61.2127 50.3303 61.2221 50.3263C61.2264 50.3245 61.2084 50.3235 61.1997 50.3252C61.1949 50.3262 61.1902 50.33 61.1902 50.3314C61.1894 50.3456 61.2451 50.3127 61.2787 50.298C61.2882 50.2938 61.2953 50.2885 61.2978 50.2848C61.3065 50.2721 61.2665 50.3077 61.251 50.3183C61.2302 50.3287 61.2051 50.3393 61.1889 50.3406C61.1881 50.3414 61.1916 50.3433 61.1994 50.345" stroke="black" stroke-width="0.01" stroke-linecap="round"/>
<path d="M61.2013 50.3498C61.2024 50.3504 61.2067 50.3531 61.2145 50.3564C61.2183 50.358 61.2226 50.3566 61.2224 50.3547C61.2205 50.3383 61.1957 50.3425 61.1911 50.3419C61.175 50.3396 61.2296 50.3291 61.247 50.3126C61.2639 50.2965 61.2893 50.2774 61.3054 50.2625C61.314 50.2545 61.2533 50.3018 61.22 50.3307C61.2019 50.3464 61.1884 50.3501 61.1841 50.3498C61.169 50.3484 61.2328 50.3038 61.2746 50.278C61.2926 50.2669 61.3279 50.2523 61.3536 50.2418C61.3579 50.2401 61.3622 50.2398 61.3625 50.241C61.3661 50.2555 61.3356 50.2577 61.3067 50.2705C61.2778 50.2834 61.2416 50.3096 61.2148 50.3232C61.1954 50.3331 61.181 50.3427 61.1627 50.3539C61.1263 50.3762 61.112 50.3892 61.0826 50.4142C61.076 50.4198 61.0725 50.4231 61.0703 50.4226C61.0682 50.422 61.0676 50.4178 61.0693 50.4143C61.0803 50.3917 61.1267 50.3889 61.1442 50.3789C61.1631 50.3681 61.1703 50.3492 61.183 50.3339C61.1973 50.3167 61.234 50.3187 61.2551 50.3077C61.266 50.3019 61.2776 50.2981 61.2826 50.2939C61.2919 50.2861 61.2549 50.31 61.2401 50.3182C61.2247 50.3268 61.202 50.3317 61.1809 50.3388C61.162 50.3452 61.1446 50.357 61.1349 50.3717C61.1235 50.3869 61.1015 50.4124 61.0784 50.442C61.0689 50.4547 61.0642 50.4627 61.0593 50.471" stroke="black" stroke-width="0.01" stroke-linecap="round"/>
<path d="M61.1788 50.3573C61.1823 50.3532 61.1962 50.3434 61.211 50.3292C61.2416 50.2998 61.2943 50.2703 61.3732 50.2322C61.3773 50.2302 61.3124 50.2685 61.2239 50.3092C61.1901 50.3247 61.1796 50.3317 61.1763 50.3338C61.1669 50.3394 61.2047 50.3127 61.2472 50.2927C61.2898 50.2728 61.3462 50.2503 61.3805 50.2347C61.388 50.2313 61.3919 50.2305 61.3917 50.2326C61.3911 50.2412 61.376 50.25 61.3419 50.269C61.2692 50.3095 61.2139 50.3345 61.1925 50.3444C61.1769 50.3517 61.1526 50.3654 61.12 50.3899C61.0875 50.4144 61.0476 50.4497 61.0257 50.4697C61.0039 50.4897 61.0013 50.4932 60.9985 50.4969" stroke="black" stroke-width="0.01" stroke-linecap="round"/>
<path d="M60.5997 50.9536C60.5997 50.9532 60.5997 50.9577 60.5975 50.9612C60.5961 50.9633 60.5908 50.9529 60.5879 50.9521C60.5698 50.9474 60.5877 50.9905 60.5932 50.9981C60.5971 51.0034 60.6053 50.9865 60.6072 50.9826C60.6085 50.9801 60.6042 50.9981 60.6025 50.9932C60.6008 50.9883 60.6002 50.9654 60.5976 50.9548C60.595 50.9443 60.5904 50.9468 60.5869 50.9504C60.5799 50.9577 60.5782 50.9675 60.5796 50.9727C60.5814 50.9795 60.5953 50.9666 60.6002 50.9643C60.6215 50.9543 60.5899 51.0035 60.5886 51.0085C60.5843 51.025 60.593 50.9713 60.5939 50.9633C60.5944 50.9596 60.5907 50.9567 60.5883 50.9598C60.5859 50.9629 60.5838 50.972 60.5845 50.9777C60.5851 50.9833 60.5886 50.9851 60.5917 50.9836C60.5948 50.9822 60.5973 50.9774 60.5974 50.9777C60.5976 50.9779 60.5951 50.9834 60.5936 50.9888C60.5921 50.9941 60.5915 50.9991 60.5949 50.9939C60.5982 50.9886 60.6055 50.973 60.6067 50.9647C60.6079 50.9565 60.6029 50.956 60.5982 50.9589C60.5872 50.9654 60.5829 50.9789 60.581 50.9841C60.5796 50.9879 60.586 50.964 60.5875 50.9522C60.5891 50.9388 60.5807 50.9885 60.5801 50.9945C60.5797 50.9987 60.5799 50.9716 60.5799 50.9645C60.5799 50.9624 60.5836 50.9659 60.5893 50.9585C60.593 50.9537 60.5913 50.9432 60.5921 50.941C60.5937 50.937 60.5997 50.9554 60.6046 50.9611C60.6056 50.9624 60.6056 50.9574 60.6038 50.9536C60.602 50.9498 60.5988 50.9466 60.5974 50.9471C60.5845 50.9514 60.6036 50.9779 60.6028 51C60.6026 51.0057 60.5975 51.0097 60.5927 51.0129C60.5878 51.0161 60.5817 51.0181 60.5764 51.0184C60.571 51.0188 60.5666 51.0174 60.5631 51.0078C60.5535 50.9813 60.5548 50.955 60.557 50.9452C60.5578 50.9415 60.5636 50.943 60.5681 50.945C60.5726 50.947 60.5771 50.95 60.5781 50.9534C60.5801 50.9605 60.5736 50.9714 60.5752 50.9829C60.5759 50.988 60.5808 50.9902 60.5845 50.9897C60.5925 50.9886 60.5963 50.976 60.5991 50.9705C60.5997 50.9693 60.6015 50.9771 60.6014 50.9823C60.6012 50.9875 60.5998 50.9913 60.5966 50.9923C60.5887 50.9948 60.5773 50.9783 60.5698 50.9642C60.5631 50.9517 60.5859 50.9864 60.5883 50.9904C60.5919 50.9966 60.5734 50.9809 60.5695 50.9797C60.572 50.983 60.578 50.9884 60.5825 50.9947C60.584 50.9983 60.5839 51.003 60.5846 51.0104" stroke="#EDE6D6" stroke-width="0.01" stroke-linecap="round"/>
<path d="M60.6222 50.9924C60.6212 50.9924 60.6201 50.9806 60.6215 50.962C60.6221 50.955 60.6279 50.9537 60.6323 50.9531C60.641 50.952 60.649 50.9569 60.6549 50.9602C60.6669 50.9668 60.6555 50.9301 60.6462 50.9078C60.6419 50.8975 60.6364 50.8869 60.6352 50.8781C60.6359 50.8757 60.6394 50.8776 60.6428 50.8799C60.6462 50.8823 60.6494 50.8851 60.6572 50.8925" stroke="#EDE6D6" stroke-width="0.1" stroke-linecap="round"/>
<path d="M52.5657 1.50035C52.4946 1.30857 52.2657 1.28583 52.1008 1.34324C51.9298 1.39383 51.7559 1.49654 51.6199 1.58311C51.3066 1.78883 51.0412 2.01045 50.7738 2.2437C50.2397 2.71433 49.7333 3.22158 49.2368 3.7335C47.4595 5.57922 45.7776 7.523 44.0549 9.39993C43.1959 10.3353 42.3219 11.2717 41.4185 12.1402C40.9664 12.5725 40.5074 12.9898 40.0299 13.3505C39.8013 13.5217 39.5563 13.6874 39.3318 13.7954C39.1152 13.924 38.9095 13.854 39.1201 13.9134C36.9278 12.4571 34.3711 11.5455 31.7393 11.2539C29.0928 10.9577 26.3677 11.2867 23.8564 12.2294C21.3967 13.1492 19.1427 14.6638 17.3911 16.6502C17.3214 16.7291 17.2527 16.8086 17.1845 16.8889C15.5899 18.7662 14.4514 21.0456 13.9502 23.467C13.4271 25.9593 13.5903 28.5873 14.403 30.9834C15.2238 33.4261 16.7036 35.6163 18.593 37.3113L19.1806 37.8909L19.7077 37.2105C22.9444 32.598 26.1385 27.9542 29.2902 23.2789C30.0818 22.1046 30.8707 20.9283 31.657 19.75C30.7634 20.8492 29.8725 21.9503 28.9843 23.0534C25.4482 27.445 21.9546 31.868 18.5036 36.3223L19.6183 36.2216C17.9824 34.607 16.7525 32.6065 16.0987 30.439C15.4515 28.3114 15.3672 26.031 15.8533 23.8775C16.3206 21.7853 17.3193 19.8204 18.7104 18.1819C18.7698 18.1117 18.8298 18.0424 18.8906 17.9734C20.4184 16.2387 22.3827 14.888 24.5498 14.0344C26.762 13.1604 29.1847 12.8005 31.5747 12.9856C33.9511 13.1674 36.2972 13.889 38.3641 15.1151C38.5322 15.2194 38.7275 15.2761 38.9048 15.2895C39.062 15.3018 39.2103 15.2857 39.3494 15.2545C39.5843 15.2022 39.816 15.0933 39.9658 15.0098C40.3187 14.8134 40.5956 14.5952 40.8526 14.3805C41.381 13.9331 41.8354 13.4659 42.281 12.987C43.1663 12.0283 43.9876 11.0274 44.7881 10.0275C46.3912 8.02361 47.917 5.96261 49.5207 3.98606C49.9691 3.43801 50.4258 2.89381 50.9088 2.38437C51.1508 2.13168 51.3906 1.89004 51.6772 1.66355C51.8004 1.56613 51.9604 1.45314 52.117 1.39022C52.2687 1.32362 52.4742 1.31706 52.5657 1.50035Z" fill="black"/>
<path d="M15.5829 23.0887L31.5486 19.9111" stroke="black" stroke-width="0.4" stroke-linecap="round"/>
<path d="M15.5657 25.9998L31.2767 19.9998" stroke="black" stroke-width="0.4" stroke-linecap="round"/>
<path d="M31.5657 19.5C31.5657 20.0523 30.8941 20 30.0657 20C29.2372 20 29.0657 20.5523 29.0657 20C29.0657 19.4477 29.7372 15 30.5657 15C31.3941 15 31.5657 18.9477 31.5657 19.5Z" fill="black"/>
<path d="M20.8943 23.0575C20.8943 23.0557 20.9609 23.0512 21.1912 23.0097C21.3566 22.9799 21.6137 22.8998 21.7867 22.8475C22.1456 22.739 22.2275 22.6694 22.4098 22.5208C22.5559 22.4017 21.828 22.4667 21.6121 22.5195C21.3984 22.5717 21.3018 22.6182 20.9912 22.7208C20.7413 22.8033 20.2907 22.9029 20.0444 22.9621C19.7982 23.0213 19.7666 23.0256 19.595 23.0639C19.4235 23.1022 19.113 23.1743 18.9299 23.2207C18.7468 23.2671 18.7005 23.2855 18.6649 23.2961C18.6293 23.3068 18.6056 23.309 18.5813 23.3114" stroke="black" stroke-linecap="round"/>
<path d="M15.1792 24.7727C15.1806 24.7727 15.182 24.7727 15.3978 24.7714C15.6137 24.7702 16.044 24.7677 16.3011 24.7624C16.6292 24.7558 16.7749 24.7224 16.9696 24.6609C17.2653 24.5674 17.4556 24.471 17.4805 24.4503C17.4872 24.4447 17.4654 24.438 17.4445 24.4384C17.2108 24.4428 16.8339 24.6541 16.6524 24.6766C16.4983 24.6957 16.3712 24.6758 16.2764 24.644C16.1145 24.5897 15.935 24.4695 15.7977 24.4002C15.755 24.3787 15.7824 24.3592 16.0487 24.2519C16.315 24.1445 16.8232 23.9434 17.2267 23.8061C17.6302 23.6687 17.9136 23.6013 18.1225 23.5427C18.4606 23.4479 18.6023 23.378 18.6327 23.357C18.6641 23.3354 18.691 23.2965 18.7079 23.255C18.7602 23.1266 18.3313 23.1176 18.1883 23.1385C18.0383 23.1604 17.9193 23.2094 17.7466 23.247C17.6248 23.2735 17.4786 23.3292 17.2239 23.4034C17.0509 23.4538 16.7836 23.5088 16.5795 23.5679C16.3755 23.6271 16.2415 23.6833 16.1716 23.695C16.1016 23.7067 16.0997 23.6721 16.1065 23.649C16.1133 23.6258 16.1288 23.6151 16.1468 23.6086C16.1647 23.6021 16.1847 23.6002 16.4857 23.5318C16.7867 23.4634 17.3682 23.3286 17.7384 23.2513C18.1086 23.1739 18.2498 23.1582 18.4069 23.1459C18.7323 23.1204 18.9545 23.1099 19.0639 23.0895C19.3455 23.037 19.5285 22.9721 19.6276 22.9376C19.6865 22.9171 19.7774 22.8973 19.8695 22.8622C19.9243 22.8414 20.1528 22.7513 20.545 22.6254C20.7211 22.5689 20.8546 22.5397 20.9172 22.536C20.9798 22.5323 20.9685 22.5582 20.8316 22.6979C20.6946 22.8376 20.4323 23.0904 20.2551 23.2549C20.0779 23.4194 19.9938 23.488 19.8719 23.5699C19.7501 23.6518 19.593 23.7449 19.2793 23.9041C18.9656 24.0634 18.5 24.2859 18.2271 24.4062C17.8162 24.5872 17.7 24.5876 17.4371 24.6414C17.3119 24.6671 17.2427 24.7354 16.9962 24.8268C16.8371 24.8858 16.6907 25.0033 16.5173 25.0681C16.3549 25.1288 16.1752 25.1833 15.9893 25.2512C15.7136 25.3404 15.6557 25.3517 15.5954 25.3746C15.5577 25.3905 15.5057 25.4149 15.4084 25.4391" stroke="black" stroke-linecap="round"/>
<path d="M19.5022 23.9541C19.5226 23.9541 19.6514 23.9263 19.8429 23.8278C20.0329 23.73 20.1761 23.5802 20.2806 23.5368C20.335 23.5142 20.5081 23.4509 20.7599 23.3148C20.9562 23.2086 21.1598 23.1504 21.3851 23.0647C21.6407 22.9674 21.794 22.8592 21.9106 22.8071C22.13 22.7092 22.2917 22.6409 22.3842 22.6314C22.5699 22.6125 22.7082 22.6194 22.7423 22.6025C22.7605 22.5935 22.7751 22.574 22.7774 22.5734C22.7954 22.5689 22.7439 22.6171 22.6001 22.6998C22.2228 22.9169 21.95 23.0227 21.9425 22.9801C21.9263 22.8867 22.0138 22.8053 22.0713 22.7451C22.1255 22.6882 22.1987 22.6477 22.2787 22.6126C22.3535 22.5799 22.4182 22.4986 22.4917 22.4233C22.5525 22.361 22.6069 22.3114 22.8332 22.2426C23.0393 22.1799 23.4352 22.0772 23.6546 22.0146C23.9076 21.9423 24.0199 21.8973 24.1779 21.8599C24.3217 21.8259 24.4287 21.8387 24.4709 21.842C24.5526 21.8485 24.1489 22.0905 23.9144 22.2211C23.804 22.2613 23.6021 22.3313 23.4386 22.3968C23.2751 22.4623 23.1561 22.5213 22.9966 22.6021" stroke="black" stroke-linecap="round"/>
<path d="M24.1167 22.2086C24.195 22.1807 24.4093 22.0994 24.5087 22.0494C24.5464 22.0304 24.6195 21.9925 24.7442 21.9193C25.0682 21.7288 25.3037 21.6663 25.4258 21.6259C25.6646 21.5467 25.746 21.5249 25.8651 21.4817C26.0627 21.4101 26.1793 21.3723 26.281 21.336C26.3197 21.3187 26.3599 21.3029 26.4028 21.2906C26.423 21.2851 26.4398 21.2814 26.4847 21.2529" stroke="black" stroke-linecap="round"/>
<path d="M26.844 21.3005C26.8455 21.3005 26.9276 21.2529 27.0702 21.1729C27.1671 21.1185 27.221 21.1059 27.3336 21.0801C27.4353 21.0569 27.6281 21.0142 27.7308 20.9886C27.8418 20.9609 27.8619 20.9416 27.9421 20.9114C28.1226 20.8436 28.2624 20.811 28.333 20.7913C28.596 20.718 28.6569 20.6372 28.7134 20.6115C28.7736 20.5842 28.867 20.5642 28.947 20.5388C28.961 20.5334 28.9715 20.529 28.9829 20.5254C28.9943 20.5217 29.0063 20.519 29.0392 20.5093" stroke="black" stroke-width="0.6" stroke-linecap="round"/>
<path d="M64.703 14.1462C64.703 16.0792 79.76 17.9233 75.0656 17.9233C70.3712 17.9233 61.6549 18.5793 61.6549 16.6463C61.6549 14.7133 46.0656 3.99989 52.5657 1.5C51.0656 -0.500098 65.0656 19.4234 64.703 14.1462Z" fill="black"/>
<path d="M52.7693 1.5C52.7693 1.77614 52.2488 1.99997 51.9727 1.99997C51.6965 1.99997 53.5864 2.50009 54.5863 1C54.5864 1.50009 50.5657 1 52.0658 1.5C50.5657 2 52.2693 1.5 52.7693 1.5Z" fill="black"/>
<path d="M52.748 1.60449V1.62684" stroke="black" stroke-width="0.5" stroke-linecap="round"/>
<path d="M52.0383 1.48793C52.0332 1.48797 52.0183 1.49044 52.0164 1.4937C52.0237 1.49382 52.0372 1.49032 52.0515 1.48571C52.0585 1.48383 52.0649 1.4829 52.0747 1.48193" stroke="black" stroke-width="0.2" stroke-linecap="round"/>
<path d="M51.8039 1.57802C51.8049 1.57802 51.8245 1.57802 51.8514 1.57841C51.8704 1.57868 51.7846 1.60083 51.7541 1.59971C51.7488 1.59951 51.7488 1.59211 51.7515 1.58775C51.7575 1.57794 51.7865 1.56976 51.816 1.56173C51.8248 1.55933 51.8221 1.56529 51.8188 1.56897C51.8155 1.57264 51.8119 1.57511 51.8129 1.57599C51.8279 1.58877 51.8486 1.56075 51.8514 1.55643C51.8545 1.55189 51.8267 1.56261 51.8076 1.57465C51.7869 1.58763 51.867 1.5442 51.8866 1.51931C51.8908 1.51387 51.8918 1.50957 51.8905 1.50689C51.8892 1.50421 51.885 1.50286 51.8806 1.50293C51.8608 1.50328 51.8405 1.52541 51.8244 1.54498C51.821 1.54904 51.8201 1.55323 51.822 1.55433C51.8281 1.55795 51.8531 1.54124 51.8781 1.52535C51.8851 1.5209 51.8784 1.5208 51.8734 1.52275C51.8522 1.53111 51.8402 1.5579 51.8379 1.56842C51.8352 1.58098 51.8851 1.54855 51.918 1.52416C51.9283 1.51653 51.9206 1.51269 51.9152 1.51146C51.8978 1.50743 51.8781 1.51714 51.8198 1.55983C51.8065 1.56953 51.8022 1.57529 51.8135 1.57462C51.8901 1.57004 51.9098 1.54728 51.9173 1.54156C51.9542 1.51331 51.8128 1.61146 51.8113 1.60372C51.8078 1.58629 51.838 1.57397 51.8463 1.56949C51.8507 1.56712 51.8283 1.57831 51.82 1.57972C51.8118 1.58112 51.8094 1.57714 51.8098 1.57328C51.8108 1.56491 51.8272 1.55627 51.8406 1.54874C51.8504 1.54322 51.8153 1.56436 51.8093 1.57106C51.8064 1.57424 51.8056 1.57832 51.8074 1.57938C51.8132 1.58279 51.8284 1.56985 51.8399 1.56002C51.8565 1.5459 51.7885 1.58824 51.7729 1.60508C51.7689 1.60944 51.7663 1.61407 51.7716 1.61249C51.8108 1.60073 51.8169 1.58429 51.8195 1.57895C51.822 1.57383 51.7992 1.58162 51.7861 1.58849C51.784 1.58959 51.8053 1.57361 51.8201 1.55423C51.8247 1.5482 51.8179 1.54651 51.8125 1.54661C51.8018 1.54682 51.791 1.55436 51.785 1.56267C51.7833 1.56504 51.7894 1.56573 51.795 1.56333C51.8081 1.55781 51.8174 1.54916 51.8208 1.54761C51.8374 1.54002 51.7888 1.5728 51.7865 1.57597C51.7792 1.58601 51.8084 1.56083 51.8156 1.55758C51.8195 1.55581 51.801 1.55845 51.7948 1.56342C51.7909 1.56661 51.8197 1.55983 51.84 1.55104C51.8551 1.54449 51.8089 1.57567 51.8029 1.58502C51.7948 1.59772 51.8344 1.56644 51.8599 1.56263C51.8664 1.56166 51.871 1.55707 51.8733 1.55264C51.8756 1.54821 51.8754 1.54318 51.8727 1.54038C51.87 1.53758 51.8648 1.53717 51.8613 1.53953C51.8579 1.54189 51.8564 1.54703 51.8577 1.54767C51.8589 1.5483 51.863 1.54428 51.8646 1.54412C51.8663 1.54397 51.8655 1.54781 51.8671 1.5489C51.8687 1.54999 51.8728 1.54821 51.8761 1.54574C51.8794 1.54326 51.8818 1.54015 51.8809 1.53831C51.8801 1.53648 51.8759 1.53602 51.8728 1.53761C51.8662 1.54092 51.8648 1.55091 51.8653 1.55602C51.8654 1.5574 51.8693 1.55402 51.8713 1.55064C51.8732 1.54726 51.874 1.5434 51.8731 1.54315C51.8722 1.5429 51.8695 1.54639 51.8702 1.5477C51.8722 1.55191 51.8823 1.54474 51.8849 1.54176C51.8855 1.54101 51.8792 1.54219 51.8767 1.54488C51.8741 1.54758 51.874 1.55185 51.8758 1.55516C51.8777 1.55847 51.8815 1.5607 51.8846 1.5596C51.8878 1.5585 51.8901 1.554 51.8916 1.54921C51.8931 1.54443 51.8936 1.53948 51.8911 1.53623C51.8887 1.53298 51.8831 1.53159 51.8799 1.53321C51.8768 1.53484 51.8762 1.53953 51.8739 1.54144C51.869 1.5455 51.8597 1.54263 51.8582 1.5445C51.8567 1.54639 51.8692 1.54479 51.8728 1.54737C51.8764 1.54995 51.8748 1.55539 51.876 1.55842C51.8772 1.56146 51.8813 1.56192 51.8855 1.56239" stroke="black" stroke-width="0.01" stroke-linecap="round"/>
<path d="M51.8921 1.56377C51.8921 1.56341 51.871 1.56305 51.8346 1.56483C51.8106 1.57089 51.7981 1.57722 51.7909 1.58197C51.7873 1.58461 51.7836 1.5877 51.7766 1.59713" stroke="black" stroke-width="0.09" stroke-linecap="round"/>
<path d="M54.5454 1.0708V1.07147" stroke="black" stroke-width="0.09" stroke-linecap="round"/>
<path d="M54.5901 1.00932L54.592 1.00781" stroke="black" stroke-width="0.09" stroke-linecap="round"/>
<path d="M54.6362 0.95459L54.638 0.959171" stroke="black" stroke-width="0.09" stroke-linecap="round"/>
<path d="M54.4958 1.11914L54.5043 1.11987" stroke="black" stroke-width="0.09" stroke-linecap="round"/>
<path d="M54.6682 0.982422V4.87421" stroke="black" stroke-width="0.04" stroke-linecap="round"/>
<path d="M62.1278 16.2856C62.13 16.2856 62.1318 16.4551 62.1249 16.7403C62.1206 16.9144 62.0849 17.2734 62.0977 17.7676C62.1104 18.253 62.3934 18.556 62.5416 18.7794C62.6431 18.8796 62.7364 18.9571 62.8176 19.0371C62.8519 19.0701 62.8721 19.0878 62.893 19.106" stroke="black" stroke-linecap="round"/>
<path d="M62.6252 17.0283C62.6252 17.0256 62.6731 17.3418 62.8169 17.9838C62.9673 18.6551 63.2329 19.007 63.2899 19.0903C63.3335 19.1539 63.3853 19.1975 63.434 19.2143C63.4814 19.2307 63.4887 18.9164 63.4889 18.5457C63.489 18.1488 63.3217 17.6332 63.2959 17.5052C63.2892 17.4717 63.3409 17.6651 63.5459 18.0681C63.7069 18.3845 64.0281 18.9045 64.1982 19.186C64.3683 19.4676 64.389 19.4888 64.4054 19.487C64.4217 19.4851 64.4332 19.4595 64.4352 19.4231C64.4445 19.2481 64.3373 19.1183 64.2242 18.8679C64.0145 18.404 63.8956 17.9639 63.8776 17.7922C63.8715 17.7339 63.9216 17.7341 63.9552 17.7432C64.0206 17.7609 64.2038 17.9262 64.5141 18.2172C65.0249 18.7597 65.2472 18.9162 65.3993 19.0005C65.4604 19.0337 65.489 19.0475 65.564 19.0468" stroke="black" stroke-linecap="round"/>
<path d="M65.0288 17.0742C65.0335 17.1101 65.0636 17.2318 65.2788 17.5241C65.4676 17.7805 65.841 18.2387 66.0412 18.4877C66.2602 18.7603 66.3367 18.8472 66.416 18.964C66.4481 19.0112 66.4455 19.0449 66.424 19.0652C66.3715 19.1148 66.2547 19.1028 66.1548 19.0962C65.877 19.0778 65.6356 18.5255 65.4281 18.1028C65.2971 17.8359 64.9932 17.6616 64.8944 17.4915C64.8603 17.4329 64.8519 17.3296 64.8643 17.2861C64.8766 17.2425 64.9235 17.2558 65.3127 17.525C65.7019 17.7942 66.4319 18.3188 66.8442 18.6262C67.4469 19.0755 67.5384 19.1765 67.7534 19.3645C68.1376 19.7006 66.4886 19.2363 66.5283 19.2253C66.7435 19.1662 66.9881 19.2251 67.4774 19.3112C67.8934 19.3843 68.6455 19.5419 69.0492 19.6218C69.453 19.7017 69.4844 19.7055 69.1449 19.5053C68.8054 19.3051 68.0941 18.9009 67.7127 18.6817C67.2427 18.4114 67.1118 18.248 66.9349 18.1011C66.9021 18.0739 66.8712 18.0709 66.8697 18.0625C66.8507 17.9533 67.1911 18.0657 67.5148 18.1692C67.7492 18.2442 68.1134 18.4014 68.3384 18.5007C68.6402 18.6339 68.8025 18.7978 69.1137 19.0764C69.3208 19.2618 69.6664 19.4911 69.8519 19.6191C70.0374 19.7471 70.0622 19.7551 69.8164 19.5297C69.5705 19.3043 69.0533 18.8453 68.7126 18.5168C68.372 18.1883 68.2236 18.0043 68.5896 18.2175C68.9557 18.4307 69.8406 19.0468 70.3097 19.3692C70.7789 19.6916 70.8054 19.7017 70.6658 19.5152C70.5261 19.3286 70.2193 18.9451 69.9989 18.6898C69.5263 18.1425 69.3238 18.1235 69.0559 17.8873C69.0154 17.8516 69.0677 17.8447 69.1072 17.8545C69.1466 17.8644 69.182 17.8821 69.4657 18.0595C69.7494 18.2369 70.2802 18.5735 70.5764 18.7663C70.9978 19.0407 71.074 19.1495 71.2489 19.3516C71.3998 19.5259 71.502 19.6415 71.5185 19.6881C71.5255 19.7076 71.4904 19.7227 71.4567 19.7218C71.2951 19.7174 71.2121 19.5575 71.1437 19.4468C71.0858 19.3533 71.0142 19.0631 70.92 18.6961C70.8691 18.4978 70.757 18.2964 70.6466 18.0899C70.6163 18.0332 70.6446 18.0709 70.8723 18.3461C71.1 18.6214 71.5279 19.1322 71.7578 19.4039C72.004 19.695 72.0447 19.7284 72.0658 19.7378C72.2592 19.8245 71.7769 19.2073 71.7324 19.0512C71.6804 18.8689 71.5702 18.6682 71.4715 18.4879C71.4055 18.3673 71.3903 18.2821 71.4021 18.2398C71.4117 18.2057 71.502 18.2548 71.5801 18.2721C71.7338 18.3063 71.9677 18.8728 72.182 19.263C72.2712 19.4254 72.5698 19.5384 72.8163 19.7189C72.8897 19.7726 72.8268 19.7868 72.8134 19.7837C72.7921 19.7787 72.8598 19.4724 72.8361 18.939C72.8158 18.4844 72.6938 18.2187 72.6419 18.1126C72.6072 18.0417 72.5586 18.011 72.5004 17.9946C72.4664 17.985 72.4202 17.9869 72.4106 17.9916C72.389 18.0025 72.7399 18.0375 73.1906 18.0679C73.4047 18.0824 73.4954 18.0967 73.7349 18.1051C74.2753 18.1238 74.6588 18.1117 74.7202 18.1219C74.9339 18.1576 75.2059 18.169 75.3848 18.1823C75.5183 18.1922 75.6158 18.2951 75.6895 18.3792C75.7767 18.4787 75.7528 18.6994 75.7239 18.8528C75.6933 19.0149 75.4779 19.1852 75.2226 19.4371C75.0076 19.6493 74.6215 19.8256 74.3061 19.9996C74.127 20.0984 73.9012 20.0495 73.6844 19.985C73.5639 19.9492 73.4902 19.8981 73.4556 19.8564C73.3389 19.7157 73.4822 19.2637 73.6267 18.909C73.7769 18.5402 74.661 18.6099 74.7364 18.6026C74.7657 18.5997 74.7733 18.6405 74.774 18.6751C74.779 18.9232 74.5616 19.2113 74.3958 19.3392C74.2299 19.4263 74.0465 19.4875 73.943 19.4944C73.9005 19.4881 73.878 19.4619 73.8548 19.4349" stroke="black" stroke-linecap="round"/>
<path d="M74.7546 18.189C74.8513 18.1922 75.1016 18.2053 75.2508 18.2213C75.3907 18.2362 75.5263 18.2653 75.6467 18.2833C75.7825 18.3036 75.8932 18.3636 76.0084 18.4113C76.1131 18.4547 76.2215 18.5469 76.308 18.652C76.347 18.6994 76.3414 18.8009 76.3279 18.9022C76.3114 19.027 76.0866 19.1049 75.8821 19.2481C75.6177 19.4332 75.4887 19.5204 75.3356 19.5979C75.1436 19.695 74.9694 19.8516 74.7924 19.9667C74.7396 20.0011 74.7646 19.9905 74.7955 19.9714C74.9523 19.8747 75.1353 19.8316 75.332 19.7699C75.5586 19.6988 75.671 19.6068 75.8902 19.5072C75.9699 19.471 76.0584 19.4345 76.1518 19.3733C76.2208 19.3281 76.2567 19.2689 76.2826 19.1488C76.3354 18.9037 76.2832 18.7061 76.2575 18.6502C76.2117 18.5505 76.0808 18.4976 75.956 18.4248C75.8401 18.3571 75.7543 18.2912 75.7351 18.2606C75.6714 18.159 75.9743 18.2572 76.1416 18.3407C76.271 18.4052 76.4225 18.5009 76.4997 18.6153C76.5667 18.7147 76.5383 18.9089 76.4738 19.0653C76.3713 19.3141 76.2461 19.3732 76.1254 19.5307C76.0141 19.6759 75.8476 19.7659 75.6923 19.8566C75.5769 19.924 75.4374 19.9648 75.3126 20.0104C75.2834 20.0208 75.2595 20.0307 75.2281 20.0281C75.1968 20.0255 75.1586 20.0101 75.1193 19.9942" stroke="black" stroke-linecap="round"/>
<path d="M53.0369 1.88232H54.4803" stroke="black" stroke-width="0.5" stroke-linecap="round"/>
<path d="M54.7107 0.720703V4.68126" stroke="black" stroke-width="0.07" stroke-linecap="round"/>
<path d="M54.6978 0.756836V4.84806" stroke="black" stroke-width="0.07" stroke-linecap="round"/>
<path d="M54.6885 0.733398V4.64101" stroke="black" stroke-width="0.07" stroke-linecap="round"/>
<path d="M54.6396 0.78125V4.65831" stroke="black" stroke-width="0.07" stroke-linecap="round"/>
<path d="M54.5996 0.798828V4.65983" stroke="black" stroke-width="0.07" stroke-linecap="round"/>
<path d="M54.6199 1.09033V4.65025" stroke="black" stroke-width="0.07" stroke-linecap="round"/>
<path d="M54.6047 0.761719V4.68689" stroke="black" stroke-width="0.07" stroke-linecap="round"/>
<path d="M54.636 0.777832V4.68674" stroke="black" stroke-width="0.07" stroke-linecap="round"/>
<path d="M54.5386 0.770996V4.62166" stroke="black" stroke-width="0.07" stroke-linecap="round"/>
<path d="M54.6077 0.753906V4.76478" stroke="black" stroke-width="0.07" stroke-linecap="round"/>
<path d="M52.479 0.681152C52.4451 0.70595 52.4097 0.748125 52.3765 0.816895C52.3499 0.872011 52.3299 0.939324 52.313 1.01611C52.3928 0.94435 52.4903 0.876093 52.6118 0.824707C52.5617 0.7871 52.5152 0.739842 52.479 0.681152Z" fill="#EDE6D6" stroke="black" stroke-width="0.3"/>
<path d="M54.2405 0.448242C54.2736 0.509483 54.3069 0.5971 54.3333 0.708008C54.3364 0.721339 54.3381 0.735322 54.3411 0.749023C54.2757 0.680573 54.2009 0.616841 54.1106 0.567383C54.1129 0.565847 54.1161 0.56504 54.1184 0.563477C54.1624 0.533049 54.2041 0.49419 54.2405 0.448242Z" fill="#EDE6D6" stroke="black" stroke-width="0.3"/>
<path d="M63.6211 11.9102C63.767 11.9658 63.914 12.0172 64.0439 12.0488C64.1583 12.0766 64.2812 12.0952 64.3828 12.0762C64.4361 12.0662 64.4973 12.0438 64.5449 11.9932C64.5582 11.979 64.568 11.9631 64.5771 11.9473C64.5836 11.9484 64.5897 11.9483 64.5947 11.9502C64.6144 11.9575 64.6381 11.974 64.6641 12.0088C64.7198 12.0838 64.7674 12.2194 64.7969 12.4121C64.8549 12.7917 64.8349 13.3158 64.7793 13.7959C64.7613 13.951 64.7378 14.0983 64.7148 14.2324C64.7147 13.855 64.7134 13.5677 64.6973 13.3428C64.6774 13.0665 64.6354 12.8636 64.5361 12.6914C64.4373 12.5201 64.2903 12.3941 64.0986 12.2529C63.9633 12.1532 63.8117 12.0475 63.6211 11.9102Z" fill="black" stroke="black" stroke-width="0.3"/>
<path d="M66.1687 11.9551C65.8247 12.0581 65.4257 12.1796 65.113 12.2383C64.9591 12.2671 64.809 12.2847 64.6921 12.2695C64.6418 12.263 64.5861 12.2466 64.5359 12.2148C64.5299 12.2308 64.5231 12.2497 64.5173 12.2725C64.4848 12.4004 64.4715 12.5931 64.4773 12.834C64.4887 13.3119 64.5728 13.9346 64.6814 14.4971C64.755 14.8781 64.8406 15.222 64.9167 15.4717C64.9178 14.456 64.9763 13.8077 65.2195 13.2842C65.4665 12.7524 65.8948 12.3673 66.575 11.8506C66.5828 11.8446 66.5899 11.8378 66.5974 11.832C66.4725 11.8653 66.3262 11.9079 66.1687 11.9551Z" fill="black" stroke="black" stroke-width="0.3"/>
<path d="M64.6948 14.2021H64.7007" stroke="black" stroke-width="0.07" stroke-linecap="round"/>
<path d="M64.4876 11.7982C64.4881 11.7982 64.5013 11.7888 64.5215 11.7712C64.5347 11.7599 64.5314 11.7311 64.5245 11.692C64.5159 11.6433 64.4797 11.614 64.457 11.5962C64.4041 11.5547 64.2818 11.5525 64.2159 11.5586C64.1747 11.5624 64.1584 11.5984 64.1373 11.6232C64.128 11.6342 64.1265 11.6522 64.1271 11.6719C64.1275 11.6877 64.1355 11.7005 64.1451 11.7118C64.1879 11.7623 64.3104 11.7684 64.3746 11.7708C64.412 11.7721 64.4605 11.7926 64.4979 11.791C64.541 11.7891 64.4483 11.6521 64.4207 11.614C64.4013 11.5872 64.4817 11.6324 64.4925 11.6415C64.5172 11.6619 64.5082 11.7277 64.5181 11.7626C64.52 11.7693 64.5245 11.7746 64.5296 11.7771C64.5348 11.7796 64.5415 11.779 64.5464 11.775C64.5685 11.7572 64.5637 11.7144 64.5533 11.6732C64.5367 11.6077 64.4737 11.5756 64.4444 11.5649C64.3951 11.5469 64.3189 11.5384 64.2361 11.5371C64.1834 11.5363 64.1579 11.5637 64.1336 11.5904C64.1197 11.6058 64.1123 11.6226 64.1079 11.636C64.0955 11.6735 64.1383 11.722 64.1688 11.7517C64.2059 11.788 64.3264 11.7933 64.4579 11.8001C64.4817 11.8013 64.4019 11.7909 64.3561 11.7821C64.2259 11.7571 64.1897 11.7323 64.1624 11.7074C64.1501 11.6961 64.1471 11.6571 64.1478 11.606C64.1482 11.5716 64.1695 11.5489 64.1877 11.5309C64.2006 11.5183 64.2871 11.5153 64.4133 11.5147C64.5009 11.5143 64.5337 11.5491 64.5555 11.5725C64.5747 11.5931 64.5721 11.7064 64.5649 11.7853C64.563 11.8065 64.5688 11.7155 64.5715 11.6815C64.5754 11.6321 64.5305 11.5633 64.4774 11.5279C64.41 11.483 64.2662 11.526 64.2012 11.5491C64.1775 11.5575 64.161 11.5692 64.1476 11.581C64.1138 11.6104 64.1223 11.7131 64.137 11.7515C64.1476 11.7792 64.1852 11.7822 64.2418 11.7942C64.3674 11.8209 64.4709 11.8077 64.4772 11.804C64.4951 11.7934 64.3196 11.8084 64.2055 11.7958C64.1683 11.7916 64.1355 11.7469 64.1111 11.7134C64.1027 11.7017 64.1038 11.6727 64.1052 11.6389C64.1067 11.6041 64.1453 11.588 64.1722 11.5678C64.1997 11.5472 64.2432 11.5517 64.3924 11.5543C64.4476 11.5721 64.478 11.5958 64.49 11.6126C64.4914 11.6184 64.4831 11.6187 64.4745 11.619" stroke="black" stroke-width="0.07" stroke-linecap="round"/>
<path d="M64.1859 11.4661C64.1798 11.4667 64.1556 11.4691 64.1302 11.4869C64.0869 11.517 64.0744 11.5403 64.0588 11.5636C64.0463 11.5823 64.0501 11.6379 64.0645 11.6967C64.0707 11.7222 64.0919 11.7357 64.1166 11.7553C64.1643 11.7932 64.2494 11.7865 64.2965 11.7886C64.4557 11.7957 64.4677 11.7967 64.4747 11.8022C64.478 11.8048 64.4788 11.8092 64.4778 11.8126C64.4768 11.816 64.4736 11.8189 64.4696 11.8205C64.4511 11.8278 64.397 11.8267 64.3461 11.822C64.3179 11.8195 64.3004 11.8162 64.2535 11.809C64.2275 11.805 64.2102 11.7972 64.1775 11.783C64.1518 11.7719 64.1203 11.7676 64.0981 11.7454C64.0915 11.7388 64.0876 11.7282 64.0858 11.725C64.0819 11.7177 64.1067 11.7497 64.1277 11.7655C64.1562 11.7868 64.2013 11.8043 64.2251 11.8114C64.2549 11.8203 64.2741 11.8208 64.3519 11.8324C64.4919 11.8532 64.5122 11.8278 64.5384 11.8104C64.5631 11.7939 64.5775 11.7808 64.5865 11.764C64.6112 11.7177 64.5927 11.6167 64.5725 11.5727C64.5559 11.5368 64.5251 11.5211 64.4865 11.4974C64.4454 11.4722 64.4171 11.4726 64.391 11.4701C64.3675 11.468 64.3319 11.4672 64.2927 11.4654C64.2425 11.4632 64.2051 11.4675 64.1963 11.4725C64.1796 11.482 64.1687 11.5031 64.1408 11.5532C64.135 11.5637 64.1362 11.5688 64.1345 11.5721C64.1329 11.5755 64.1293 11.5774 64.1255 11.5779C64.1216 11.5783 64.1176 11.5773 64.1136 11.5755C64.1096 11.5737 64.1057 11.5713 64.1108 11.5788C64.1288 11.6051 64.1615 11.6329 64.1981 11.6535C64.2177 11.6646 64.2418 11.6725 64.2751 11.6817C64.3084 11.6908 64.3508 11.6999 64.3861 11.7117C64.4808 11.7554 64.4929 11.7647 64.4961 11.7695C64.4958 11.7711 64.4918 11.7712 64.4876 11.7712" stroke="black" stroke-width="0.07" stroke-linecap="round"/>
<path d="M64.354 11.6187L64.3551 11.6285" stroke="#EDE6D6" stroke-width="0.07" stroke-linecap="round"/>
<path d="M54.0825 0.0888672L54.0868 0.091218" stroke="#EDE6D6" stroke-width="0.07" stroke-linecap="round"/>
<path d="M52.688 0.397003V0.396484" stroke="#EDE6D6" stroke-width="0.07" stroke-linecap="round"/>
<path d="M54.4521 0.678711C54.4706 0.69119 54.5138 0.723892 54.5373 0.760364C54.5565 0.790287 54.5572 0.818701 54.5649 0.837247C54.5793 0.871845 54.587 0.915861 54.5908 0.969621C54.5962 1.04756 54.5892 1.09833 54.5844 1.09562C54.5825 1.08866 54.5817 1.07038 54.576 1.05881C54.5702 1.04723 54.5596 1.04291 54.5486 1.03846" stroke="black" stroke-width="0.07" stroke-linecap="round"/>
<path d="M54.2542 0.416992C54.2542 0.417994 54.2568 0.423093 54.2816 0.460366C54.3034 0.493218 54.345 0.553714 54.3961 0.621377C54.4472 0.689041 54.5067 0.761873 54.5254 0.783855C54.5672 0.833164 54.4513 0.70218 54.4206 0.653092C54.3932 0.609472 54.3689 0.554208 54.382 0.546314C54.4112 0.528735 54.4879 0.622471 54.5392 0.665184C54.6168 0.729748 54.649 0.769737 54.6611 0.788064C54.664 0.792437 54.6142 0.766741 54.5431 0.720206C54.5123 0.70005 54.4949 0.68292 54.4689 0.652355C54.4428 0.621789 54.4092 0.577287 54.3945 0.554802C54.3797 0.532318 54.3849 0.5332 54.4004 0.537727C54.4419 0.549819 54.4811 0.565998 54.5116 0.585129C54.5531 0.611146 54.5852 0.640431 54.6064 0.662374C54.6465 0.703651 54.6544 0.73591 54.6628 0.756243C54.6686 0.770292 54.6231 0.700313 54.5588 0.642987C54.5148 0.603701 54.4409 0.551546 54.4011 0.52196C54.3613 0.492374 54.3563 0.48894 54.3563 0.487696C54.3565 0.482376 54.419 0.502369 54.5035 0.525935C54.5482 0.538419 54.5773 0.558259 54.6121 0.582505C54.6665 0.620378 54.6886 0.663165 54.7043 0.692765C54.7217 0.725485 54.7224 0.749615 54.7246 0.787906C54.7283 0.854303 54.7225 0.911729 54.7141 0.96063C54.708 0.996496 54.6981 1.0548 54.6928 1.08783C54.6874 1.12087 54.6869 1.12688 54.686 1.13391" stroke="black" stroke-width="0.07" stroke-linecap="round"/>
<path d="M54.2725 0.367188C54.2934 0.384811 54.3641 0.438944 54.4185 0.479965C54.4447 0.499794 54.4628 0.524455 54.485 0.556582C54.5339 0.627601 54.5607 0.680863 54.5698 0.704233C54.575 0.717671 54.5793 0.735108 54.5803 0.739669C54.5812 0.744194 54.5633 0.706759 54.5343 0.661542C54.5178 0.635742 54.4945 0.606198 54.4694 0.575632C54.4189 0.513852 54.3722 0.469001 54.3434 0.4453C54.3291 0.433517 54.3223 0.42808 54.3212 0.422939C54.3196 0.414822 54.3764 0.433062 54.4455 0.456635C54.4895 0.471658 54.527 0.502502 54.5702 0.538736C54.6053 0.568108 54.6316 0.609948 54.6597 0.657943C54.6735 0.681587 54.6843 0.704981 54.6894 0.714244C54.692 0.718927 54.6511 0.674052 54.5874 0.611743C54.5572 0.582229 54.548 0.569363 54.5322 0.556916C54.5053 0.535635 54.4613 0.509164 54.4205 0.484979C54.3839 0.463287 54.3381 0.428689 54.3173 0.400801C54.3133 0.395551 54.338 0.404883 54.3659 0.411675C54.4185 0.42446 54.4786 0.437816 54.523 0.454458C54.5715 0.472596 54.6088 0.517991 54.6597 0.57773C54.7083 0.634738 54.7298 0.685074 54.7408 0.712325C54.7496 0.7343 54.7484 0.78555 54.7422 0.87756C54.7387 0.929963 54.7254 0.993166 54.7188 1.02863C54.7112 1.06983 54.7074 1.08203 54.7018 1.11736C54.6975 1.14613 54.6902 1.19691 54.6859 1.23343C54.6815 1.26995 54.6804 1.29068 54.6777 1.32303" stroke="black" stroke-width="0.07" stroke-linecap="round"/>
<path d="M53.092 0.757812L53.0975 0.760009" stroke="black" stroke-width="0.07" stroke-linecap="round"/>
<path d="M53.6174 0.461914V0.463309" stroke="black" stroke-width="0.07" stroke-linecap="round"/>
<circle cx="19.0657" cy="34.5" r="0.5" fill="black"/>
<circle cx="20.0657" cy="33.5" r="0.5" fill="black"/>
<circle cx="21.0657" cy="32.5" r="0.5" fill="black"/>
<circle cx="22.0657" cy="31.5" r="0.5" fill="black"/>
<circle cx="23.0657" cy="30.5" r="0.5" fill="black"/>
<circle cx="24.0657" cy="29.5" r="0.5" fill="black"/>
<circle cx="25.0657" cy="28.5" r="0.5" fill="black"/>
<path d="M1.56567 47.5H46.0657" stroke="black" stroke-width="0.4" stroke-linecap="round"/>
<path d="M1.06567 50H48.5657" stroke="black" stroke-width="0.4" stroke-linecap="round"/>
</svg>
