<svg width="912" height="912" viewBox="0 0 912 912" fill="none" xmlns="http://www.w3.org/2000/svg">
<g clip-path="url(#clip0_36_196)">
<path d="M626.5 241C629.286 241 632.409 242.742 635.709 246.576C638.958 250.351 641.992 255.724 644.596 261.899C649.812 274.271 653 289.123 653 299C653 303.881 652.218 307.314 650.998 309.755C649.806 312.139 648.119 313.736 645.972 314.856C641.407 317.239 634.828 317.5 626.5 317.5C618.172 317.5 611.593 317.239 607.028 314.856C604.881 313.736 603.194 312.139 602.002 309.755C600.782 307.314 600 303.881 600 299C600 289.123 603.189 274.271 608.405 261.899C611.009 255.724 614.042 250.351 617.291 246.576C620.591 242.742 623.714 241 626.5 241Z" stroke="black" stroke-width="6"/>
<path d="M559.5 242C562.286 242 565.409 243.742 568.709 247.576C571.958 251.351 574.992 256.724 577.596 262.899C582.812 275.271 586 290.123 586 300C586 304.881 585.218 308.314 583.998 310.755C582.806 313.139 581.119 314.736 578.972 315.856C574.407 318.239 567.828 318.5 559.5 318.5C551.172 318.5 544.593 318.239 540.028 315.856C537.881 314.736 536.194 313.139 535.002 310.755C533.782 308.314 533 304.881 533 300C533 290.123 536.189 275.271 541.405 262.899C544.009 256.724 547.042 251.351 550.291 247.576C553.591 243.742 556.714 242 559.5 242Z" stroke="black" stroke-width="6"/>
<path d="M625.5 242C628.286 242 631.409 243.742 634.709 247.576C637.958 251.351 640.992 256.724 643.596 262.899C648.812 275.271 652 290.123 652 300C652 304.881 651.218 308.314 649.998 310.755C648.806 313.139 647.119 314.736 644.972 315.856C640.407 318.239 633.828 318.5 625.5 318.5C617.172 318.5 610.593 318.239 606.028 315.856C603.881 314.736 602.194 313.139 601.002 310.755C599.782 308.314 599 304.881 599 300C599 290.123 602.189 275.271 607.405 262.899C610.009 256.724 613.042 251.351 616.291 247.576C619.591 243.742 622.714 242 625.5 242Z" stroke="black" stroke-width="6"/>
<path d="M54.927 292.544C54.6782 292.438 54.232 292.052 54.1483 291.886C53.7486 291.093 55.4927 294.082 57.6438 295.556C59.0047 296.489 62.0632 296.814 66.1324 297.267C68.087 297.485 69.8007 297.818 71.6443 298.031C75.3949 298.467 78.0646 298.599 79.648 298.984C81.7077 299.484 84.4572 301.128 87.6009 303.031C90.3295 304.683 91.8844 306.198 93.1769 307.837C95.4685 310.742 96.7484 313.585 97.1502 315.316C98.0173 319.05 97.0824 320.469 96.2984 321.761C95.8861 322.441 95.0768 323.035 93.3777 323.855C92.1876 324.43 90.1969 325.023 87.97 325.472C85.743 325.92 83.3056 326.128 80.8865 326.498C78.4674 326.868 76.1405 327.394 73.814 327.72C69.2556 328.361 66.6445 328.223 65.0908 327.689C63.7877 327.241 61.4908 326.29 59.3978 325.038C57.3049 323.785 55.4986 322.221 54.1672 320.958C51.9548 318.859 50.9982 317.46 50.5579 316.441C50.2867 315.813 50.0813 314.896 49.9247 313.075C49.5357 308.549 49.6821 305.303 49.8802 304.155C50.1764 302.438 50.7605 301.173 51.0356 300.66C51.9783 299.954 54.8335 299.047 58.4999 298.433C60.3317 298.223 62.105 298.218 63.8087 298.213" stroke="#0A0F1A" stroke-width="8" stroke-linecap="round"/>
<path d="M51.3242 295.517C51.3242 295.536 51.3356 295.093 53.1139 290.566C54.7372 286.434 58.4026 278.815 60.5664 273.971C62.7302 269.127 63.4292 267.351 64.1616 265.603C65.5991 262.171 66.4995 260.3 66.7207 259.848C67.0381 259.201 67.694 257.924 69.2974 255.243C70.3801 253.433 71.997 250.703 74.1877 247.086C76.3783 243.47 79.0907 239.049 82.0655 233.462C85.0403 227.875 88.1954 221.257 89.8582 217.742C91.5211 214.228 91.5962 214.018 91.6735 213.802" stroke="#0A0F1A" stroke-width="8" stroke-linecap="round"/>
<path d="M88.5166 223.356C88.5166 222.886 88.6957 221.469 91.0349 216.362C93.1489 211.746 97.3311 203.108 99.6606 198.024C101.99 192.939 102.388 191.692 102.655 190.92C102.922 190.149 103.045 189.891 104.797 185.399C106.548 180.907 109.924 172.19 112.144 165.891C114.363 159.592 115.325 155.976 115.823 153.804C116.322 151.632 116.328 151.014 116.375 150.415C116.422 149.816 116.511 149.255 116.602 148.677" stroke="#0A0F1A" stroke-width="8" stroke-linecap="round"/>
<path d="M114.99 153.869C114.99 153.216 115.188 150.806 115.865 148.151C116.261 146.599 117.099 144.729 117.863 143.113C118.627 141.496 119.376 140.214 120.294 138.459C121.211 136.705 122.273 134.516 123.712 131.986C125.151 129.456 126.934 126.652 128.198 124.719C130.116 121.785 131.264 120.062 132.992 117.576C134.244 115.775 136.563 113.103 138.228 110.986C139.894 108.869 140.914 107.446 142.459 105.644C144.005 103.841 146.045 101.701 148.419 99.5218C150.794 97.3422 153.441 95.1873 155.944 93.4408C158.448 91.6943 160.727 90.4214 164.901 88.6773C169.074 86.9331 175.073 84.7563 178.987 83.4689C182.901 82.1814 184.549 81.8493 186.223 81.6712C189.534 81.3189 191.657 81.57 193.087 81.8193C194.107 81.9634 195.725 82.1431 196.674 82.2357C197.623 82.3282 197.853 82.3282 198.09 82.3282" stroke="#0A0F1A" stroke-width="8" stroke-linecap="round"/>
<path d="M180.727 82.6538C180.734 82.6538 180.741 82.6538 182.457 82.6438C184.174 82.6338 187.601 82.6138 191.082 82.3912C194.563 82.1685 197.994 81.7437 201.077 81.5125C204.159 81.2814 206.788 81.2568 208.248 81.2817C209.924 81.3103 211.79 82.372 215.285 84.6082C217.199 85.8325 219.125 87.6381 220.26 88.6304C221.396 89.6228 221.612 89.8494 222.136 90.8113C222.659 91.7732 223.483 93.4635 224.513 96.9484C225.543 100.433 226.754 105.661 229.146 112.721C231.539 119.78 235.076 128.513 237.086 133.322C239.373 138.794 240.025 139.596 240.404 140.134C241.481 142.02 242.378 143.502 242.658 143.937C242.794 144.129 242.917 144.261 243.045 144.398" stroke="#0A0F1A" stroke-width="8" stroke-linecap="round"/>
<rect x="182" y="143" width="32" height="769" rx="16" fill="black"/>
<rect x="412" y="445" width="22" height="430" rx="11" fill="black"/>
<rect x="456" y="450" width="22" height="423" rx="11" fill="black"/>
<rect x="58.2715" y="462.516" width="32" height="622.787" rx="16" transform="rotate(-90.4856 58.2715 462.516)" fill="black"/>
<rect x="647.541" y="149.782" width="32" height="306.32" rx="16" transform="rotate(-0.275587 647.541 149.782)" fill="black"/>
<rect x="687.332" y="136.404" width="32" height="506.375" rx="16" transform="rotate(89.2564 687.332 136.404)" fill="black"/>
<path d="M753.631 145.425C753.631 145.425 675.558 162.896 552.218 160.477C238 122.5 328.635 170.664 329.575 117.102C330.515 63.5394 431.547 6.01013 554.887 8.42992C678.227 10.8497 753.631 145.425 753.631 145.425Z" fill="#0A0F1A"/>
<path d="M678.312 207.808C679.553 207.964 683.921 208.671 694.678 210.01C703.551 211.115 719.495 211.797 735.22 213.144C750.944 214.492 766.002 216.157 774.97 217.35C786.411 218.871 790.318 220.525 792.727 221.777C794.352 222.622 794.469 228.648 794.302 236.508C794.227 240.039 792.023 242.344 788.428 245.821C786.417 247.766 783.414 249.391 772.877 253.371C762.341 257.35 744.206 263.459 727.072 266.943C709.937 270.427 694.353 271.101 677.572 272.099" stroke="black" stroke-width="15" stroke-linecap="round"/>
<path d="M683.77 197.098C683.77 191.022 684.44 175.928 686.103 170.888C687.767 165.847 695.674 167.445 703.233 166.713C708.181 166.234 712.007 165.709 717.051 165.361C721.062 165.084 728.044 165.093 734.962 164.247C741.88 163.401 748.529 161.825 758.46 160.93C768.391 160.035 781.403 159.868 788.48 159.816C795.557 159.764 796.306 159.832 800.466 161.19C804.626 162.547 812.176 165.192 818.288 167.728C829.031 172.185 835.858 176.928 840.952 181.504C847.029 186.963 850.521 193.762 852.753 199.525C855.154 205.721 855.497 213.015 855.007 220.175C854.556 226.775 851.468 233.075 848.262 239.26C843.35 248.734 838.873 251.127 830.751 255.898C824.771 259.409 814.682 264.546 800.024 269.494C785.365 274.442 766.356 278.896 749.327 281.704C732.298 284.513 717.824 285.542 709.216 286.259C695.229 287.424 689.296 288.136 685.197 289.548C682.177 290.588 680.08 292.649 678.37 293.433C677.623 293.777 677.228 294.223 678.733 294.418C680.239 294.614 683.683 294.6 691.096 293.468C698.509 292.336 709.787 290.086 717.315 288.787C724.844 287.488 728.281 287.207 732.04 286.677C735.799 286.146 739.776 285.374 746.452 284.306C753.127 283.238 762.382 281.897 768.43 280.848C777.087 279.347 783.932 276.632 794.131 273.042C807.32 268.4 816.582 266.962 819.95 266.225C824.971 265.127 829.548 262.928 833.227 260.801C837.5 258.329 841.211 254.155 844.785 250.134C848.103 246.4 851.29 240.23 854.537 233.29C858.483 224.854 857.831 217.92 856.644 213.186C855.137 207.175 850.472 202.456 842.774 198.01C837.126 194.748 827.19 190.84 820.138 188.378C813.085 185.916 809.025 185.376 794.594 185.74C780.163 186.105 755.485 187.391 741.557 188.222C725.186 189.199 720.912 189.792 717.124 189.991C709.955 190.369 703.732 191.998 700.649 193.147C696.709 194.617 710.987 194.936 721.47 196.864C728.9 198.23 740.754 199.569 751.091 200.569C761.428 201.568 769.924 201.981 778.912 203.005C787.9 204.03 797.121 205.656 803.516 207.012C820.022 210.513 826.385 215.695 827.381 217.026C830.343 220.985 827.073 230.965 822.759 239.073C818.914 246.299 810.52 249.298 806.495 250.808C808.036 245.362 811.989 238.359 814.006 230.754C814.343 229.11 814.343 228.424 814.343 227.716" stroke="black" stroke-width="35" stroke-linecap="round"/>
<path d="M74.3062 440.61C74.3062 440.656 72.8326 443.814 66.9737 457.69C62.461 468.378 55.3361 486.682 50.7766 498.772C46.217 510.863 44.5701 516.239 41.7267 523.52C38.8832 530.801 34.8931 539.824 32.5019 546.234C30.1107 552.645 29.4394 556.169 28.0921 560.593C26.7449 565.017 24.742 570.233 23.1799 577.611C21.6178 584.989 20.5571 594.37 19.9859 607.477C19.4146 620.585 19.365 637.134 19.6592 647.935C19.9535 658.735 20.5932 663.284 21.2523 667.972" stroke="black" stroke-width="35" stroke-linecap="round"/>
<path d="M19.3301 657.463C19.3823 657.463 19.4353 662.397 20.1089 673.288C20.9072 686.196 23.7477 694.667 24.6006 698.203C25.6443 702.53 26.638 707.24 30.6922 717.271C33.8756 725.148 40.0232 738.398 44.1023 746.868C48.1814 755.339 50.1791 758.555 58.4975 769.858C66.8159 781.161 81.3947 800.453 90.5178 812.179C99.641 823.905 102.867 827.48 107.249 833.146C111.632 838.813 117.073 846.462 120.21 850.764C123.347 855.067 124.015 855.789 127.913 858.996C131.811 862.202 138.918 867.87 143.22 871.196C148.718 875.446 155.448 878.332 163.823 881.678C167.443 883.124 169.651 883.827 172.291 884.319C176.206 885.05 177.45 872.183 178.906 860.823C179.436 856.69 179.083 849.932 178.639 846.431C178.158 842.627 171.127 841.826 161.459 839.64C156.882 838.605 153.165 836.944 144.65 831.839C136.134 826.733 122.982 818.035 115.18 812.503C105.009 805.292 102.27 802.04 100.524 800.715C95.0488 796.559 87.9341 790.042 82.9605 784.034C79.27 779.575 72.1543 771.241 68.1657 766.379C63.358 760.518 60.6258 755.355 56.2237 748.138C52.3728 741.825 49.1663 738.951 47.5302 735.231C46.1613 732.119 44.1548 726.33 40.5287 712.607C36.9026 698.885 31.8343 677.356 29.1294 665.487C26.078 652.098 26.043 649.563 25.9715 647.502C25.7328 640.621 24.5568 631.168 23.0032 624.295C22.0641 620.139 22.2487 617.08 21.844 610.862C21.7757 607.693 21.7757 602.598 21.6466 599.652C21.5175 596.706 21.2594 596.064 20.3322 595.098" stroke="black" stroke-width="35" stroke-linecap="round"/>
<path d="M139.282 844.163C140.791 844.701 146.819 848.208 154.043 854.405C163.422 862.45 167.871 868.886 169.326 870.317C174.101 875.011 177.836 877.997 187.974 884.736C194.604 889.143 201.29 890.432 209.788 891.94C231.948 895.874 234.553 896.833 236.166 896.943C240.522 897.239 223.202 896.62 217.761 896.319C214.115 896.118 209.378 895.682 204.271 894.373C198.989 893.019 193.234 890.017 186.61 886.499C179.681 882.82 174.59 882.386 173.793 882.621C170.89 883.478 178.544 886.904 182.197 891.679C184.969 895.302 191.649 895.618 202.876 896.413C210.644 896.963 222.672 896.823 229.23 896.827C236.528 896.833 237.93 896.632 242.233 896.118C252.595 894.878 264.783 893.513 261.11 893.764C252.087 894.38 228.46 894.516 215.441 894.596C200.71 894.686 198.032 893.759 195.062 893.328C189.875 892.574 184.511 891.748 180.43 890.072C176.429 888.428 171.569 886.051 162.549 881.79C156.426 878.897 147.862 873.146 142.27 869.53C136.677 865.914 134.493 864.255 133.586 863.607C133.159 863.302 141.837 868.224 154.637 875.035C159.66 877.708 165.548 880.62 174.165 885.251C181.027 888.94 187.368 891.85 197.345 894.239C199.646 894.617 201.511 894.807 221.402 894.902C241.293 894.997 279.154 894.991 319.575 894.758" stroke="black" stroke-width="35" stroke-linecap="round"/>
<path d="M220.448 883.854L700 884" stroke="black" stroke-width="35" stroke-linecap="round"/>
<path d="M305.333 904.237L706.5 891.5" stroke="black" stroke-width="35" stroke-linecap="round"/>
<path d="M101.943 317.438C103.697 316.751 109.454 313.4 113.788 309.711C116.28 307.59 119.229 304.554 122.793 301.745C124.998 300.008 127.646 298.537 130.16 297.418C132.294 296.468 134.819 294.774 139.569 291.981C143.109 289.9 149.261 288.5 155.335 287.268C163.894 286.699 175.899 286.996 178.415 287.826C179.613 288.255 180.649 288.699 182.748 289.506" stroke="black" stroke-width="8" stroke-linecap="round"/>
<path d="M102.382 319.664C103.012 321.282 106.371 328.613 110.289 340.832C111.362 344.178 111.656 347.686 111.84 354.831C112.024 361.976 111.802 372.732 110.925 381.158C110.049 389.584 108.524 395.355 106.289 401.354C101.715 413.632 97.7312 420.25 96.1574 421.899C93.1897 424.408 89.4069 427.005 85.8636 428.939C84.2186 429.785 82.8844 430.358 81.5098 430.948" stroke="black" stroke-width="8" stroke-linecap="round"/>
<path d="M81.5098 430.948C83.7328 430.948 93.3151 430.494 100.552 429.674C102.419 429.542 104.814 429.511 118.1 429.045C131.386 428.578 155.49 427.676 181.224 426.62" stroke="black" stroke-width="8" stroke-linecap="round"/>
<path d="M80.7275 423.143C81.3146 423.143 83.3105 422.771 87.3269 419.918C91.2042 417.163 96.4826 412.292 99.3185 406.807C102.169 401.295 102.648 396.352 103.623 394.205C104.939 391.308 105.738 386.841 106.506 381.132C107.37 374.705 107.754 366.684 107.591 359.544C107.454 353.564 105.929 347.923 104.708 343.305C100.844 333.895 98.8719 329.508 98.2079 328.747C97.873 328.333 97.5423 327.862 96.9573 327.096" stroke="black" stroke-width="8" stroke-linecap="round"/>
<path d="M134.18 300.317C135.997 299.53 141.099 297.118 145.421 295.28C147.19 294.528 149.432 293.91 154.809 293.331C165.138 293.012 173.486 293.244 176.902 294.153C178.554 294.734 180.044 295.561 181.983 296.808" stroke="black" stroke-width="8" stroke-linecap="round"/>
<path d="M136.977 300.413C137.015 300.413 143.372 300.517 153.347 300.714C159.669 300.839 166.098 302.967 172.164 306.174C177.478 312.495 182.559 322.076 183.848 324.931C184.4 326.081 184.744 326.623 185.016 327.291" stroke="black" stroke-width="8" stroke-linecap="round"/>
<path d="M158.933 297.724C162.895 297.724 171.916 297.877 176.146 299.23C178.875 300.103 180.771 302.138 183.728 307.194C184.407 308.356 184.575 309.129 183.124 308.242C178.226 305.248 174.843 301.858 176.039 303.045C177.634 304.609 181.235 308.127 183.241 310.133C185.246 312.14 185.547 312.529 185.932 313.008" stroke="black" stroke-width="8" stroke-linecap="round"/>
<path d="M56.8711 301.941C56.7387 302.761 56.0186 305.189 55.8651 308.432C55.6786 312.373 58.547 314.913 61.016 316.683C64.105 318.898 68.3477 319.654 72.849 320.486C80.9099 321.976 87.0072 321.616 90.9485 321.653C100.738 321.744 71.7871 322.422 66.067 322.086C64.3526 321.985 62.2573 321.261 60.6997 320.639C60.3762 320.483 61.0005 320.648 61.735 320.804C62.4696 320.961 63.2956 321.104 64.2722 321.359" stroke="black" stroke-width="8" stroke-linecap="round"/>
<path d="M215.493 218.765H647.129" stroke="black" stroke-width="10" stroke-linecap="round"/>
<path d="M231.583 173.688V429.265" stroke="black" stroke-width="10" stroke-linecap="round"/>
<path d="M210.484 327.332H575.753" stroke="black" stroke-width="10" stroke-linecap="round"/>
<path d="M236.373 333.945C238.016 334.045 248.693 337.933 268.522 348.994C288.118 359.926 303.586 367.828 309.254 370.174C311.563 371.174 312.717 371.788 336.405 381.549C360.092 391.311 406.277 410.202 454.803 430.199" stroke="black" stroke-width="10" stroke-linecap="round"/>
<path d="M650.303 296.812C649.252 296.792 646.119 297.148 641.678 299.252C637.115 301.415 633.135 303.485 629.031 305.395C625.49 307.044 618.657 310.358 609.595 314.652C604.175 317.22 597.815 319.628 592.392 322.35C586.451 325.333 584.061 325.912 582.181 327.068C581.3 327.61 579.938 330.072 577.268 335.187C573.416 342.567 571.116 349.007 570.115 352.205C568.722 356.656 568.255 362.393 567.736 374.626C567.524 379.615 572.064 385.858 577.254 392.174C580.96 396.685 583.634 400.272 586.297 402.471C588.095 403.956 590.994 405.946 595.535 408.958C600.077 411.971 606.222 415.882 609.767 418.081C613.311 420.28 614.068 420.649 616.133 421.587" stroke="black" stroke-width="10" stroke-linecap="round"/>
<path d="M578.151 326.915C578.861 326.069 584.489 321.142 588.496 318.464C590.561 317.084 593.773 316.864 596.775 316.122C600.932 315.095 605.722 314.218 611.278 310.991C616.028 308.231 624.423 302.736 631.158 298.877C647.649 289.429 649.744 289.491 650.189 289.542C651.084 289.646 641.239 294.653 628.965 300.879C623.48 303.662 621.386 304.977 616.862 307.111C613.536 308.679 608.111 311.22 603.518 313.386C595.327 317.261 591.156 319.372 589.74 320.717C588.787 321.711 587.359 323.341 585.777 324.657" stroke="black" stroke-width="10" stroke-linecap="round"/>
<path d="M656.373 303.101C652.437 303.147 643.395 303.882 634.912 307.786C631.443 309.382 627.01 312.653 619.517 316.737C612.024 320.821 601.773 325.939 596.279 328.748C590.307 331.8 587.517 335.186 583.173 341.155C579.088 346.77 577.574 353.657 576.337 360.214C575.141 366.551 576.682 372.586 578.594 377.604C580.227 381.891 582.818 385.754 587.393 390.885C590.327 394.176 595.276 398.136 602.077 403.095C608.878 408.055 617.578 413.708 623.226 417.094C631.016 421.765 636.193 423.039 640.889 424.111C647.576 425.638 651.222 425.272 650.955 424.929C649.034 422.463 643.909 421.096 639.392 417.661C634.17 413.69 629.984 409.797 625.401 407.339C622.683 405.882 618.845 404.647 614.436 402.478C604.89 397.782 598.929 393.523 595.961 390.712C591.114 386.122 588.12 382.435 586.919 380.628C584.724 377.328 582.892 373.399 581.663 369.745C578.776 361.16 580.324 353.791 581.835 350.346C585.214 342.646 591.033 339.232 597.113 334.15C598.827 332.716 601.047 331.503 608.001 328.192C614.956 324.882 626.662 319.616 633.801 316.226C643.155 311.483 646.746 309.474 648.967 308.452C649.879 308.043 650.355 307.857 651.66 307.24" stroke="black" stroke-width="12" stroke-linecap="round"/>
<path d="M602.55 408.466C608.941 409.215 614.225 412.447 624.62 421.509C626.854 423.457 627.552 424.313 627.578 424.657C627.604 425.001 626.911 424.837 626.324 424.554C625.737 424.272 625.278 423.877 624.683 423.454" stroke="black" stroke-width="12" stroke-linecap="round"/>
<path d="M595.225 382.945H655.223" stroke="black" stroke-width="12" stroke-linecap="round"/>
<path d="M582.543 361.823H655.685" stroke="black" stroke-width="12" stroke-linecap="round"/>
<path d="M593.454 342.829H656.534" stroke="black" stroke-width="12" stroke-linecap="round"/>
<path d="M615.031 327.766H656.664" stroke="black" stroke-width="12" stroke-linecap="round"/>
<path d="M639.925 322.278C639.874 322.227 643.825 322.175 649.457 321.961C651.121 321.898 650.323 321.426 649.281 321.083C646.97 320.414 645.067 319.843 644.955 319.272C645.438 318.935 647.017 318.503 648.779 317.9" stroke="black" stroke-width="12" stroke-linecap="round"/>
<path d="M238.92 343.438C240.342 343.58 246.865 346.678 255.475 352.047C259.455 354.528 262.45 356.823 273.853 362.923C285.256 369.023 304.927 378.936 321.748 386.232C338.57 393.527 351.946 397.906 365.113 402.535C378.279 407.164 390.829 411.912 400.481 415.314C416.402 420.927 425.033 423.524 426.619 424.909C427.069 425.302 423.456 425.347 417.962 424.499C412.468 423.65 404.346 421.978 382.809 420.89C361.271 419.803 326.563 419.35 301.443 420.266C276.323 421.181 261.842 423.477 253.533 424.789C245.224 426.101 243.525 426.359 246.381 427.24C249.236 428.12 256.698 429.615 266.446 430.391C276.195 431.167 288.004 431.179 299.479 429.86C310.955 428.54 321.738 425.889 331.679 424.067C341.619 422.245 350.389 421.334 358.988 420.878C375.731 419.991 386.326 421.115 389.949 422.222C391.412 422.67 392.085 422.974 391.001 423.526C387.273 425.422 376.181 426.09 363.031 426.528C355.468 426.78 352.007 425.875 333.424 425.63C315.902 425.4 281.946 426.03 263.878 426.32C244.652 426.63 241.489 427.158 238.502 426.899C236.898 426.76 238.485 420.399 239.935 404.151C240.998 392.25 240.472 372.778 240.332 361.39C240.158 347.245 239.557 343.66 239.647 342.891C239.929 340.479 246.627 352.286 256.39 362.08C260.749 366.453 264.672 368.803 282.206 377.093C299.74 385.382 330.963 399.333 349.959 407.535C368.955 415.738 374.777 417.769 363.482 413.795C352.188 409.821 323.6 399.78 302.361 391.16C281.121 382.539 268.096 375.642 260.813 371.861C250.646 366.582 248.137 364.973 246.677 363.458C246.203 362.967 247.674 374.501 249.814 393.85C251.891 412.626 250.856 423.049 251.276 424.595C251.482 425.353 251.822 426.009 253.614 426.352C258.599 427.308 264.409 425.975 268.73 424.282C272.523 422.795 274.259 419.856 275.129 417.78C277.744 411.541 268.904 396.433 264.262 389.818C263.667 388.969 262.378 389.562 261.63 390.949C255.636 402.069 259.726 416.019 261.082 416.968C261.793 417.465 262.863 417.447 263.97 417.167C266.386 416.557 268.388 413.591 269.867 409.545C271.411 405.323 270.725 400.809 269.624 397.058C268.486 393.182 263.002 390.443 258.561 388.862C250.539 386.008 258.593 412.963 262.358 420.54C262.963 421.758 264.416 421.747 265.367 421.784C266.318 421.822 267.147 421.585 267.969 420.65C269.964 418.377 270.537 413.5 270.431 406.874C270.169 390.483 263.092 383.301 261.56 382.259C260.754 381.711 259.496 381.859 258.905 382.857C254.479 390.326 270.064 403.911 277.952 409.903C280.731 412.014 284.109 410.629 285.976 409.652C286.805 409.219 287.084 408.417 287.263 407.6C288.407 402.393 274.931 394.361 267.059 390.527C265.54 389.787 263.916 389.667 263.348 390.338C258.699 395.832 273.499 406.435 278.412 409.046C279.268 409.501 280.313 408.737 281.121 408.023C282.867 406.477 283.425 404.063 283.141 401.034C282.652 395.812 277.286 389.277 270.964 382.506C265.385 376.532 260.788 373.501 258.496 371.987C257.487 371.321 256.846 370.778 256.219 371.791C254.231 375.001 253.922 382.47 252.696 390.794C250.99 402.384 245.624 411.089 243.851 422.81C243.685 423.904 251.904 417.114 261.91 409.778C267.13 405.951 273.104 405.406 280.624 405.546C283.932 405.608 286.196 406.047 296.412 406.453C306.628 406.86 324.723 407.322 336.898 408.266C361.959 410.21 364.398 413.78 368.716 414.719C372.326 415.504 378.948 416.24 370.029 413.998C361.109 411.757 336.48 406.343 319.092 403.556C301.705 400.769 292.304 400.774 286.17 401.093C277.412 401.549 272.482 402.984 268.223 403.417C266.278 403.615 264.753 403.564 276.631 405.209C288.508 406.853 313.83 410.141 327.746 412.11C341.662 414.079 343.404 414.628 334.416 411.292C325.427 407.957 305.655 400.72 301.883 401.909C288.279 406.193 323.7 422.231 320.863 418.451C314.601 410.108 306.929 402.842 301.663 398.607C297.446 395.215 293.732 394.07 291.372 394.015C290.34 393.991 289.749 395 289.954 397.041C291.121 408.626 296.147 413.578 297.244 414.187C298.54 414.905 299.948 410.96 300.811 406.951C301.62 403.19 299.418 398.973 295.88 394.918C292.512 391.057 288.047 389.949 285.124 389.43C283.885 389.209 283.114 389.253 282.736 390.904C281.627 395.746 284.181 404.541 287.75 414.096C290.629 421.801 293.851 425.242 295.13 426C295.784 426.208 296.45 426.057 297.212 425.492C297.973 424.928 298.81 423.954 299.59 422.704" stroke="black" stroke-width="12" stroke-linecap="round"/>
<path d="M400.757 428.899C401.165 428.899 401.573 428.899 407.791 428.958C414.01 429.018 426.026 429.136 438.007 429.257" stroke="black" stroke-width="12" stroke-linecap="round"/>
<path d="M424.252 457.399V865.962" stroke="black" stroke-width="12" stroke-linecap="round"/>
<path d="M470.208 456.753V869.86" stroke="black" stroke-width="12" stroke-linecap="round"/>
<path d="M525.632 445.074V873.263" stroke="black" stroke-width="12" stroke-linecap="round"/>
<path d="M560.918 438.418V874.652" stroke="black" stroke-width="12" stroke-linecap="round"/>
<path d="M603 436V547" stroke="black" stroke-width="12" stroke-linecap="round"/>
<path d="M648 764V875" stroke="black" stroke-width="12" stroke-linecap="round"/>
<path d="M657 436V547" stroke="black" stroke-width="12" stroke-linecap="round"/>
<path d="M667.589 451.984C667.589 452.057 667.616 459.998 668.658 475.141C669.159 482.435 671.672 488.719 673.212 493.02C674.752 497.322 675.771 499.396 678.671 505.821C681.571 512.245 686.321 522.957 689.577 529.671C692.833 536.385 694.452 538.777 695.818 540.898C697.183 543.019 698.245 544.797 698.431 546.974" stroke="black" stroke-width="10" stroke-linecap="round"/>
<path d="M678.131 490.401C678.189 490.401 685.997 490.403 698.002 490.481C702.68 490.512 704.495 491.623 707.315 493.389C710.461 495.36 715.106 500.801 720.195 506.957C722.366 509.584 723.751 513.316 725.967 518.76C729.074 526.392 731.646 532.146 732.382 532.95C735.338 536.18 742.976 531.711 750.934 528.998C761.387 525.434 767.487 519.374 769.872 516.836C773.832 512.622 776.785 508.025 778.265 505.21C779.191 503.448 779.137 500.823 778.332 496.944C777.338 492.148 773.278 489.719 771.552 488.563C769.514 487.198 760.68 486.36 748.599 484.977C737.912 483.753 730.325 480.162 727.683 478.74C726.337 478.016 725.07 477.121 719.416 474.349C713.762 471.578 703.783 466.916 697.412 463.623C688.363 458.946 685.073 456.152 681.552 454.582C679.047 453.465 674.904 452.125 672.662 451.826C670.42 451.527 670.158 452.419 670.055 453.584C669.613 458.613 671.373 462.294 675.714 474.739C677.288 479.251 678.961 481.121 680.227 482.001C680.878 482.453 681.757 482.568 682.536 482.394C685.997 481.625 686.407 475.696 686.606 472.793C686.904 468.453 680.661 464.376 677.519 461.456C676.796 460.785 676.76 459.977 678.168 461.127C682.853 464.956 686.345 468.964 689.33 470.762C695.178 474.285 701.657 476.62 709.296 479.758C714.661 481.962 722.87 485.834 729.075 488.254C735.281 490.674 739.19 491.634 742.758 492.336C749.398 493.644 756.689 494.982 763.112 496.766C765.486 497.426 766.038 497.681 766.48 498.012C766.922 498.343 767.23 498.766 767.394 499.338C767.749 500.581 767.37 502.227 766.872 503.869C765.483 508.445 754.723 513.444 750.597 515.371C747.403 516.863 741.63 519.492 737.542 521.321C735.948 522.034 734.941 521.201 733.914 520.326C731.657 518.401 727.171 511.337 720.952 501.455C716.637 494.598 713.088 491.152 708.721 487.695C700.678 481.327 693.278 478.844 690.037 478.077C684.467 476.76 680.048 476.021 678.678 474.691C677.552 473.597 677.368 472.122 676.836 471.252C676.593 470.855 675.953 470.933 675.569 471.602C674.515 473.436 674.941 476.211 675.36 478.292C675.541 479.191 675.751 479.753 676.421 480.12C682.305 483.343 694.516 480.151 699.388 479.981C701.632 479.902 691.611 482.454 689.166 483.107C685.406 484.11 697.98 483.531 702.691 484.952C711.912 487.735 718.965 491.592 721.525 493.127C723.934 494.572 724.908 496.901 729.951 507.18C735.391 518.268 737.077 520.585 737.683 523.223C737.937 524.326 738.154 524.935 739.477 524.859C746.732 524.44 749.929 521.073 757.503 517.102C761.997 514.745 768.346 510.691 771.643 508.031C775.308 505.075 772.532 497.419 770.646 494.598C769.115 492.309 765.553 491.377 761.959 490.296C757.779 489.038 752.506 488.885 747.462 488.92C740.662 488.968 735.142 491.45 725.282 492.025C723.75 492.115 724.33 492.955 728.574 496.388C732.818 499.821 740.738 506.048 745.461 509.62C751.357 514.079 754.031 514.946 756.336 515.351C757.402 515.539 758.287 515.467 758.91 515.157C759.534 514.847 759.878 514.244 759.894 513.588C759.928 512.206 756.391 508.939 751.442 504.766C745.396 499.669 736.939 502.147 734.956 503.017C731.056 504.728 733.671 510.434 734.41 511.989C735.161 513.569 738.914 513.012 743.358 511.984C748.754 510.737 752.706 506.705 755.244 503.856C756.354 502.611 756.548 501.326 756.589 500.054C756.63 498.781 756.37 497.447 755.716 496.412C754.422 494.367 751.577 493.858 748.417 493.838C744.447 493.814 738.997 495.865 734.468 498.355C732.941 499.194 733.948 500.526 736.039 501.722C741.294 504.729 748.449 506.276 754.754 507.195C757.618 507.613 759.844 507.606 760.826 506.99C761.808 506.374 761.491 505.066 761.035 503.963C760.579 502.86 759.992 502.003 759.398 501.449C758.803 500.896 758.218 500.673 757.232 500.552C756.247 500.431 754.878 500.419 753.468 500.407" stroke="black" stroke-width="10" stroke-linecap="round"/>
<path d="M679.854 506.025H722.79" stroke="black" stroke-width="10" stroke-linecap="round"/>
<path d="M683.585 445.419C683.585 445.455 683.731 445.931 684.311 446.818C684.647 447.329 685.468 447.635 685.62 447.417C686.247 446.524 683.632 443.793 681.965 442.287C680.206 440.697 684.166 449.954 686.818 454.206C687.634 455.513 688.046 454.609 688.16 453.224C689.159 441.149 685.524 428.367 686.444 429.955C690.268 436.557 693.885 447.085 693.948 447.316C695.258 452.104 686.418 437.677 684.659 434.344C683.225 431.628 682.286 428.324 682.356 424.969C682.39 423.357 687.961 426.804 692.677 429.597C695.181 431.079 696.764 431.456 711.843 436.503C726.158 441.372 754 450.927 774.108 458.763C794.215 466.6 805.745 472.429 817.81 478.435" stroke="black" stroke-width="10" stroke-linecap="round"/>
<path d="M701.118 436.63C701.118 436.706 701.118 437.275 700.588 438.253C699.74 439.819 696.496 439.744 694.597 440.709C691.716 442.172 697.014 445.431 697.672 446.307C698.013 446.759 695.926 446.799 695.251 446.825C693.754 446.883 704.33 448.641 715.107 451.399C719.619 452.554 722.267 452.891 735.454 456.527C748.641 460.162 772.307 467.003 787.49 471.578C802.673 476.153 808.656 478.255 812.281 479.646C821.056 484.789 828.603 490.732 831.365 492.368C832.56 493.133 833.335 493.765 834.404 494.688" stroke="black" stroke-width="15" stroke-linecap="round"/>
<path d="M700.894 438.084C700.844 438.084 703.671 438.169 709.124 438.662C714.099 439.113 720.424 441.225 726.982 442.357C729.441 442.781 730.106 443.067 742.723 447.076C755.34 451.085 779.881 458.852 795.632 464.457C811.382 470.062 817.598 473.271 822.956 476.12C832.665 481.286 838.036 484.219 842.119 486.191C850.585 490.28 857.218 494.498 859.565 496.44C861.112 497.719 865.961 503.687 872.922 512.407C878.231 519.056 877.541 528.319 877.062 534.539C876.899 536.66 875.625 538.61 872.17 543.604C869.365 547.658 863.978 554.479 860.81 558.405C857.643 562.331 856.744 563.073 852.046 565.872C847.348 568.671 838.877 573.504 833.661 576.363C828.444 579.222 826.738 579.961 825.257 580.685C823.776 581.409 822.571 582.096 821.33 582.803" stroke="black" stroke-width="15" stroke-linecap="round"/>
<path d="M826.89 489.878C827.641 489.878 828.517 489.852 829.468 489.936C830.417 490.019 832.893 492.42 839.179 497.392C843.26 500.62 849.548 504.76 853.706 507.898C862.704 514.689 863.348 517.305 864.101 519.941C864.466 521.22 864.364 527.145 864.295 535.712C864.23 543.634 860.672 549.071 855.263 556.225C854.076 557.795 853.49 558.314 849.919 561.412C846.347 564.51 839.757 570.131 835.302 573.619C830.846 577.107 828.724 578.29 826.093 579.396C823.461 580.502 820.384 581.494 816.637 582.607" stroke="black" stroke-width="15" stroke-linecap="round"/>
<path d="M769.177 448.059C769.757 448.059 772.759 448.715 780.447 452.005C786.231 454.481 795.553 459.236 804.672 463.216C813.791 467.197 822.352 470.425 831.703 474.852C841.053 479.279 850.933 484.808 857.494 488.877C864.056 492.946 867 495.388 870.408 498.095C877.545 503.766 881.983 507.361 883.458 509.616C886.045 513.571 887.503 520.743 887.396 528.778C887.319 534.644 885.724 538.012 884.307 540.977C881.947 545.917 878.457 550.533 874.474 554.97C868.879 561.202 862.731 565.352 857.451 568.384C850.026 572.649 842.657 576.265 837.606 579.46C835.247 580.951 833.128 581.891 826.449 583.913C819.77 585.934 808.551 588.934 801.928 590.592C795.305 592.25 793.617 592.475 789.846 592.658C786.075 592.841 780.271 592.976 759.931 594.105C739.592 595.233 704.892 597.352 675.277 598.255C645.661 599.158 622.181 598.783 608.715 598.406C595.25 598.029 592.51 597.663 589.144 597.475C577.151 597.164 571.691 596.401 568.013 595.996C567.496 595.893 567.014 595.706 565.872 595.423" stroke="black" stroke-width="15" stroke-linecap="round"/>
<path d="M565.903 587.077H789.258" stroke="black" stroke-width="15" stroke-linecap="round"/>
<path d="M756.624 583.746C756.697 583.746 760.966 583.623 770.682 582.817C776.19 582.36 782.775 580.894 786.702 580.106C790.629 579.318 791.675 579.02 796.824 578.121C801.974 577.222 811.195 575.73 819.215 573.8C827.234 571.87 833.771 569.547 837.461 568.184C841.828 566.572 847.092 564.474 854.783 561.597C859.268 559.919 863.963 556.617 870.217 551.903C879.551 544.866 881.609 540.26 883.24 537.748C883.897 536.516 884.194 535.195 884.273 533.863C884.339 533.254 884.458 532.782 884.58 532.295" stroke="black" stroke-width="15" stroke-linecap="round"/>
<path d="M770.313 448.359C769.388 448.359 766.727 448.123 764.537 447.496C760.971 446.476 756.61 443.92 743.677 438.909C740.624 437.727 739.436 436.992 735.478 435.386C731.52 433.779 724.855 431.259 719.041 429.305C708.551 425.78 701.797 424.039 698.617 422.803C692.389 420.319 685.317 417.844 682.071 417.126C681.376 417.006 680.901 416.903 680.411 416.797" stroke="black" stroke-width="15" stroke-linecap="round"/>
<path d="M713.124 466.013C713.766 465.864 716.487 465.252 718.951 465.009C721.486 464.24 724.088 462.864 726.383 461.734C727.432 461.264 728.246 461.003 729.669 460.733" stroke="black" stroke-width="8" stroke-linecap="round"/>
<path d="M747.56 480.982C748.377 480.982 751.76 480.49 755.263 479.154C758.993 477.998 764.859 476.425 774.297 474.268C775.998 473.869 776.532 473.667 777.948 473.269" stroke="black" stroke-width="8" stroke-linecap="round"/>
<path d="M779.369 501.613C779.798 501.613 785.696 501.437 797.976 500.361C804.614 499.779 811.935 497.841 816.032 496.905C820.742 495.765 822.945 494.796 825.564 493.559C826.613 493.082 827.092 492.91 828.352 492.643" stroke="black" stroke-width="8" stroke-linecap="round"/>
<path d="M770.284 516.958C770.321 516.958 772.269 517.883 776.022 519.572C777.847 520.337 779.507 520.912 792.688 523.358C805.869 525.803 830.519 530.1 855.327 534.531" stroke="black" stroke-width="8" stroke-linecap="round"/>
<path d="M740.371 534.92C740.408 534.957 742.742 536.64 752.558 541.764C760.06 545.224 772.679 550.43 785.759 555.295C798.839 560.159 811.997 564.523 824.676 568.785" stroke="black" stroke-width="8" stroke-linecap="round"/>
<path d="M696.154 546.273C696.12 546.273 697.329 547.223 700.269 549.617C701.982 551.062 704.146 552.975 712.925 558.404C721.705 563.833 737.036 572.722 752.31 581.939" stroke="black" stroke-width="8" stroke-linecap="round"/>
<path d="M703.231 543.697C705.015 543.737 710.3 543.215 714.58 541.673C719.643 539.85 723.591 539.216 726.363 538.38C732.49 536.171 737.072 534.362 738.375 533.553C739.113 533.061 740.007 532.402 741.297 531.292" stroke="black" stroke-width="8" stroke-linecap="round"/>
<path d="M655.187 548.609C655.187 548.571 655.388 549.297 658.705 553.645C661.594 557.432 667.847 563.685 673.17 568.806C678.494 573.926 682.932 577.534 684.968 579.244C687.003 580.955 686.5 580.657 685.983 580.351" stroke="black" stroke-width="8" stroke-linecap="round"/>
<path d="M659.12 546.961C660.108 547.125 665.578 548.372 675.176 549.643C687.018 549.599 690.473 548.793 692.68 548.033C693.564 547.686 693.968 547.419 694.384 547.143" stroke="black" stroke-width="8" stroke-linecap="round"/>
<path d="M606.178 549.701C607.924 549.753 614.379 550.649 623.198 551.897C628.998 552.354 637.484 552.454 642.834 552.183C648.183 551.912 650.139 551.267 651.915 549.859" stroke="black" stroke-width="8" stroke-linecap="round"/>
<path d="M600.314 550.519C600.314 550.564 605.476 553.278 613.773 557.697C616.908 559.426 617.862 560.109 621.687 563.58C625.512 567.05 632.179 573.287 638.524 579.535" stroke="black" stroke-width="8" stroke-linecap="round"/>
<path d="M603.649 547.648C602.982 548.528 599.145 551.907 594.163 555.589C590.343 558.412 583.877 560.502 581.278 560.955C578.653 561.049 576.413 561.161 574.22 561.285C572.631 561.327 570.075 561.327 567.324 561.237" stroke="black" stroke-width="8" stroke-linecap="round"/>
<path d="M578.496 563.673C578.519 563.673 578.541 563.673 579.646 565.231C580.752 566.789 582.939 569.905 584.506 572.268C586.072 574.63 586.952 576.144 588.152 578.887" stroke="black" stroke-width="8" stroke-linecap="round"/>
<path d="M693.068 525.113H698.875" stroke="black" stroke-linecap="round"/>
<path d="M702.524 520.215H707.579" stroke="black" stroke-linecap="round"/>
<path d="M693.244 515.733C693.248 515.738 693.253 515.742 694.822 515.744C696.392 515.746 699.527 515.746 702.756 515.746" stroke="black" stroke-linecap="round"/>
<path d="M707.369 514.549H713.73" stroke="black" stroke-linecap="round"/>
<path d="M710.963 519.001H715.362" stroke="black" stroke-linecap="round"/>
<path d="M710.188 524.367H717.872" stroke="black" stroke-linecap="round"/>
<path d="M700.619 528.771H706.545" stroke="black" stroke-linecap="round"/>
<path d="M702.772 532.749C702.772 532.753 702.772 532.758 704.245 532.76C705.717 532.762 708.661 532.762 711.694 532.762" stroke="black" stroke-linecap="round"/>
<path d="M703.991 524.728H706.858" stroke="black" stroke-linecap="round"/>
<path d="M711.176 528.041H716.624" stroke="black" stroke-linecap="round"/>
<path d="M716.798 533.243H721.518" stroke="black" stroke-linecap="round"/>
<path d="M720.443 527.004H729.227" stroke="black" stroke-linecap="round"/>
<path d="M719.93 519.159H721.544" stroke="black" stroke-linecap="round"/>
<path d="M124.767 303.82C125.39 303.819 128.753 303.4 131.555 302.786C133.748 302.306 136.244 302.299 136.703 302.12C139.53 301.021 130.576 301.217 130.051 301.217C129.868 301.217 131.33 301.217 131.228 301.457C131.127 301.696 129.794 302.175 129.737 302.422C129.68 302.669 130.939 302.669 130.868 302.682C130.796 302.694 129.355 302.719 129.301 302.741C129.247 302.764 130.624 302.783 130.933 302.834C131.435 302.916 128.227 303.364 126.864 303.825C123.114 305.095 133.028 303.311 133.699 303.246C135.564 303.066 125.942 304.634 126.038 304.617C128.242 304.214 130.881 304.242 131.507 303.878C132.997 303.01 126.707 304.081 124.547 304.47C124.338 304.508 128.209 304.037 136.948 303.037C142.361 302.417 149.853 302.632 154.296 302.705C158.74 302.777 159.933 302.972 160.823 303.084C161.713 303.195 162.264 303.217 162.832 303.24" stroke="black" stroke-linecap="round"/>
<path d="M124.225 305.249C124.501 305.262 125.551 305.164 126.634 304.908C127.248 304.763 127.99 304.561 129.495 304.315C131.001 304.07 133.247 303.781 134.754 303.632C136.261 303.483 136.961 303.483 135.902 303.634C134.843 303.784 132.005 304.085 129.693 304.478C127.38 304.872 125.68 305.348 124.235 305.918C122.79 306.488 121.652 307.137 120.95 307.526C120.024 308.039 119.66 308.211 119.544 308.288C119.541 308.29 119.667 308.225 120.403 307.731C121.139 307.237 122.485 306.318 123.766 305.581C125.047 304.843 126.223 304.315 127.212 303.799C128.201 303.282 128.967 302.795 129.405 302.523C129.843 302.251 129.929 302.21 131.181 302.13C132.432 302.051 134.845 301.935 136.228 301.903C137.611 301.871 137.89 301.925 138.15 301.998C138.41 302.07 138.642 302.159 138.887 302.251" stroke="black" stroke-linecap="round"/>
<path d="M392.736 610.248C393.874 610.093 399.761 607.97 405.785 605.592C407.8 604.797 411.243 603.819 416.958 602.341C420.099 601.529 423.619 600.204 426.959 599.248C430.298 598.291 433.322 597.644 437.303 597.103C441.285 596.563 446.132 596.149 449.775 595.676C453.418 595.204 455.71 594.685 460.685 593.979C465.66 593.273 473.247 592.395 477.506 591.938C481.766 591.481 482.468 591.471 496.354 590.824C510.24 590.176 537.288 588.89 565.156 587.565" stroke="black" stroke-width="8" stroke-linecap="round"/>
<path d="M384.36 637.022C384.764 636.947 385.807 636.502 390.246 633.844C393.893 631.661 400.199 627.506 405.957 624.485C411.715 621.464 416.69 619.632 421.852 618.048C427.015 616.464 432.213 615.184 437.609 614.129C443.005 613.075 448.442 612.285 452.362 611.778C456.283 611.271 458.523 611.071 480.302 609.23C502.081 607.39 543.331 603.915 565.697 602.118C588.064 600.32 590.298 600.305 592.703 600.24" stroke="black" stroke-width="8" stroke-linecap="round"/>
<path d="M394.747 607.928C394.133 608.108 391.199 609.536 388.954 610.618C386.259 611.918 384.498 613.008 380.993 614.594C379.043 615.477 375.763 617.113 372.19 619.273C364.682 623.81 359.396 628.182 356.549 630.613C354.404 632.444 352.14 635.566 348.887 641.647C346.881 645.395 344.966 650.894 343.607 654.804C342.247 658.714 341.708 660.972 341.258 666.185C340.808 671.398 340.464 679.497 340.346 684.172C340.202 689.847 341.864 695.166 344.123 701.948C345.547 706.226 349.315 710.027 356.513 716.675C360.713 720.553 366.617 724.787 371.243 727.956C375.868 731.124 379.189 732.928 383.167 734.899C387.144 736.869 391.678 738.953 396.696 741.775C401.715 744.597 407.081 748.096 410.745 750.725C414.409 753.354 416.209 755.008 417.65 756.75" stroke="black" stroke-width="8" stroke-linecap="round"/>
<path d="M362.258 679.332C362.258 680.525 362.444 684.47 365.518 689.421C367.112 691.987 370.633 695.531 373.434 698.5C376.236 701.47 378.518 703.541 382.142 706.251C385.765 708.961 390.661 712.247 395.143 715.474C399.625 718.702 403.545 721.771 407.211 724.338C410.877 726.904 414.171 728.875 418.482 731.594" stroke="black" stroke-width="8" stroke-linecap="round"/>
<path d="M389.187 633.984C388.645 634.022 385.07 635.944 380.268 639.849C376.515 642.9 372.409 647.102 369.75 650.476C368.604 651.932 366.329 656.386 363.64 662.251C362.117 665.572 361.435 669.579 360.804 675.281C359.851 683.879 361.456 686.133 363.413 689.235C365.136 691.967 367.1 693.414 368.965 695.202C370.53 696.715 373.351 699.46 382.087 706.018C390.822 712.577 405.386 722.867 420.392 733.469" stroke="black" stroke-width="8" stroke-linecap="round"/>
<path d="M368.865 685.468H420.503" stroke="black" stroke-width="8" stroke-linecap="round"/>
<path d="M390.823 637.787C390.823 637.751 391.326 637.803 395.255 639.537C398.681 641.202 405.016 644.459 409.028 646.526C413.039 648.593 414.535 649.37 416.294 650.244" stroke="black" stroke-width="8" stroke-linecap="round"/>
<path d="M430.049 732.559C431.083 732.514 434.334 732.739 438.344 734.594C440.206 735.455 444.005 737.75 450.049 740.587C455.629 742.796 458.829 743.875 459.247 743.862C459.194 743.733 458.604 743.358 457.041 742.541" stroke="black" stroke-width="8" stroke-linecap="round"/>
<path d="M427.95 756.518C427.95 756.556 428.871 756.807 433.466 758.752C437.2 760.332 443.544 763.65 447.1 765.388C451.173 767.321 455.896 768.134 462.563 769.065C465.039 769.383 465.671 769.39 466.323 769.396" stroke="black" stroke-width="8" stroke-linecap="round"/>
<path d="M431.814 732.447C431.91 732.447 433.598 732.447 439.016 733.646C442.886 734.502 448.663 737.242 451.921 738.607C455.178 739.971 455.647 740.23 457.334 740.838C459.02 741.445 461.91 742.393 465.106 743.381" stroke="black" stroke-width="8" stroke-linecap="round"/>
<path d="M477.093 746.334C477.059 746.334 479.468 746.334 486.023 746.857C490.169 747.187 495.902 748.425 500.513 749.405C508.419 751.269 512.358 752.245 514.273 752.344C515.645 752.377 517.829 752.377 519.705 752.098" stroke="black" stroke-width="8" stroke-linecap="round"/>
<path d="M476.174 768.548C476.144 768.548 478.59 768.568 486.789 768.961C492.531 769.236 501.462 770.06 507.342 770.679C513.222 771.297 515.774 771.786 517.586 772.217C519.397 772.649 520.392 773.009 520.613 772.756" stroke="black" stroke-width="8" stroke-linecap="round"/>
<path d="M530.633 750.594C530.599 750.594 531.348 750.594 533.719 750.791C537.745 751.381 541.79 752.375 545.262 753.555C547.183 754.146 549.427 754.72 551.74 755.313" stroke="black" stroke-width="8" stroke-linecap="round"/>
<path d="M530.154 773.125C530.169 773.125 530.184 773.125 531.245 773.125C532.307 773.125 534.414 773.125 539.088 773.319C543.762 773.512 550.94 773.898 559.319 774.64" stroke="black" stroke-width="8" stroke-linecap="round"/>
<path d="M466.67 455.228V855.412" stroke="black" stroke-width="10" stroke-linecap="round"/>
<path d="M520 448L521.049 875" stroke="black" stroke-width="10" stroke-linecap="round"/>
<path d="M560 447L561.049 874" stroke="black" stroke-width="10" stroke-linecap="round"/>
<ellipse cx="742.117" cy="120.449" rx="87.5" ry="40" transform="rotate(27.0806 742.117 120.449)" fill="black"/>
<path d="M571.108 590.797C566.037 591.303 549.319 593.436 535.494 595.415C528.588 596.403 521.844 596.895 504.077 599.082C486.31 601.269 457.709 605.019 442.029 606.96C424.481 609.134 418.606 610.143 411.226 612.635C395.245 618.031 380.484 628.439 371.109 638.66C368.444 641.565 364.206 648.247 357.205 659.578C350.333 670.701 349.788 682.445 350.632 690.737C351.33 697.592 356.615 701.649 361.792 705.978C380.884 718.76 393.457 726.133 398.378 729.655C401.759 732.079 406.931 735.796 412.151 740.249" stroke="black" stroke-width="20" stroke-linecap="round"/>
<path d="M412.15 740.249C410.375 739.921 405.458 736.751 379.089 718.742C362.643 707.509 355.921 689.46 354.577 679.623C352.466 664.172 356.271 648.962 360.026 640.165C366.111 625.911 377.058 623.707 391.793 619.443C403.379 616.089 412.955 615.603 419.831 615.032C429.928 614.192 437.178 613.959 441.598 612.629C450.096 610.073 459.178 607.073 479.1 603.614C495.175 600.824 523.541 597.001 538.64 594.735C553.739 592.469 554.757 592.151 556.949 591.8C559.14 591.449 562.475 591.075 566.092 590.437" stroke="black" stroke-width="20" stroke-linecap="round"/>
<path d="M421.048 733.553C423.225 734.613 431.709 740.131 445.375 748.791C455.473 755.19 465.568 754.693 484.37 756.121C496.985 757.08 519.633 757.746 532.728 758.469C548.718 759.352 556.332 760.902 558.226 761.94C569.747 768.261 532.872 761.352 527.088 760.871C522.841 760.518 515.918 760.113 504.756 759.838C493.593 759.563 478.396 759.474 468.808 759.178C448.21 757.194 437.439 754.936 425.129 749.745C421.467 748.213 417.821 746.796 413.02 744.649" stroke="black" stroke-width="20" stroke-linecap="round"/>
<path d="M562.222 761.173C566.625 761.258 576.675 761.776 590.341 763.583C602.571 765.201 625.63 767.62 646.341 768.946C667.052 770.271 684.737 770.271 694.55 770.357C705.771 770.454 710.044 770.83 714.89 770.957C718.042 771.039 733.798 771.433 761.306 772.275C785.056 773.002 797.976 776.105 801.475 777.049C807.649 778.713 816.823 783.979 822.341 788.921C831.86 797.445 830.974 815.328 830.139 823.991C829.309 832.597 822.44 839.01 810.414 848.578C805.702 852.327 797.401 855.816 786.969 860.788C776.538 865.759 765.51 873.209 754 877.5C732.929 885.355 718.346 893.42 714.89 894.702C709.783 896.596 696.302 891.314 677.179 893.447C669.421 894.173 665.614 894.173 654.658 894.702C643.701 895.231 625.709 896.289 607.172 897.379" stroke="black" stroke-width="25" stroke-linecap="round"/>
<path d="M652.349 824.042L693 781" stroke="black" stroke-width="8" stroke-linecap="round"/>
<path d="M648 832L774 781" stroke="black" stroke-width="8" stroke-linecap="round"/>
<path d="M651 837L826 838.023" stroke="black" stroke-width="8" stroke-linecap="round"/>
<path d="M651 850L727 881" stroke="black" stroke-width="8" stroke-linecap="round"/>
<path d="M340.5 242C343.286 242 346.409 243.742 349.709 247.576C352.958 251.351 355.992 256.724 358.596 262.899C363.812 275.271 367 290.123 367 300C367 304.881 366.218 308.314 364.998 310.755C363.806 313.139 362.119 314.736 359.972 315.856C355.407 318.239 348.828 318.5 340.5 318.5C332.172 318.5 325.593 318.239 321.028 315.856C318.881 314.736 317.194 313.139 316.002 310.755C314.782 308.314 314 304.881 314 300C314 290.123 317.189 275.271 322.405 262.899C325.009 256.724 328.042 251.351 331.291 247.576C334.591 243.742 337.714 242 340.5 242Z" stroke="black" stroke-width="6"/>
<path d="M413.5 242C416.286 242 419.409 243.742 422.709 247.576C425.958 251.351 428.992 256.724 431.596 262.899C436.812 275.271 440 290.123 440 300C440 304.881 439.218 308.314 437.998 310.755C436.806 313.139 435.119 314.736 432.972 315.856C428.407 318.239 421.828 318.5 413.5 318.5C405.172 318.5 398.593 318.239 394.028 315.856C391.881 314.736 390.194 313.139 389.002 310.755C387.782 308.314 387 304.881 387 300C387 290.123 390.189 275.271 395.405 262.899C398.009 256.724 401.042 251.351 404.291 247.576C407.591 243.742 410.714 242 413.5 242Z" stroke="black" stroke-width="6"/>
<path d="M486.5 242C489.286 242 492.409 243.742 495.709 247.576C498.958 251.351 501.992 256.724 504.596 262.899C509.812 275.271 513 290.123 513 300C513 304.881 512.218 308.314 510.998 310.755C509.806 313.139 508.119 314.736 505.972 315.856C501.407 318.239 494.828 318.5 486.5 318.5C478.172 318.5 471.593 318.239 467.028 315.856C464.881 314.736 463.194 313.139 462.002 310.755C460.782 308.314 460 304.881 460 300C460 290.123 463.189 275.271 468.405 262.899C471.009 256.724 474.042 251.351 477.291 247.576C480.591 243.742 483.714 242 486.5 242Z" stroke="black" stroke-width="6"/>
<path d="M267.5 242C270.286 242 273.409 243.742 276.709 247.576C279.958 251.351 282.992 256.724 285.596 262.899C290.812 275.271 294 290.123 294 300C294 304.881 293.218 308.314 291.998 310.755C290.806 313.139 289.119 314.736 286.972 315.856C282.407 318.239 275.828 318.5 267.5 318.5C259.172 318.5 252.593 318.239 248.028 315.856C245.881 314.736 244.194 313.139 243.002 310.755C241.782 308.314 241 304.881 241 300C241 290.123 244.189 275.271 249.405 262.899C252.009 256.724 255.042 251.351 258.291 247.576C261.591 243.742 264.714 242 267.5 242Z" stroke="black" stroke-width="6"/>
<path d="M245.144 307.377C245.159 307.375 245.397 307.199 246.532 306.392C247.432 305.753 249.014 304.679 254.847 299.839C260.68 294.999 270.722 286.433 275.995 281.914C281.268 277.394 281.467 277.18 281.677 276.974C282.438 276.227 283.333 275.517 284.82 274.393C285.116 274.177 285.256 274.09 285.438 273.917C285.621 273.745 285.842 273.491 286.264 273.075" stroke="black" stroke-width="2" stroke-linecap="round"/>
<path d="M253.732 278.432C253.732 277.817 253.926 275.894 255.205 272.391C255.713 271 256.05 269.64 256.037 267.139C256.035 266.741 255.873 266.869 255.72 266.981C255.075 267.449 254.198 269.846 253.451 271.496C253.385 271.643 253.319 270.373 253.369 268.996C253.397 268.216 254.671 266.315 256.771 262.976C258.761 259.812 259.472 257.782 259.583 257.249C259.94 255.531 261.68 253.419 263.861 251.832C264.956 251.035 265.818 250.663 267.558 250.528C269.226 250.399 272.576 251.435 274.436 253.049C275.958 254.37 275.993 256.252 276.299 257.183C276.903 259.015 277.515 261.286 277.874 263.101C278.284 265.173 280.126 268.073 280.492 269.497C280.591 269.88 280.604 270.25 280.758 270.499C280.833 270.618 281.027 270.615 281.033 270.676C281.054 270.892 279.231 272.375 276.859 274.642C275.79 275.664 274.973 276.294 272.913 277.936C271.436 279.114 269.002 280.889 267.675 281.865C266.348 282.841 266.183 282.938 264.192 284.513C262.201 286.087 258.389 289.136 255.704 291.376C253.019 293.615 251.576 294.953 250.53 295.895C247.985 298.189 246.24 300.271 245.522 301.413C245.506 301.439 245.483 301.231 245.56 301.078C246.005 300.181 247.761 299.56 248.501 298.951C249.517 298.115 251.155 297.201 251.856 296.692C253.209 295.711 255.88 293.374 257.191 292.137C258.375 291.02 260.439 289.15 261.997 286.931C263.134 285.311 264.755 282.54 265.919 280.466C267.084 278.392 267.687 277.061 268.218 275.605C268.75 274.148 269.191 272.606 269.428 270.389C269.665 268.172 269.684 265.326 269.685 263.778C269.686 262.064 269.437 261.056 269.064 258.898C268.838 257.588 268.804 255.801 268.614 254.119C268.248 250.89 267.668 249.244 267.151 249.097C266.831 249.006 266.373 248.972 266.061 249.026C265.549 249.116 265.018 250.26 263.677 252.666C262.79 254.258 261.308 256.504 260.5 257.838C259.178 260.024 259.313 263.713 259.6 265.729C259.712 266.514 260.643 267.008 261.039 268.964C261.153 269.522 261.163 270.053 261.502 268.976C261.84 267.899 262.471 265.204 262.786 265.564C263.102 265.923 263.081 269.418 263.038 271.453C262.985 273.961 262.639 275.125 262.254 276.241C262.038 276.864 261.487 277.586 260.304 279.329C258.323 282.248 256.81 284.541 256.158 285.28C255.453 286.078 252.785 287.827 250.239 289.578C248.019 291.104 247.352 292.562 246.804 293.529C246.222 294.557 246.029 297.284 245.388 298.906C244.986 299.922 244.808 300.796 244.785 302.193C244.784 302.264 244.785 301.825 245.6 298.059C246.414 294.293 248.043 287.213 248.932 283.239C249.966 278.618 250.371 277.116 251.022 275.687C251.492 274.655 252.279 273.98 254.74 272.706C256.714 271.684 260.303 270.186 262.295 269.336C264.288 268.486 264.612 268.404 265.961 268.35C267.311 268.297 269.677 268.276 271.484 268.5C274.525 268.877 275.843 269.714 276.45 269.768C279.151 269.909 281.088 270.201 281.744 270.421C281.905 270.484 282.063 270.547 282.245 270.633" stroke="black" stroke-width="10" stroke-linecap="round"/>
<path d="M340.5 241C343.286 241 346.409 242.742 349.709 246.576C352.958 250.351 355.992 255.724 358.596 261.899C363.812 274.271 367 289.123 367 299C367 303.881 366.218 307.314 364.998 309.755C363.806 312.139 362.119 313.736 359.972 314.856C355.407 317.239 348.828 317.5 340.5 317.5C332.172 317.5 325.593 317.239 321.028 314.856C318.881 313.736 317.194 312.139 316.002 309.755C314.782 307.314 314 303.881 314 299C314 289.123 317.189 274.271 322.405 261.899C325.009 255.724 328.042 250.351 331.291 246.576C334.591 242.742 337.714 241 340.5 241Z" stroke="black" stroke-width="6"/>
<path d="M325.947 273.432C325.947 272.817 326.141 270.894 327.42 267.391C327.928 266 328.265 264.64 328.252 262.139C328.249 261.741 328.087 261.869 327.934 261.981C327.29 262.449 326.413 264.846 325.666 266.496C325.6 266.643 325.534 265.373 325.584 263.996C325.612 263.216 326.886 261.315 328.986 257.976C330.976 254.812 331.687 252.782 331.798 252.249C332.155 250.531 333.895 248.419 336.076 246.832C337.171 246.035 338.033 245.663 339.773 245.528C341.441 245.399 344.791 246.435 346.651 248.049C348.173 249.37 348.207 251.252 348.514 252.183C349.117 254.015 349.73 256.286 350.089 258.101C350.499 260.173 352.341 263.073 352.707 264.497C352.805 264.88 352.819 265.25 352.973 265.499C353.048 265.618 353.241 265.615 353.247 265.676C353.269 265.892 351.446 267.375 349.074 269.642C348.005 270.664 347.188 271.294 345.128 272.936C343.651 274.114 341.216 275.889 339.89 276.865C338.563 277.841 338.398 277.938 336.407 279.513C334.416 281.087 330.604 284.136 327.919 286.376C325.234 288.615 323.791 289.953 322.745 290.895C320.2 293.189 318.455 295.271 317.737 296.413C317.72 296.439 317.698 296.231 317.775 296.078C318.22 295.181 319.976 294.56 320.716 293.951C321.732 293.115 323.37 292.201 324.071 291.692C325.424 290.711 328.095 288.374 329.406 287.137C330.589 286.02 332.654 284.15 334.212 281.931C335.348 280.311 336.969 277.54 338.134 275.466C339.299 273.392 339.902 272.061 340.433 270.605C340.964 269.148 341.406 267.606 341.643 265.389C341.879 263.172 341.899 260.326 341.9 258.778C341.901 257.064 341.652 256.056 341.279 253.898C341.053 252.588 341.019 250.801 340.828 249.119C340.463 245.89 339.883 244.244 339.366 244.097C339.046 244.006 338.588 243.972 338.276 244.026C337.764 244.116 337.233 245.26 335.892 247.666C335.005 249.258 333.523 251.504 332.715 252.838C331.392 255.024 331.528 258.713 331.815 260.729C331.926 261.514 332.858 262.008 333.254 263.964C333.367 264.522 333.378 265.053 333.716 263.976C334.055 262.899 334.686 260.204 335.001 260.564C335.316 260.923 335.296 264.418 335.253 266.453C335.199 268.961 334.854 270.125 334.468 271.241C334.253 271.864 333.702 272.586 332.519 274.329C330.538 277.248 329.025 279.541 328.373 280.28C327.668 281.078 325 282.827 322.454 284.578C320.234 286.104 319.566 287.562 319.019 288.529C318.437 289.557 318.244 292.284 317.602 293.906C317.201 294.922 317.023 295.796 317 297.193C316.999 297.264 317 296.825 317.815 293.059C318.629 289.293 320.258 282.213 321.147 278.239C322.181 273.618 322.586 272.116 323.237 270.687C323.707 269.655 324.494 268.98 326.955 267.706C328.928 266.684 332.517 265.186 334.51 264.336C336.503 263.486 336.826 263.404 338.176 263.35C339.526 263.297 341.892 263.276 343.699 263.5C346.74 263.877 348.058 264.714 348.665 264.768C351.366 264.909 353.303 265.201 353.959 265.421C354.12 265.484 354.277 265.547 354.459 265.633" stroke="black" stroke-width="10" stroke-linecap="round"/>
<path d="M412.5 241C415.286 241 418.409 242.742 421.709 246.576C424.958 250.351 427.992 255.724 430.596 261.899C435.812 274.271 439 289.123 439 299C439 303.881 438.218 307.314 436.998 309.755C435.806 312.139 434.119 313.736 431.972 314.856C427.407 317.239 420.828 317.5 412.5 317.5C404.172 317.5 397.593 317.239 393.028 314.856C390.881 313.736 389.194 312.139 388.002 309.755C386.782 307.314 386 303.881 386 299C386 289.123 389.189 274.271 394.405 261.899C397.009 255.724 400.042 250.351 403.291 246.576C406.591 242.742 409.714 241 412.5 241Z" stroke="black" stroke-width="6"/>
<path d="M398.732 277.432C398.732 276.817 398.926 274.894 400.205 271.391C400.713 270 401.05 268.64 401.037 266.139C401.035 265.741 400.873 265.869 400.72 265.981C400.075 266.449 399.198 268.846 398.451 270.496C398.385 270.643 398.319 269.373 398.369 267.996C398.397 267.216 399.671 265.315 401.771 261.976C403.761 258.812 404.472 256.782 404.583 256.249C404.94 254.531 406.68 252.419 408.861 250.832C409.956 250.035 410.818 249.663 412.558 249.528C414.226 249.399 417.576 250.435 419.436 252.049C420.958 253.37 420.993 255.252 421.299 256.183C421.903 258.015 422.515 260.286 422.874 262.101C423.284 264.173 425.126 267.073 425.492 268.497C425.591 268.88 425.604 269.25 425.758 269.499C425.833 269.618 426.027 269.615 426.033 269.676C426.054 269.892 424.231 271.375 421.859 273.642C420.79 274.664 419.973 275.294 417.913 276.936C416.436 278.114 414.002 279.889 412.675 280.865C411.348 281.841 411.183 281.938 409.192 283.513C407.201 285.087 403.389 288.136 400.704 290.376C398.019 292.615 396.576 293.953 395.53 294.895C392.985 297.189 391.24 299.271 390.522 300.413C390.506 300.439 390.483 300.231 390.56 300.078C391.005 299.181 392.761 298.56 393.501 297.951C394.517 297.115 396.155 296.201 396.856 295.692C398.209 294.711 400.88 292.374 402.191 291.137C403.375 290.02 405.439 288.15 406.997 285.931C408.134 284.311 409.755 281.54 410.919 279.466C412.084 277.392 412.687 276.061 413.218 274.605C413.75 273.148 414.191 271.606 414.428 269.389C414.665 267.172 414.684 264.326 414.685 262.778C414.686 261.064 414.437 260.056 414.064 257.898C413.838 256.588 413.804 254.801 413.614 253.119C413.248 249.89 412.668 248.244 412.151 248.097C411.831 248.006 411.373 247.972 411.061 248.026C410.549 248.116 410.018 249.26 408.677 251.666C407.79 253.258 406.308 255.504 405.5 256.838C404.178 259.024 404.313 262.713 404.6 264.729C404.712 265.514 405.643 266.008 406.039 267.964C406.153 268.522 406.163 269.053 406.502 267.976C406.84 266.899 407.471 264.204 407.786 264.564C408.102 264.923 408.081 268.418 408.038 270.453C407.985 272.961 407.639 274.125 407.254 275.241C407.038 275.864 406.487 276.586 405.304 278.329C403.323 281.248 401.81 283.541 401.158 284.28C400.453 285.078 397.785 286.827 395.239 288.578C393.019 290.104 392.352 291.562 391.804 292.529C391.222 293.557 391.029 296.284 390.388 297.906C389.986 298.922 389.808 299.796 389.785 301.193C389.784 301.264 389.785 300.825 390.6 297.059C391.414 293.293 393.043 286.213 393.932 282.239C394.966 277.618 395.371 276.116 396.022 274.687C396.492 273.655 397.279 272.98 399.74 271.706C401.714 270.684 405.303 269.186 407.295 268.336C409.288 267.486 409.612 267.404 410.961 267.35C412.311 267.297 414.677 267.276 416.484 267.5C419.525 267.877 420.843 268.714 421.45 268.768C424.151 268.909 426.088 269.201 426.744 269.421C426.905 269.484 427.063 269.547 427.245 269.633" stroke="black" stroke-width="10" stroke-linecap="round"/>
<path d="M486.5 241C489.286 241 492.409 242.742 495.709 246.576C498.958 250.351 501.992 255.724 504.596 261.899C509.812 274.271 513 289.123 513 299C513 303.881 512.218 307.314 510.998 309.755C509.806 312.139 508.119 313.736 505.972 314.856C501.407 317.239 494.828 317.5 486.5 317.5C478.172 317.5 471.593 317.239 467.028 314.856C464.881 313.736 463.194 312.139 462.002 309.755C460.782 307.314 460 303.881 460 299C460 289.123 463.189 274.271 468.405 261.899C471.009 255.724 474.042 250.351 477.291 246.576C480.591 242.742 483.714 241 486.5 241Z" stroke="black" stroke-width="6"/>
<path d="M471.837 268.129C471.837 267.667 472.029 266.221 473.292 263.587C473.794 262.541 474.127 261.519 474.114 259.638C474.112 259.339 473.952 259.436 473.8 259.519C473.164 259.872 472.298 261.673 471.56 262.915C471.494 263.025 471.43 262.07 471.479 261.035C471.507 260.448 472.765 259.018 474.839 256.508C476.805 254.13 477.507 252.603 477.617 252.202C477.969 250.91 479.688 249.323 481.842 248.129C482.923 247.53 483.775 247.251 485.494 247.149C487.141 247.052 490.45 247.831 492.287 249.044C493.791 250.038 493.825 251.453 494.128 252.152C494.724 253.53 495.329 255.238 495.683 256.602C496.088 258.16 497.908 260.34 498.269 261.411C498.366 261.699 498.379 261.977 498.532 262.164C498.605 262.254 498.797 262.252 498.803 262.298C498.824 262.46 497.023 263.575 494.681 265.28C493.624 266.048 492.818 266.522 490.783 267.757C489.324 268.642 486.919 269.977 485.609 270.711C484.299 271.445 484.136 271.517 482.169 272.701C480.202 273.885 476.437 276.177 473.785 277.861C471.133 279.545 469.708 280.551 468.675 281.26C466.161 282.984 464.437 284.55 463.728 285.408C463.712 285.428 463.69 285.272 463.765 285.156C464.205 284.482 465.939 284.015 466.671 283.557C467.674 282.929 469.292 282.241 469.984 281.859C471.32 281.121 473.959 279.364 475.254 278.434C476.423 277.594 478.462 276.188 480 274.519C481.123 273.301 482.725 271.218 483.875 269.659C485.025 268.099 485.621 267.099 486.146 266.004C486.671 264.908 487.106 263.749 487.34 262.082C487.574 260.415 487.593 258.275 487.594 257.111C487.595 255.823 487.35 255.065 486.981 253.442C486.758 252.457 486.724 251.113 486.536 249.849C486.175 247.421 485.602 246.184 485.091 246.073C484.776 246.004 484.323 245.979 484.015 246.02C483.509 246.087 482.985 246.948 481.66 248.757C480.784 249.954 479.32 251.642 478.522 252.645C477.216 254.288 477.35 257.062 477.633 258.578C477.743 259.169 478.663 259.54 479.055 261.011C479.167 261.43 479.177 261.829 479.511 261.019C479.846 260.21 480.469 258.184 480.78 258.454C481.092 258.724 481.072 261.352 481.029 262.882C480.976 264.768 480.635 265.643 480.254 266.482C480.042 266.951 479.497 267.493 478.329 268.804C476.372 270.999 474.878 272.723 474.233 273.278C473.537 273.878 470.902 275.193 468.387 276.509C466.194 277.658 465.535 278.753 464.994 279.48C464.419 280.253 464.228 282.304 463.595 283.523C463.198 284.288 463.023 284.945 463 285.995C462.999 286.048 463 285.718 463.805 282.886C464.609 280.055 466.218 274.732 467.096 271.743C468.117 268.269 468.518 267.14 469.16 266.066C469.625 265.289 470.402 264.782 472.832 263.824C474.782 263.055 478.327 261.929 480.295 261.29C482.263 260.651 482.583 260.589 483.916 260.549C485.25 260.509 487.587 260.493 489.372 260.662C492.375 260.945 493.677 261.575 494.277 261.615C496.944 261.721 498.858 261.941 499.505 262.106C499.664 262.153 499.82 262.201 500 262.265" stroke="black" stroke-width="10" stroke-linecap="round"/>
<path d="M559.5 241C562.286 241 565.409 242.742 568.709 246.576C571.958 250.351 574.992 255.724 577.596 261.899C582.812 274.271 586 289.123 586 299C586 303.881 585.218 307.314 583.998 309.755C582.806 312.139 581.119 313.736 578.972 314.856C574.407 317.239 567.828 317.5 559.5 317.5C551.172 317.5 544.593 317.239 540.028 314.856C537.881 313.736 536.194 312.139 535.002 309.755C533.782 307.314 533 303.881 533 299C533 289.123 536.189 274.271 541.405 261.899C544.009 255.724 547.042 250.351 550.291 246.576C553.591 242.742 556.714 241 559.5 241Z" stroke="black" stroke-width="6"/>
<path d="M545.732 277.432C545.732 276.817 545.926 274.894 547.205 271.391C547.713 270 548.05 268.64 548.037 266.139C548.035 265.741 547.873 265.869 547.72 265.981C547.075 266.449 546.198 268.846 545.451 270.496C545.385 270.643 545.319 269.373 545.369 267.996C545.397 267.216 546.671 265.315 548.771 261.976C550.761 258.812 551.472 256.782 551.583 256.249C551.94 254.531 553.68 252.419 555.861 250.832C556.956 250.035 557.818 249.663 559.558 249.528C561.226 249.399 564.576 250.435 566.436 252.049C567.958 253.37 567.993 255.252 568.299 256.183C568.903 258.015 569.515 260.286 569.874 262.101C570.284 264.173 572.126 267.073 572.492 268.497C572.591 268.88 572.604 269.25 572.758 269.499C572.833 269.618 573.027 269.615 573.033 269.676C573.054 269.892 571.231 271.375 568.859 273.642C567.79 274.664 566.973 275.294 564.913 276.936C563.436 278.114 561.002 279.889 559.675 280.865C558.348 281.841 558.183 281.938 556.192 283.513C554.201 285.087 550.389 288.136 547.704 290.376C545.019 292.615 543.576 293.953 542.53 294.895C539.985 297.189 538.24 299.271 537.522 300.413C537.506 300.439 537.483 300.231 537.56 300.078C538.005 299.181 539.761 298.56 540.501 297.951C541.517 297.115 543.155 296.201 543.856 295.692C545.209 294.711 547.88 292.374 549.191 291.137C550.375 290.02 552.439 288.15 553.997 285.931C555.134 284.311 556.755 281.54 557.919 279.466C559.084 277.392 559.687 276.061 560.218 274.605C560.75 273.148 561.191 271.606 561.428 269.389C561.665 267.172 561.684 264.326 561.685 262.778C561.686 261.064 561.437 260.056 561.064 257.898C560.838 256.588 560.804 254.801 560.614 253.119C560.248 249.89 559.668 248.244 559.151 248.097C558.831 248.006 558.373 247.972 558.061 248.026C557.549 248.116 557.018 249.26 555.677 251.666C554.79 253.258 553.308 255.504 552.5 256.838C551.178 259.024 551.313 262.713 551.6 264.729C551.712 265.514 552.643 266.008 553.039 267.964C553.153 268.522 553.163 269.053 553.502 267.976C553.84 266.899 554.471 264.204 554.786 264.564C555.102 264.923 555.081 268.418 555.038 270.453C554.985 272.961 554.639 274.125 554.254 275.241C554.038 275.864 553.487 276.586 552.304 278.329C550.323 281.248 548.81 283.541 548.158 284.28C547.453 285.078 544.785 286.827 542.239 288.578C540.019 290.104 539.352 291.562 538.804 292.529C538.222 293.557 538.029 296.284 537.388 297.906C536.986 298.922 536.808 299.796 536.785 301.193C536.784 301.264 536.785 300.825 537.6 297.059C538.414 293.293 540.043 286.213 540.932 282.239C541.966 277.618 542.371 276.116 543.022 274.687C543.492 273.655 544.279 272.98 546.74 271.706C548.714 270.684 552.303 269.186 554.295 268.336C556.288 267.486 556.612 267.404 557.961 267.35C559.311 267.297 561.677 267.276 563.484 267.5C566.525 267.877 567.843 268.714 568.45 268.768C571.151 268.909 573.088 269.201 573.744 269.421C573.905 269.484 574.063 269.547 574.245 269.633" stroke="black" stroke-width="10" stroke-linecap="round"/>
<path d="M610.315 270.555C610.315 270 610.517 268.265 611.849 265.105C612.378 263.85 612.728 262.622 612.714 260.366C612.712 260.007 612.543 260.123 612.384 260.223C611.713 260.646 610.8 262.808 610.023 264.297C609.953 264.43 609.885 263.284 609.937 262.042C609.967 261.338 611.292 259.622 613.479 256.61C615.551 253.755 616.291 251.924 616.407 251.443C616.778 249.892 618.59 247.987 620.861 246.555C622 245.836 622.898 245.501 624.709 245.379C626.446 245.262 629.934 246.197 631.87 247.653C633.455 248.845 633.491 250.543 633.81 251.383C634.438 253.036 635.076 255.085 635.45 256.722C635.877 258.592 637.795 261.208 638.176 262.494C638.278 262.839 638.292 263.173 638.453 263.397C638.53 263.505 638.732 263.502 638.738 263.557C638.76 263.752 636.862 265.09 634.393 267.136C633.28 268.058 632.43 268.626 630.285 270.108C628.747 271.171 626.212 272.772 624.831 273.653C623.45 274.533 623.278 274.621 621.205 276.041C619.132 277.462 615.163 280.213 612.368 282.234C609.572 284.254 608.07 285.461 606.981 286.312C604.332 288.381 602.515 290.26 601.767 291.29C601.75 291.314 601.727 291.126 601.806 290.987C602.27 290.178 604.098 289.618 604.869 289.069C605.927 288.314 607.632 287.49 608.362 287.031C609.77 286.145 612.552 284.037 613.916 282.92C615.148 281.913 617.298 280.225 618.919 278.223C620.103 276.762 621.791 274.262 623.003 272.39C624.216 270.519 624.844 269.318 625.397 268.004C625.95 266.69 626.409 265.299 626.656 263.298C626.903 261.298 626.923 258.73 626.924 257.333C626.925 255.787 626.666 254.878 626.278 252.931C626.042 251.748 626.007 250.136 625.808 248.618C625.428 245.705 624.824 244.22 624.286 244.087C623.953 244.005 623.476 243.974 623.151 244.024C622.618 244.105 622.065 245.137 620.669 247.308C619.745 248.744 618.202 250.77 617.362 251.974C615.984 253.946 616.125 257.275 616.424 259.094C616.54 259.802 617.51 260.248 617.923 262.013C618.041 262.516 618.052 262.995 618.404 262.023C618.756 261.052 619.413 258.621 619.742 258.945C620.07 259.269 620.049 262.422 620.004 264.259C619.948 266.521 619.588 267.571 619.187 268.578C618.963 269.141 618.389 269.792 617.157 271.365C615.095 273.998 613.52 276.067 612.84 276.734C612.106 277.454 609.329 279.032 606.678 280.611C604.367 281.989 603.672 283.304 603.102 284.176C602.496 285.104 602.295 287.565 601.627 289.028C601.209 289.945 601.024 290.733 601 291.994C600.999 292.058 601 291.661 601.848 288.263C602.696 284.866 604.392 278.478 605.318 274.892C606.394 270.723 606.816 269.368 607.493 268.079C607.983 267.147 608.802 266.539 611.364 265.389C613.419 264.466 617.156 263.115 619.23 262.348C621.305 261.582 621.642 261.507 623.047 261.459C624.452 261.411 626.916 261.392 628.797 261.594C631.963 261.934 633.335 262.69 633.967 262.738C636.779 262.866 638.796 263.129 639.479 263.327C639.646 263.384 639.811 263.441 640 263.518" stroke="black" stroke-width="10" stroke-linecap="round"/>
<path d="M661.704 539.378C662.038 539.378 665.279 538.979 670.176 538.856C670.955 538.836 671.084 539.045 671.065 539.177C671.017 539.505 669.892 539.82 668.269 540.327C667.441 540.586 666.627 540.914 668.754 541.494C670.88 542.074 675.977 542.912 679.12 543.344C683.281 543.916 685.34 543.368 686.929 542.718C687.75 542.382 688.203 542.353 688.479 542.228C688.606 542.171 688.448 541.854 686.677 539.351C684.906 536.848 681.461 532.097 679.536 529.355C677.611 526.613 677.311 526.023 676.573 524.632C675.834 523.241 674.666 521.066 672.928 517.18C671.191 513.294 668.919 507.762 667.566 504.593C666.212 501.425 665.845 500.788 665.493 499.922C665.142 499.056 664.818 497.981 664.278 495.137C663.738 492.292 662.992 487.711 662.595 482.529C662.198 477.348 662.173 471.704 662.1 468.524C662.028 465.344 661.907 464.798 661.87 465.82C661.738 469.447 662.099 472.723 662.545 474.017C663.696 477.353 665.516 479.164 667.046 480.498C669.627 482.749 672.137 483.134 673.56 483.683C674.318 483.975 671.347 486.256 669.017 488.909C667.051 491.146 666.23 493.032 665.496 495.71C664.927 497.782 664.256 501.378 663.783 505.952C663.309 510.527 663.13 515.991 663.246 519.899C663.362 523.807 663.78 525.993 664.156 527.59C665.186 531.959 666.808 533.829 667.612 534.672C668.306 535.399 669.823 535.967 672.608 536.757C673.609 537.041 674.574 537.003 675.334 536.91C675.646 536.873 674.884 535.912 672.767 532.452C671.324 530.094 669.18 525.511 667.754 522.186C666.328 518.861 665.837 516.846 665.559 515.596C665.281 514.345 665.23 513.921 665.098 513.238" stroke="black" stroke-width="10" stroke-linecap="round"/>
<path d="M657.158 866.977C656.946 866.114 655.997 863.22 655.237 861.192C654.91 860.32 654.823 859.254 654.918 858.508C655.087 857.192 657.753 861.101 668.369 866.031C670.942 867.226 672.954 867.165 676.366 867.619C684.754 870.984 689.285 873.816 692.19 875.259C692.884 875.551 693.326 875.677 694.733 876.043" stroke="black" stroke-width="10" stroke-linecap="round"/>
<path d="M462.45 293.037C462.769 292.996 464.46 292.001 466.462 290.453C468.186 289.12 469.578 287.988 473.414 285.564C474.529 284.859 475.01 284.436 476.137 283.491C478.614 281.413 482.303 278.349 485.983 275.811C488.942 273.771 490.099 272.385 491.512 271.199C492.965 269.98 494.659 269.205 495.815 268.585C496.398 268.224 496.984 267.852 497.631 267.392C498.008 267.095 498.484 266.666 499.278 266.093" stroke="black" stroke-width="10" stroke-linecap="round"/>
<path d="M538.026 305.212C539.397 303.856 542.913 300.638 544.059 299.613C545.38 298.433 546.725 297.2 553.061 291.207C557.117 287.37 560.105 284.737 561.525 283.23C563.633 280.992 565.381 280.334 567.396 278.467C571.324 274.829 572.673 272.807 573.888 271.691C574.128 271.484 574.315 271.299 574.513 271.119C574.71 270.938 574.913 270.768 575.278 270.5" stroke="black" stroke-width="10" stroke-linecap="round"/>
</g>
<defs>
<clipPath id="clip0_36_196">
<rect width="912" height="912" fill="white"/>
</clipPath>
</defs>
</svg>
