<svg width="264" height="246" viewBox="0 0 264 246" fill="none" xmlns="http://www.w3.org/2000/svg">
<path d="M107.082 78.5737H113.816L111.796 92.3586H109.102L107.082 78.5737Z" fill="black"/>
<path d="M68.6938 78.5737H75.4285L73.4081 90.9801H70.7143L68.6938 78.5737Z" fill="black"/>
<path d="M79.4695 78.5737H86.2042L84.1838 90.9801H81.4899L79.4695 78.5737Z" fill="black"/>
<path d="M88.8979 78.5737H95.6326L93.6122 92.3586H90.9184L88.8979 78.5737Z" fill="black"/>
<path d="M98.3267 78.5737H105.061L103.041 92.3586H100.347L98.3267 78.5737Z" fill="black"/>
<path d="M125.265 147.498H133.347L130.923 162.661H127.69L125.265 147.498Z" fill="black"/>
<path d="M133.347 147.498L140.755 148.187L139.004 162.661H135.771L133.347 147.498Z" fill="black"/>
<path d="M140.082 147.498H147.49L145.739 162.661H142.506L140.082 147.498Z" fill="black"/>
<ellipse cx="29.6326" cy="89.6013" rx="5.38775" ry="5.51395" fill="black"/>
<ellipse cx="27.6123" cy="127.51" rx="8.7551" ry="8.96016" fill="black"/>
<ellipse cx="30.9795" cy="56.5178" rx="4.04082" ry="4.13546" fill="black"/>
<path d="M36.7844 161.635C41.7098 160.956 46.9344 160.517 51.0481 161.401C53.0979 161.842 54.8347 162.605 56.1204 163.796C57.3971 164.979 58.2638 166.618 58.5247 168.886C59.0494 173.449 57.1181 180.525 51.1223 191.293C50.5688 189.566 49.6679 187.479 48.2014 185.81C46.7068 184.108 44.6209 182.839 41.7551 182.839C36.4587 182.839 30.2279 181.066 25.3313 177.982C20.4262 174.893 16.9652 170.562 16.9651 165.479C16.9651 163.318 16.853 161.909 16.7649 161.04C17.1746 161.367 17.745 161.754 18.5266 162.109C19.8623 162.717 21.7878 163.223 24.5471 163.223C25.9375 163.223 27.7831 162.99 29.8694 162.68C31.9731 162.367 34.3231 161.974 36.7844 161.635Z" fill="#EDE6D6" stroke="black"/>
<path d="M40.4084 154.891C43.7444 154.891 46.1464 155.044 47.8733 155.317C49.6092 155.592 50.612 155.98 51.1946 156.408C51.7449 156.813 51.9482 157.275 52.0237 157.826C52.0633 158.115 52.0672 158.429 52.0588 158.781C52.0508 159.118 52.0305 159.518 52.0305 159.904C52.0305 160.291 52.0508 160.69 52.0588 161.027C52.0672 161.38 52.0633 161.694 52.0237 161.983C51.9481 162.534 51.7446 162.996 51.1946 163.4C50.612 163.829 49.6092 164.217 47.8733 164.491C46.1464 164.764 43.7444 164.919 40.4084 164.919C33.7393 164.919 27.7167 164.304 23.3752 163.316C21.2005 162.822 19.4746 162.239 18.3049 161.61C17.72 161.296 17.2979 160.982 17.0276 160.682C16.7598 160.384 16.6633 160.126 16.6633 159.904C16.6634 159.683 16.76 159.425 17.0276 159.128C17.298 158.827 17.7198 158.513 18.3049 158.198C19.4746 157.569 21.2006 156.988 23.3752 156.493C27.7167 155.506 33.7393 154.891 40.4084 154.891Z" fill="#EDE6D6" stroke="black"/>
<path d="M49.9026 31.3969C49.8663 27.0099 53.4126 23.4341 57.7998 23.4341C62.2779 23.4341 65.86 27.1535 65.6917 31.6284L59.5359 195.259C59.5238 195.58 59.4744 195.898 59.3888 196.208C58.1079 200.835 51.2984 199.938 51.2586 195.138L49.9026 31.3969Z" fill="black"/>
<path d="M168.389 33.0267C167.673 28.7271 170.989 24.813 175.348 24.813H185.066C192.182 24.813 193.324 35.0271 186.385 36.5994C183.293 37.2998 181.289 40.2955 181.821 43.4205L213.934 232.004C214.308 234.2 211.442 235.373 210.169 233.546C209.139 232.069 206.848 232.503 206.43 234.254L206.349 234.594C205.782 236.971 202.36 236.853 201.959 234.442L168.389 33.0267Z" fill="black"/>
<path d="M56.5715 195.745L202.041 232.964" stroke="black" stroke-width="8" stroke-linecap="round"/>
<path d="M56.5715 28.9482H185.878" stroke="black" stroke-width="8" stroke-linecap="round"/>
<path d="M189.918 27.5698L246.83 194.89C254.286 216.811 234.662 238.352 212.143 232.964" stroke="black" stroke-width="2" stroke-linecap="round"/>
<path d="M124.592 32.3945L201.367 228.14" stroke="black" stroke-width="2" stroke-linecap="round"/>
<path d="M158.939 28.9482L200.694 228.829" stroke="black" stroke-width="2" stroke-linecap="round"/>
<path d="M142.775 28.9482L200.694 228.829" stroke="black" stroke-width="2" stroke-linecap="round"/>
<path d="M130.653 46.8688L173.755 44.1118" stroke="black" stroke-linecap="round"/>
<path d="M134.694 57.8966L177.796 55.1396" stroke="black" stroke-linecap="round"/>
<path d="M138.735 68.9245L181.837 66.1675" stroke="black" stroke-linecap="round"/>
<path d="M142.775 79.9523L185.877 77.1953" stroke="black" stroke-linecap="round"/>
<path d="M146.816 90.9801L187.225 88.2231" stroke="black" stroke-linecap="round"/>
<path d="M152.204 102.008L189.918 99.251" stroke="black" stroke-linecap="round"/>
<path d="M156.245 113.036L192.612 110.279" stroke="black" stroke-linecap="round"/>
<path d="M160.286 124.064L191.265 121.307" stroke="black" stroke-linecap="round"/>
<path d="M165.673 135.091L195.306 132.334" stroke="black" stroke-linecap="round"/>
<path d="M169.714 146.12L196.653 143.363" stroke="black" stroke-linecap="round"/>
<path d="M169.714 146.12L196.653 143.363" stroke="black" stroke-linecap="round"/>
<path d="M173.755 157.148L196.653 154.391" stroke="black" stroke-linecap="round"/>
<path d="M177.796 168.175L200.694 165.418" stroke="black" stroke-linecap="round"/>
<path d="M177.796 168.175L200.694 165.418" stroke="black" stroke-linecap="round"/>
<path d="M184.531 186.096L200.694 183.339" stroke="black" stroke-linecap="round"/>
<path d="M181.837 179.203L200.694 176.446" stroke="black" stroke-linecap="round"/>
<path d="M61.9592 81.3306L156.245 113.036" stroke="black" stroke-linecap="round"/>
<path d="M60.6123 90.7686L123.043 92.8071" stroke="black" stroke-linecap="round"/>
<path d="M105.061 95.1157L134.694 56.5181" stroke="black" stroke-width="0.7" stroke-linecap="round"/>
<path d="M121.225 100.629L133.347 59.2749" stroke="black" stroke-width="0.7" stroke-linecap="round"/>
<path d="M150.857 110.279L133.347 59.2749" stroke="black" stroke-width="0.7" stroke-linecap="round"/>
<path d="M122.213 83.9411C122.186 83.9411 122.278 83.7479 122.843 82.8338C124.073 80.8437 125.029 79.5271 125.201 79.272C125.92 78.2036 126.248 76.9068 126.989 75.1443C127.544 73.8255 128.496 71.6605 129.006 70.3963C129.924 68.1208 130.226 66.8355 130.516 65.9539C130.976 64.5532 131.319 63.3881 131.584 62.582C131.83 61.8324 132.127 61.5238 132.306 61.1115C132.348 61.0063 132.389 60.908 132.439 60.8055C132.489 60.703 132.549 60.5992 132.728 60.2456" stroke="black" stroke-linecap="round"/>
<path d="M118.197 79.1306C118.198 79.2817 118.243 79.8103 118.684 80.951C118.832 81.3345 119.157 81.6985 119.498 82.1253C119.84 82.5522 120.237 83.007 120.514 83.3026C120.922 83.7369 121.57 84.0987 122.501 84.5346C123.816 85.1502 124.419 84.978 124.734 84.9115C124.791 84.8996 124.84 84.8841 124.885 84.861C124.93 84.838 124.968 84.8025 124.989 84.7234C125.011 84.6442 125.017 84.5224 124.991 84.4298C124.945 84.2625 124.663 84.1081 124.021 83.8214C122.884 83.3136 122.068 83.1222 121.977 83.0766C121.889 83.0324 121.792 82.9488 121.641 82.803C121.41 82.5808 120.889 82.0194 120.214 81.2776C119.739 80.7566 119.463 80.2426 119.224 79.8084C118.939 79.2907 118.712 78.8552 118.71 78.6312C118.709 78.5303 118.815 78.4463 118.955 78.2391C119.234 77.8247 119.742 77.1677 120.509 76.4397C121.306 75.6825 121.865 75.3455 122.038 75.1553C122.364 74.7984 122.589 74.5024 122.618 74.4258C122.631 74.3916 122.518 74.3753 122.439 74.3938C122.043 74.4862 121.73 75.0959 121.396 75.4913C120.984 75.9785 120.774 76.8856 120.35 77.5837C119.912 78.3057 119.817 78.5547 119.827 79.4001C119.83 79.7011 119.945 79.8505 120.156 80.1047C120.625 80.6725 121.146 81.2182 121.428 81.5653C121.585 81.7576 122.129 82.1056 122.883 82.5919C123.585 83.045 124.698 83.1573 125.099 83.3572C125.173 83.3939 125.218 83.4461 125.248 83.5021C125.311 83.6159 125.301 83.7489 125.291 83.8623C125.27 84.1086 124.997 84.3317 124.778 84.4984C124.551 84.6701 124.087 84.6131 123.829 84.569C123.35 84.487 122.757 83.5693 122.441 82.9654C122.28 82.6581 122.1 82.0616 121.901 81.6143C121.561 80.8518 121.3 80.4666 121.197 80.181C121.13 79.9948 121.06 79.7155 120.974 79.1235C120.889 78.5316 120.799 77.6331 120.752 77.1079C120.705 76.5827 120.705 76.4582 120.708 76.4184C120.709 76.4047 120.784 76.6868 121.105 77.519C121.348 78.15 121.831 79.1722 122.116 79.8235C122.715 81.1981 123.064 81.7806 123.182 81.9134C123.21 81.9449 123.017 81.4618 122.68 80.7198C122.507 80.3399 122.388 79.9277 122.285 79.5318C122.183 79.1359 122.115 78.7624 122.076 78.2652C121.991 77.1608 122.039 76.389 122.067 76.1491C122.085 75.998 122.1 75.6711 122.121 75.2901C122.125 75.2213 122.221 75.5707 122.293 76.554C122.347 77.2891 122.484 78.4999 122.586 79.3079C122.735 80.4875 122.869 80.919 122.928 81.0289C122.956 81.0831 122.992 81.1293 123.02 81.0562C123.119 80.8027 123.084 80.1834 123.031 78.92C122.995 78.0605 122.916 76.7588 122.885 76.062C122.851 75.3132 122.901 75.1908 122.943 75.0186C123.001 74.7808 122.997 74.1486 122.921 73.4363C122.895 73.195 122.668 73.2525 122.571 73.3423C122.474 73.432 122.455 73.5663 122.47 73.563C122.626 73.5287 122.891 72.9525 123.414 72.4285C124.023 71.8185 124.514 71.3058 124.909 70.8631C125.257 70.4741 125.747 69.7428 126.181 69.1954C126.562 68.7146 126.899 68.3466 127.202 67.925C127.826 67.0567 128.311 66.3967 128.438 66.19C128.673 65.8071 128.97 65.5222 129.576 64.3915C129.982 63.5255 130.331 63.128 130.672 62.834C130.757 62.7815 130.869 62.7306 131.043 62.6782" stroke="black" stroke-linecap="round"/>
<path d="M131.156 62.855C131.156 62.868 131.15 63.0197 131.043 63.599C130.963 64.0375 130.749 64.7523 130.599 65.2357C130.449 65.719 130.35 65.9449 129.997 66.5865C129.644 67.2282 129.04 68.2789 127.936 70.4018C126.832 72.5247 125.246 75.688 124.377 77.5215C123.507 79.3551 123.403 79.7631 123.374 79.9561C123.345 80.1491 123.394 80.1147 123.641 79.7728C123.888 79.431 124.331 78.7827 124.848 77.6648C125.365 76.5468 125.942 74.9787 126.355 73.5654C126.767 72.1521 126.997 70.9411 127.371 69.612C127.745 68.283 128.255 66.8727 128.544 66.1116C128.863 65.2722 128.991 65.1661 129.095 65.0883C129.145 65.0514 129.195 65.0319 129.231 65.0541C129.267 65.0763 129.289 65.1438 129.301 65.2654C129.312 65.387 129.312 65.5607 129.035 66.3416C128.757 67.1226 128.202 68.5055 127.76 69.4976C127.318 70.4897 127.006 71.049 126.52 71.8107C126.034 72.5723 125.383 73.5193 124.965 74.221C124.548 74.9227 124.383 75.3504 124.154 75.9545C123.633 77.3257 123.326 78.051 123.31 77.891C123.29 77.6793 123.457 76.7712 123.707 75.5164C123.897 74.5649 124.044 73.9684 124.238 73.3508C124.485 72.5598 124.504 71.8454 124.599 71.563C124.714 71.2246 125.19 71.0578 125.739 70.7216C125.92 70.611 126.094 70.4107 126.262 70.2804C126.383 70.1866 126.131 70.943 125.789 71.9369C125.573 72.5655 125.346 73.4726 125.207 73.9609C125.067 74.4492 125.042 74.4979 125.027 74.4958C124.97 74.488 125.135 73.6077 125.453 72.1856C125.6 71.5284 125.883 71.0466 126.109 70.6929C126.489 70.1011 126.813 69.9214 126.937 69.9185C127.218 69.9119 127.579 70.0391 127.924 69.9974C128.026 69.985 128.155 69.9324 128.277 69.8858C128.399 69.8393 128.508 69.788 128.538 70.2581C128.568 70.7282 128.516 71.7213 128.382 72.7141C128.249 73.7069 128.037 74.6693 128.142 74.3256C128.247 73.9818 128.677 72.3027 128.919 71.3808C129.162 70.459 129.204 70.3452 129.247 70.1228C129.291 69.9004 129.333 69.5729 129.378 69.2355" stroke="black" stroke-linecap="round"/>
<path d="M124.122 82.0293C124.162 82.1036 124.502 82.5274 124.779 82.67C124.894 82.7289 125.063 81.7605 125.288 80.4613C125.436 79.6033 125.423 79.2073 125.464 79.138C125.496 79.0842 125.543 79.9966 125.571 81.3215C125.583 81.8693 125.655 82.162 125.684 82.3891C125.713 82.6162 125.713 82.7683 125.964 82.0355C126.215 81.3028 126.718 79.6806 126.991 78.8118C127.264 77.9429 127.293 77.8767 127.443 77.37C127.593 76.8633 127.862 75.9181 127.974 75.5265C128.086 75.1349 128.032 75.3254 127.599 76.2682C127.166 77.211 126.355 78.9002 125.918 79.8258C125.48 80.7514 125.441 80.8621 125.419 80.8679C125.395 80.771 125.416 80.5735 125.507 80.2619C125.574 80.0421 125.683 79.6972 125.805 79.2572" stroke="black" stroke-linecap="round"/>
<path d="M117.457 79.7563C117.453 80.3047 117.579 81.639 118.038 82.1898C118.53 82.7788 119.008 83.1782 119.725 83.768C120.1 84.0767 120.571 84.2497 121.005 84.4047C121.302 84.5109 121.734 84.6226 122.276 84.7908C122.655 84.9087 123.1 84.9166 123.597 84.9223C123.948 84.9263 124.433 85.0437 124.936 85.2151C125.104 85.2723 125.06 85.3556 124.982 85.4065C124.605 85.65 124.257 85.6951 123.292 85.6205C122.901 85.5903 122.408 85.3665 121.88 85.1446C121.351 84.9227 120.81 84.6525 120.204 84.3116C119.598 83.9707 118.943 83.5673 118.492 83.2601C117.382 82.5039 117.081 81.8353 116.968 81.5326C116.947 81.4728 116.917 81.4075 116.901 81.3325C116.884 81.2576 116.881 81.1748 116.877 81.0895" stroke="black" stroke-linecap="round"/>
<path d="M116.068 81.9351C116.058 82.0694 116.109 83.0146 116.574 84.189C116.682 84.4616 116.898 84.6265 117.355 84.9392C117.813 85.2519 118.553 85.6809 119.193 85.9888C119.832 86.2967 120.348 86.4704 121.131 86.5786C121.915 86.6869 122.951 86.7243 123.512 86.7283C124.072 86.7323 124.126 86.7019 124.178 86.6639C124.231 86.626 124.279 86.5815 124.225 86.5424C124.044 86.4102 123.777 86.4348 123.488 86.4055C122.922 86.3482 122.182 86.1507 121.452 85.8915C120.782 85.6539 120.303 85.327 119.86 84.971C119.238 84.4714 118.804 84.0254 118.531 83.8346C117.928 83.4118 117.434 83.1674 117.138 82.8663C117.083 82.8107 117.038 82.7804 117.007 82.8144C116.912 82.9177 116.959 83.1217 117.027 83.2872C117.242 83.8033 117.819 84.0704 118.628 84.4015C119.19 84.6313 119.867 84.8562 120.565 85.1754C121.257 85.4923 121.833 85.5949 122.439 85.6344C122.855 85.648 123.491 85.6487 123.942 85.7145C124.392 85.7803 124.637 85.9112 124.986 86.0644" stroke="black" stroke-linecap="round"/>
<path d="M115.417 82.8062C115.417 82.9242 115.417 83.1439 115.442 83.4713C115.469 83.8211 115.904 84.4893 116.509 85.3564C116.943 85.9796 117.381 86.376 117.777 86.7091C118.12 86.9965 118.497 87.1115 119.377 87.2499C120.086 87.3613 121.338 87.4732 122.032 87.5416C122.985 87.617 123.327 87.6301 123.725 87.599C123.898 87.5678 124.014 87.5056 124.188 87.3465" stroke="black" stroke-linecap="round"/>
<path d="M114.838 83.4077C114.838 83.6627 114.838 83.8821 114.862 84.0449C114.885 84.1957 115.396 84.4375 116.056 84.7701C116.392 84.9393 116.773 85.438 117.355 86.1582C117.789 86.695 118.208 87.0268 118.579 87.2958C118.916 87.5402 119.28 87.6288 120.149 87.7169C120.861 87.789 122.131 87.8115 122.838 87.8496C123.654 87.8935 123.818 87.9823 123.933 88.0884C124.078 88.2206 124.127 88.6959 123.981 89.7241C123.887 90.3919 123.551 91.3187 123.139 92.4394C122.726 93.56 122.196 94.837 121.859 95.727C121.352 97.0651 121.244 97.7566 121.204 98.225C121.152 98.8349 121.102 99.3142 121.025 99.5294C120.975 99.6681 120.858 99.7187 120.743 99.7507C120.628 99.783 120.212 99.599 119.489 99.2249C118.22 98.5676 117.922 98.293 117.51 97.9875C117.239 97.7866 117.064 97.282 116.647 96.3647C116.338 95.686 115.813 94.5839 115.409 93.4337C115.004 92.2836 114.73 91.1211 114.54 89.5582C114.349 87.9953 114.25 86.0671 114.282 85.2056C114.314 84.3441 114.481 84.6076 115.579 85.2853C116.677 85.963 118.703 87.0469 119.917 87.6542C121.131 88.2616 121.472 88.3595 121.777 88.4227C122.336 88.5386 122.838 88.636 123.19 88.8456C123.33 88.9292 123.312 89.0793 123.29 89.1844C123.267 89.2895 123.22 89.3738 122.796 90.5859C122.372 91.798 121.573 94.1355 121.112 95.7179C120.652 97.3004 120.554 98.057 120.473 98.442C120.392 98.8271 120.331 98.8177 120.252 98.7589C120.059 98.6157 119.742 98.25 119.072 97.5092C118.625 97.0143 118.022 96.2197 117.66 95.7412C117.298 95.2627 117.211 95.1096 117.016 94.6453C116.821 94.181 116.52 93.41 116.356 92.9555C116.153 92.3935 116.045 91.8044 115.846 91.0059C115.762 90.6694 115.69 90.4786 115.548 89.7511C115.407 89.0236 115.192 87.7668 115.082 86.9031C114.973 86.0395 114.975 85.6072 115.03 85.4748C115.096 85.3152 115.4 85.9243 115.825 86.484C116.113 86.864 116.71 87.2958 117.322 87.7057C117.934 88.1157 118.585 88.4542 119.115 88.689C119.646 88.9238 120.035 89.0446 120.488 89.2076C121.452 89.5542 121.995 89.827 122.032 89.9499C122.054 90.0222 122.024 90.1268 121.597 91.1007C121.169 92.0746 120.33 93.9178 119.869 94.9874C119.312 96.2803 119.276 96.6584 119.252 96.9555C119.217 97.3862 119.291 97.7916 119.401 98.0283C119.447 98.127 119.537 98.1436 119.602 98.1525C119.667 98.1615 119.72 98.1524 119.754 98.084C119.844 97.9042 119.824 97.0964 119.849 96.0027C119.864 95.3812 119.986 94.9083 120.265 94.0706C120.453 93.5065 120.826 92.6939 121.059 92.1833C121.377 91.4873 121.717 90.8114 122.097 89.8613C122.274 89.4199 122.384 89.0472 122.45 88.9278C122.487 88.8588 122.397 89.4142 121.787 90.4811C121.346 91.2515 120.502 92.3999 119.997 93.2323C119.492 94.0647 119.316 94.5239 119.172 94.8542C118.943 95.3817 118.682 96.0514 118.466 96.977C118.364 97.4126 118.34 97.7929 118.269 97.8774C118.126 98.0464 117.901 97.1602 117.725 96.5077C117.581 95.9765 117.444 95.6722 117.378 95.0224C117.32 94.455 117.253 93.4014 117.119 92.477C116.985 91.5526 116.795 90.7883 116.657 89.8563C116.361 87.8581 116.347 86.8862 116.392 87.3107C116.423 87.5914 116.562 87.9895 116.912 88.8423C117.262 89.695 117.841 90.9865 118.215 91.9249C118.797 93.3864 118.91 94.0631 119.006 94.3794C119.185 94.9748 119.32 95.398 119.219 95.5134C119.171 95.5675 119.103 95.581 119.008 95.5705C118.477 95.5114 118.237 94.7235 118.058 93.971C117.97 93.5972 117.979 92.65 117.963 91.3483C117.956 90.8041 117.913 90.4971 117.789 89.7652C117.665 89.0333 117.451 87.8861 117.341 87.2591C117.231 86.632 117.231 86.56 117.618 87.6615C118.005 88.7631 118.779 91.0406 119.194 92.2994C119.609 93.5583 119.64 93.7295 119.669 92.6578C119.698 91.586 119.724 89.2662 119.756 88.0039C119.788 86.7416 119.825 86.6072 119.886 87.6113C119.948 88.6154 120.033 90.7622 120.082 91.8249C120.13 92.8876 120.139 92.8012 120.137 92.581C120.136 92.3608 120.123 92.0094 119.995 91.2762C119.867 90.543 119.624 89.4386 119.398 88.7189C119.067 87.6617 118.727 87.3463 118.659 87.3612C118.599 87.3745 118.614 87.57 118.737 88.4274C118.859 89.2849 119.122 90.842 119.317 91.7896C119.574 93.0415 119.803 93.3913 119.895 93.4429C119.999 93.5012 120.018 92.6323 120.128 91.4679C120.18 90.9189 120.346 90.4705 120.586 89.8176C120.825 89.1647 121.164 88.3249 121.324 88.4765C121.484 88.6281 121.455 89.7965 121.411 90.5125C121.366 91.2284 121.307 91.4564 121.254 91.5413C121.201 91.6262 121.155 91.561 121.107 91.4939" stroke="black" stroke-linecap="round"/>
<path d="M106.306 95.2723C106.371 95.202 106.693 95.0178 107.167 94.4509C107.467 94.0924 107.632 93.6668 107.921 93.2833C108.521 92.4861 109.408 91.3567 109.813 90.8448C110.187 90.3734 110.862 89.7049 112.216 87.5782C113.121 86.3914 113.829 85.489 114.271 84.9394C114.379 84.8073 114.46 84.7281 114.542 84.6465" stroke="black" stroke-linecap="round"/>
<path d="M114.542 84.6465C114.284 85.8993 113.736 87.2182 113.571 88.3179C113.344 89.831 113.586 90.9452 113.685 91.2712C113.88 91.9098 114.258 92.6702 114.831 93.6273C115.68 95.0471 116.553 96.3066 117.005 97.1798C117.344 97.8351 117.656 98.4065 117.761 98.8252C117.797 98.9661 117.378 98.9086 116.359 98.4733C115.34 98.038 113.627 97.2131 112.561 96.7464C111.156 96.1307 110.427 95.9966 109.786 95.7519C108.503 95.2617 107.538 95.0259 107.161 94.9015C106.947 94.8306 106.776 94.5911 106.629 94.3781C106.511 94.2066 106.572 93.9416 106.646 93.7087C106.763 93.3421 107.418 93.106 109.105 91.2407C109.962 90.2929 110.214 89.8858 110.921 88.59C111.263 87.9619 112.099 87.5337 112.77 87.3988C112.947 87.3632 112.916 88.7022 112.967 90.4447C112.988 91.135 113.077 91.428 113.385 92.0927C113.693 92.7574 114.237 93.784 114.828 94.7195C116.616 97.5475 117.103 97.714 117.121 97.8284C117.151 98.0058 115.909 97.4508 114.463 96.8008C113.729 96.4708 113.382 96.1636 112.859 95.8466C111.266 94.8806 110.036 94.5484 109.477 94.564C108.935 94.5792 108.365 94.0398 108.127 93.7057C108.014 93.5475 108.893 93.2479 109.882 92.903C110.468 92.699 111.364 91.2731 112.47 89.5874C112.794 89.0931 112.684 89.3648 112.567 89.5916C112.171 90.3587 111.71 90.786 111.171 91.1912C110.43 91.7484 110.42 93.5005 110.184 94.3875C110.136 94.5687 109.797 94.1678 109.606 93.9099C109.457 93.7097 109.408 93.0924 109.44 92.2667C109.466 91.627 110.518 90.8967 111.464 89.9596C111.685 89.7404 111.611 91.2071 111.397 93.0539C111.252 94.2987 111.423 94.9747 111.563 95.3232C111.688 95.6348 112.025 95.9808 112.416 96.1879C112.706 96.3422 112.695 95.361 112.629 94.4166C112.525 92.9112 112.35 91.7032 112.342 91.3077C112.341 91.2716 112.301 92.0133 112.335 92.9696C112.397 94.6818 113.887 96.0879 113.96 95.9403C114.637 94.58 113.277 93.0824 113.127 92.3763C113.23 92.712 114.622 94.8731 115.255 96.0473C115.215 96.0766 115.118 96.0229 114.903 95.8398" stroke="black" stroke-linecap="round"/>
<path d="M63.3062 78.5737H123.918" stroke="black" stroke-width="0.6" stroke-linecap="round"/>
<path d="M57.918 1C72.2217 1 83.8572 12.8735 83.8574 27.5693C83.8574 42.2653 72.2219 54.1396 57.918 54.1396C43.6142 54.1395 31.9795 42.2652 31.9795 27.5693C31.9797 12.8736 43.6143 1.00017 57.918 1Z" fill="#EDE6D6" stroke="black" stroke-width="2"/>
<path d="M64.6531 1.37842L190.592 26.8804" stroke="black" stroke-width="0.7" stroke-linecap="round"/>
<path d="M31.6201 27.5698L26.0441 159.846" stroke="black" stroke-linecap="round"/>
<ellipse opacity="0.2" cx="26.9388" cy="159.904" rx="4.04082" ry="1.37849" fill="#060000"/>
<path d="M17.5447 162.212C17.688 162.262 18.4232 162.613 18.8725 162.813C19.3732 163.037 20.0647 163.148 21.9409 163.601C22.9351 163.841 23.7116 163.929 24.7671 164.072C25.6155 164.188 26.4684 164.207 26.9042 164.244C27.8311 164.323 28.9311 164.426 29.4676 164.448C30.0766 164.474 37.682 164.883 38 164.871" stroke="black" stroke-linecap="round"/>
<path d="M147.085 97.991C147.322 97.976 147.998 97.8709 148.504 97.6097C148.767 97.4741 148.983 97.3091 149.059 97.1256C149.314 96.5078 147.567 96.8301 147.355 96.7418C146.886 96.5475 146.937 95.688 146.737 94.8198C146.141 92.2221 145.641 91.3585 145.332 90.558C144.888 89.411 144.701 88.2457 144.307 87.0178C143.342 84.006 142.75 83.1128 142.308 82.2123C141.679 80.9295 141.692 80.0039 141.37 79.289C141.157 78.8145 140.92 78.1789 140.46 76.5562C140.158 75.4903 139.971 74.9453 139.731 74.2075C139.395 73.1719 139.182 72.565 139.038 72.0549C138.938 71.8016 138.848 71.5595 138.731 71.2576C138.651 71.0644 138.527 70.7898 138.358 70.2827" stroke="black" stroke-linecap="round"/>
<path d="M135.723 62.6963C135.739 62.9609 136.263 64.2673 136.77 65.701C137.187 66.8812 137.272 67.3799 137.654 68.4299C137.888 69.075 138.047 69.5944 138.382 70.4511C138.613 71.0412 138.778 71.6645 138.941 72.3139C139.159 73.1818 139.367 73.7022 139.722 74.5545C139.981 75.1752 140.168 75.8391 140.524 76.5818C141.051 77.6784 142.057 80.0488 142.603 81.713C143.128 83.3133 143.265 84.6239 143.707 86.3034C144.312 88.5985 144.81 90.2096 145.053 90.8262C146.028 93.2905 146.269 94.0872 146.675 94.8334C147.356 96.0836 148.28 97.1214 148.654 97.3922C148.761 97.47 148.777 97.2655 148.754 97.0976C148.645 96.2951 148.151 95.5533 147.954 94.5538C147.781 93.679 147.274 92.7321 146.662 91.9356C146.063 91.1568 145.117 89.3997 144.156 87.3555C143.385 85.7154 142.947 84.8378 142.632 83.7586C142.499 83.3746 142.366 82.9977 142.227 82.5742C142.158 82.3746 142.091 82.2062 142.022 82.0327" stroke="black" stroke-linecap="round"/>
<path d="M147.078 97.0792C147.078 97.0779 147.078 97.0765 147.272 97.5897C147.467 98.1028 147.856 99.1305 148.017 99.6136C148.178 100.097 148.098 100.004 147.986 99.8446" stroke="black" stroke-linecap="round"/>
<path d="M147.986 99.8448C147.986 99.4142 148.012 98.5689 148.058 98.6333C148.12 98.721 148.14 98.8477 148.288 99.0547C148.402 99.2148 148.616 99.4722 148.847 99.8059C149.077 100.139 149.323 100.538 149.412 100.663C149.435 100.694 149.293 100.288 149.157 99.7579C149.066 99.4043 148.982 98.8666 148.927 98.5756C148.831 98.195 148.747 98.0644 148.661 97.89C148.618 97.7927 148.577 97.6776 148.534 97.5591" stroke="black" stroke-linecap="round"/>
<path d="M148.203 99.9815C148.201 99.9787 148.203 100.191 148.33 100.828C148.416 101.261 148.696 101.878 148.916 102.418C149.137 102.958 149.327 103.392 149.437 103.636C149.617 104.036 149.817 104.222 149.902 104.34C149.94 104.393 149.957 104.454 150.151 104.661C150.328 104.85 150.674 105.198 150.873 105.394C151.111 105.629 151.19 105.669 151.264 105.689C151.31 105.701 151.376 105.697 151.413 105.656C151.499 105.56 151.453 105.399 151.32 104.955C151.201 104.559 150.953 103.823 150.696 103.212C150.438 102.602 150.172 102.142 149.956 101.697C149.739 101.252 149.58 100.838 149.484 100.568C149.388 100.299 149.36 100.188 149.348 100.153C149.337 100.117 149.343 100.16 149.47 100.591C149.597 101.022 149.844 101.84 150.005 102.546C150.166 103.252 150.233 103.821 150.272 104.132C150.316 104.478 150.362 104.588 150.429 104.763C150.511 104.981 150.538 105.359 150.585 105.909C150.611 106.215 150.685 106.572 150.792 106.947C150.898 107.323 151.046 107.705 151.126 107.915C151.216 108.152 151.239 108.228 151.278 108.321C151.316 108.412 151.409 108.736 151.554 109.235C151.724 109.819 151.899 109.866 152.324 110.18C152.562 110.356 152.921 110.694 153.125 110.867C153.329 111.041 153.356 111.055 153.461 111.062C153.566 111.07 153.749 111.07 153.832 111.041C153.933 111.005 153.825 110.798 153.664 110.311C153.535 109.92 153.367 109.22 153.062 108.38C152.756 107.54 152.331 106.577 152.005 105.957C151.678 105.336 151.462 105.086 151.316 104.925C151.106 104.695 150.915 104.56 150.689 104.425C150.476 104.298 150.141 104.26 149.824 104.261C149.713 104.261 149.712 104.343 149.715 104.408C149.723 104.541 149.786 104.777 149.877 105.079C149.918 105.213 149.966 105.304 150.178 105.602C150.391 105.899 150.77 106.399 151.16 106.867C151.55 107.335 151.938 107.756 152.174 108.04C152.503 108.439 152.586 108.706 152.691 108.987C152.759 109.16 152.859 109.396 152.915 109.543C152.971 109.691 152.981 109.743 152.988 109.802" stroke="black" stroke-linecap="round"/>
<path d="M208.102 221.058C213.394 221.058 217.704 225.452 217.704 230.897C217.704 236.342 213.394 240.736 208.102 240.736C202.81 240.736 198.5 236.341 198.5 230.897C198.5 225.452 202.81 221.058 208.102 221.058Z" fill="#EDE6D6" stroke="black"/>
<path d="M80.8164 39.287L82.303 39.6251C97.1076 42.9921 112.593 41.6695 126.612 35.8408" stroke="black" stroke-width="0.1" stroke-linecap="round"/>
<path d="M72.7346 48.6714L79.3388 49.7937C94.6859 52.4019 110.432 51.3541 125.298 46.7354L129.306 45.4902" stroke="black" stroke-width="0.1" stroke-linecap="round"/>
<path d="M64.6531 54.185L80.5896 56.46C93.6044 58.318 106.859 57.5651 119.579 54.2453L132 51.0039" stroke="black" stroke-width="0.1" stroke-linecap="round"/>
<path d="M79.4695 43.1572L81.4356 43.5365C97.4255 46.6211 113.948 45.3922 129.306 39.9761" stroke="black" stroke-width="0.1" stroke-linecap="round"/>
<ellipse cx="72.7346" cy="55.1397" rx="1.34694" ry="1.37849" fill="black"/>
<ellipse cx="84.8572" cy="39.9761" rx="1.34694" ry="1.37849" fill="black"/>
<ellipse cx="121.898" cy="53.0716" rx="2.02041" ry="2.06773" fill="black"/>
<ellipse cx="86.8776" cy="50.3148" rx="2.02041" ry="2.06773" fill="black"/>
<ellipse cx="115.163" cy="39.287" rx="2.02041" ry="2.06773" fill="black"/>
<ellipse cx="100.347" cy="44.8011" rx="0.673469" ry="0.689243" fill="black"/>
<path d="M107.028 95.2354C107.074 95.2558 107.422 95.2661 107.714 95.3128C107.819 95.3297 107.918 95.3938 108.558 95.5732C109.141 95.7368 110.257 96.0189 110.884 96.1768C111.51 96.3347 111.616 96.3525 112.222 96.494C112.828 96.6356 113.932 96.9002 115.045 97.2286C116.157 97.557 117.244 97.9411 117.822 98.1441C118.557 98.4021 118.804 98.6078 119.002 98.6829C119.086 98.7147 119.142 98.7179 118.891 98.5793C118.64 98.4406 118.082 98.156 116.585 97.5969C115.089 97.0378 112.671 96.2128 111.408 95.7844C110.144 95.3559 110.108 95.349 109.621 95.3484C109.134 95.3479 108.197 95.3538 107.692 95.3614C107.145 95.3783 107.064 95.3881 106.929 95.3909C106.832 95.3934 106.675 95.3982 106.476 95.3987" stroke="black" stroke-width="2" stroke-linecap="round"/>
<path d="M152.401 109.717C152.401 109.85 152.391 110.137 152.364 110.194C152.347 110.22 152.322 110.238 152.279 110.249C152.236 110.26 152.174 110.263 152.106 110.249" stroke="black" stroke-width="2" stroke-linecap="round"/>
<path d="M208.168 231.01H208.186" stroke="black" stroke-width="2" stroke-linecap="round"/>
<ellipse cx="169.041" cy="26.8803" rx="3.36735" ry="3.44622" fill="black"/>
<ellipse cx="58.592" cy="26.8803" rx="3.36735" ry="3.44622" fill="black"/>
<path d="M181.837 15.6636C188.989 15.6638 194.806 21.6008 194.806 28.9487C194.806 36.2965 188.989 42.2327 181.837 42.2329C174.685 42.2329 168.868 36.2966 168.867 28.9487C168.867 21.6007 174.685 15.6636 181.837 15.6636Z" fill="#EDE6D6" stroke="black"/>
<path d="M181.716 28.9639H181.73" stroke="black" stroke-width="2" stroke-linecap="round"/>
<path d="M63.5566 58.937H133.772" stroke="black" stroke-linecap="round"/>
<path d="M114.556 78.5054C113.885 78.5328 113.407 78.5745 113.347 77.0202C113.286 75.466 113.791 71.7538 114.462 71.7264C115.133 71.6991 115.717 75.3669 115.777 76.9212C115.838 78.4755 115.227 78.478 114.556 78.5054Z" fill="#060000"/>
<path d="M118.597 78.5054C117.926 78.5328 117.448 78.5745 117.388 77.0202C117.327 75.466 117.832 71.7538 118.503 71.7264C119.174 71.6991 119.758 75.3669 119.818 76.9212C119.879 78.4755 119.268 78.478 118.597 78.5054Z" fill="#060000"/>
<path d="M110.515 78.5054C109.844 78.5328 109.366 78.5745 109.306 77.0202C109.246 75.466 109.75 71.7538 110.421 71.7264C111.092 71.6991 111.676 75.3669 111.736 76.9212C111.797 78.4755 111.187 78.478 110.515 78.5054Z" fill="#060000"/>
<path d="M106.475 78.5054C105.804 78.5328 105.326 78.5745 105.265 77.0202C105.205 75.466 105.709 71.7538 106.38 71.7264C107.051 71.6991 107.635 75.3669 107.696 76.9212C107.756 78.4755 107.146 78.478 106.475 78.5054Z" fill="#060000"/>
<path d="M102.434 78.5054C101.763 78.5328 101.285 78.5745 101.224 77.0202C101.164 75.466 101.668 71.7538 102.34 71.7264C103.011 71.6991 103.594 75.3669 103.655 76.9212C103.715 78.4755 103.105 78.478 102.434 78.5054Z" fill="#060000"/>
<path d="M98.3931 78.5054C97.722 78.5328 97.2442 78.5745 97.1837 77.0202C97.1232 75.466 97.6277 71.7538 98.2988 71.7264C98.9699 71.6991 99.5536 75.3669 99.6141 76.9212C99.6745 78.4755 99.0642 78.478 98.3931 78.5054Z" fill="#060000"/>
<path d="M94.3521 78.5054C93.681 78.5328 93.2032 78.5745 93.1427 77.0202C93.0822 75.466 93.5867 71.7538 94.2578 71.7264C94.9289 71.6991 95.5126 75.3669 95.573 76.9212C95.6335 78.4755 95.0232 78.478 94.3521 78.5054Z" fill="#060000"/>
<path d="M90.3113 78.5054C89.6402 78.5328 89.1624 78.5745 89.1019 77.0202C89.0414 75.466 89.5459 71.7538 90.217 71.7264C90.8882 71.6991 91.4718 75.3669 91.5323 76.9212C91.5928 78.4755 90.9824 78.478 90.3113 78.5054Z" fill="#060000"/>
<path d="M90.3113 78.5054C89.6402 78.5328 89.1624 78.5745 89.1019 77.0202C89.0414 75.466 89.5459 71.7538 90.217 71.7264C90.8882 71.6991 91.4718 75.3669 91.5323 76.9212C91.5928 78.4755 90.9824 78.478 90.3113 78.5054Z" fill="#060000"/>
<path d="M86.2705 78.5054C85.5994 78.5328 85.1216 78.5745 85.0611 77.0202C85.0007 75.466 85.5051 71.7538 86.1763 71.7264C86.8474 71.6991 87.431 75.3669 87.4915 76.9212C87.552 78.4755 86.9417 78.478 86.2705 78.5054Z" fill="#060000"/>
<path d="M82.2298 78.5054C81.5586 78.5328 81.0808 78.5745 81.0204 77.0202C80.9599 75.466 81.4644 71.7538 82.1355 71.7264C82.8066 71.6991 83.3902 75.3669 83.4507 76.9212C83.5112 78.4755 82.9009 78.478 82.2298 78.5054Z" fill="#060000"/>
<path d="M78.189 78.5054C77.5179 78.5328 77.0401 78.5745 76.9796 77.0202C76.9191 75.466 77.4236 71.7538 78.0947 71.7264C78.7658 71.6991 79.3495 75.3669 79.41 76.9212C79.4704 78.4755 78.8601 78.478 78.189 78.5054Z" fill="#060000"/>
<path d="M74.148 78.5054C73.4768 78.5328 72.9991 78.5745 72.9386 77.0202C72.8781 75.466 73.3826 71.7538 74.0537 71.7264C74.7248 71.6991 75.3085 75.3669 75.3689 76.9212C75.4294 78.4755 74.8191 78.478 74.148 78.5054Z" fill="#060000"/>
<path d="M70.1072 78.5054C69.4361 78.5328 68.9583 78.5745 68.8978 77.0202C68.8373 75.466 69.3418 71.7538 70.0129 71.7264C70.6841 71.6991 71.2677 75.3669 71.3282 76.9212C71.3887 78.4755 70.7783 78.478 70.1072 78.5054Z" fill="#060000"/>
<path d="M66.0664 78.5054C65.3953 78.5328 64.9175 78.5745 64.857 77.0202C64.7966 75.466 65.301 71.7538 65.9722 71.7264C66.6433 71.6991 67.2269 75.3669 67.2874 76.9212C67.3479 78.4755 66.7376 78.478 66.0664 78.5054Z" fill="#060000"/>
<path d="M125.265 73.1839C125.265 76.309 96.2159 74.7271 93.6123 74.7271C91.0087 74.7271 61.9592 76.309 61.9592 73.1839C61.9592 70.0589 91.0087 63.4104 93.6123 63.4104C96.2159 63.4104 125.265 70.0589 125.265 73.1839Z" fill="black"/>
<path d="M63.6855 84.3293C63.6855 84.3156 64.0802 84.5034 64.794 84.8751C65.3628 85.1713 66.0544 85.494 66.9172 85.708C67.306 85.8044 67.6066 85.823 68.0685 85.9068C68.5304 85.9905 69.1475 86.1253 69.8874 86.3664C70.6273 86.6075 71.4713 86.9507 72.2188 87.1799C72.9664 87.4092 73.5918 87.514 73.9415 87.5784C74.2912 87.6428 74.3462 87.6636 73.6506 87.6855C72.9551 87.7074 71.5075 87.7298 70.3328 87.8321C69.158 87.9343 68.3001 88.1156 67.4046 88.2292C66.5092 88.3427 65.6023 88.383 65.0749 88.3972C64.4273 88.4145 64.1947 88.3171 63.9961 88.1618C63.6323 87.8774 63.6982 87.5353 63.7026 87.5099C63.729 87.3547 64.257 87.7972 65.8159 87.92C66.8459 88.0011 68.346 88.2802 70.1979 88.4428C72.0499 88.6054 74.2045 88.6839 75.5323 88.72C76.8601 88.756 77.2958 88.7471 77.571 88.749C77.8462 88.7509 77.9477 88.7638 78.1798 88.8078" stroke="black" stroke-width="3" stroke-linecap="round"/>
<path d="M78.18 88.8081C78.1781 88.8081 78.1763 88.8081 77.0702 88.8081C75.9641 88.8081 73.7538 88.8081 72.5738 88.8161C71.3107 88.8246 71.1447 88.8844 70.5936 88.9311C70.1245 88.9709 69.2656 88.9584 68.6955 88.9888C68.1254 89.0192 67.8688 89.0712 67.7114 89.1083C67.5539 89.1454 67.5033 89.166 67.4294 89.1872" stroke="black" stroke-width="3" stroke-linecap="round"/>
<path d="M78.085 90.2746C78.0898 90.2697 78.6557 90.2823 79.6382 90.3328C80.6483 90.3847 81.0012 90.4999 81.7681 90.554C82.2908 90.5909 83.0796 90.7107 84.0489 90.7699C85.0182 90.829 86.1428 90.8403 86.8343 90.8582C87.751 90.8818 88.1318 90.925 88.2241 90.9226C88.282 90.921 87.8958 90.9152 87.1354 90.797C86.375 90.6787 85.1329 90.4474 83.9256 90.1509C82.7184 89.8545 81.5836 89.5 80.9099 89.2669C79.7503 88.8656 79.4715 88.6946 79.0432 88.3745C78.6225 88.0602 80.4053 88.2967 81.2936 88.5183C81.8331 88.6529 82.5295 88.9218 83.1692 89.1785C83.809 89.4351 84.3651 89.6943 84.8832 89.861C85.4012 90.0276 85.8644 90.094 86.2891 90.1475" stroke="black" stroke-linecap="round"/>
<path d="M105.849 95.9551V205.86" stroke="black" stroke-linecap="round"/>
<ellipse cx="105.735" cy="201.948" rx="6.06122" ry="6.20319" fill="black"/>
<path d="M111.796 95.8049C111.796 99.2307 109.082 102.008 105.735 102.008C102.387 102.008 99.6733 99.2307 99.6733 95.8049C99.6733 92.379 102.387 95.8048 105.735 95.8048C109.082 95.8048 111.796 92.379 111.796 95.8049Z" fill="black"/>
<path d="M105.061 197.123C98.0876 188.4 98.3378 175.853 105.735 167.486" stroke="black" stroke-linecap="round"/>
<path d="M105.735 139.227C112.708 147.95 112.458 160.498 105.061 168.865" stroke="black" stroke-linecap="round"/>
<path d="M105.061 110.279C98.0876 119.002 98.3378 131.55 105.735 139.917" stroke="black" stroke-linecap="round"/>
<path d="M105.061 110.279L105.246 109.895C107.707 104.802 115.041 105.037 117.184 110.279" stroke="black" stroke-linecap="round"/>
<path d="M105.061 110.654C107.707 115.575 114.921 115.402 117.178 110.284" stroke="black" stroke-linecap="round"/>
<path d="M103.041 113.725H105.735" stroke="black" stroke-width="0.3" stroke-linecap="round"/>
<path d="M103.714 113.036H105.735" stroke="black" stroke-width="0.3" stroke-linecap="round"/>
<path d="M103.041 114.415H105.735" stroke="black" stroke-width="0.3" stroke-linecap="round"/>
<path d="M102.367 115.104H105.735" stroke="black" stroke-width="0.3" stroke-linecap="round"/>
<path d="M101.694 115.793H105.735" stroke="black" stroke-width="0.3" stroke-linecap="round"/>
<path d="M103.714 112.347H105.735" stroke="black" stroke-width="0.3" stroke-linecap="round"/>
<path d="M101.694 116.482H105.735" stroke="black" stroke-width="0.3" stroke-linecap="round"/>
<path d="M101.694 117.171H105.735M101.021 117.861H105.735" stroke="black" stroke-width="0.3" stroke-linecap="round"/>
<path d="M101.02 118.55H105.735M101.02 119.239H105.735M101.02 119.928H105.735M100.347 120.618H105.735M100.347 121.307H105.735" stroke="black" stroke-width="0.3" stroke-linecap="round"/>
<path d="M100.347 121.996H105.735" stroke="black" stroke-width="0.3" stroke-linecap="round"/>
<path d="M100.347 122.685H105.735" stroke="black" stroke-width="0.3" stroke-linecap="round"/>
<path d="M100.347 123.375H105.735" stroke="black" stroke-width="0.3" stroke-linecap="round"/>
<path d="M100.347 124.064H105.735" stroke="black" stroke-width="0.3" stroke-linecap="round"/>
<path d="M100.347 124.753H105.735" stroke="black" stroke-width="0.3" stroke-linecap="round"/>
<path d="M100.347 125.442H105.735" stroke="black" stroke-width="0.3" stroke-linecap="round"/>
<path d="M100.347 126.131H105.735" stroke="black" stroke-width="0.3" stroke-linecap="round"/>
<path d="M100.347 126.821H105.735" stroke="black" stroke-width="0.3" stroke-linecap="round"/>
<path d="M100.347 127.51H105.735" stroke="black" stroke-width="0.3" stroke-linecap="round"/>
<path d="M100.347 128.199H105.735" stroke="black" stroke-width="0.3" stroke-linecap="round"/>
<path d="M100.347 128.889H105.735" stroke="black" stroke-width="0.3" stroke-linecap="round"/>
<path d="M100.347 129.578H105.735" stroke="black" stroke-width="0.3" stroke-linecap="round"/>
<path d="M100.347 130.267H105.735" stroke="black" stroke-width="0.3" stroke-linecap="round"/>
<path d="M101 130.956H106.2" stroke="black" stroke-width="0.3" stroke-linecap="round"/>
<path d="M101.021 131.646H105.735" stroke="black" stroke-width="0.3" stroke-linecap="round"/>
<path d="M101.694 132.334H105.735" stroke="black" stroke-width="0.3" stroke-linecap="round"/>
<path d="M101.694 133.024H105.735" stroke="black" stroke-width="0.3" stroke-linecap="round"/>
<path d="M101.694 133.713H105.735" stroke="black" stroke-width="0.3" stroke-linecap="round"/>
<path d="M102.367 134.402H105.735" stroke="black" stroke-width="0.3" stroke-linecap="round"/>
<path d="M103.041 135.092H105.735" stroke="black" stroke-width="0.3" stroke-linecap="round"/>
<path d="M103.041 135.781H105.735" stroke="black" stroke-width="0.3" stroke-linecap="round"/>
<path d="M103.714 136.47H105.735" stroke="black" stroke-width="0.3" stroke-linecap="round"/>
<path d="M103.714 137.16H105.735" stroke="black" stroke-width="0.3" stroke-linecap="round"/>
<path d="M103.714 170.932H105.061" stroke="black" stroke-width="0.3" stroke-linecap="round"/>
<path d="M103.041 170.243H105.061" stroke="black" stroke-width="0.3" stroke-linecap="round"/>
<path d="M102.367 171.622H105.061" stroke="black" stroke-width="0.3" stroke-linecap="round"/>
<path d="M102.367 172.311H105.061" stroke="black" stroke-width="0.3" stroke-linecap="round"/>
<path d="M101.021 173H105.061" stroke="black" stroke-width="0.3" stroke-linecap="round"/>
<path d="M103.714 169.554H105.061" stroke="black" stroke-width="0.3" stroke-linecap="round"/>
<path d="M101.021 173.689H105.061" stroke="black" stroke-width="0.3" stroke-linecap="round"/>
<path d="M101.02 174.378H105.061M100.347 175.068H105.061" stroke="black" stroke-width="0.3" stroke-linecap="round"/>
<path d="M100.347 175.757H105.061M100.347 176.446H105.061M100.347 177.135H105.061M99.6733 177.825H105.061M99.6733 178.514H105.061" stroke="black" stroke-width="0.3" stroke-linecap="round"/>
<path d="M99.6733 179.203H105.061" stroke="black" stroke-width="0.3" stroke-linecap="round"/>
<path d="M99.6733 179.893H105.061" stroke="black" stroke-width="0.3" stroke-linecap="round"/>
<path d="M99.6733 180.582H105.061" stroke="black" stroke-width="0.3" stroke-linecap="round"/>
<path d="M99.6733 181.271H105.061" stroke="black" stroke-width="0.3" stroke-linecap="round"/>
<path d="M99.6733 181.96H105.061" stroke="black" stroke-width="0.3" stroke-linecap="round"/>
<path d="M99.6733 182.649H105.061" stroke="black" stroke-width="0.3" stroke-linecap="round"/>
<path d="M99.6733 183.339H105.061" stroke="black" stroke-width="0.3" stroke-linecap="round"/>
<path d="M99.6733 184.028H105.061" stroke="black" stroke-width="0.3" stroke-linecap="round"/>
<path d="M99.6733 184.717H105.061" stroke="black" stroke-width="0.3" stroke-linecap="round"/>
<path d="M99.6733 185.406H105.061" stroke="black" stroke-width="0.3" stroke-linecap="round"/>
<path d="M99.6733 186.096H105.061" stroke="black" stroke-width="0.3" stroke-linecap="round"/>
<path d="M99.6733 186.785H105.061" stroke="black" stroke-width="0.3" stroke-linecap="round"/>
<path d="M99.6733 187.474H105.061" stroke="black" stroke-width="0.3" stroke-linecap="round"/>
<path d="M99.6733 188.164H105.061" stroke="black" stroke-width="0.3" stroke-linecap="round"/>
<path d="M100.347 188.853H105.061" stroke="black" stroke-width="0.3" stroke-linecap="round"/>
<path d="M101.021 189.542H105.061" stroke="black" stroke-width="0.3" stroke-linecap="round"/>
<path d="M101.021 190.231H105.061" stroke="black" stroke-width="0.3" stroke-linecap="round"/>
<path d="M101.021 190.92H105.061" stroke="black" stroke-width="0.3" stroke-linecap="round"/>
<path d="M101.694 191.61H105.061" stroke="black" stroke-width="0.3" stroke-linecap="round"/>
<path d="M102.367 192.299H105.061" stroke="black" stroke-width="0.3" stroke-linecap="round"/>
<path d="M102.367 192.988H105.061" stroke="black" stroke-width="0.3" stroke-linecap="round"/>
<path d="M103.714 194.367H105.735" stroke="black" stroke-width="0.3" stroke-linecap="round"/>
<path d="M103.714 194.367H105.735" stroke="black" stroke-width="0.3" stroke-linecap="round"/>
<path d="M106.506 149.783C107.066 149.783 108.395 149.75 109.197 149.483C109.451 149.399 109.598 149.289 109.705 149.186C109.756 149.137 109.691 149.022 109.614 148.951C108.882 148.273 107.144 148.694 106.763 148.438C106.674 148.378 106.662 148.274 106.638 147.552C106.615 146.831 106.598 145.475 106.563 144.644C106.517 143.544 106.412 142.865 106.399 142.291C106.396 142.162 106.503 142.825 106.974 143.682C107.354 144.375 108.097 145.545 108.534 146.306C108.972 147.066 109.102 147.37 109.158 147.56C109.214 147.751 109.192 147.818 109.088 147.853C108.813 147.945 108.477 147.826 108.223 147.691C107.759 147.446 107.642 145.995 107.398 144.582C107.259 143.772 106.867 142.864 106.825 142.438C106.803 142.219 106.789 142.018 106.757 141.867C106.742 141.795 106.679 141.747 106.634 141.796C106.287 142.172 106.64 143.3 106.981 144.795C107.354 146.428 107.799 147.449 107.826 147.8C107.82 147.942 107.771 148.011 107.709 148.046C107.646 148.081 107.57 148.081 107.43 148.034" stroke="black" stroke-linecap="round"/>
<path d="M107.222 150.132C107.222 150.137 107.222 150.599 107.119 153.266C107.033 155.476 106.809 159.418 106.711 161.528C106.606 163.792 106.649 164.352 106.683 164.915C106.694 165.084 106.787 165.002 106.86 164.871C107.202 164.255 107.379 163.52 108.103 162.339C108.259 162.086 108.322 161.955 108.447 161.449C108.572 160.943 108.758 160.067 108.949 158.779C109.14 157.491 109.332 155.819 109.43 154.685C109.575 153.01 109.515 152.355 109.474 151.827C109.298 149.608 109.125 149.021 108.868 148.589C108.768 148.419 108.559 148.215 108.439 148.199C108.318 148.183 108.271 148.376 108.263 149.093C108.254 149.81 108.285 151.046 108.284 151.773C108.283 152.5 108.25 152.681 108.216 153.347C108.182 154.012 108.149 155.156 108.072 156.17C107.995 157.184 107.875 158.032 107.813 158.563C107.73 159.279 107.65 160.389 107.489 161.814C107.422 162.408 107.28 162.864 107.123 163.646C107.064 164.473 107.018 165.103 106.954 165.448C106.933 165.597 106.932 165.692 106.824 165.821" stroke="black" stroke-linecap="round"/>
<path d="M107.082 160.594L101.948 170.698C99.5918 175.335 98.7362 180.619 99.4905 185.765C100.052 189.594 101.5 193.262 103.714 196.434" stroke="black" stroke-width="2" stroke-linecap="round"/>
<path d="M103.033 193.318C103.078 193.407 103.483 193.946 104.2 194.673C105.04 195.526 105.636 195.925 105.607 195.867C105.556 195.765 105.328 195.59 105.073 195.319C104.818 195.048 104.517 194.706 103.872 194.072C103.227 193.438 102.248 192.524 101.662 191.951C101.076 191.378 100.913 191.176 100.788 191.014C100.663 190.853 100.58 190.739 100.427 190.497" stroke="black" stroke-linecap="round"/>
<path d="M104.085 193.693H105.553" stroke="black" stroke-linecap="round"/>
<path d="M109.488 113.501C109.481 113.468 109.386 113.236 109.213 112.803C109.127 112.587 109.065 112.369 109.002 111.975C108.94 111.58 108.884 111.013 108.855 110.537C108.827 110.062 108.828 109.697 108.881 109.302C108.935 108.908 109.04 108.496 109.129 108.197C109.218 107.897 109.287 107.724 109.38 107.538C109.472 107.352 109.587 107.159 109.741 106.93" stroke="black" stroke-linecap="round"/>
<path d="M110.469 106.578C110.509 106.593 110.651 106.678 110.906 106.948C111.103 107.156 111.408 107.536 111.6 107.78C111.865 108.117 112.005 108.484 112.148 108.915C112.207 109.092 112.226 109.191 112.254 109.661C112.281 110.131 112.313 110.97 112.306 111.514C112.3 112.057 112.255 112.279 112.187 112.511C112.049 112.984 111.898 113.297 111.824 113.435C111.702 113.658 111.534 113.839 111.422 113.93C111.23 114.086 110.896 114.109 110.732 114.101C110.706 114.1 110.715 114.051 110.735 114.018C110.825 113.87 110.936 113.781 111.053 113.572C111.204 113.301 111.252 112.971 111.3 112.655C111.33 112.462 111.352 112.201 111.361 111.719C111.371 111.237 111.362 110.541 111.287 109.905C111.212 109.268 111.072 108.711 110.982 108.381C110.866 107.961 110.694 107.721 110.486 107.461C110.4 107.354 110.35 107.303 110.313 107.271C110.276 107.239 110.252 107.23 110.226 107.248C110.156 107.293 110.087 107.478 109.918 107.931C109.796 108.261 109.618 108.798 109.517 109.104C109.417 109.41 109.404 109.47 109.39 109.848C109.376 110.226 109.361 110.92 109.36 111.323C109.359 111.725 109.372 111.816 109.449 112.093C109.525 112.371 109.665 112.833 109.751 113.101C109.855 113.43 109.942 113.568 110.032 113.678C110.072 113.728 110.139 113.608 110.425 113.415C110.637 113.273 110.779 112.989 110.988 112.55C111.092 112.331 111.145 112.096 111.186 111.662C111.227 111.228 111.242 110.597 111.231 110.169C111.221 109.74 111.185 109.533 111.142 109.341C111.061 108.976 110.936 108.628 110.828 108.343C110.771 108.193 110.728 108.133 110.675 108.102C110.522 108.011 110.365 108.152 110.144 108.249C110.065 108.284 109.967 108.451 109.831 108.707C109.721 108.914 109.641 109.211 109.543 109.672C109.486 109.939 109.458 110.281 109.44 110.549C109.421 110.818 109.423 111.005 109.488 111.374C109.553 111.743 109.68 112.288 109.75 112.582C109.821 112.876 109.831 112.903 109.841 112.93C109.851 112.956 109.862 112.982 109.846 112.99" stroke="black" stroke-linecap="round"/>
<path d="M106.26 109.562H116.315" stroke="black" stroke-linecap="round"/>
<path d="M106.884 108.824H115.762" stroke="black" stroke-linecap="round"/>
<path d="M107.299 107.917H114.827" stroke="black" stroke-linecap="round"/>
<path d="M108.242 107.41H113.525" stroke="black" stroke-linecap="round"/>
<path d="M110.449 203.327L119.38 157.623C121.727 145.616 137.567 142.692 144.046 153.07L149.917 162.473C152.966 167.358 149.454 173.689 143.696 173.689C135.263 173.689 133.497 185.59 141.567 188.039L191.939 203.327" stroke="black" stroke-width="2" stroke-linecap="round"/>
<path d="M161.482 193.995L154.978 188.172C149.445 183.22 147.638 175.314 150.469 168.441" stroke="black" stroke-linecap="round"/>
<path d="M157.46 190.358L149.638 185.556C145.202 182.833 143.799 177.038 146.496 172.58" stroke="black" stroke-width="0.5" stroke-linecap="round"/>
<path d="M154.766 191.736L146.944 186.935C142.508 184.212 141.105 178.416 143.802 173.959" stroke="black" stroke-width="0.5" stroke-linecap="round"/>
<path d="M152.073 191.736L144.25 186.935C139.814 184.212 138.411 178.416 141.108 173.959" stroke="black" stroke-width="0.5" stroke-linecap="round"/>
<path d="M150.726 191.736L142.903 186.935C138.467 184.212 137.064 178.416 139.761 173.959" stroke="black" stroke-width="0.5" stroke-linecap="round"/>
<path d="M127.074 162.879H163.359" stroke="black" stroke-linecap="round"/>
<path d="M146.622 157.114C147.117 157.111 148.332 157.164 150.839 158.064C153.114 158.88 157.395 160.523 159.685 161.375C162.137 162.266 162.439 162.343 162.721 162.432C162.868 162.484 163.023 162.546 163.322 162.639" stroke="black" stroke-linecap="round"/>
<path d="M148.933 158.187C149.144 158.238 150.851 158.891 153.149 159.854C154.835 160.561 156.103 160.6 157.058 160.759C158.758 161.04 159.139 161.428 159.44 161.715C159.517 161.788 159.557 161.891 159.493 161.949C159.297 162.123 157.638 162.047 155.188 161.997C152.59 161.943 151.591 161.115 151.084 160.676C150.429 160.108 150.108 159.797 150.068 159.735C149.575 158.973 151.463 161.305 151.694 161.738C152.3 162.877 149.953 160.352 149.814 159.772C149.783 159.641 149.779 159.532 150.926 159.834C152.074 160.136 154.387 160.85 155.7 161.218C157.012 161.586 157.253 161.586 156.825 161.572C155.293 161.521 153.695 161.35 152.895 161.057C151.918 160.699 150.756 159.816 149.008 158.643C146.16 156.732 145.832 155.995 145.682 155.727C145.638 155.648 145.79 155.642 147.301 156.323C148.812 157.003 151.711 158.359 153.344 159.107C154.978 159.855 155.259 159.952 155.533 160.045C155.808 160.138 156.067 160.223 156.482 160.244" stroke="black" stroke-linecap="round"/>
<path d="M134.694 146.12H154.503" stroke="black" stroke-linecap="round"/>
<path d="M146.816 155.769C149.921 153.5 152.482 150.57 154.317 147.191L154.898 146.12" stroke="black" stroke-linecap="round"/>
<path d="M141.8 149.244C141.8 149.242 141.8 149.24 142.304 149.237C142.809 149.235 143.817 149.233 144.398 149.244C145.101 149.258 145.363 149.352 145.828 149.423C146.155 149.474 146.674 149.46 146.797 149.439C146.919 149.419 146.63 149.369 145.968 149.152C145.306 148.936 144.28 148.554 143.365 148.261C142.449 147.968 141.676 147.774 141.237 147.653C140.449 147.437 140.012 147.279 139.809 147.193C139.72 147.154 139.678 147.056 139.645 146.975C139.629 146.935 139.638 146.892 139.673 146.871C139.708 146.849 139.774 146.849 140.266 146.91C140.758 146.97 141.672 147.092 142.669 147.154C143.665 147.216 144.716 147.215 145.301 147.209C145.885 147.203 145.972 147.193 147.138 147.221C148.303 147.248 150.545 147.313 151.737 147.338C153.003 147.364 153.224 147.324 153.318 147.35C153.373 147.365 153.021 147.443 152.526 147.542C152.031 147.64 151.295 147.772 150.513 147.96C149.73 148.148 148.922 148.389 148.287 148.542C147.651 148.695 147.212 148.753 146.601 148.785C145.989 148.817 145.219 148.821 144.654 148.794C143.275 148.726 142.979 148.615 142.893 148.539C142.846 148.498 142.826 148.418 142.816 148.345C142.807 148.272 142.817 148.2 142.874 148.157C143.009 148.054 143.314 148.093 144.147 148.222C144.808 148.324 145.937 148.59 146.995 148.728C148.053 148.865 149.002 148.889 149.515 148.904C150.028 148.92 150.078 148.927 149.823 148.82C149.568 148.712 149.007 148.49 148.385 148.287C147.763 148.083 147.097 147.905 146.734 147.805C146.372 147.705 146.331 147.688 146.361 147.699C146.493 147.748 147.064 147.921 147.92 148.182C148.622 148.396 149.014 148.66 149.167 148.828C149.232 148.9 149.221 148.985 149.145 149.045C148.945 149.202 148.456 149.197 147.842 149.181C147.198 149.163 146.598 148.987 145.961 148.76C145.106 148.455 144.47 148.156 144.144 148.176C143.915 148.191 143.497 148.43 143.001 148.648C142.843 148.717 142.9 148.754 142.972 148.82C143.043 148.886 143.134 148.992 143.553 149.601C143.973 150.21 144.717 151.318 145.189 152.113C145.66 152.908 145.836 153.357 145.958 153.631C146.215 154.21 146.587 154.497 146.715 154.639C146.79 154.723 146.57 153.962 146.197 152.965C146.006 152.456 145.873 151.919 145.683 151.348C145.494 150.777 145.267 150.184 145.121 149.711C144.975 149.238 144.916 148.903 145.123 149.154C145.33 149.405 145.804 150.251 146.284 150.981C146.764 151.712 147.236 152.301 147.489 152.628C147.772 152.995 147.8 153.096 147.829 153.195C147.864 153.316 147.786 153.583 147.682 153.848C147.657 153.913 147.494 153.104 147.308 151.885C147.188 151.104 147.04 150.695 146.942 150.372C146.816 149.957 146.777 149.547 146.792 149.351C146.795 149.308 146.87 149.411 147.151 149.957C147.432 150.503 147.938 151.496 148.207 152.045C148.475 152.594 148.492 152.668 148.511 152.743C148.53 152.818 148.551 152.891 148.595 153.028" stroke="black" stroke-linecap="round"/>
<path d="M148.84 153.212C148.849 153.04 148.714 151.877 148.555 151.203C148.49 150.93 148.22 150.748 148.108 150.428C148.026 150.195 148.037 150.002 148.07 149.864C148.13 149.61 148.261 149.43 148.328 149.407C148.459 149.361 148.584 150.174 148.778 151.201C148.916 151.927 149.09 152.278 149.173 152.409C149.211 152.468 149.258 152.497 149.301 152.481C149.344 152.465 149.387 152.399 149.412 151.736C149.437 151.073 149.444 149.816 149.475 149.193C149.507 148.57 149.563 148.621 149.611 148.72C149.658 148.82 149.694 148.968 149.768 149.581C149.842 150.194 149.952 151.267 150.045 151.761C150.138 152.255 150.21 152.135 150.287 151.923C150.47 151.417 150.566 150.786 150.636 150.175C150.76 149.086 150.869 148.561 151.05 148.348C151.228 148.137 151.476 148.056 151.685 148.008C151.738 147.996 151.796 148.04 151.832 148.1C151.913 148.236 151.891 148.462 151.874 148.689C151.857 148.915 151.597 149.387 151.252 150.059C151.096 150.362 151.009 150.602 150.96 150.699C150.911 150.795 150.91 150.745 150.937 150.633C151.005 150.345 151.272 149.852 151.673 149.247C152.263 148.357 152.522 148.252 152.729 148.132C152.79 148.107 152.861 148.084 152.918 148.081C152.974 148.078 153.013 148.095 153.053 148.112" stroke="black" stroke-linecap="round"/>
<path d="M127.151 163.305C129.069 169.585 130.986 175.865 132.17 179.436C133.595 183.732 134.424 184.769 134.935 185.501C135.753 186.672 137.02 187.429 138.372 187.927C138.979 188.057 139.754 188.125 140.483 188.07C140.721 187.995 140.69 187.825 140.659 187.649" stroke="black" stroke-linecap="round"/>
<ellipse cx="126.612" cy="162.661" rx="1.34694" ry="1.37849" fill="black"/>
<ellipse cx="132" cy="166.797" rx="1.34694" ry="1.37849" fill="black"/>
<ellipse cx="137.388" cy="169.554" rx="1.34694" ry="1.37849" fill="black"/>
<ellipse cx="142.776" cy="172.311" rx="1.34694" ry="1.37849" fill="black"/>
<path d="M59.2654 146.119L105.061 139.227" stroke="black" stroke-linecap="round"/>
<path d="M57.9185 168.175L105.735 161.283" stroke="black" stroke-linecap="round"/>
<path d="M61.6855 148.945H105.329" stroke="black" stroke-width="3" stroke-linecap="round"/>
<path d="M87.72 146.732H105.781" stroke="black" stroke-width="3" stroke-linecap="round"/>
<path d="M87.8997 144.279H106.085" stroke="black" stroke-width="3" stroke-linecap="round"/>
<path d="M90.3208 143.042H106.328" stroke="black" stroke-width="3" stroke-linecap="round"/>
<path d="M98.5317 141.956H104.57" stroke="black" stroke-width="3" stroke-linecap="round"/>
<path d="M76.2524 146.429H89.9376" stroke="black" stroke-width="3" stroke-linecap="round"/>
<path d="M77.8584 145.42H90.0864" stroke="black" stroke-width="3" stroke-linecap="round"/>
<path d="M84.0129 144.25H90.8968" stroke="black" stroke-width="3" stroke-linecap="round"/>
<path d="M67.9551 146.926H80.6227" stroke="black" stroke-width="3" stroke-linecap="round"/>
<path d="M72.8022 145.624H79.9486" stroke="black" stroke-width="3" stroke-linecap="round"/>
<path d="M60.126 147.49H69.5828" stroke="black" stroke-width="3" stroke-linecap="round"/>
<path d="M55.4863 152.318H104.836" stroke="black" stroke-width="3" stroke-linecap="round"/>
<path d="M60.8081 155.949H105.013" stroke="black" stroke-width="3" stroke-linecap="round"/>
<path d="M60.0837 159.155H104.416" stroke="black" stroke-width="3" stroke-linecap="round"/>
<path d="M59.8848 164.36C60.3912 164.08 63.0468 162.055 64.1823 161.23C64.9288 160.688 62.2853 162.485 61.9031 163.232C61.4748 164.071 61.1043 164.986 60.9455 165.435C60.8129 165.809 62.3405 164.805 64.3346 164.035C67.1851 162.934 69.1018 161.389 70.6853 160.791C71.7327 160.395 73.3307 159.976 74.7823 159.641C76.2339 159.306 77.505 159.11 81.5409 158.982C85.5769 158.854 92.3392 158.8 96.155 158.876C99.9708 158.952 100.635 159.159 100.914 159.323C101.193 159.487 101.066 159.601 100.929 159.68C100.662 159.831 100.223 159.837 99.0066 159.948C96.4539 160.18 94.1859 160.662 92.7487 160.956C89.598 161.601 88.5724 161.553 86.5803 161.837C84.7444 162.099 81.2457 162.685 79.1415 163.022C76.4377 163.454 75.2703 163.544 73.996 163.624C71.0004 163.812 69.8765 164.471 68.3946 164.863C66.8725 165.265 64.7529 165.407 63.0789 165.448C62.5644 165.461 62.7334 165.275 62.9763 165.131C63.2193 164.988 63.532 164.846 65.5213 164.328C67.5107 163.81 71.1674 162.921 73.3566 162.33C76.1825 161.567 77.2852 160.845 78.8059 159.975C79.8278 159.46 81.3575 158.797 82.1669 158.381C82.9763 157.964 83.0189 157.814 83.0628 157.66" stroke="black" stroke-width="3" stroke-linecap="round"/>
<path d="M78.7449 108.898H105.857" stroke="black" stroke-linecap="round"/>
<ellipse cx="79.4695" cy="108.9" rx="1.34694" ry="1.37849" fill="black"/>
<path d="M78.7958 108.9L74.0815 143.363" stroke="black" stroke-width="0.3" stroke-linecap="round"/>
<path d="M73.0497 124.52C73.0724 124.268 75.276 124.271 77.9717 124.526C80.6673 124.78 82.8342 125.191 82.8115 125.443C82.7888 125.694 79.0909 128.611 76.3952 128.356C73.6995 128.101 73.0269 124.771 73.0497 124.52Z" fill="black"/>
<path d="M72.8606 122.143C72.791 122.402 74.9882 123.247 77.7683 124.029C80.5484 124.811 82.8585 125.235 82.9281 124.976C82.9977 124.717 80.3814 120.394 77.6014 119.612C74.8213 118.83 72.9302 121.884 72.8606 122.143Z" fill="black"/>
<path d="M74.0815 122.685L74.755 125.442" stroke="black" stroke-width="0.3" stroke-linecap="round"/>
<path d="M81.4897 124.064V125.442" stroke="black" stroke-width="0.3" stroke-linecap="round"/>
<path d="M134.34 140.644C134.34 140.831 134.326 141.208 134.059 141.781C133.565 142.844 132.972 143.186 132.672 143.563C132.298 144.032 132.199 144.758 132.216 144.873C132.26 145.159 133.012 145.198 133.664 145.251C134.028 145.271 134.46 145.275 135.096 145.362C135.732 145.448 136.559 145.616 137.445 145.783" stroke="black" stroke-width="0.4" stroke-linecap="round"/>
<path d="M137.934 140.397C137.938 140.453 137.994 140.679 138.068 141.281C138.124 141.742 138.062 142.088 137.96 142.368C137.717 142.879 137.519 143.314 137.458 143.511C137.433 143.594 137.419 143.645 137.391 143.655" stroke="black" stroke-width="0.4" stroke-linecap="round"/>
<path d="M137.391 143.606C137.735 143.607 138.547 143.631 139.248 143.881C139.564 143.994 140.165 144.443 140.938 145.02C141.229 145.242 141.314 145.322 141.432 145.468C141.55 145.615 141.7 145.826 141.779 146.008" stroke="black" stroke-width="0.4" stroke-linecap="round"/>
<path d="M131.759 139.564C131.759 139.665 131.576 140.347 131.34 141.674C131.292 142.886 131.286 143.676 131.339 143.908C131.383 144.077 131.462 144.354 131.544 144.639" stroke="black" stroke-width="0.4" stroke-linecap="round"/>
<path d="M137.991 138.309C138.154 138.513 138.598 139.024 139.662 139.974C140.121 140.384 140.892 140.891 141.524 141.322C142.637 142.083 143.424 142.581 143.905 142.982C144.684 143.836 145.17 144.664 145.263 145.019C145.297 145.166 145.306 145.243 145.325 145.343" stroke="black" stroke-width="0.4" stroke-linecap="round"/>
<path d="M131.88 139.488C131.828 139.444 131.509 139.104 131.266 138.742C131.119 138.524 131.175 138.077 131.318 136.953C131.421 136.137 131.746 134.846 131.96 134.032C132.254 132.909 132.568 132.413 132.808 132.049C132.988 131.777 133.344 131.619 133.75 131.473C134.081 131.354 134.427 131.467 134.741 131.598C135.307 131.836 135.668 132.948 135.967 133.436C136.421 134.178 137.258 134.144 137.257 134.255C137.002 134.499 136.62 134.798 136.207 135.09C136.061 135.17 136.045 135.113 136.029 135.054" stroke="black" stroke-width="0.4" stroke-linecap="round"/>
<path d="M136.078 135.11C136.138 135.127 136.511 135.274 136.978 135.621C137.231 135.81 137.497 136.654 137.668 137.529C137.697 137.714 137.737 137.839 137.798 137.976C137.831 138.041 137.868 138.098 137.956 138.227" stroke="black" stroke-width="0.4" stroke-linecap="round"/>
<path d="M134.314 133.25L134.395 133.309" stroke="black" stroke-width="0.4" stroke-linecap="round"/>
<path d="M134.665 137.25C134.726 137.25 135.123 137.199 135.73 137.037C135.885 136.998 136.039 136.97 136.34 136.954C136.641 136.937 137.084 136.931 137.552 136.931" stroke="black" stroke-width="0.4" stroke-linecap="round"/>
<path d="M133.861 142.741C134.176 142.741 135.187 142.789 136.804 142.819C137.115 142.824 137.188 142.832 137.287 142.837C137.386 142.842 137.508 142.842 137.721 142.871" stroke="black" stroke-width="0.4" stroke-linecap="round"/>
<path d="M132.429 139.421C132.477 139.421 133.604 139.441 135.389 139.435C136.072 139.409 136.3 139.335 136.583 139.213C136.865 139.091 137.194 138.922 137.638 138.722" stroke="black" stroke-width="0.4" stroke-linecap="round"/>
<path d="M144.887 143.554C144.996 143.554 145.105 143.554 145.779 143.555C146.454 143.555 147.691 143.556 148.87 143.639C150.048 143.722 151.13 143.887 151.819 144.011C152.507 144.135 152.768 144.212 153.152 144.363C154.042 144.713 154.681 145.063 154.946 145.268C155.077 145.375 155.198 145.488 155.277 145.565C155.355 145.641 155.388 145.679 155.436 145.728" stroke="black" stroke-width="0.4" stroke-linecap="round"/>
<path d="M150.469 143.695C150.475 143.665 150.704 143.269 151.061 142.723C151.177 142.545 151.225 142.618 151.254 142.696C151.376 143.016 151.506 143.262 152.109 143.845C152.274 143.988 152.402 144.081 152.498 144.148C152.595 144.214 152.656 144.251 152.739 144.305" stroke="black" stroke-width="0.4" stroke-linecap="round"/>
<path d="M144.27 143.076C144.338 143.064 144.566 142.983 145.236 142.337C145.819 141.775 146.839 140.676 147.463 140.049C148.087 139.422 148.269 139.285 148.491 139.153C149.435 138.595 150.042 138.528 150.127 138.536C150.17 138.539 150.204 138.584 150.628 138.975C151.052 139.365 151.863 140.11 152.616 140.92C153.369 141.73 154.039 142.582 154.499 143.224C154.959 143.866 155.187 144.272 155.354 144.585C155.818 145.455 156.009 145.796 156.058 145.88C156.078 145.915 156.047 145.953 155.979 145.971C155.795 145.991 155.628 146.014 155.538 146.061C155.495 146.088 155.458 146.118 155.345 146.063" stroke="black" stroke-width="0.4" stroke-linecap="round"/>
<path d="M155.845 146.062C155.848 146.062 156.455 146.065 157.388 146.084C157.715 146.091 157.745 146.132 157.76 146.189C157.797 146.325 157.76 146.456 157.715 146.536C157.599 146.746 157.172 146.814 155.951 146.869C155.671 146.882 155.545 146.9 155.462 146.916C155.378 146.932 155.342 146.945 155.291 146.959" stroke="black" stroke-width="0.4" stroke-linecap="round"/>
<path d="M131.545 144.561C131.545 144.56 131.545 144.559 131.55 144.6C131.554 144.641 131.563 144.724 131.609 144.837C131.655 144.951 131.738 145.093 131.845 145.26" stroke="black" stroke-width="0.4" stroke-linecap="round"/>
<path d="M119.912 87.0976C119.9 87.0976 119.665 87.0976 119.437 86.8857C118.94 86.4223 120.273 85.4102 120.776 84.7435C120.96 84.5001 120.876 84.3678 120.743 84.3671C119.362 84.3598 118.434 86.6274 118.307 86.7633C117.971 87.1246 118.504 85.0716 118.755 84.0324C118.977 83.1125 116.358 86.5735 115.443 87.5557C115.046 87.9818 115.1 89.6854 115.281 91.1734C115.362 91.8406 115.855 92.1956 115.974 92.4936C116.155 92.9485 115.987 93.4579 115.881 93.7812C115.791 94.0531 115.13 94.3492 114.263 94.6685C113.373 94.6844 112.485 94.4153 112.022 94.355C111.8 94.3328 111.604 94.3278 111.232 94.0908" stroke="black" stroke-width="3" stroke-linecap="round"/>
<path d="M124.725 77.9208C124.725 77.931 124.725 77.9411 124.725 78.1179C124.725 78.6379 124.714 78.963 124.696 78.8953C124.686 78.8567 124.685 78.8069 124.685 78.6881C124.685 78.5692 124.689 78.3822 124.871 77.737C125.053 77.0918 125.412 75.9941 125.691 75.2065C125.97 74.419 126.158 73.9749 126.266 73.6997C126.374 73.4246 126.397 73.3317 126.458 73.1504C126.52 72.969 126.621 72.702 126.685 72.5407C126.769 72.33 126.812 72.2672 126.924 72.0789C127.025 71.908 127.208 71.5792 127.31 71.417C127.412 71.2548 127.425 71.2678 127.431 71.284C127.445 71.3173 127.431 71.3733 127.319 71.733C127.216 72.0597 127.006 72.674 126.855 73.2064C126.704 73.7388 126.614 74.1693 126.566 74.4497C126.497 74.845 126.516 74.9864 126.549 74.9978C126.622 75.0231 126.823 74.8366 127.07 74.7144C127.149 74.675 127.147 74.7047 126.498 75.106C125.849 75.5072 124.558 76.2851 123.839 76.7054C123.121 77.1256 123.014 77.1647 122.87 77.2048C122.726 77.2449 122.548 77.2848 122.317 77.3056C122.086 77.3264 121.807 77.3269 121.596 77.3168C121.25 77.3001 121.059 77.2644 120.97 77.2558C120.847 77.2438 120.838 77.0107 120.844 76.8787C120.848 76.8115 120.953 76.6957 121.124 76.4995C121.214 76.3882 121.313 76.2533 121.526 76.0241C121.738 75.7948 122.063 75.4754 122.397 75.1463" stroke="black" stroke-width="3" stroke-linecap="round"/>
<path d="M122.291 77.2651C122.287 77.2707 122.284 77.2763 122.056 77.5593C121.828 77.8423 121.377 78.4026 121.015 78.9066C120.652 79.4107 120.391 79.8415 120.223 80.1055C120.055 80.3696 119.987 80.4538 119.743 80.6565C119.498 80.8591 119.08 81.1777 118.847 81.3675C118.567 81.595 118.504 81.7586 118.437 81.9342C118.408 82.0119 118.397 82.07 118.42 82.1194C118.47 82.229 118.704 82.2957 118.971 82.3713C119.185 82.4322 119.359 82.4257 119.773 82.3733C120.117 82.3296 120.731 82.2162 121.102 82.1586C121.582 82.0843 121.727 82.0733 121.79 82.0434C121.823 82.0279 121.854 82.0063 122.04 81.8516C122.225 81.6968 122.563 81.4082 122.823 81.1274C123.083 80.8466 123.254 80.5825 123.361 80.4253C123.5 80.2213 123.565 80.1754 123.607 80.1652C123.651 80.1545 123.744 80.1921 123.866 80.2752C123.995 80.3632 124.009 80.5238 124.032 80.6601C124.071 80.8851 124.069 81.0593 124.121 81.1513C124.211 81.3075 124.398 81.5133 124.577 81.7661C124.746 82.003 124.675 82.2667 124.717 82.3778C124.743 82.4471 124.782 82.5805 124.82 82.7982C124.856 83.0034 124.778 83.2752 124.672 83.5857C124.621 83.7308 124.575 83.8505 124.544 83.934C124.514 84.0175 124.499 84.0612 124.484 84.1062" stroke="black" stroke-width="3" stroke-linecap="round"/>
<path d="M113.408 86.0223C113.405 86.0223 113.367 86.0223 113.321 86.0086C113.28 85.9963 113.553 85.7957 113.866 85.5682C114.004 85.4685 114.041 85.4243 114.103 85.3788C114.203 85.3065 114.404 85.1513 114.656 84.9322C114.774 84.8342 114.872 84.7632 114.935 84.7113C114.998 84.6594 115.024 84.6288 115.076 84.5767" stroke="black" stroke-width="3" stroke-linecap="round"/>
<path d="M115.767 83.6082C115.766 83.5849 115.783 83.4959 115.866 83.3623C115.943 83.2393 116.143 83.1732 116.375 83.0863C116.554 83.019 116.64 82.931 116.862 82.6318C117.02 82.4172 117.065 82.2518 117.129 82.1461C117.432 81.7188 117.442 81.6144 117.449 81.497C117.452 81.4504 117.456 81.4301 117.46 81.4092" stroke="black" stroke-width="3" stroke-linecap="round"/>
<path d="M114.61 87.3989C114.604 87.3989 114.568 87.4181 114.299 87.6406C114.058 87.8391 113.624 88.2311 113.34 88.4977C113.056 88.7643 112.939 88.8987 112.845 89.0221C112.672 89.2474 112.573 89.4537 112.509 89.621C112.453 89.7646 112.439 90.0405 112.446 90.4127C112.484 90.711 112.53 90.8653 112.569 90.8962C112.589 90.9059 112.612 90.9035 112.635 90.901" stroke="black" stroke-width="3" stroke-linecap="round"/>
<path d="M118.992 87.8567C118.992 87.8522 119.093 87.8557 119.293 87.879C119.489 87.9017 119.642 87.9929 119.784 88.1144C119.871 88.1894 119.958 88.3248 120.024 88.7761C120.089 89.2273 120.123 89.9987 120.193 90.7862C120.264 91.5737 120.372 92.354 120.426 93.1132C120.48 93.8724 120.477 94.5869 120.469 94.9806C120.46 95.4262 120.392 95.5545 120.303 95.6983C120.22 95.8328 120.054 95.938 119.832 96.0283C119.717 96.075 119.583 96.0831 119.412 96.0925C119.241 96.1018 119.033 96.1018 118.814 96.0899C118.596 96.0781 118.374 96.0543 118.041 95.9782C117.709 95.9021 117.274 95.7743 117.004 95.6821C116.645 95.5374 116.456 95.4073 116.3 95.2873C116.24 95.2432 116.22 95.2333 116.199 95.2231" stroke="black" stroke-width="3" stroke-linecap="round"/>
<path d="M112.543 95.5322C112.527 95.5617 112.519 95.7848 112.501 95.9691C112.491 96.0775 112.465 96.1691 112.418 96.2546C112.406 96.2769 112.394 96.3004 112.389 96.321C112.384 96.3416 112.386 96.3583 112.403 96.3751C112.42 96.3918 112.45 96.4081 112.608 96.4842C112.766 96.5603 113.05 96.6959 113.254 96.7851C113.458 96.8744 113.572 96.9131 114.153 97.163C114.733 97.4128 115.775 97.8726 116.607 98.2164C117.438 98.5602 118.026 98.7742 118.362 98.898C118.697 99.0219 118.76 99.0492 118.958 99.1113C119.156 99.1733 119.486 99.2693 119.69 99.3233C119.893 99.3773 119.96 99.3864 120.067 99.406" stroke="black" stroke-width="3" stroke-linecap="round"/>
<path d="M122.746 89.0236C122.746 89.0258 122.746 89.0279 122.868 88.879C122.99 88.7301 123.233 88.4301 123.371 88.253C123.509 88.0759 123.534 88.0308 123.593 87.8923C123.746 87.5233 123.847 87.262 123.857 87.1583C123.863 87.0785 123.87 86.9436 123.878 86.8047" stroke="black" stroke-width="3" stroke-linecap="round"/>
<path d="M119.519 79.563C119.478 79.5683 119.365 79.5897 119.2 79.6796C119.15 79.6996 119.098 79.7078 119.057 79.712C119.015 79.7163 118.987 79.7163 118.957 79.7163" stroke="black" stroke-width="3" stroke-linecap="round"/>
<path d="M124.165 72.7008C124.166 72.6686 124.185 72.5887 124.259 72.4978C124.34 72.398 124.442 72.3514 124.544 72.2585C124.626 72.1837 124.776 72.06 124.929 71.8886C125.083 71.7173 125.237 71.5039 125.322 71.3862C125.418 71.2529 125.457 71.1682 125.516 71.0407C125.567 70.928 125.684 70.8091 125.811 70.6633C125.87 70.5953 125.922 70.5422 126.086 70.4101C126.25 70.2781 126.525 70.0694 126.676 69.9563C126.844 69.8306 126.925 69.7611 127.028 69.6307C127.13 69.5024 127.108 69.3553 127.091 69.2865C127.082 69.2524 127.033 69.2377 127.004 69.2263C126.957 69.2083 127.077 69.0825 127.353 68.7278C127.516 68.5181 127.615 68.1722 127.692 67.9982C127.823 67.7027 128.088 67.6068 128.212 67.3856C128.283 67.2459 128.345 67.1095 128.396 66.9879C128.42 66.9304 128.441 66.8815 128.465 66.8169" stroke="black" stroke-width="3" stroke-linecap="round"/>
<path d="M129.693 65.5105C129.694 65.5105 129.768 65.4441 129.888 65.3294C129.935 65.2811 129.953 65.2528 129.968 65.2229C129.983 65.1929 129.995 65.1623 130.008 65.1255" stroke="black" stroke-width="3" stroke-linecap="round"/>
<path d="M129.419 67.2628C129.419 67.2622 129.419 67.2617 129.419 67.4073C129.419 67.5529 129.419 67.8446 129.418 68.0053C129.416 68.166 129.414 68.1869 129.361 68.3318C129.308 68.4767 129.205 68.745 129.126 69.0379C129.046 69.3308 128.993 69.6402 128.966 69.8356C128.939 70.031 128.939 70.1031 128.927 70.1759" stroke="black" stroke-width="3" stroke-linecap="round"/>
<path d="M149.286 100.589C149.297 100.629 149.445 100.868 149.669 101.202C149.794 101.389 149.905 101.634 150.049 102.006C150.194 102.377 150.357 102.873 150.447 103.141C150.537 103.409 150.549 103.434 150.617 103.536C150.684 103.638 150.809 103.816 151.039 104.213C151.268 104.61 151.6 105.221 151.792 105.652C151.984 106.082 152.026 106.314 152.055 106.64C152.084 106.966 152.099 107.378 152.114 107.791" stroke="black" stroke-width="3" stroke-linecap="round"/>
<path d="M149.921 103.819C149.916 103.819 149.91 103.911 150.094 104.465C150.251 104.937 150.656 105.755 150.931 106.386C151.206 107.017 151.369 107.424 151.498 107.717C151.628 108.01 151.72 108.177 151.789 108.332C151.917 108.619 151.964 108.873 152.008 109.092C152.1 109.56 152.146 109.831 152.136 109.916C152.132 109.945 152.105 109.939 152.087 109.93C152.068 109.92 152.051 109.906 152.031 109.897C152.01 109.887 151.986 109.883 151.958 109.878" stroke="black" stroke-width="3" stroke-linecap="round"/>
<path d="M153.032 110.477C153.031 110.475 153.062 110.507 153.137 110.574C153.23 110.645 153.367 110.727 153.558 110.817C153.663 110.862 153.787 110.906 153.915 110.952" stroke="black" stroke-width="3" stroke-linecap="round"/>
<path d="M144.554 86.9653C144.65 87.0962 144.908 87.481 145.097 87.8623C145.23 88.1297 145.412 88.5594 145.551 88.913C145.69 89.2666 145.775 89.5341 146.095 90.3579C146.414 91.1817 146.966 92.5535 147.268 93.3427C147.57 94.132 147.606 94.297 147.661 94.4812C147.717 94.6654 147.791 94.8638 147.894 95.111" stroke="black" stroke-width="3" stroke-linecap="round"/>
<path d="M142.617 81.6143C142.617 81.625 142.627 81.9234 142.666 82.471C142.694 82.7256 142.739 82.933 142.945 83.4055C143.15 83.878 143.514 84.6093 143.89 85.3576" stroke="black" stroke-width="3" stroke-linecap="round"/>
<path d="M144.132 86.5024C144.132 86.5036 144.146 86.5549 144.179 86.6592C144.213 86.7699 144.259 86.8915 144.315 87.0686C144.355 87.1788 144.416 87.3303 144.526 87.5542C144.637 87.7782 144.794 88.0701 144.957 88.3708" stroke="black" stroke-width="3" stroke-linecap="round"/>
<path d="M145.761 90.5474C145.761 90.5512 145.761 90.5551 145.764 90.6903C145.767 90.8256 145.773 91.0921 145.787 91.263C145.853 91.5883 145.886 91.6423 145.919 91.6757C145.935 91.6915 145.953 91.7048 145.972 91.7185" stroke="black" stroke-width="3" stroke-linecap="round"/>
<path d="M145.904 91.835C145.904 91.8376 145.904 91.8671 145.98 92.0614C146.047 92.2311 146.205 92.5304 146.286 92.6933C146.374 92.8703 146.398 92.925 146.517 93.1444C146.615 93.326 146.817 93.6352 146.939 93.8625C147.06 94.0898 147.102 94.2219 147.142 94.3717C147.183 94.5215 147.22 94.685 147.254 94.8218C147.313 95.0644 147.359 95.2103 147.4 95.2986C147.464 95.411 147.536 95.5595 147.589 95.6927C147.608 95.7412 147.614 95.7511 147.62 95.7614" stroke="black" stroke-width="3" stroke-linecap="round"/>
<path d="M147.76 95.7109C147.76 95.7127 147.763 95.7402 147.839 95.9073C147.906 96.0514 148.058 96.3009 148.189 96.5694C148.32 96.8379 148.433 97.1141 148.644 97.4994C148.855 97.8846 149.161 98.3705 149.491 98.8773" stroke="black" stroke-width="3" stroke-linecap="round"/>
<path d="M134.193 59.1523C134.311 59.6085 134.428 60.0646 134.427 60.1954C134.426 60.3414 134.133 59.801 134.045 59.5717C133.997 59.4457 133.957 59.2947 133.939 59.2368C133.922 59.1789 133.932 59.2174 134.062 59.4555C134.192 59.6937 134.441 60.1305 134.575 60.3726C134.725 60.6451 134.753 60.7562 134.813 60.9368C134.848 61.0449 134.887 61.1891 134.964 61.4339C135.042 61.6787 135.155 62.0205 135.302 62.355C135.45 62.6895 135.629 63.0064 135.798 63.4152C135.967 63.824 136.12 64.3151 136.225 64.6252C136.329 64.9354 136.38 65.0497 136.435 65.1795" stroke="black" stroke-width="2" stroke-linecap="round"/>
<path d="M136.408 65.4473C136.408 65.4534 136.409 65.6713 136.412 66.0057C136.413 66.1255 136.42 66.1436 136.51 66.3418C136.599 66.54 136.774 66.9177 136.952 67.2601C137.131 67.6026 137.308 67.8983 137.425 68.1098C137.605 68.4336 137.656 68.5782 137.691 68.72C137.762 69.0764 137.825 69.3667 137.856 69.4606C137.869 69.5029 137.876 69.5343 137.886 69.573" stroke="black" stroke-width="2" stroke-linecap="round"/>
<path d="M137.831 69.5479C137.83 69.5463 137.832 69.8039 137.843 70.2203C137.847 70.3784 137.863 70.4278 137.972 70.7085C138.08 70.9891 138.284 71.4994 138.422 71.8125C138.559 72.1256 138.624 72.2261 138.691 72.3296" stroke="black" stroke-width="2" stroke-linecap="round"/>
<path d="M138.432 71.7734C138.432 71.7778 138.434 71.841 138.533 72.21C138.629 72.518 138.82 73.0712 139.086 73.7337C139.351 74.3963 139.685 75.1514 140.028 75.9294" stroke="black" stroke-width="2" stroke-linecap="round"/>
<path d="M140.062 76.3595C140.062 76.3587 140.062 76.3578 140.063 76.446C140.064 76.5342 140.066 76.7114 140.311 77.4373C140.555 78.1632 141.041 79.4324 141.298 80.0965C141.554 80.7605 141.566 80.781 141.584 80.7866" stroke="black" stroke-width="2" stroke-linecap="round"/>
<path d="M131.146 62.6052C131.145 62.5819 131.148 62.5073 131.184 62.4448C131.208 62.404 131.275 62.3598 131.346 62.2718C131.435 62.1629 131.5 62.0354 131.561 61.9654C131.663 61.8497 131.75 61.7319 131.796 61.6731C131.806 61.6618 131.813 61.6547 131.822 61.6421C131.831 61.6295 131.843 61.6116 131.854 61.5933" stroke="black" stroke-width="2" stroke-linecap="round"/>
<path d="M133.848 59.1416C133.839 59.15 133.814 59.1831 133.772 59.2048C133.719 59.232 133.651 59.2501 133.602 59.2777C133.584 59.2875 133.568 59.2966 133.544 59.3113C133.527 59.3214 133.499 59.3369 133.452 59.3685" stroke="black" stroke-width="2" stroke-linecap="round"/>
<path d="M110.55 107.463C110.548 107.463 110.546 107.463 110.801 107.46C111.056 107.457 111.567 107.451 112.094 107.445" stroke="black" stroke-width="2" stroke-linecap="round"/>
<path d="M132.056 146.196C132.059 146.196 132.063 146.196 132.531 146.214C133 146.232 133.933 146.268 135.148 146.438C136.362 146.608 137.829 146.911 139.248 147.087C140.666 147.264 141.992 147.304 143.373 147.34" stroke="black" stroke-width="2" stroke-linecap="round"/>
<path d="M142.159 146.801C142.157 146.8 142.156 146.799 143.513 146.823C144.871 146.846 147.587 146.896 149.333 146.953C151.078 147.01 151.77 147.073 152.222 147.097C152.674 147.12 152.865 147.102 153.099 147.058C153.332 147.013 153.603 146.944 153.838 146.872" stroke="black" stroke-width="2" stroke-linecap="round"/>
<path d="M152.991 147.926C152.99 147.925 152.989 147.924 152.788 148.121C152.587 148.318 152.186 148.714 151.909 149.013C151.471 149.486 151.293 149.802 151.185 150.001C151.131 150.101 151.067 150.192 150.96 150.331C150.852 150.469 150.699 150.651 150.05 151.207C149.401 151.762 148.259 152.686 147.609 153.201C146.958 153.715 146.833 153.791 146.717 153.918C146.467 154.192 146.366 154.469 146.323 154.62C146.3 154.699 146.308 154.789 146.335 154.811C146.568 154.999 146.99 154.439 147.362 154.194C147.587 154.017 147.885 153.732 148.128 153.478C148.371 153.223 148.549 153.006 148.732 152.783" stroke="black" stroke-width="2" stroke-linecap="round"/>
<path d="M150.351 162.02C150.352 162.02 150.353 162.02 151.326 162.024C152.298 162.029 154.242 162.037 156.274 162.053" stroke="black" stroke-width="2" stroke-linecap="round"/>
<path d="M149.174 158.741C149.167 158.733 149.159 158.761 149.176 158.864C149.24 159.045 149.404 159.297 149.607 159.524C149.691 159.613 149.735 159.647 149.78 159.681" stroke="black" stroke-width="2" stroke-linecap="round"/>
<path d="M156.838 161.366C156.836 161.366 156.98 161.366 157.264 161.386C157.535 161.445 157.896 161.576 158.543 161.786C158.962 161.906 159.567 162.052 160.227 162.209" stroke="black" stroke-width="2" stroke-linecap="round"/>
<path d="M61.0844 150.558C61.0622 150.536 61.1329 150.514 62.7492 150.473C64.2832 150.435 67.2671 150.398 68.7475 150.374C70.2279 150.35 70.1147 150.35 68.9071 150.447C67.6994 150.544 65.4009 150.738 64.2715 150.825C63.142 150.912 63.2514 150.887 66.0155 150.731C68.7796 150.576 74.1952 150.293 75.6651 150.125C76.8465 149.99 71.688 149.854 71.7277 149.796C71.8544 149.754 72.1974 149.684 74.3029 149.541C76.4083 149.397 80.2659 149.183 84.0822 148.962" stroke="black" stroke-width="2" stroke-linecap="round"/>
<path d="M74.8715 150.496C74.8672 150.496 74.8629 150.496 78.5201 150.55C82.1773 150.605 89.4962 150.714 93.6848 150.816C97.8734 150.919 98.7099 151.011 100.148 151.049C101.585 151.087 103.599 151.069 104.974 151.023C106.349 150.977 107.024 150.905 107.384 151.48C107.745 152.056 107.77 153.28 107.795 154.015C107.821 154.749 107.847 154.956 107.86 155.816C107.896 158.183 107.873 159.653 107.853 159.322C107.778 158.053 107.491 157.325 107.237 156.075C106.775 153.802 106.826 151.887 106.563 152.014C106.044 152.265 106.119 154.09 105.989 155.141C105.794 156.712 105.945 157.449 106.068 157.759C106.119 157.887 106.191 157.94 106.344 157.94C106.497 157.941 106.74 157.882 106.863 157.432C107.205 156.184 106.922 155.04 106.745 154.631C106.584 154.259 105.396 154.271 103.617 154.36C102.692 154.407 101.73 154.606 100.683 154.697C99.6364 154.788 98.5359 154.803 96.5151 154.561C94.4944 154.319 91.5868 153.82 87.5354 153.537C83.484 153.254 78.377 153.203 73.7923 153.47C69.2077 153.737 65.3002 154.325 63.371 154.58C61.4418 154.835 61.6094 154.739 61.82 154.673C62.0306 154.607 62.2793 154.573 63.8258 154.498C65.3724 154.423 68.2093 154.308 70.9312 154.093C73.653 153.877 76.1737 153.565 79.1694 153.421C82.1651 153.277 85.5595 153.31 87.8288 153.418C90.0981 153.526 91.1396 153.708 91.8637 153.856C92.5878 154.005 92.963 154.115 93.112 154.19C93.261 154.266 93.1724 154.304 90.6791 154.165C88.1858 154.027 83.2905 153.711 78.1571 153.29" stroke="black" stroke-width="2" stroke-linecap="round"/>
<path d="M62.4083 156.348C62.3396 156.462 62.2664 157.56 62.5616 158.885C62.6194 159.144 62.7856 159.295 62.9732 159.398C63.8571 159.883 64.8551 159.059 65.2901 158.695C65.385 158.616 65.3673 158.477 65.3423 158.354C65.1251 157.28 62.8581 156.47 62.0049 156.197C61.628 156.076 61.507 157.786 61.4699 159.853C61.4566 160.595 61.5488 160.716 61.6438 160.711C61.7388 160.706 61.8579 160.571 61.9311 160.423C62.0734 160.135 62.052 159.795 61.8844 159.317C61.5741 158.432 60.9536 157.94 60.815 157.859C60.2882 157.552 61.2126 160.588 61.7365 161.877C61.7987 162.03 61.9244 162.057 62.0181 162.085C62.1119 162.114 62.2117 162.118 63.077 161.713C63.9423 161.308 65.5702 160.495 66.6946 159.872C68.4305 158.91 69.2284 158.311 69.6951 158.137C71.0892 157.615 73.1624 158.195 73.1375 158.215C73.0093 158.315 72.5094 158.14 71.6206 158.113C70.7318 158.086 69.4341 158.095 68.6133 158.138C66.7967 158.234 66.0177 158.944 65.5558 158.749C65.1508 158.578 64.6638 157.825 64.6 157.481C64.5362 157.137 64.9779 157.114 67.2547 157.314C69.5315 157.515 73.63 157.939 75.8617 158.158C78.0933 158.377 78.3339 158.377 78.6737 158.344C79.0135 158.312 79.4453 158.247 78.7573 157.997C78.0693 157.747 76.2485 157.314 75.2181 157.058C74.1877 156.802 74.0028 156.736 75.1168 156.384C76.2308 156.032 78.6492 155.395 79.8439 155.047C81.0386 154.7 80.9362 154.66 80.7325 154.634C80.2299 154.572 79.7514 154.615 79.4327 154.697C79.1172 154.778 78.8256 155.369 78.5553 156.177C78.4326 156.545 78.4478 156.856 78.6667 157.274C78.8856 157.692 79.3355 158.215 79.5047 158.221C80.0285 158.239 79.0353 156.269 78.5488 155.055C78.4472 154.727 78.6405 154.984 79.1175 155.441C79.5945 155.898 80.3494 156.547 81.2147 157.268" stroke="black" stroke-width="2" stroke-linecap="round"/>
<path d="M64.8175 160.745C65.6413 160.745 67.7105 160.497 68.3659 160.189C68.577 160.09 68.5996 160.265 68.4648 160.458C68.1199 160.95 67.0829 161.613 65.0819 162.864C63.7817 163.676 61.8297 164.73 60.7932 165.316C59.4768 166.061 59.2158 166.391 59.1206 166.558C58.7108 167.274 61.3263 166.521 61.6749 166.388C62.3868 166.117 63.3253 165.925 64.3546 165.59C64.6343 165.498 64.8892 165.459 66.066 165.141C67.2427 164.824 69.3377 164.243 70.3969 163.991C71.4561 163.738 71.416 163.833 71.2279 163.963C70.7349 164.304 70.1068 164.599 69.765 164.82C69.6807 164.875 69.7597 164.782 69.8456 164.725C69.9315 164.668 70.0174 164.641 70.2607 164.613C70.504 164.585 70.9022 164.557 71.3349 164.393" stroke="black" stroke-width="2" stroke-linecap="round"/>
<path d="M70.5847 164.61C70.6847 164.642 71.6547 164.829 72.7031 164.827C73.1598 164.825 73.9622 164.63 74.8837 164.385C75.8052 164.139 76.8167 163.783 77.8481 163.313C78.8796 162.844 79.9004 162.272 80.7413 161.823C81.5822 161.373 82.2123 161.063 82.6422 160.841C83.0721 160.619 83.2828 160.494 82.5935 160.586C81.9041 160.679 80.3082 160.992 79.1085 161.165C77.9088 161.338 77.1536 161.361 76.3755 161.385" stroke="black" stroke-width="2" stroke-linecap="round"/>
<path d="M59.7686 147.465C59.7754 147.465 59.7822 147.465 60.8444 147.456C61.9067 147.447 64.0241 147.428 65.1648 147.413C66.3054 147.397 66.4049 147.385 67.0928 147.166C69.0596 146.539 70.5363 146.049 70.9573 145.927C71.212 145.854 71.5313 145.699 71.6439 145.603C72.3176 145.031 69.0059 145.55 68.1014 145.769C67.1598 145.911 65.7868 146.139 64.394 146.369C63.7993 146.447 63.4321 146.447 63.0354 146.418" stroke="black" stroke-width="2" stroke-linecap="round"/>
<path d="M95.6248 142.234C95.6172 142.23 96.11 142.227 96.8769 142.219C97.1472 142.216 97.1758 142.203 97.2257 142.169C97.4868 141.987 97.5806 141.83 97.601 141.782C97.6116 141.757 97.5892 141.722 97.5518 141.693C97.4637 141.624 97.2684 141.605 97.0127 141.613C96.7387 141.621 96.4145 141.731 96.0875 141.768C95.71 141.81 95.4796 141.843 95.121 141.891C94.8429 141.929 94.3646 141.948 94.0794 141.976C93.7151 142.031 93.5873 142.068 93.4796 142.085C93.4184 142.093 93.3435 142.099 93.2329 142.086" stroke="black" stroke-width="2" stroke-linecap="round"/>
<path d="M100.711 141.111C100.744 141.096 101.099 141.087 101.785 141.033C102.225 140.999 102.747 140.874 103.087 140.775C103.312 140.709 103.751 140.644 104.338 140.576C104.723 140.532 104.945 140.539 104.996 140.524C105.291 140.436 105.44 140.85 105.718 141.148C105.884 141.327 106.145 141.698 106.325 141.959C106.58 142.372 106.693 142.581 106.816 142.74C106.903 142.845 107.039 143.001 107.18 143.163" stroke="black" stroke-width="2" stroke-linecap="round"/>
<path d="M106.718 143.441C106.744 143.45 106.921 143.583 107.311 144.019C107.459 144.185 107.547 144.366 107.655 144.597C107.772 144.896 107.91 145.192 108.06 145.48C108.134 145.644 108.201 145.843 108.281 146.005" stroke="black" stroke-width="2" stroke-linecap="round"/>
<path d="M106.308 146.341C106.308 146.343 106.308 146.408 106.504 146.969C106.68 147.474 107.092 148.396 107.334 148.949C107.576 149.502 107.656 149.649 107.769 149.925C107.881 150.202 108.024 150.601 108.209 151.362C108.394 152.122 108.617 153.231 108.747 154.013C108.876 154.795 108.905 155.218 108.934 155.65" stroke="black" stroke-width="2" stroke-linecap="round"/>
<path d="M107.627 145.804C107.663 145.811 108.039 146.228 108.459 146.663C108.609 146.818 108.789 147.055 109.005 147.382C109.112 147.543 109.193 147.681 109.284 148.034C109.36 148.328 109.464 148.865 109.603 149.54C109.742 150.215 109.905 151.013 109.994 151.588C110.084 152.163 110.096 152.491 110.059 152.889C110.023 153.287 109.937 153.746 109.821 154.216" stroke="black" stroke-width="2" stroke-linecap="round"/>
<path d="M109.481 153.739C109.481 153.746 109.481 153.904 109.49 154.445C109.497 154.832 109.518 155.446 109.454 156.164C109.391 156.882 109.244 157.686 109.13 158.281C109.015 158.877 108.937 159.241 108.868 159.504C108.8 159.767 108.743 159.919 108.613 160.193C108.482 160.467 108.28 160.858 108.168 161.079C108.056 161.299 108.041 161.338 107.959 161.383" stroke="black" stroke-width="2" stroke-linecap="round"/>
<path d="M98.8157 155.996C98.8157 156 98.8157 156.534 98.8477 157.347C98.8588 157.631 98.9437 157.647 99.512 157.676C100.08 157.706 101.151 157.747 101.888 157.743C102.625 157.739 102.995 157.687 103.277 157.631C103.744 157.539 104.188 157.489 104.525 157.564C104.6 157.607 104.481 157.658 104.56 157.684C104.64 157.71 104.922 157.709 105.212 157.708" stroke="black" stroke-width="2" stroke-linecap="round"/>
<path d="M94.7373 161.734C94.7373 161.736 94.7373 161.737 95.1408 161.729C95.5443 161.722 96.3514 161.705 98.2962 161.367C100.241 161.028 103.299 160.369 104.822 160.027C106.345 159.685 106.241 159.679 106.133 159.673" stroke="black" stroke-width="2" stroke-linecap="round"/>
<path d="M106.739 164.343C106.739 164.422 106.716 164.632 106.097 165.539C105.826 165.937 105.402 166.448 105.143 166.798C104.79 167.309 104.655 167.52 104.563 167.636C104.507 167.706 104.433 167.799 104.326 167.875" stroke="black" stroke-width="2" stroke-linecap="round"/>
<path d="M60.8456 164.407C60.8422 164.407 60.8388 164.407 61.2274 164.407C61.6161 164.407 62.3969 164.407 64.0875 164.489C65.7781 164.572 68.3549 164.736 69.7206 164.83C71.1637 164.929 71.3952 164.957 72.104 164.84C72.6629 164.748 73.6118 164.511 74.4041 164.398C75.1965 164.284 75.8 164.281 76.3573 164.2C77.4233 164.044 78.184 163.747 78.7706 163.669C79.4426 163.58 79.8914 163.601 80.2164 163.51C80.9 163.319 81.9154 162.994 82.8535 162.77C83.7105 162.565 84.5043 162.439 84.633 162.473C84.8035 162.52 83.4017 163.051 82.5264 163.503C82.387 163.575 83.906 163.452 84.8504 163.303C85.7948 163.154 86.3844 163.014 87.2444 162.797C88.1044 162.58 89.2168 162.29 90.0889 162.106C90.961 161.922 91.5591 161.853 92.1685 161.76C94.2687 161.441 94.8764 161.285 94.9332 161.278C94.9671 161.274 94.7368 161.279 93.4021 161.485C92.0675 161.692 89.5652 162.102 87.297 162.615C85.0289 163.127 83.0706 163.729 81.9204 164.061C80.7702 164.394 80.4873 164.439 80.0986 164.485" stroke="black" stroke-width="2" stroke-linecap="round"/>
<path d="M63.4503 89.7739C63.4487 89.7739 63.4472 89.7739 65.212 89.8206C66.9768 89.8672 70.508 89.9605 72.4743 90.0387C74.4407 90.1169 74.7351 90.1772 74.9528 90.211C75.1706 90.2448 75.3026 90.2502 75.4387 90.2558" stroke="black" stroke-width="2" stroke-linecap="round"/>
<path d="M76.3132 88.654C76.3117 88.6525 76.3101 88.6509 76.88 88.6512C77.4498 88.6514 78.5911 88.6535 79.6285 88.8046C80.6659 88.9558 81.5648 89.256 81.5683 89.2106C81.5718 89.1651 80.6526 88.7648 79.9584 88.49C79.2643 88.2151 78.823 88.0777 78.5238 87.9948C78.2246 87.9119 78.0809 87.8876 77.1169 87.4795C76.153 87.0713 74.3733 86.28 72.5005 85.4219" stroke="black" stroke-width="2" stroke-linecap="round"/>
<path d="M62.1392 81.8789C62.1392 81.882 62.2402 81.8954 62.6325 82.024C62.9307 82.1217 63.4022 82.3625 63.9026 82.6386C64.4031 82.9148 64.9111 83.2386 65.2114 83.4215C65.5118 83.6043 65.5891 83.6363 66.2314 83.8355C66.8737 84.0346 68.0785 84.4 68.7822 84.629C69.4859 84.8581 69.6519 84.9398 69.8354 85.0431C70.0188 85.1465 70.2146 85.2691 70.3525 85.3493C70.4904 85.4295 70.5645 85.4635 70.6496 85.4815" stroke="black" stroke-width="2" stroke-linecap="round"/>
<path d="M73.8334 90.0254C73.832 90.0254 73.8306 90.0254 74.1476 90.0287C74.4645 90.0321 75.0999 90.0388 76.4366 90.1239C77.7734 90.209 79.7922 90.3724 80.8287 90.4418C81.8652 90.5112 81.8582 90.4818 81.851 90.4515" stroke="black" stroke-width="2" stroke-linecap="round"/>
<path d="M87.3367 91.0073C87.3394 91.0073 87.6615 91.0121 88.1797 91.0245C88.4417 91.0427 88.5718 91.0623 88.737 91.0857C88.8385 91.1003 88.9759 91.1204 89.2034 91.1417" stroke="black" stroke-width="2" stroke-linecap="round"/>
<path d="M81.3597 144.962C81.8594 144.832 82.9377 144.632 82.9801 144.559C83.0844 144.381 82.6233 144.223 82.2912 144.115C81.7836 143.951 81.1377 144.196 80.5931 144.387C80.1537 144.488 79.667 144.598 78.9194 144.725C78.4616 144.769 77.8443 144.772 77.1448 144.741" stroke="black" stroke-width="2" stroke-linecap="round"/>
<path d="M77.1448 144.741C77.1293 144.741 76.5758 144.741 75.7886 144.714C75.6064 144.708 76.5291 144.54 77.8383 144.477C78.7509 144.433 79.4304 144.099 79.9962 143.913C80.7301 143.673 81.3919 143.72 81.6424 143.715C81.8782 143.709 82.154 143.682 82.71 143.598C83.1091 143.538 83.7321 143.363 84.248 143.213C85.1584 142.947 85.8572 142.705 86.5036 142.574C87.1931 142.436 87.9628 142.435 88.6216 142.451C89.1907 142.498 89.4452 142.511 89.6939 142.502C89.8001 142.492 89.8655 142.473 89.9479 142.354" stroke="black" stroke-width="2" stroke-linecap="round"/>
<path d="M105.536 194.904C105.496 194.866 105.392 194.716 105.22 194.606C104.986 194.456 104.934 194.186 104.738 193.994C104.35 193.613 103.959 193.745 103.671 193.72C103.864 193.696 104.22 193.715 104.421 193.737C104.527 193.744 104.639 193.744 104.823 193.761" stroke="black" stroke-linecap="round"/>
<path d="M105.579 167.765V195.204" stroke="black" stroke-linecap="round"/>
<path d="M103.353 193.548H105.164" stroke="black" stroke-linecap="round"/>
<path d="M104.635 137.533C104.635 137.533 104.656 137.534 104.683 137.534C104.702 137.534 104.621 137.512 104.517 137.394C104.498 137.373 104.647 137.393 104.748 137.413C104.85 137.434 104.944 137.459 105.008 137.472C105.104 137.491 105.2 137.477 105.301 137.466C105.34 137.462 105.354 137.462 105.355 137.465C105.357 137.469 105.346 137.475 105.248 137.51C105.15 137.544 104.967 137.607 104.855 137.642C104.711 137.688 104.667 137.692 104.661 137.697C104.657 137.7 104.677 137.71 104.807 137.858C104.937 138.006 105.183 138.294 105.313 138.448C105.443 138.602 105.45 138.614 105.453 138.633C105.457 138.652 105.456 138.678 105.455 138.699C105.454 138.719 105.452 138.733 105.419 138.562C105.385 138.39 105.318 138.031 105.249 137.668" stroke="black" stroke-width="0.5" stroke-linecap="round"/>
<path d="M104.6 111.894C104.599 111.895 104.625 111.896 104.664 111.902C104.76 111.918 104.437 112.081 104.395 112.098C104.381 112.103 104.379 112.093 104.383 112.087C104.387 112.081 104.395 112.077 104.459 112.068C104.523 112.059 104.642 112.046 104.786 112.038C104.931 112.03 105.097 112.029 105.179 112.022C105.26 112.015 105.251 112.002 105.22 111.966C105.189 111.929 105.137 111.869 105.05 111.756C104.963 111.643 104.843 111.479 104.782 111.399C104.721 111.319 104.723 111.328 104.736 111.34C104.749 111.353 104.774 111.37 104.805 111.395" stroke="black" stroke-width="0.5" stroke-linecap="round"/>
<path d="M106.609 108.789C106.611 108.79 106.591 108.81 106.551 108.849C106.532 108.868 106.516 108.887 106.498 108.904C106.48 108.921 106.461 108.935 106.397 108.961" stroke="black" stroke-width="0.5" stroke-linecap="round"/>
<path d="M74.5993 122.905C74.646 123.221 74.6726 123.343 74.7059 123.586C74.7441 123.864 74.8232 124.039 74.8403 124.082C74.9089 124.255 74.9473 124.371 74.9496 124.392C74.9572 124.463 74.8222 124.316 74.7825 124.257C74.746 124.202 74.7088 124.096 74.6581 123.946C74.6016 123.778 74.5716 123.603 74.5393 123.488C74.5027 123.297 74.466 123.122 74.4511 122.936C74.446 122.835 74.446 122.724 74.446 122.608" stroke="black" stroke-width="0.5" stroke-linecap="round"/>
<path d="M75.8017 123.128C75.8159 123.136 75.8882 123.209 75.9542 123.335C75.989 123.401 75.9882 123.615 75.9913 123.88C75.9926 123.987 75.9075 124.165 75.7845 124.42C75.7408 124.511 75.7333 124.523 75.7337 124.523C75.7892 124.532 75.9517 124.422 76.13 124.33C76.221 124.284 76.3083 124.104 76.3567 124.008C76.4309 123.86 76.4082 123.615 76.4083 123.654C76.4084 123.755 76.4084 124.02 76.4022 124.191C76.3934 124.43 76.3587 124.531 76.3241 124.613C76.2746 124.729 76.2115 124.815 76.1252 124.891C75.9593 125.035 75.786 125.118 75.6947 125.155C75.6023 125.193 75.5334 125.199 75.5065 125.195C75.4802 125.191 75.5032 125.046 75.5504 124.822C75.5975 124.599 75.6584 124.47 75.683 124.397C75.7252 124.273 75.7684 124.163 75.7859 124.082C75.8076 123.98 75.8106 123.788 75.8125 123.582C75.8136 123.461 75.771 123.406 75.7175 123.333C75.6251 123.206 75.4808 123.047 75.343 122.961C75.2734 122.918 75.5576 123.239 75.6333 123.401C75.6802 123.502 75.6862 123.675 75.6819 123.869C75.6799 123.958 75.6551 124.025 75.6004 124.165C75.5457 124.305 75.4559 124.515 75.3955 124.649C75.3352 124.782 75.3071 124.833 75.2845 124.863C75.2619 124.893 75.2456 124.901 75.2288 124.909" stroke="black" stroke-width="0.5" stroke-linecap="round"/>
<path d="M75.0741 122.649C75.0032 122.812 74.9318 122.966 74.8687 123.105C74.8089 123.237 74.7906 123.362 74.7766 123.495C74.7563 123.687 74.7897 123.907 74.8359 124.11C74.8791 124.299 74.9611 124.449 75.0424 124.582C75.133 124.73 75.2036 124.811 75.2213 124.831C75.2386 124.85 75.1298 124.642 74.9467 124.307C74.8729 124.172 74.8537 124.068 74.8316 123.851C74.8005 123.546 74.8241 123.347 74.8444 123.283C74.9398 122.981 75.084 122.804 75.1087 122.792C75.2064 122.741 75.3255 122.952 75.406 123.079C75.495 123.219 75.5461 123.373 75.5802 123.491C75.5983 123.554 75.6073 123.624 75.6159 123.746C75.6366 124.037 75.6323 124.242 75.6041 124.361C75.5826 124.452 75.5308 124.6 75.5061 124.642C75.4864 124.675 75.5151 124.435 75.5696 124.264C75.5998 124.168 75.6043 124.03 75.6027 123.858C75.602 123.78 75.5837 123.692 75.5549 123.552C75.5278 123.421 75.4226 123.245 75.3137 123.049C75.2484 122.944 75.2173 122.903 75.1932 122.873C75.1783 122.852 75.1579 122.822 75.1223 122.77" stroke="black" stroke-width="0.5" stroke-linecap="round"/>
<path d="M81.5249 124.982L81.5029 124.977" stroke="black" stroke-width="0.5" stroke-linecap="round"/>
<path d="M82.3054 125.148V125.164" stroke="black" stroke-width="0.5" stroke-linecap="round"/>
<path d="M80.6514 124.814L80.6573 124.818" stroke="black" stroke-width="0.5" stroke-linecap="round"/>
<path d="M104.958 95.8669C104.962 95.871 105.219 95.8752 105.602 95.8504C105.734 95.8419 105.729 95.7678 105.685 95.6909C105.476 95.3288 104.916 95.1942 104.413 94.7055C104.277 94.5732 104.124 94.4372 104.022 94.362C103.873 94.252 104.934 94.9396 105.083 95.0384C105.317 95.1929 105.705 94.531 106.179 94.3357C106.333 94.2723 106.552 94.2674 106.58 94.3654C106.674 94.7035 106.232 94.9594 106.165 94.9875C106.142 94.9971 106.141 94.9196 106.195 94.8242C106.249 94.7289 106.356 94.5983 106.823 94.3558C107.29 94.1133 108.113 93.763 108.514 93.6122C108.915 93.4614 108.87 93.5208 108.592 93.7673C108.314 94.0138 107.804 94.4457 107.896 94.4265C107.987 94.4073 108.695 93.924 109.008 93.671C109.321 93.4179 109.219 93.4097 109.057 93.4209C108.676 93.4474 108.161 93.6784 107.676 94.0027C107.477 94.1355 107.396 94.2358 107.388 94.3055C107.381 94.3751 107.454 94.4192 107.521 94.4511C107.646 94.5098 107.932 94.5441 108.403 94.5373C109.349 94.5235 109.583 94.0548 109.693 93.9464C109.744 93.897 109.77 93.847 109.713 93.8121C109.513 93.7555 109.187 93.7891 108.774 93.9918C108.539 94.1388 108.252 94.3753 107.947 94.6411" stroke="black" stroke-width="0.5" stroke-linecap="round"/>
<path d="M108.378 94.4506C108.374 94.4465 108.3 94.4226 107.847 94.3883C107.466 94.3594 106.777 94.3728 106.187 94.301C105.115 94.1703 104.557 93.8934 104.388 93.7894C104.069 93.5926 103.743 93.263 103.54 93.0459C103.502 93.0056 103.457 92.9663 103.457 92.9299C103.458 92.8935 103.503 92.8629 103.561 92.854C103.947 92.7946 104.633 92.959 105.38 93.0327C105.831 93.0772 106.434 93.0214 106.817 92.9911C107.2 92.9608 107.347 92.9284 107.362 92.9157C107.443 92.8439 106.566 93.0162 105.549 93.1634C105.095 93.2292 104.759 93.2157 104.624 93.218C104.489 93.2202 104.563 93.2231 104.627 93.2308C104.691 93.2384 104.744 93.2507 105.145 93.3963C105.547 93.5419 106.296 93.8204 106.703 93.9756C107.111 94.1308 107.155 94.1542 107.232 94.178" stroke="black" stroke-linecap="round"/>
<path d="M97.0166 92.4276C97.0652 92.4403 97.3475 92.5425 98.1387 92.8493C98.7364 93.0811 99.7343 93.4623 100.285 93.677C100.835 93.8916 100.908 93.9269 101.651 94.1807C102.393 94.4346 103.804 94.9061 104.665 95.1674C105.784 95.5068 106.114 95.5036 106.161 95.4726C106.241 95.4192 105.92 95.1862 105.537 94.9235C105.128 94.6419 104.782 94.4783 103.816 94.1109C102.961 93.7856 101.36 93.1907 100.488 92.8721C99.3897 92.4713 99.2274 92.4592 99.0911 92.4334C99.0296 92.4218 98.9849 92.4079 100.063 92.4634C101.142 92.519 103.345 92.643 103.804 92.6765C104.263 92.7101 102.912 92.6494 102.16 92.6081C101.407 92.5669 101.294 92.5469 101.267 92.5345C101.232 92.519 101.405 92.5173 101.935 92.633C102.426 92.7401 103.363 92.9649 103.934 93.1097C104.685 93.2999 104.919 93.4115 104.918 93.4413C104.858 93.4416 104.678 93.4116 104.528 93.3678C104.378 93.3239 104.264 93.2671 104.147 93.2085" stroke="black" stroke-linecap="round"/>
<path d="M62 90.3706L107 94.3706" stroke="black" stroke-width="2"/>
</svg>
