<svg width="88" height="96" viewBox="0 0 88 96" fill="none" xmlns="http://www.w3.org/2000/svg">
<path d="M39.7258 20.0315C57.0845 24.0703 61.5845 -0.929687 30.3305 14.2143C28.0226 15.3326 24.8305 11.2143 23.8304 12.7144C26.3303 14.9285 30.5803 25.6686 29.5845 22.5703C25.0847 8.57027 33.6341 18.6142 39.7258 20.0315Z" fill="black"/>
<path d="M42.2664 44.5742C42.7834 45.1555 43.7257 45.2898 45.1681 44.9294C46.6369 44.5623 48.4072 43.7314 50.2334 42.7414C52.057 41.7528 53.8854 40.6342 55.4932 39.7004C56.2922 39.2364 57.0373 38.8186 57.6887 38.4924C58.3316 38.1704 58.9182 37.9198 59.3922 37.815L59.4514 37.802L59.5127 37.8034C64.4426 37.9282 67.9682 37.8349 70.368 37.5689C71.5688 37.4358 72.4702 37.2611 73.1171 37.0566C73.7794 36.8472 74.1058 36.6273 74.2424 36.455C74.3026 36.3789 74.3224 36.3164 74.3268 36.2624C74.3315 36.204 74.321 36.1192 74.267 36.0006C74.1523 35.7487 73.8799 35.423 73.4107 35.0306C72.4816 34.2537 70.9644 33.3636 69.0869 32.3983C67.218 31.4374 65.0278 30.4199 62.7753 29.383C60.5268 28.3479 58.2157 27.2932 56.1189 26.2648C54.0247 25.2377 52.1241 24.227 50.7001 23.2753C49.9884 22.7998 49.3802 22.3297 48.9232 21.8686C48.4743 21.4158 48.1261 20.9269 48.0121 20.4107L48.0003 20.3573L48.0004 20.3033C48.0004 19.1243 47.929 18.3533 47.8166 17.8956C47.7861 17.7715 47.7546 17.6842 47.7286 17.6241C47.7262 17.6261 47.7235 17.6285 47.7211 17.6307C47.6265 17.7148 47.5085 17.8514 47.3683 18.0487C47.0887 18.4422 46.7694 19.0107 46.423 19.7046C45.7317 21.0893 44.9706 22.8936 44.2375 24.6158C43.5112 26.3218 42.8066 27.9627 42.2416 28.9731L42.1317 29.1684L41.9124 29.2168C41.373 29.3361 40.9603 29.8123 40.7183 30.8107C40.4786 31.8001 40.4505 33.1549 40.5706 34.7238C40.8068 37.8107 41.6002 41.5549 42.2664 44.5742Z" fill="#E2DDD4" stroke="black"/>
<path d="M49 16.3032L45.366 22.0138C25.6062 53.065 47.6928 93.7341 84.4966 94.0665" stroke="black" stroke-width="2" stroke-linecap="round"/>
<path d="M50.5 16.3032C50.5 25.8032 50.2612 20.0635 47.43 20.0635C44.5987 20.0635 29.5 30.6365 29.5 27.8032C29.5 24.9699 44.5987 9.80322 47.43 9.80322C50.2612 9.80322 50.5 13.4699 50.5 16.3032Z" fill="black"/>
<path d="M50.5 85.2061C50.5 88.1314 51.9548 86.7164 48.5 85.8032C50.9548 90.6433 48.6577 83.3122 40.3577 88.2792C36.7506 90.4378 41.2117 83.713 43.5584 83.713C50.417 82.3433 50.5 82.2808 50.5 85.2061Z" fill="black"/>
<circle cx="47" cy="12.8032" r="2" fill="#EDE6D6"/>
<path d="M39.641 24.675C47.7457 21.4919 30.7361 30.2869 30.2457 30.4922C27.8801 31.4827 24.7457 33.4922 23.7456 31.9921C26.2455 29.778 31.2417 18.205 30.2458 21.3032C25.746 35.3033 33.8195 26.9613 39.641 24.675Z" fill="black"/>
<path d="M44.81 8.26489C36.7053 11.4479 53.715 2.65297 54.2053 2.44767C56.571 1.45717 59.4999 -0.196825 60.5 1.30322C58.0001 3.51735 53.2094 14.7349 54.2052 11.6366C58.705 -2.36341 50.6316 5.97854 44.81 8.26489Z" fill="black"/>
<path d="M48.7054 5.2305C57.5339 1.8774 35.1202 9.55892 34.5793 9.75879C31.9697 10.7231 31.2676 10.6759 31.1878 11.5341C34.5682 10.7891 44.7666 10.9988 42.2379 10.7752C30.8112 9.76523 42.364 7.63899 48.7054 5.2305Z" fill="black"/>
<path d="M56.2226 10.8276C56.401 6.78305 56.7 16.9457 56.6941 17.1928C56.6657 18.3849 56.9353 18.6667 56.1849 18.8084C55.7657 17.3282 52.2782 13.1747 53.2981 14.1828C57.9068 18.7381 56.0944 13.7327 56.2226 10.8276Z" fill="black"/>
<path d="M40.5 60.3032L84 93.8032" stroke="black" stroke-width="2" stroke-linecap="round"/>
<path d="M48.7061 16.8032L50 86.3032" stroke="black" stroke-width="3" stroke-linecap="round"/>
<path d="M38.8565 47.1955C38.9256 47.5085 39.2426 47.8249 40.1203 48.0184C40.972 48.2062 42.1772 48.2323 43.6541 48.12C46.598 47.8959 50.4693 47.1352 54.4058 46.1981C58.3365 45.2623 62.3094 44.1558 65.4489 43.2508C67.6581 42.6139 69.4773 42.0704 70.5651 41.7596C70.5 41.7319 70.4294 41.7036 70.3533 41.6744C69.694 41.4216 68.7314 41.1559 67.5422 40.8742C65.1619 40.3102 61.9989 39.7064 58.7543 39.0039C55.5293 38.3058 52.242 37.5139 49.6875 36.5822C48.4117 36.1169 47.2938 35.6081 46.4516 35.0448C45.6238 34.4911 44.9766 33.8272 44.7986 33.0216C44.5272 31.7929 44.2932 31.1306 44.0881 30.8013C43.9902 30.6442 43.9276 30.6117 43.9172 30.6071C43.9131 30.6053 43.9097 30.6044 43.9026 30.6043C43.893 30.6041 43.8715 30.6054 43.8342 30.6164C43.7512 30.641 43.6376 30.6982 43.4713 30.8026C43.2966 30.9122 43.1395 31.0235 42.9092 31.1737C42.4823 31.4523 41.9372 31.7715 41.2611 31.9208C41.1335 31.9491 40.9449 32.0636 40.7133 32.3659C40.487 32.6613 40.2588 33.0859 40.0399 33.6277C39.6032 34.709 39.2337 36.1763 38.9676 37.801C38.4337 41.0597 38.3333 44.8271 38.8565 47.1955Z" fill="#EDE6D6" stroke="black"/>
<path d="M76.135 83.8215C76.4162 83.8999 76.8246 83.7797 77.3952 83.097C77.9459 82.4381 78.5214 81.3957 79.1039 80.0511C80.2648 77.3712 81.3942 73.6316 82.4052 69.751C83.4147 65.8761 84.2996 61.8831 84.9749 58.7059C85.4275 56.5769 85.7915 54.7944 86.0324 53.6699C85.6666 54.0756 85.2228 54.6673 84.7124 55.4058C83.5651 57.0659 82.169 59.3312 80.6474 61.638C79.1399 63.9233 77.5222 66.2281 75.9776 67.8825C75.2062 68.7087 74.4316 69.3954 73.6785 69.8344C72.9288 70.2714 72.1344 70.4998 71.3653 70.2847C70.2882 69.9835 69.4013 70.0388 68.6218 70.3084C67.832 70.5816 67.1198 71.0859 66.4152 71.7336C65.705 72.3865 65.0397 73.1486 64.3098 73.9354C63.6401 74.6574 62.924 75.3875 62.1173 75.9993C62.1264 76.1095 62.1747 76.2615 62.3029 76.4669C62.4926 76.7709 62.8176 77.1248 63.2739 77.5163C64.1835 78.2966 65.5245 79.1519 67.0562 79.9856C70.1177 81.6517 73.8394 83.1795 76.135 83.8215Z" fill="#EDE6D6" stroke="black"/>
<path d="M76.135 83.8215C76.4162 83.8999 76.8246 83.7797 77.3952 83.097C77.9459 82.4381 78.5214 81.3957 79.1039 80.0511C80.2648 77.3712 81.3942 73.6316 82.4052 69.751C83.4147 65.8761 84.2996 61.8831 84.9749 58.7059C85.4275 56.5769 85.7915 54.7944 86.0324 53.6699C85.6666 54.0756 85.2228 54.6673 84.7124 55.4058C83.5651 57.0659 82.169 59.3312 80.6474 61.638C79.1399 63.9233 77.5222 66.2281 75.9776 67.8825C75.2062 68.7087 74.4316 69.3954 73.6785 69.8344C72.9288 70.2714 72.1344 70.4998 71.3653 70.2847C70.2882 69.9835 69.4013 70.0388 68.6218 70.3084C67.832 70.5816 67.1198 71.0859 66.4152 71.7336C65.705 72.3865 65.0397 73.1486 64.3098 73.9354C63.6401 74.6574 62.924 75.3875 62.1173 75.9993C62.1264 76.1095 62.1747 76.2615 62.3029 76.4669C62.4926 76.7709 62.8176 77.1248 63.2739 77.5163C64.1835 78.2966 65.5245 79.1519 67.0562 79.9856C70.1177 81.6517 73.8394 83.1795 76.135 83.8215Z" fill="#EDE6D6" stroke="black"/>
<path d="M44 30.3032L48 18.8032" stroke="black" stroke-linecap="round"/>
<path d="M45 33.3276L48 33.8032" stroke="black" stroke-width="0.1" stroke-linecap="round"/>
<path d="M44.9999 32.8033L47.9998 33.8033" stroke="black" stroke-width="0.1" stroke-linecap="round"/>
<path d="M44.9999 33.8032L47.9997 33.8032" stroke="black" stroke-width="0.1" stroke-linecap="round"/>
<path d="M48.0001 29.8031L45.0001 30.2592" stroke="black" stroke-width="0.1" stroke-linecap="round"/>
<path d="M45.9999 30.3228L45.0001 30.2593" stroke="black" stroke-width="0.1" stroke-linecap="round"/>
<path d="M47.9999 31.8034L45.0003 30.2599" stroke="black" stroke-width="0.1" stroke-linecap="round"/>
<path d="M45.946 33.0816L46.5813 30.1114" stroke="black" stroke-width="0.1" stroke-linecap="round"/>
<path d="M46.4353 33.2703L46.5813 30.1115" stroke="black" stroke-width="0.1" stroke-linecap="round"/>
<path d="M45.5024 32.9106L46.5813 30.1115" stroke="black" stroke-width="0.1" stroke-linecap="round"/>
<circle cx="46.5" cy="30.3032" r="0.5" fill="black"/>
<path d="M47.1156 30.423C47.1287 30.4413 47.1684 30.4935 47.1796 30.5128C47.1972 30.5434 47.1363 30.4219 47.0822 30.3576C47.0669 30.3395 47.0572 30.311 47.0407 30.2689C47.0096 30.1896 46.9731 30.1514 46.9634 30.1405C46.9523 30.128 47.0121 30.1368 47.0693 30.1267C47.1065 30.1201 47.1577 30.0996 47.1928 30.0889C47.2443 30.0733 47.2731 30.0678 47.3087 30.0567C47.4172 30.0229 47.4383 30.0244 47.4456 30.0261C47.4521 30.0276 47.4499 30.0418 47.449 30.0534C47.4462 30.0885 47.3917 30.126 47.3447 30.1623C47.3111 30.1883 47.2541 30.2251 47.2239 30.246C47.1936 30.2669 47.1908 30.2697 47.164 30.3049C47.1372 30.3401 47.0865 30.4077 47.0528 30.4498C47.006 30.5084 46.9697 30.536 46.9282 30.5718C46.8744 30.618 46.837 30.6702 46.8149 30.7017C46.7854 30.744 46.726 30.7756 46.7067 30.7957C46.686 30.8172 46.6921 30.8805 46.6926 30.9361C46.6927 30.954 46.6975 30.9509 46.7018 30.9492C46.7061 30.9474 46.711 30.9472 46.7165 30.948C46.728 30.9497 46.7794 30.9869 46.8657 31.0467C46.9052 31.0741 46.9407 31.0879 46.9936 31.1091C47.0464 31.1303 47.1166 31.1565 47.1665 31.1796C47.2163 31.2026 47.2436 31.2216 47.2778 31.2415C47.3119 31.2613 47.3521 31.2814 47.3696 31.2845C47.387 31.2876 47.3805 31.2732 47.3491 31.2283C47.3177 31.1834 47.2615 31.1083 47.1758 31.0105C47.0901 30.9126 46.9765 30.7942 46.9142 30.7263C46.8414 30.647 46.8328 30.6218 46.8273 30.607C46.825 30.6008 46.8249 30.5968 46.8265 30.5937C46.8282 30.5907 46.8318 30.5886 46.8711 30.5873C46.9105 30.586 46.9853 30.5855 47.0328 30.5889C47.0803 30.5922 47.0981 30.5995 47.1146 30.6102C47.131 30.6209 47.1456 30.6349 47.1742 30.675C47.2029 30.7151 47.2452 30.7809 47.2888 30.8487" stroke="black" stroke-width="0.3" stroke-linecap="round"/>
<path d="M47.3431 30.2494C47.3427 30.249 47.3423 30.3084 47.3479 30.4075C47.3513 30.4667 47.3828 30.4854 47.3966 30.4919C47.4048 30.4957 47.4163 30.498 47.4248 30.4985C47.4334 30.499 47.4388 30.497 47.4405 30.4517C47.4422 30.4065 47.4399 30.3182 47.4405 30.2683C47.441 30.2185 47.4443 30.2099 47.4478 30.2027C47.4513 30.1956 47.4549 30.1902 47.459 30.1891C47.4631 30.188 47.4675 30.1914 47.475 30.2258C47.4824 30.2602 47.4928 30.3257 47.4992 30.3829C47.5108 30.4867 47.5066 30.5451 47.4979 30.5639C47.4892 30.5828 47.4591 30.5996 47.4171 30.6208C47.3701 30.6446 47.3321 30.6517 47.3167 30.6583C47.3035 30.6639 47.3043 30.7184 47.3104 30.7835C47.3126 30.8067 47.328 30.8074 47.3399 30.8045C47.3648 30.7982 47.396 30.7652 47.4327 30.7239C47.4873 30.6623 47.4796 30.6195 47.4783 30.6096C47.4776 30.6047 47.4749 30.6003 47.4738 30.6557C47.4728 30.7111 47.4729 30.8266 47.4787 30.9142C47.4846 31.0019 47.4962 31.0581 47.5096 31.1003C47.523 31.1425 47.5379 31.169 47.5495 31.1848C47.5611 31.2006 47.569 31.2048 47.5747 31.1852C47.5805 31.1655 47.5839 31.1217 47.5816 31.0814C47.5793 31.0411 47.5712 31.0057 47.5587 30.9735C47.5463 30.9414 47.5297 30.9137 47.5021 30.8775C47.4746 30.8413 47.4364 30.7973 47.4115 30.7711C47.3777 30.7357 47.3598 30.7291 47.3516 30.7304C47.3419 30.7318 47.3453 30.7643 47.3539 30.8301C47.36 30.8768 47.3783 30.9493 47.3952 31.0095C47.4122 31.0697 47.4296 31.1151 47.4444 31.1509C47.4699 31.2121 47.4848 31.2486 47.4868 31.2698C47.4897 31.2998 47.4705 31.3158 47.462 31.3279C47.4578 31.3328 47.4539 31.3353 47.4777 31.3506C47.5015 31.3659 47.5531 31.3939 47.6103 31.4315" stroke="black" stroke-width="0.3" stroke-linecap="round"/>
<path d="M45.5376 30.2362C45.5375 30.2362 45.5373 30.2362 45.6216 30.2334C45.7058 30.2307 45.8745 30.2251 45.9636 30.2214C46.0526 30.2178 46.057 30.2161 46.0594 30.2144" stroke="black" stroke-width="0.2" stroke-linecap="round"/>
<path d="M46.3784 30.748C46.3781 30.76 46.365 30.8228 46.3555 30.8592C46.346 30.8951 46.3493 30.9174 46.3421 30.9422C46.3394 30.9516 46.3242 31 46.3042 31.0718C46.2967 31.0985 46.2957 31.1056 46.2763 31.1696C46.257 31.2335 46.2197 31.3541 46.1965 31.4338C46.1732 31.5134 46.1653 31.5486 46.1609 31.5689C46.1565 31.5892 46.1559 31.5935 46.1553 31.598" stroke="black" stroke-width="0.2" stroke-linecap="round"/>
<path d="M46.1072 31.5894C46.1072 31.5892 46.1072 31.589 46.0829 31.6453C46.0585 31.7016 46.0097 31.8143 45.96 31.93" stroke="black" stroke-width="0.2" stroke-linecap="round"/>
<path d="M45.96 31.9305C45.9954 31.9378 46.0415 31.9436 46.0496 31.9375C46.0761 31.9175 46.0839 31.8577 46.0937 31.8106C46.1127 31.7201 46.1388 31.6563 46.15 31.628C46.1551 31.6031 46.1644 31.5827 46.1718 31.5613C46.1728 31.5555 46.1732 31.5486 46.1645 31.5376" stroke="black" stroke-width="0.2" stroke-linecap="round"/>
<path d="M45.9724 31.9345C45.972 31.9349 45.9677 31.9529 45.9543 31.9945C45.9366 32.0495 45.9061 32.1007 45.8909 32.1402C45.8821 32.1627 45.8812 32.1805 45.8838 32.1954C45.8882 32.2201 45.9477 32.2035 45.9798 32.2075C45.9921 32.2091 46.0108 32.2079 46.0215 32.2062C46.0321 32.2046 46.0342 32.2013 46.0363 32.1944C46.0471 32.159 46.0538 32.1278 46.0576 32.0902C46.0593 32.0735 46.0651 32.0553 46.0752 32.027C46.1082 31.9351 46.1257 31.8783 46.1233 31.8837C46.1179 31.8958 46.1109 31.9296 46.0794 31.9819C46.0479 32.0342 45.994 32.1047 45.9614 32.1463C45.9074 32.2151 45.8718 32.2487 45.8507 32.29C45.8179 32.3541 45.9995 32.3185 46.0151 32.3212C46.0231 32.3225 45.9755 32.3345 45.913 32.3306C45.853 32.3269 45.8209 32.3087 45.8166 32.307C45.7975 32.2995 45.9223 32.3152 45.958 32.3211C45.9904 32.3264 45.8931 32.3345 45.8451 32.3509C45.8325 32.3552 45.8221 32.3571 45.8174 32.3603C45.8042 32.3693 45.8192 32.3976 45.8215 32.4177C45.8243 32.4418 45.8717 32.4532 45.9071 32.4961C45.9274 32.5206 45.9312 32.5453 45.9343 32.5518C45.9413 32.5664 45.9401 32.5024 45.9505 32.4664C45.9636 32.4208 45.9773 32.4038 45.9786 32.3794C45.9794 32.3651 45.9815 32.3522 45.9837 32.3414C45.9849 32.3356 45.9866 32.3294 45.9876 32.3377C45.9912 32.3688 45.9865 32.4122 45.9621 32.5066C45.9425 32.5822 45.8993 32.7115 45.8778 32.7816C45.8553 32.8579 45.8534 32.8988 45.8532 32.9554C45.854 32.9775 45.8566 32.9863 45.8605 32.9979" stroke="black" stroke-width="0.2" stroke-linecap="round"/>
<path d="M45.8605 32.998C45.8542 32.9976 45.7994 32.9787 45.6864 32.9446C45.6525 32.9344 45.6357 32.9149 45.6285 32.8988C45.6212 32.8825 45.6465 32.8555 45.6629 32.8287C45.6854 32.7921 45.7162 32.7583 45.733 32.6785C45.7423 32.6332 45.7578 32.5648 45.7849 32.5071C45.7938 32.4928 45.8046 32.478 45.8188 32.46" stroke="black" stroke-width="0.2" stroke-linecap="round"/>
<path d="M45.5215 33.4897C45.7071 33.5549 45.8137 33.5923 45.9036 33.6172C46.0209 33.6497 46.218 33.6385 46.4622 33.6444C46.5283 33.6461 46.5627 33.6511 46.5971 33.6529C46.6132 33.6538 46.6263 33.6576 46.4974 33.6657C46.3685 33.6739 46.0971 33.6872 45.9304 33.6982C45.7096 33.7173 45.6249 33.7271 45.5876 33.729C45.5793 33.7295 45.5928 33.7289 45.6284 33.7221" stroke="black" stroke-width="0.2" stroke-linecap="round"/>
<path d="M46.6399 33.7263C46.6395 33.7268 46.6722 33.7272 46.7331 33.7269C46.7611 33.7268 46.7831 33.7252 46.8702 33.7224C46.9573 33.7196 47.1088 33.7152 47.1885 33.7138C47.2717 33.7124 47.2862 33.7187 47.3331 33.7228C47.3692 33.7243 47.4299 33.7245 47.4611 33.7225C47.4923 33.7205 47.492 33.7163 47.4917 33.7119" stroke="black" stroke-width="0.2" stroke-linecap="round"/>
<path d="M45.0503 28.3496V30.232" stroke="black" stroke-width="0.2" stroke-linecap="round"/>
<path d="M46.5974 23.6914V30.0439" stroke="black" stroke-width="0.2" stroke-linecap="round"/>
<path d="M46.7043 26.6982H48.2508" stroke="black" stroke-width="0.2" stroke-linecap="round"/>
<path d="M47.0549 22.0532C47.0743 22.165 47.1522 22.2656 47.2463 22.3746C47.337 22.4798 47.3728 22.6335 47.395 22.8415C47.4126 23.0057 47.4158 23.2912 47.419 23.4665C47.4223 23.6418 47.4186 23.6988 47.4415 23.8176C47.4996 24.1183 47.5675 24.3138 47.5747 24.3736C47.5892 24.494 47.5956 24.587 47.6 24.6665C47.6169 24.9729 47.6555 25.1017 47.6771 25.2013C47.6921 25.2705 47.7309 25.3928 47.7567 25.483C47.7642 25.5416 47.7698 25.585 47.775 25.6086C47.778 25.6205 47.7815 25.6322 47.7865 25.6556" stroke="black" stroke-width="2" stroke-linecap="round"/>
<path d="M45.1555 28.4946H46.5606" stroke="black" stroke-width="0.1" stroke-linecap="round"/>
<path d="M45.3267 28.5435V30.1673" stroke="black" stroke-width="0.1" stroke-linecap="round"/>
<path d="M45.5366 28.5249V30.1316" stroke="black" stroke-width="0.1" stroke-linecap="round"/>
<path d="M45.7603 28.5103V30.148" stroke="black" stroke-width="0.1" stroke-linecap="round"/>
<path d="M46.0049 28.5225V30.1198" stroke="black" stroke-width="0.1" stroke-linecap="round"/>
<path d="M46.1868 28.5195V29.9806" stroke="black" stroke-width="0.1" stroke-linecap="round"/>
<path d="M46.3809 28.521V30.0012" stroke="black" stroke-width="0.1" stroke-linecap="round"/>
<path d="M46.5005 32.6133H47.8774" stroke="black" stroke-width="0.1" stroke-linecap="round"/>
<path d="M46.6714 32.6567V33.328" stroke="black" stroke-width="0.1" stroke-linecap="round"/>
<path d="M47.0618 32.6133V33.4245" stroke="black" stroke-width="0.1" stroke-linecap="round"/>
<path d="M47.3765 32.6582V33.5761" stroke="black" stroke-width="0.1" stroke-linecap="round"/>
<path d="M60.2512 28.6719L57.2512 28.1963" stroke="black" stroke-width="0.1" stroke-linecap="round"/>
<path d="M60.2514 29.1962L57.2514 28.1962" stroke="black" stroke-width="0.1" stroke-linecap="round"/>
<path d="M60.2514 28.1963L57.2515 28.1963" stroke="black" stroke-width="0.1" stroke-linecap="round"/>
<path d="M57.2506 32.1964L60.2506 31.7403" stroke="black" stroke-width="0.1" stroke-linecap="round"/>
<path d="M57.2508 30.1961L60.2504 31.7396" stroke="black" stroke-width="0.1" stroke-linecap="round"/>
<path d="M59.3052 28.9179L58.6699 31.8882" stroke="black" stroke-width="0.1" stroke-linecap="round"/>
<path d="M58.8159 28.7292L58.6699 31.8881" stroke="black" stroke-width="0.1" stroke-linecap="round"/>
<path d="M59.7489 29.0889L58.6699 31.888" stroke="black" stroke-width="0.1" stroke-linecap="round"/>
<circle cx="58.7512" cy="31.6963" r="0.5" transform="rotate(180 58.7512 31.6963)" fill="black"/>
<path d="M58.1356 31.5765C58.1225 31.5582 58.0828 31.5061 58.0717 31.4867C58.054 31.4562 58.1149 31.5776 58.1691 31.6419C58.1843 31.6601 58.194 31.6885 58.2105 31.7306C58.2416 31.8099 58.2781 31.8482 58.2878 31.8591C58.2989 31.8715 58.2392 31.8627 58.1819 31.8728C58.1447 31.8794 58.0936 31.8999 58.0584 31.9106C58.0069 31.9262 57.9782 31.9317 57.9426 31.9428C57.834 31.9766 57.8129 31.9751 57.8056 31.9734C57.7991 31.9719 57.8013 31.9577 57.8022 31.9461C57.8051 31.911 57.8595 31.8735 57.9065 31.8372C57.9402 31.8112 57.9971 31.7744 58.0274 31.7535C58.0576 31.7326 58.0604 31.7298 58.0872 31.6946C58.114 31.6594 58.1647 31.5918 58.1984 31.5497C58.2452 31.4911 58.2815 31.4635 58.3231 31.4278C58.3768 31.3815 58.4142 31.3293 58.4363 31.2978C58.4659 31.2555 58.5252 31.2239 58.5445 31.2038C58.5652 31.1823 58.5591 31.119 58.5587 31.0634C58.5585 31.0455 58.5537 31.0486 58.5494 31.0504C58.5451 31.0521 58.5402 31.0524 58.5348 31.0515C58.5233 31.0499 58.4718 31.0126 58.3855 30.9528C58.346 30.9254 58.3105 30.9116 58.2577 30.8904C58.2048 30.8692 58.1346 30.843 58.0847 30.82C58.0349 30.7969 58.0076 30.7779 57.9734 30.758C57.9393 30.7382 57.8991 30.7182 57.8816 30.715C57.8642 30.7119 57.8707 30.7263 57.9021 30.7712C57.9336 30.8161 57.9897 30.8912 58.0754 30.9891C58.1612 31.0869 58.2747 31.2053 58.337 31.2732C58.4098 31.3525 58.4184 31.3777 58.4239 31.3925C58.4262 31.3987 58.4263 31.4028 58.4247 31.4058C58.423 31.4088 58.4194 31.4109 58.3801 31.4122C58.3408 31.4135 58.2659 31.414 58.2184 31.4106C58.1709 31.4073 58.1531 31.4001 58.1367 31.3893C58.1202 31.3786 58.1056 31.3646 58.077 31.3245C58.0483 31.2844 58.006 31.2186 57.9624 31.1508" stroke="black" stroke-width="0.3" stroke-linecap="round"/>
<path d="M57.9081 31.7501C57.9085 31.7505 57.9089 31.6911 57.9033 31.5921C57.8999 31.5328 57.8684 31.5142 57.8546 31.5077C57.8465 31.5038 57.8349 31.5015 57.8264 31.501C57.8178 31.5005 57.8124 31.5026 57.8107 31.5478C57.8091 31.593 57.8113 31.6813 57.8108 31.7312C57.8102 31.781 57.8069 31.7896 57.8034 31.7968C57.7999 31.8039 57.7963 31.8093 57.7922 31.8104C57.7881 31.8115 57.7837 31.8082 57.7762 31.7737C57.7688 31.7393 57.7584 31.6738 57.752 31.6167C57.7404 31.5129 57.7446 31.4544 57.7533 31.4356C57.762 31.4167 57.7921 31.3999 57.8341 31.3787C57.8811 31.3549 57.9191 31.3478 57.9346 31.3412C57.9478 31.3356 57.9469 31.2811 57.9408 31.216C57.9386 31.1928 57.9232 31.1921 57.9113 31.1951C57.8864 31.2013 57.8552 31.2343 57.8185 31.2756C57.7639 31.3372 57.7716 31.38 57.773 31.3899C57.7736 31.3948 57.7763 31.3993 57.7774 31.3438C57.7785 31.2884 57.7784 31.1729 57.7725 31.0853C57.7666 30.9977 57.755 30.9414 57.7416 30.8992C57.7282 30.857 57.7133 30.8305 57.7017 30.8147C57.6901 30.7989 57.6823 30.7947 57.6765 30.8144C57.6707 30.834 57.6673 30.8778 57.6696 30.9181C57.6719 30.9584 57.68 30.9939 57.6925 31.026C57.705 31.0581 57.7215 31.0858 57.7491 31.122C57.7767 31.1582 57.8148 31.2022 57.8398 31.2284C57.8735 31.2638 57.8914 31.2704 57.8997 31.2691C57.9093 31.2677 57.9059 31.2352 57.8974 31.1694C57.8913 31.1227 57.873 31.0502 57.856 30.99C57.839 30.9298 57.8216 30.8844 57.8068 30.8486C57.7814 30.7874 57.7665 30.7509 57.7644 30.7297C57.7615 30.6997 57.7807 30.6837 57.7892 30.6716C57.7934 30.6667 57.7973 30.6643 57.7735 30.649C57.7497 30.6337 57.6982 30.6056 57.6409 30.568" stroke="black" stroke-width="0.3" stroke-linecap="round"/>
<path d="M58.8728 31.2515C58.8732 31.2395 58.8862 31.1767 58.8958 31.1403C58.9052 31.1044 58.9019 31.0821 58.9092 31.0573C58.9119 31.0479 58.927 30.9995 58.9471 30.9277C58.9545 30.901 58.9556 30.8939 58.9749 30.8299C58.9942 30.766 59.0315 30.6454 59.0548 30.5658C59.078 30.4861 59.086 30.4509 59.0904 30.4306C59.0948 30.4103 59.0953 30.406 59.0959 30.4015" stroke="black" stroke-width="0.2" stroke-linecap="round"/>
<path d="M59.2788 30.0651C59.2793 30.0646 59.2835 30.0466 59.2969 30.005C59.3146 29.95 59.3451 29.8988 59.3604 29.8593C59.3691 29.8368 59.3701 29.819 59.3674 29.8042C59.3631 29.7794 59.3036 29.7961 59.2714 29.792C59.2591 29.7904 59.2404 29.7916 59.2297 29.7933C59.2191 29.7949 59.2171 29.7983 59.2149 29.8051C59.2041 29.8405 59.1975 29.8717 59.1936 29.9093C59.1919 29.926 59.1861 29.9442 59.176 29.9725C59.143 30.0644 59.1255 30.1213 59.1279 30.1159C59.1334 30.1037 59.1404 30.0699 59.1718 30.0176C59.2033 29.9653 59.2572 29.8948 59.2898 29.8532C59.3438 29.7844 59.3795 29.7508 59.4005 29.7095C59.4333 29.6454 59.2517 29.681 59.2362 29.6784C59.2281 29.677 59.2757 29.665 59.3382 29.6689C59.3982 29.6726 59.4304 29.6908 59.4347 29.6925C59.4538 29.7 59.329 29.6843 59.2933 29.6784C59.2608 29.6731 59.3581 29.665 59.4061 29.6486C59.4187 29.6444 59.4291 29.6424 59.4339 29.6392C59.447 29.6302 59.432 29.6019 59.4297 29.5818C59.427 29.5578 59.3795 29.5463 59.3441 29.5034C59.3238 29.4789 59.32 29.4542 59.3169 29.4477C59.3099 29.4331 59.3111 29.4971 59.3007 29.5331C59.2876 29.5787 59.2739 29.5957 59.2726 29.6201C59.2719 29.6344 59.2697 29.6473 59.2675 29.6581C59.2663 29.6639 59.2646 29.6701 59.2636 29.6618C59.26 29.6307 59.2648 29.5873 59.2892 29.4929C59.3087 29.4173 59.3519 29.288 59.3735 29.2179C59.3959 29.1416 59.3978 29.1007 59.398 29.0441C59.3973 29.022 59.3946 29.0132 59.3908 29.0016" stroke="black" stroke-width="0.2" stroke-linecap="round"/>
<path d="M59.3903 29.0015C59.3965 29.0019 59.4513 29.0208 59.5643 29.0549C59.5982 29.0651 59.615 29.0847 59.6222 29.1007C59.6296 29.117 59.6043 29.144 59.5878 29.1708C59.5653 29.2074 59.5346 29.2412 59.5177 29.321C59.5084 29.3663 59.493 29.4347 59.4658 29.4924C59.457 29.5067 59.4461 29.5215 59.4319 29.5396" stroke="black" stroke-width="0.2" stroke-linecap="round"/>
<path d="M59.7297 28.5098C59.5441 28.4446 59.4375 28.4072 59.3476 28.3823C59.2303 28.3498 59.0332 28.361 58.789 28.3551C58.7229 28.3535 58.6885 28.3484 58.6541 28.3466C58.638 28.3457 58.6249 28.342 58.7538 28.3338C58.8827 28.3256 59.1541 28.3123 59.3209 28.3014C59.5416 28.2823 59.6263 28.2724 59.6637 28.2705C59.6719 28.2701 59.6585 28.2707 59.6228 28.2774" stroke="black" stroke-width="0.2" stroke-linecap="round"/>
<path d="M58.6108 28.2732C58.6113 28.2727 58.5785 28.2723 58.5176 28.2726C58.4896 28.2727 58.4676 28.2743 58.3805 28.2771C58.2935 28.2799 58.142 28.2843 58.0622 28.2857C57.979 28.2871 57.9645 28.2808 57.9176 28.2767C57.8816 28.2753 57.8208 28.2751 57.7896 28.2771C57.7585 28.2791 57.7587 28.2833 57.759 28.2876" stroke="black" stroke-width="0.2" stroke-linecap="round"/>
<path d="M60.2009 33.6499V31.7675" stroke="black" stroke-width="0.2" stroke-linecap="round"/>
<path d="M58.6533 38.3081V31.9557" stroke="black" stroke-width="0.2" stroke-linecap="round"/>
<path d="M58.5464 35.3013H56.9999" stroke="black" stroke-width="0.2" stroke-linecap="round"/>
<path d="M60.0952 33.5049H58.6902" stroke="black" stroke-width="0.1" stroke-linecap="round"/>
<path d="M59.9246 33.4561V31.8322" stroke="black" stroke-width="0.1" stroke-linecap="round"/>
<path d="M59.7146 33.4746V31.8679" stroke="black" stroke-width="0.1" stroke-linecap="round"/>
<path d="M59.491 33.4893V31.8515" stroke="black" stroke-width="0.1" stroke-linecap="round"/>
<path d="M59.2463 33.4771V31.8797" stroke="black" stroke-width="0.1" stroke-linecap="round"/>
<path d="M59.064 33.48V32.0189" stroke="black" stroke-width="0.1" stroke-linecap="round"/>
<path d="M58.8704 33.4785V31.9983" stroke="black" stroke-width="0.1" stroke-linecap="round"/>
<path d="M58.7507 29.3862H57.3738" stroke="black" stroke-width="0.1" stroke-linecap="round"/>
<path d="M58.5798 29.3428V28.6715" stroke="black" stroke-width="0.1" stroke-linecap="round"/>
<path d="M58.189 29.3862V28.575" stroke="black" stroke-width="0.1" stroke-linecap="round"/>
<path d="M57.8748 29.3413V28.4234" stroke="black" stroke-width="0.1" stroke-linecap="round"/>
<circle cx="60" cy="33.8032" r="1" fill="black"/>
<path d="M57.2549 30.2202V32.1926" stroke="black" stroke-width="0.1" stroke-linecap="round"/>
<path d="M57.6252 31.0808C57.6244 31.0808 57.6042 31.0808 57.5728 31.0868C57.4836 31.1039 57.5223 31.3497 57.4717 31.4C57.462 31.4096 57.4438 31.4037 57.4334 31.3986C57.3867 31.3761 57.4199 31.2847 57.4405 31.137C57.4597 30.9998 57.4499 30.8062 57.4542 30.7397C57.4602 30.6492 57.4635 30.5831 57.4754 30.577C57.4808 30.5742 57.4871 30.5876 57.4896 30.6952C57.4922 30.8028 57.4915 31.0082 57.4897 31.1257C57.488 31.2432 57.4854 31.2666 57.4753 31.3339C57.4487 31.5117 57.4289 31.6524 57.4267 31.6987C57.4241 31.7537 57.4194 31.8009 57.4219 31.8944C57.423 31.9332 57.4909 31.9321 57.5354 31.9378C57.5614 31.9411 57.5992 31.9324 57.6313 31.9351C57.6399 31.9358 57.6312 31.9431 57.6213 31.9468C57.58 31.9542 57.5457 31.9603 57.4752 31.9708C57.4561 31.9724 57.4403 31.9724 57.4176 31.9696" stroke="black" stroke-width="0.4" stroke-linecap="round"/>
<path d="M60.6001 33.2115C60.6928 33.2115 61.1808 33.1246 61.7956 32.9263C62.415 32.7266 62.8787 32.4342 63.2025 32.2205C63.6954 31.8953 63.9786 31.6178 64.1466 31.4486C64.3294 31.2748 64.5551 31.0068 64.7057 30.7924C64.7598 30.7086 64.7686 30.6755 64.716 30.6401" stroke="black" stroke-width="0.4" stroke-linecap="round"/>
<path d="M60.1865 34.498C61.3187 35.0083 61.6277 35.2349 62.0416 35.7181C62.3316 36.1597 62.5437 36.5211 62.6533 36.8303C62.7038 37 62.7443 37.1959 62.7745 37.4" stroke="black" stroke-width="0.4" stroke-linecap="round"/>
<path d="M64.9778 30.7944V37.3982" stroke="black" stroke-width="0.2" stroke-linecap="round"/>
<path d="M65.4419 31.1675V37.4772" stroke="black" stroke-width="0.2" stroke-linecap="round"/>
<path d="M65.9312 31.248V37.5478" stroke="black" stroke-width="0.2" stroke-linecap="round"/>
<path d="M66.4268 31.5132V37.6739" stroke="black" stroke-width="0.2" stroke-linecap="round"/>
<path d="M65.0715 37.3334C65.0936 37.3198 65.1156 37.3062 65.3302 37.1532C65.5449 37.0001 65.9514 36.7079 66.1705 36.5489C66.3896 36.3899 66.409 36.3728 66.4313 36.3516" stroke="black" stroke-width="0.2" stroke-linecap="round"/>
<path d="M65.0383 36.4206C65.0483 36.4187 65.1535 36.3476 65.3832 36.1812C65.5269 36.077 65.7408 35.9538 65.8681 35.8732C66.0996 35.7267 66.1982 35.633 66.2689 35.5763C66.3082 35.5474 66.3402 35.5245 66.3596 35.5097C66.3702 35.5014 66.3826 35.4913 66.4007 35.479" stroke="black" stroke-width="0.2" stroke-linecap="round"/>
<path d="M65.0083 35.3285C65.015 35.324 65.0775 35.2768 65.2059 35.1848C65.2739 35.1361 65.3529 35.0904 65.5453 34.9651C65.7376 34.8398 66.0423 34.6382 66.205 34.5295C66.3676 34.4209 66.379 34.4113 66.4019 34.3931" stroke="black" stroke-width="0.2" stroke-linecap="round"/>
<path d="M65.0422 34.1525C65.0617 34.1479 65.1302 34.1229 65.2397 34.0607C65.3187 34.0159 65.4407 33.9369 65.5818 33.8653C65.7229 33.7936 65.8782 33.7299 66.0166 33.6634C66.155 33.5969 66.2717 33.5297 66.3985 33.4585" stroke="black" stroke-width="0.2" stroke-linecap="round"/>
<path d="M64.9946 32.948C65.0469 32.9375 65.0992 32.927 65.3181 32.8241C65.537 32.7212 65.921 32.5262 66.129 32.4201C66.337 32.3141 66.3575 32.303 66.3787 32.2915" stroke="black" stroke-width="0.2" stroke-linecap="round"/>
<path d="M64.9919 31.9017C65.4274 31.752 65.8628 31.6023 66.0938 31.5233C66.3247 31.4443 66.338 31.4405 66.3518 31.4365" stroke="black" stroke-width="0.2" stroke-linecap="round"/>
<path d="M65.2397 37.4786C65.2404 37.4779 65.2442 37.4686 65.2582 37.4417C65.2689 37.4237 65.2868 37.397 65.2976 37.3803C65.3084 37.3636 65.3116 37.3577 65.3245 37.3374" stroke="black" stroke-width="0.2" stroke-linecap="round"/>
<path d="M57 38.6826V32.0789" stroke="black" stroke-width="0.2" stroke-linecap="round"/>
<path d="M57.4641 38.3096V31.9999" stroke="black" stroke-width="0.2" stroke-linecap="round"/>
<path d="M57.9534 38.229V31.9292" stroke="black" stroke-width="0.2" stroke-linecap="round"/>
<path d="M58.449 37.9639V31.8032" stroke="black" stroke-width="0.2" stroke-linecap="round"/>
<path d="M57.0938 32.1436C57.1158 32.1572 57.1378 32.1708 57.3525 32.3239C57.5671 32.477 57.9736 32.7691 58.1927 32.9282C58.4118 33.0872 58.4312 33.1042 58.4535 33.1255" stroke="black" stroke-width="0.2" stroke-linecap="round"/>
<path d="M57.0605 33.0565C57.0705 33.0583 57.1758 33.1295 57.4054 33.2959C57.5492 33.4001 57.7631 33.5232 57.8903 33.6038C58.1218 33.7503 58.2205 33.8441 58.2912 33.9008C58.3305 33.9297 58.3624 33.9525 58.3818 33.9673C58.3924 33.9757 58.4048 33.9857 58.4229 33.998" stroke="black" stroke-width="0.2" stroke-linecap="round"/>
<path d="M57.0305 34.1486C57.0372 34.153 57.0997 34.2003 57.2281 34.2922C57.2962 34.3409 57.3751 34.3866 57.5675 34.5119C57.7598 34.6372 58.0645 34.8389 58.2272 34.9475C58.3898 35.0562 58.4013 35.0657 58.4241 35.084" stroke="black" stroke-width="0.2" stroke-linecap="round"/>
<path d="M57.0645 35.3245C57.0839 35.3292 57.1524 35.3542 57.262 35.4163C57.3409 35.4611 57.4629 35.5401 57.604 35.6118C57.7451 35.6834 57.9004 35.7472 58.0388 35.8137C58.1772 35.8801 58.2939 35.9474 58.4207 36.0186" stroke="black" stroke-width="0.2" stroke-linecap="round"/>
<path d="M57.0168 36.529C57.0691 36.5395 57.1215 36.55 57.3404 36.6529C57.5593 36.7559 57.9432 36.9509 58.1512 37.0569C58.3593 37.1629 58.3798 37.1741 58.4009 37.1855" stroke="black" stroke-width="0.2" stroke-linecap="round"/>
<path d="M57 26.8032V31.8032" stroke="black" stroke-width="0.2" stroke-linecap="round"/>
<path d="M57 26.8032V33.8032" stroke="black" stroke-width="0.2" stroke-linecap="round"/>
<path d="M56 26.8032V31.8032" stroke="black" stroke-width="0.2" stroke-linecap="round"/>
<path d="M56 27.8032V31.8032" stroke="black" stroke-width="0.2" stroke-linecap="round"/>
<path d="M57 31.8032C56.9838 31.7894 56.9676 31.7755 56.8097 31.6196C56.6519 31.4637 56.3529 31.1662 56.1918 31.0042C56.0307 30.8422 56.0164 30.8249 56 30.8032" stroke="black" stroke-width="0.2" stroke-linecap="round"/>
<path d="M57 30.8032C56.9927 30.8013 56.9154 30.7257 56.7469 30.549C56.6414 30.4383 56.4844 30.3075 56.3909 30.2219C56.221 30.0663 56.1486 29.9667 56.0967 29.9065C56.0679 29.8759 56.0444 29.8516 56.0302 29.8358C56.0224 29.827 56.0133 29.8163 56 29.8032" stroke="black" stroke-width="0.2" stroke-linecap="round"/>
<path d="M57 29.8032C56.9952 29.8032 56.9503 29.8032 56.8582 29.8032C56.8094 29.8032 56.7527 29.8032 56.6147 29.8032C56.4766 29.8032 56.258 29.8032 56.1413 29.8032C56.0246 29.8032 56.0164 29.8032 56 29.8032" stroke="black" stroke-width="0.2" stroke-linecap="round"/>
<path d="M57 28.8032C56.9857 28.8032 56.9351 28.8032 56.8544 28.8032C56.7962 28.8032 56.7062 28.8032 56.6022 28.8032C56.4981 28.8032 56.3836 28.8032 56.2816 28.8032C56.1795 28.8032 56.0935 28.8032 56 28.8032" stroke="black" stroke-width="0.2" stroke-linecap="round"/>
<path d="M57 28.8032C56.9622 28.7872 56.9244 28.7712 56.7663 28.6145C56.6081 28.4577 56.3307 28.1607 56.1804 27.9992C56.0301 27.8376 56.0153 27.8207 56 27.8032" stroke="black" stroke-width="0.2" stroke-linecap="round"/>
<ellipse cx="57.5" cy="31.3032" rx="0.5" ry="1.5" fill="black"/>
<path d="M58.7984 34.5646C58.849 34.5619 58.9684 34.5478 59.0134 34.5362C59.0762 34.5201 59.158 34.4749 59.2499 34.4134C59.2717 34.3988 59.2823 34.3822 59.2827 34.3775C59.2861 34.3421 59.2191 34.4542 59.1657 34.5017C59.0795 34.5786 58.8411 34.589 58.7579 34.5911C58.617 34.5947 58.7455 34.217 58.7629 34.1255C58.7932 33.9666 58.7862 33.7323 58.8127 33.6562C58.8173 33.643 58.8232 33.6338 58.8322 33.6269C58.9079 33.5687 59.0695 33.6068 59.1249 33.6094C59.2052 33.6131 58.8891 33.6399 58.8201 33.6327C58.8035 33.631 58.7892 33.6242 58.7813 33.6279C58.7251 33.6539 58.8717 33.8027 58.9211 33.8817C58.9393 33.9108 58.9574 33.9077 58.9729 33.9029C59.0056 33.8927 59.0396 33.8415 59.0609 33.7843C59.0675 33.7664 59.0478 33.7668 59.0316 33.772C58.9658 33.7931 58.9065 33.8092 58.8634 33.8075C58.7992 33.805 58.977 33.7257 58.995 33.7243C59.0743 33.7182 59.0985 33.9 59.1022 33.932C59.1039 33.9464 59.0899 33.9566 59.0771 33.9586C59.0147 33.9682 58.9836 33.8864 58.9649 33.8675C58.9576 33.8601 58.9459 33.8701 58.94 33.8797C58.9279 33.8993 58.938 34.0143 58.9642 34.1529C58.9719 34.1942 59.0105 34.163 59.03 34.1447C59.0589 34.1175 59.0794 34.0979 59.0942 34.0742C59.1011 34.0632 59.1009 34.0514 59.0987 34.0389C59.0966 34.0265 59.0911 34.0131 59.0866 34.0135C59.04 34.0178 59.0895 34.1437 59.1672 34.3167C59.1836 34.3533 59.1951 34.3675 59.1947 34.3778C59.193 34.4313 58.9969 34.4097 58.8557 34.4128C58.8059 34.4139 58.8033 34.3749 58.805 34.3347C58.8066 34.2945 58.8132 34.2442 58.8235 34.2203C58.8337 34.1963 58.8474 34.2001 58.8729 34.2373C58.8984 34.2744 58.9352 34.3448 58.9595 34.369C59.0192 34.3322 59.0492 34.2973 59.0576 34.2819C59.0643 34.278 59.0758 34.282 59.0762 34.2865" stroke="black" stroke-width="0.2" stroke-linecap="round"/>
<path d="M58.5623 35.3418V36.5725" stroke="black" stroke-width="0.2" stroke-linecap="round"/>
<path d="M58.5552 36.5894V37.6714" stroke="black" stroke-width="0.2" stroke-linecap="round"/>
<path d="M58.5581 33.9902V35.2509" stroke="black" stroke-width="0.2" stroke-linecap="round"/>
<path d="M58.5537 33.062V34.0714" stroke="black" stroke-width="0.2" stroke-linecap="round"/>
<path d="M58.5806 32.0542V33.0726" stroke="black" stroke-width="0.2" stroke-linecap="round"/>
<path d="M56.0518 31.8345H57.6366" stroke="black" stroke-width="0.2" stroke-linecap="round"/>
<path d="M56.0988 31.6522C56.0999 31.6527 56.1479 31.6732 56.2057 31.6882C56.2451 31.6984 56.1449 31.5971 56.1211 31.5559C56.1024 31.5237 56.0954 31.4656 56.0862 31.377C56.0813 31.3289 56.0824 31.2738 56.0833 31.2356C56.0856 31.1459 56.0905 31.1177 56.0951 31.1165C56.1136 31.1119 56.1187 31.1575 56.1527 31.1945C56.1775 31.2214 56.2224 31.2599 56.2663 31.2941C56.3102 31.3283 56.353 31.3558 56.4273 31.4209C56.5016 31.4859 56.6061 31.5876 56.6615 31.6423C56.7168 31.697 56.7199 31.7016 56.718 31.705C56.7162 31.7084 56.7093 31.7104 56.6696 31.7038C56.6298 31.6972 56.5573 31.6817 56.5045 31.6654C56.4516 31.6492 56.4207 31.6326 56.3867 31.6105C56.3527 31.5883 56.3166 31.5612 56.2832 31.5321C56.218 31.4752 56.1819 31.4346 56.1688 31.4214C56.1591 31.4115 56.1805 31.4392 56.2398 31.5257C56.2779 31.5769 56.3325 31.6429 56.3663 31.6819C56.4002 31.7209 56.4116 31.7309 56.4237 31.7304" stroke="black" stroke-width="0.2" stroke-linecap="round"/>
<path d="M50.3306 31.8931H56.9837" stroke="black" stroke-width="0.2" stroke-linecap="round"/>
<path d="M57.6335 35.4839C57.7493 35.499 57.8195 35.5267 57.9116 35.5473C57.9292 35.5512 57.9337 35.5351 57.9316 35.5211C57.9294 35.5071 57.9208 35.4906 57.8994 35.4774C57.8487 35.4458 57.7617 35.4261 57.6828 35.3965C57.6389 35.3802 57.7571 35.3972 58.0137 35.4252C58.2481 35.4508 58.3747 35.4388 58.3833 35.4464C58.4237 35.4822 58.2787 35.48 58.1802 35.4833C58.1462 35.4845 58.1061 35.4898 58.0815 35.4976C58.0569 35.5053 58.0492 35.5163 58.0542 35.5279C58.0843 35.5971 58.1834 35.6473 58.298 35.717C58.3797 35.7667 58.4362 35.813 58.4468 35.8312C58.4992 35.9223 58.175 35.7015 58.0867 35.6598C58.0489 35.642 58.0264 35.6287 58.1055 35.6215C58.1847 35.6144 58.3664 35.6132 58.4185 35.6127C58.4705 35.6121 58.3874 35.6121 58.3018 35.6121" stroke="black" stroke-width="0.2" stroke-linecap="round"/>
<path d="M57.5933 35.4572C57.5933 35.4567 57.5933 35.4562 57.6065 35.453C57.6197 35.4499 57.6462 35.4442 57.6538 35.4238" stroke="black" stroke-width="0.2" stroke-linecap="round"/>
<path d="M50.592 31.5H56.4418" stroke="black" stroke-width="0.2" stroke-linecap="round"/>
<path d="M50.5596 31.9409H57.2801" stroke="black" stroke-width="0.2" stroke-linecap="round"/>
<path d="M50.5 31.3032H57V38.8032L50 36.8032L50.5 31.3032Z" fill="black"/>
<path d="M59.1969 30.1401C59.1955 30.1548 59.1759 30.2322 59.1553 30.2788C59.1428 30.309 59.1343 30.3316 59.1327 30.3402C59.1321 30.345 59.132 30.3506 59.125 30.3514" stroke="black" stroke-width="0.2" stroke-linecap="round"/>
<path d="M60.272 29.1665H61.2246" stroke="black" stroke-width="0.04" stroke-linecap="round"/>
<path d="M60.2639 29.23H61.3443" stroke="black" stroke-width="0.04" stroke-linecap="round"/>
<path d="M60.2903 29.1934H61.2466" stroke="black" stroke-width="0.04" stroke-linecap="round"/>
<path d="M59.3961 35.1283C59.4077 35.1628 59.465 35.2827 59.4946 35.3194C59.573 35.4167 59.3445 35.0337 59.2361 34.9273C59.1227 34.8159 58.998 34.8422 58.9669 34.8156C58.9574 34.8074 58.9736 34.7992 58.9894 34.7974C59.0052 34.7955 59.0234 34.7975 59.1531 34.8273C59.2829 34.8571 59.5236 34.9148 59.6867 34.9584C59.9301 35.0234 60.0487 35.0657 60.1695 35.1012C60.3771 35.1623 60.5338 35.2505 60.648 35.335C60.9861 35.6236 61.0541 35.6645 61.0823 35.6787C61.0965 35.6864 61.1106 35.6955 61.1531 35.7249" stroke="black" stroke-linecap="round"/>
<path d="M59.104 35.1245C59.1013 35.1455 59.0847 35.2978 59.0604 35.7055C59.0427 36.0031 59.0489 36.4865 59.0535 36.7724C59.0592 37.1329 59.0834 37.224 59.086 37.2543C59.0873 37.2697 59.0869 37.2853 59.0969 37.265C59.1334 37.1909 59.1858 37.0569 59.3093 36.7141C59.4053 36.4477 59.5252 35.979 59.5943 35.723C59.6634 35.467 59.6668 35.4341 59.6731 35.4233C59.7179 35.3456 59.7612 35.6836 59.8901 35.8385C59.9702 35.9347 60.1373 36.0845 60.2276 36.1758C60.3919 36.3422 60.5227 36.4962 60.6062 36.5613C60.6422 36.5895 60.6811 36.5984 60.7049 36.5926C60.7186 36.5892 60.7253 36.5636 60.726 36.5425C60.7274 36.4992 60.5759 36.3194 60.3681 36.0725C60.2939 35.9844 60.2854 35.9698 60.2802 35.9557C60.2749 35.9416 60.2738 35.9279 60.2983 35.9236C60.3718 35.9106 60.5315 35.9894 60.7801 36.1132C61.0863 36.2658 61.3052 36.3349 61.3691 36.3712C61.5254 36.4602 61.6458 36.6084 61.7401 36.7604C61.8725 36.9742 61.8522 37.1511 61.87 37.1573C61.9017 37.1684 61.8304 36.9693 61.6758 36.6293C61.5841 36.4275 61.4833 36.1583 61.4264 36.0147C61.3696 35.8712 61.3643 35.8594 61.3704 35.8615C61.3989 35.8709 61.4875 36.0249 61.6624 36.359C61.7683 36.5615 61.8846 36.8432 61.9573 37.0366C62.0654 37.3241 62.075 37.4507 62.09 37.4686C62.1087 37.491 62.1357 37.3867 62.1536 37.3158C62.1642 37.274 62.0988 37.0587 61.9847 36.7264C61.9387 36.5922 61.8941 36.5365 61.867 36.5034C61.84 36.4704 61.826 36.4639 61.8015 36.4813C61.777 36.4987 61.7424 36.5403 61.4185 36.6795C61.0945 36.8188 60.4823 37.0545 60.0945 37.1862C59.7066 37.3179 59.5616 37.3385 59.4727 37.3491C59.3838 37.3597 59.3554 37.3597 59.3468 37.3555C59.2402 37.3021 59.7306 37.2694 59.7899 37.1932C59.8243 37.1488 59.8646 36.9746 59.9208 36.7422C59.9719 36.5305 59.9439 36.4141 59.9286 36.3609C59.9006 36.2633 60.0422 36.6166 60.1879 36.8237C60.2758 36.9486 60.4111 37.0999 60.5105 37.2085C60.668 37.3807 60.7846 37.4634 60.8857 37.4825C61.0099 37.4237 61.1329 37.3487 61.2403 37.3043C61.2941 37.2844 61.3467 37.2696 61.3833 37.2295" stroke="black" stroke-linecap="round"/>
<path d="M68.0774 32.6865C68.0774 32.6888 68.1531 32.7285 68.4187 32.9001C68.6134 33.026 68.9101 33.2596 69.5543 33.5847C70.1985 33.9099 71.1763 34.3269 71.7768 34.598C72.3774 34.8692 72.5711 34.982 72.7276 35.0863C72.884 35.1906 72.9973 35.2831 73.1516 35.4472C73.5126 35.831 73.6971 36.1098 73.6783 36.1645C73.6667 36.1981 73.6161 36.2257 73.5321 36.2659C73.4481 36.306 73.3233 36.3533 72.5279 36.4713C71.7325 36.5893 70.2703 36.7767 69.3036 36.8736C68.3368 36.9706 67.9098 36.9715 67.6701 36.9776C67.3209 36.9864 67.2012 37.0198 67.0831 37.0523C67.0579 37.0641 67.0385 37.0808 67.018 37.0968C66.9975 37.1128 66.9764 37.1276 66.9363 37.1428" stroke="black" stroke-linecap="round"/>
<path d="M66.9363 37.1429C66.9407 36.99 66.9574 36.6262 66.9688 36.2298C66.9855 35.6535 66.9735 35.2542 66.9674 35.1887C66.9508 35.0109 66.9358 34.8026 66.9248 34.0339C66.9214 33.7963 66.8997 33.4969 66.9012 33.1307C66.9018 32.9739 66.9086 32.6079 66.914 32.0806C66.916 31.8943 66.9303 31.8733 66.9591 31.8991C67.0518 31.9821 67.2998 32.2277 67.6673 32.4821C67.8865 32.6339 68.0383 32.7435 68.3559 33.0418C68.5997 33.2708 69.0367 33.6296 69.3198 33.8535C69.6029 34.0774 69.7253 34.1484 70.244 34.4005C70.7627 34.6526 71.6741 35.0837 72.1869 35.3336C72.7918 35.6282 72.8954 35.7115 72.9323 35.7485C72.973 35.7895 72.9798 35.8606 72.9626 35.9245C72.9539 35.9572 72.9052 35.9723 72.598 36.0015C72.2907 36.0308 71.716 36.0691 71.3968 36.0936C71.0775 36.1182 71.031 36.1278 70.676 36.1358C70.321 36.1438 69.6589 36.1498 69.2755 36.1585C68.892 36.1671 68.8074 36.1781 68.5651 36.1837C68.3228 36.1894 67.9254 36.1894 67.6661 36.0208C67.4068 35.8522 67.2977 35.515 67.2353 35.1841C67.173 34.8531 67.1607 34.5387 67.1637 34.3083C67.1684 33.9406 67.2693 33.5788 67.3867 33.1881C67.4711 32.9071 67.5365 32.7714 67.5885 32.7339C67.6165 32.7138 67.6634 32.7193 67.6995 32.7255C67.7355 32.7318 67.7633 32.7458 68.2481 33.1795C68.7329 33.6133 69.6738 34.4663 70.214 34.9487C70.7543 35.4312 70.8653 35.5171 70.9452 35.5843C71.1717 35.7747 71.2901 36.008 71.3171 36.1165C71.3254 36.1496 71.2295 36.0786 70.8488 36.0646C70.5024 36.0519 69.8447 36.0462 69.4161 36.0155C68.9875 35.9849 68.8078 35.934 68.6569 35.8793C68.3843 35.7805 68.2088 35.6588 68.1104 35.5735C68.0537 35.5244 67.9755 35.3233 67.8668 35.0413C67.815 34.9068 67.799 34.6429 67.8074 34.2033C67.8149 33.8104 67.9421 33.6118 67.9722 33.5868C68.0116 33.5541 68.0901 33.7036 68.4667 34.191C68.7865 34.6048 69.4451 35.2938 69.4792 35.426C69.5133 35.5582 68.9229 35.0966 68.7619 35.0745C68.6009 35.0525 68.8872 35.484 69.0232 35.6773C69.1592 35.8707 69.1362 35.8128 69.4018 35.7418C69.6673 35.6708 70.2222 35.5884 70.739 35.4733" stroke="black" stroke-linecap="round"/>
<path d="M59.8036 0.973306C59.9163 0.875678 60.0837 0.875678 60.1964 0.973307L61.1238 1.77644C61.3338 1.95828 61.2051 2.30322 60.9274 2.30322H59.0726C58.7949 2.30322 58.6662 1.95828 58.8762 1.77644L59.8036 0.973306Z" fill="black"/>
<path d="M62 75.6978L86.4478 52.626" stroke="black" stroke-linecap="round"/>
<circle cx="86.5" cy="52.3032" r="1.5" fill="black"/>
<path d="M41 59.8032C53.6755 67.3481 69.6727 66.3888 81.3557 57.3832L86 53.8032" stroke="black" stroke-width="0.03" stroke-linecap="round"/>
<path d="M38.9591 54.7015C50.2787 65.5007 67.7562 66.5062 80.2396 57.0764L86.1639 52.6013" stroke="black" stroke-width="0.03" stroke-linecap="round"/>
<path d="M45.6103 63.7113C57.7663 68.9945 71.9134 66.3557 81.3473 57.0453L85.083 53.3586" stroke="black" stroke-width="0.04" stroke-linecap="round"/>
<path d="M39 58.8032L40.7862 68.2444C41.8955 74.1082 44.9689 79.4194 49.5 83.3032" stroke="black" stroke-linecap="round"/>
<path d="M43.9736 68.6321C43.9295 68.5752 43.9073 67.336 43.8464 66.5789C43.8348 66.4357 43.6824 66.1784 43.5526 65.7835C43.2384 64.8274 42.8345 63.9729 42.7706 63.7697C42.7065 63.5658 42.3812 63.3943 42.1201 62.996C42.0599 62.9041 42.0082 62.8389 41.9846 62.8339C41.9298 62.8223 42.0059 63.0496 42.0731 63.2375C42.1268 63.3878 42.5688 64.083 43.2306 65.1403C43.7563 65.9803 43.7774 66.2096 43.9593 66.9514C44.0068 67.1449 44.0004 67.2827 43.9683 67.347C43.7712 67.7415 42.8791 66.4703 42.5445 65.7764C42.4816 65.646 42.49 65.5773 42.5083 65.5338C42.578 65.3681 42.8672 65.4124 43.0491 65.3351C43.0961 65.3151 43.1288 65.2657 43.1738 65.259C43.2188 65.2522 43.2685 65.2783 43.3144 65.3647C43.401 65.5974 43.4509 65.8153 43.463 65.9907C43.4671 66.0989 43.4671 66.246 43.3958 66.4173" stroke="black" stroke-linecap="round"/>
<path d="M43.6908 65.9085C43.6908 65.9037 44.1163 66.0737 44.5043 66.0386C44.7146 66.0195 43.954 65.2374 43.7185 64.9368C43.4831 64.6361 43.5408 64.6461 43.7785 64.7695C44.0163 64.8928 44.4324 65.1291 45.2502 65.8456C46.0681 66.5622 47.275 67.7517 47.8386 68.3435C48.4021 68.9353 48.2856 68.8932 48.1205 68.7951C47.1839 68.2387 46.7017 67.3999 46.6691 67.2968C46.5859 67.0344 47.1467 67.653 47.3058 67.8754C47.5794 68.2577 47.7818 68.8055 47.9066 69.328C48.0101 69.7619 47.8886 70.2209 47.7521 70.7945C47.6751 71.1177 47.6877 71.5267 47.7438 72.1287C47.8 72.7307 47.9263 73.5185 47.9797 73.8979C48.0331 74.2773 48.0099 74.2245 47.8422 73.7106C47.6746 73.1967 47.3633 72.2232 47.1711 71.6573C46.933 70.9561 46.7042 70.606 46.2758 70.034C46.0068 69.6748 45.5779 69.2185 45.3132 68.8946C44.678 68.1178 44.5709 67.5151 44.5154 67.2136C44.4926 67.0896 44.4965 67.0218 44.8054 67.7542C45.1142 68.4866 45.7319 70.0206 46.0738 70.8549C46.5976 72.1329 47.1018 72.5656 47.1584 72.5799C47.2256 72.5968 47.0873 72.3206 46.9217 72.0135C46.726 71.6506 46.5667 71.0253 46.37 70.0235C46.2528 69.4266 46.1819 68.6352 46.1549 68.2154C46.1278 67.7957 46.1675 67.7678 46.3616 68.1506C46.5558 68.5334 46.9031 69.3276 47.2692 70.2554" stroke="black" stroke-width="2" stroke-linecap="round"/>
<path d="M41.2964 65.4878C41.2964 65.4914 41.3053 66.0448 41.3331 66.9679C41.3496 67.5161 41.567 68.206 41.8098 69.0303C41.9292 69.4356 41.9217 69.5908 42.2415 70.4459C42.5452 71.2579 43.1846 72.8191 43.7284 73.9953C44.2722 75.1716 44.7135 75.9109 45.0131 76.4436C45.4774 77.269 45.6348 77.638 45.768 77.7938C46.03 78.1001 46.4054 78.4036 46.7809 78.7799C47.2825 79.2825 47.5501 79.7179 47.7506 79.9053C48.3718 80.4856 48.5963 80.7602 48.7095 80.8665C48.9353 81.0785 48.6346 79.9843 48.4277 79.4075C48.2848 79.0092 47.8285 78.5114 47.2629 77.8254C46.8307 77.3011 46.6398 76.9022 46.4665 76.4383C46.3433 76.1082 46.1943 75.5696 46.0557 75.1706C45.9171 74.7717 45.8051 74.5246 45.3974 73.8979C44.9896 73.2712 44.2894 72.2722 43.8986 71.6937C43.5079 71.1151 43.4479 70.9872 43.4033 70.8824C43.3588 70.7775 43.3315 70.6996 43.2884 70.4883" stroke="black" stroke-width="2" stroke-linecap="round"/>
<path d="M51.0735 83.918H55.4014" stroke="black" stroke-width="2" stroke-linecap="round"/>
<path d="M54.0446 83.4519C54.0399 83.4496 54.0353 83.4473 53.6614 83.2938C53.2874 83.1403 52.5443 82.8356 52.1381 82.6543C51.5476 82.3907 51.4334 82.0303 51.2606 81.8659C51.2355 81.8421 51.3152 81.9846 51.3914 82.0564C51.4845 82.1078 51.6274 82.1322 51.7921 82.1568C51.8659 82.1779 51.9198 82.2165 51.9861 82.2657" stroke="black" stroke-width="2" stroke-linecap="round"/>
<path d="M50.1025 87.0158C50.2851 87.0238 51.0658 86.9697 51.7673 86.793C51.936 86.7505 52.3353 86.6036 53.1142 86.341C53.5398 86.1975 54.0107 85.987 54.3306 85.8393C55.0558 85.5044 55.2283 85.3169 55.2636 85.2799C55.3316 85.2085 54.8431 85.314 53.8347 85.4435C53.0665 85.5117 51.7776 85.5846 51.1329 85.6209C50.4882 85.6572 50.5266 85.6547 50.5682 85.6336" stroke="black" stroke-width="2" stroke-linecap="round"/>
<path d="M54.6514 84.0412C54.659 84.0412 54.8556 84.038 55.1996 84.0026C55.783 83.9426 56.1469 83.0702 56.3459 82.4926C56.4668 82.1416 56.1547 81.3775 55.6393 79.744C55.2969 78.6585 54.9818 76.9963 54.3891 75.4052C53.7965 73.814 52.985 72.3298 52.4666 71.4272C51.7477 70.2484 51.3232 69.7344 50.9522 69.3631C50.7991 69.2213 50.7174 69.1741 50.5295 69.0923" stroke="black" stroke-width="2" stroke-linecap="round"/>
<path d="M50.5295 69.0923C50.9484 70.9245 51.3673 72.7568 51.7405 74.1724C52.1137 75.588 52.4285 76.5314 52.6692 77.3541C53.3523 79.6888 53.4631 80.1373 53.4867 80.2869C53.5031 80.3906 52.7525 79.7851 51.7236 78.7556C50.111 77.1421 49.7563 76.0823 49.6762 75.7009C49.6483 75.5679 49.9786 76.0008 50.6842 76.9193C51.2776 77.6919 52.4322 79.0209 53.1626 79.9799C54.6858 81.9801 54.813 82.3806 55.1054 82.4997C55.1608 82.5223 55.1915 82.3859 55.201 82.2434C55.2234 81.9065 54.8374 81.0351 54.1511 79.5271C53.8082 78.6888 53.476 77.7022 53.1072 76.4621C52.7384 75.222 52.3431 73.7584 51.706 72.2234" stroke="black" stroke-width="2" stroke-linecap="round"/>
<path d="M54.8928 84.7644C55.1141 84.7644 56.0701 84.6409 56.8063 84.2834C57.4161 83.9874 57.258 82.4167 56.8722 80.7403C56.6659 79.844 56.0267 78.342 55.7297 77.4922C55.4327 76.6423 55.4036 76.5168 55.1539 75.8271C54.9041 75.1373 54.4346 73.8869 54.1116 73.0673C53.6265 71.8965 53.3081 71.2831 53.0365 70.8877C52.9162 70.744 52.8316 70.7159 52.6118 70.687" stroke="black" stroke-width="2" stroke-linecap="round"/>
<path d="M48.8838 86.2644C48.8838 86.2674 49.1294 86.5665 49.5314 87.0456C49.7381 87.2919 49.8666 87.3792 49.9717 87.4391C50.0477 87.4824 50.2725 87.4742 50.9815 87.3848C51.5107 87.3182 52.3723 87.129 53.062 86.9468C53.7517 86.7646 54.2406 86.5748 54.673 86.3749C55.1055 86.1749 55.4667 85.9704 55.7811 85.7523C56.0955 85.5341 56.3521 85.3085 56.4986 85.1768C56.7473 84.9532 56.8589 84.7524 56.9593 84.4876C57.0528 84.2409 57.0645 83.8886 57.016 83.4676C56.9886 83.2298 56.8623 82.9586 56.779 82.7656C56.6354 82.4697 56.5209 82.2993 56.4333 82.1932C56.398 82.1516 56.3813 82.1349 56.364 82.1177" stroke="black" stroke-width="2" stroke-linecap="round"/>
<path d="M44.5491 25.2768C44.5679 25.2527 44.6386 25.1408 44.6802 25.0627C44.692 25.0406 44.7063 25.0083 44.7965 24.8746C44.8866 24.7409 45.0514 24.5064 45.1583 24.3263C45.2652 24.1463 45.3093 24.0276 45.3551 23.9243C45.4469 23.7364 45.5208 23.6132 45.5856 23.5081C45.6239 23.439 45.6734 23.338 45.7243 23.2339" stroke="black" stroke-width="2" stroke-linecap="round"/>
<path d="M44.465 25.9922C44.4555 26.0577 44.446 26.1232 44.2353 26.5976C44.0245 27.0719 43.6128 27.9531 43.369 28.46C43.1252 28.9668 43.0619 29.0726 43.0063 29.1791C42.8243 29.5277 42.7931 29.642 42.7561 29.6891C42.6377 29.8399 42.395 30.053 42.3038 30.111C42.226 30.1558 42.1018 30.2832 42.0344 30.3465C42.0221 30.3518 42.0093 30.3539 41.9844 30.342" stroke="black" stroke-width="2" stroke-linecap="round"/>
<path d="M49.959 27.458H56.2793" stroke="black" stroke-linecap="round"/>
<path d="M56.2502 26.9146C56.2531 26.922 56.2804 26.9702 56.3059 26.9992C56.3316 27.0285 56.3905 27.0423 56.4225 27.0777C56.4726 27.1334 56.4863 27.2421 56.4994 27.3081C56.5045 27.3338 56.506 27.3565 56.5135 27.3842C56.5154 27.3915 56.5157 27.3987 56.5132 27.4027C56.5025 27.4203 56.4702 27.418 56.4366 27.4461C56.4154 27.4639 56.3801 27.4717 56.3496 27.4725C56.3244 27.4732 56.4081 27.4876 56.4489 27.4866C56.4811 27.4858 56.5056 27.4423 56.5309 27.4198C56.55 27.4028 56.5539 27.3665 56.5585 27.3241C56.5622 27.2757 56.558 27.2368 56.5493 27.2151C56.5449 27.2065 56.5404 27.2028 56.5324 27.2012" stroke="black" stroke-linecap="round"/>
<path d="M50.3889 23.7817C50.3883 23.7817 50.3877 23.7817 51.1152 24.1926C51.8427 24.6034 53.2983 25.4251 54.1931 25.9121C55.0878 26.3991 55.3777 26.5266 55.5477 26.6064C55.7626 26.7073 55.8199 26.7632 55.8388 26.8021C55.8472 26.8196 55.8219 26.8403 55.7874 26.854C55.753 26.8677 55.7021 26.8758 54.9968 26.8777C54.2916 26.8796 52.9334 26.875 52.073 26.8606C51.2126 26.8463 50.8911 26.8222 50.6903 26.8014C50.418 26.7733 50.3169 26.7336 50.2662 26.7099C50.1956 26.6768 50.1337 26.4757 50.101 26.2072C50.0865 26.0881 50.1069 25.8885 50.1345 25.692C50.1621 25.4955 50.2113 25.3072 50.238 25.1999C50.2698 25.0726 50.2707 25.0092 50.2756 24.8689C50.2791 24.7703 50.2903 24.616 50.3096 24.5505C50.3289 24.4851 50.3573 24.5131 50.6674 24.7209C50.9774 24.9286 51.5681 25.3152 51.9064 25.5319C52.2446 25.7486 52.3125 25.7837 52.4698 25.8448C52.6271 25.9059 52.8719 25.992 53.03 26.0528C53.255 26.1395 53.4137 26.2114 53.5659 26.2592C53.6888 26.2978 53.8458 26.3634 53.9653 26.4533C53.9907 26.4724 54.0072 26.4944 53.9677 26.5078C53.9283 26.5212 53.8305 26.5275 53.4926 26.4875C53.1546 26.4475 52.5795 26.3608 52.2417 26.3046C51.9038 26.2484 51.8207 26.2253 51.5212 26.015C51.2216 25.8046 50.7082 25.4078 50.6141 25.4607C50.52 25.5135 50.8608 26.0282 51.0498 26.3038C51.2388 26.5794 51.2658 26.6005 51.1302 26.4986C50.9946 26.3966 50.6956 26.1711 50.5385 26.0479C50.3814 25.9246 50.3751 25.9105 50.5159 25.9345C50.6568 25.9585 50.945 26.0211 51.2419 26.0856" stroke="black" stroke-linecap="round"/>
<path d="M56.3174 27.8894C56.3172 27.8894 56.317 27.8894 56.3539 27.937C56.3908 27.9847 56.4649 28.0799 56.4911 28.1208C56.5174 28.1616 56.4935 28.1452 56.469 28.1256C56.4445 28.1061 56.4201 28.0839 56.3858 28.0446C56.3516 28.0052 56.3082 27.9493 56.2799 27.9099C56.2515 27.8706 56.2394 27.8494 56.2363 27.8434C56.2332 27.8374 56.2395 27.8471 56.2875 27.8973C56.3355 27.9474 56.4251 28.0376 56.4783 28.0929C56.5315 28.1482 56.5456 28.1659 56.5346 28.1633C56.5235 28.1607 56.487 28.1373 56.4259 28.086C56.3648 28.0347 56.2801 27.9562 56.2794 27.957C56.2788 27.9578 56.3648 28.0403 56.3781 28.0479C56.3914 28.0555 56.3293 27.9856 56.3416 27.9984C56.3539 28.0112 56.4424 28.1087 56.4896 28.1601C56.5368 28.2115 56.5401 28.2138 56.517 28.1858C56.4938 28.1578 56.4442 28.0993 56.4344 28.0887C56.4245 28.0781 56.4561 28.1171 56.4703 28.1341C56.4832 28.1496 56.3809 28.0404 56.3352 28.012C56.3303 28.0127 56.3308 28.0199 56.3384 28.0324C56.3461 28.0449 56.3609 28.0625 56.3737 28.0789" stroke="black" stroke-width="0.03" stroke-linecap="round"/>
<path d="M56.2144 27.7925C56.2161 27.7938 56.2177 27.795 56.2602 27.8543C56.3026 27.9135 56.3857 28.0306 56.4302 28.0927C56.4747 28.1547 56.4781 28.1581 56.4801 28.1544C56.5034 28.1122 56.4575 28.0439 56.4411 28.0291C56.4221 28.012 56.4314 28.1047 56.4369 28.1644C56.4429 28.2288 56.4663 28.2749 56.4727 28.2723C56.488 28.266 56.4643 28.2081 56.4424 28.1505C56.4204 28.0929 56.3846 28.0268 56.3701 28.0022C56.3555 27.9775 56.3632 27.9963 56.375 28.0189C56.3868 28.0415 56.4023 28.0674 56.4184 28.0941" stroke="black" stroke-width="0.02" stroke-linecap="round"/>
<path d="M56.426 27.88C56.425 27.88 56.4406 27.9173 56.4773 27.989C56.4955 28.0247 56.522 28.054 56.5409 28.0806C56.5745 28.1279 56.5991 28.1846 56.6066 28.2272C56.6119 28.2576 56.5261 28.181 56.4868 28.1379C56.4663 28.1155 56.4449 28.064 56.4151 28.0025C56.4058 27.9831 56.4031 27.9904 56.4047 28.0003C56.4063 28.0101 56.4109 28.023 56.4428 28.071C56.4746 28.1191 56.5335 28.202 56.5669 28.2506C56.6077 28.3099 56.6197 28.3281 56.6476 28.354C56.6691 28.3738 56.7028 28.4101 56.7316 28.4382C56.7816 28.487 56.8232 28.5246 56.8531 28.5545C56.865 28.5663 56.872 28.5691 56.8774 28.5715C56.8829 28.5738 56.887 28.575 56.8879 28.5701C56.8908 28.5542 56.8792 28.5323 56.8709 28.5098C56.8665 28.498 56.8648 28.4843 56.8625 28.3439C56.8602 28.2035 56.858 27.9365 56.8584 27.8135C56.8588 27.6906 56.8618 27.7197 56.8617 27.8465C56.8616 27.9732 56.8583 28.1967 56.8538 28.3117C56.8494 28.4266 56.844 28.4263 56.807 28.3929C56.77 28.3595 56.7015 28.293 56.6388 28.226C56.576 28.1589 56.5209 28.0933 56.4871 28.0502C56.44 27.9901 56.426 27.956 56.4239 27.9438C56.4233 27.9407 56.4381 27.9601 56.4729 27.9931C56.5077 28.0261 56.5656 28.0762 56.6467 28.1696C56.7278 28.263 56.8303 28.3982 56.881 28.4675C56.9317 28.5367 56.9275 28.536 56.9189 28.5293C56.9103 28.5226 56.8974 28.51 56.857 28.4496C56.8165 28.3892 56.7489 28.2815 56.7082 28.2131C56.6676 28.1447 56.656 28.119 56.6434 28.0951C56.6191 28.049 56.5895 28.0105 56.5545 27.9625C56.5328 27.9326 56.5072 27.8885 56.4954 27.8707C56.4836 27.8529 56.4875 27.8619 56.5296 27.9098C56.5718 27.9576 56.6522 28.044 56.7255 28.1376C56.7989 28.2312 56.8628 28.3293 56.8622 28.3373C56.8616 28.3453 56.7945 28.2602 56.7512 28.1698C56.7079 28.0794 56.6905 27.9864 56.6816 27.9252C56.6726 27.8641 56.6726 27.8376 56.7031 27.9015C56.7336 27.9654 56.7946 28.1203 56.8147 28.1621C56.8348 28.2038 56.8122 28.1276 56.7969 28.0204C56.7816 27.9133 56.7743 27.7775 56.7708 27.7155C56.7673 27.6535 56.7678 27.6695 56.7881 27.7515C56.8085 27.8335 56.8487 27.9811 56.8686 28.0527C56.8884 28.1244 56.8867 28.1157 56.8833 28.1058C56.8799 28.0959 56.875 28.0851 56.8602 28.0718" stroke="black" stroke-width="0.1" stroke-linecap="round"/>
</svg>
