<svg width="138" height="89" viewBox="0 0 138 89" fill="none" xmlns="http://www.w3.org/2000/svg">
<path d="M0 26.2907C0 11.7707 11.7707 0 26.2907 0C50.0212 0 62.176 29.6591 47.6925 48.4572C24.3534 78.7489 14.5402 106.547 92 75C190.982 34.6871 99.7795 52.4145 40.9153 65.5098C20.0395 70.1539 0 54.3771 0 32.991V26.2907Z" fill="#060000"/>
<path d="M46 42H131.358" stroke="black" stroke-width="4" stroke-linecap="round"/>
<path d="M49.3462 21.525C49.369 20.0729 49.5481 16.5897 51.237 13.2703C52.0385 11.695 53.4344 10.7233 54.7529 9.72947C56.0716 8.73545 57.7468 8.05386 59.862 7.37326C61.0804 6.98123 62.6628 6.72997 65.0873 6.58466C67.5119 6.43934 70.7484 6.46779 73.4419 6.7566C76.1354 7.0454 78.1877 7.59371 80.8845 8.654C83.5813 9.71429 86.8603 11.2699 93.1301 15.2644C99.3999 19.2589 108.561 25.6451 113.391 29.0359C118.463 32.5969 119.146 33.21 121.063 34.5761C122.486 35.5902 124.883 37.1695 126.516 38.2309C130.244 40.5538 131.488 41.3666 132.313 41.9616C132.53 42.1235 132.742 42.2784 132.959 42.438" stroke="black" stroke-width="4" stroke-linecap="round"/>
<path d="M131.778 41.4863C132.549 42.1531 134.588 44.0932 135.166 45.0754C135.629 45.8636 135.441 47.5678 135.232 48.8137C135.062 49.832 134.24 50.5573 133.635 51.1659C132.61 52.1975 129.738 54.03 127.943 55.2402C126.09 56.4894 123.653 57.5456 120.615 58.9188C118.664 59.8009 115.996 61.3029 114.505 62.0861C113.014 62.8694 112.811 62.9508 110.551 63.9085C108.291 64.8663 103.981 66.6979 101.643 67.706C99.0617 68.8194 97.4439 69.4935 94.9876 70.4328C93.2094 71.1655 92.2823 71.5024 91.8784 71.5172C91.6712 71.5151 91.4594 71.4938 91.2412 71.4718" stroke="black" stroke-width="4" stroke-linecap="round"/>
<path d="M96.7246 68.867C97.4938 68.8497 100.803 68.2115 104.666 66.7965C106.744 66.0356 108.98 64.9811 110.413 64.319C112.405 63.399 115.243 61.8836 118.919 59.9606C120.308 59.2338 120.703 58.9606 122.083 58.2153C123.463 57.47 125.81 56.2476 127.449 55.3158C131.641 52.9329 133.29 51.0822 134.05 50.3353C134.697 49.6988 134.84 48.5642 134.785 45.6604C134.745 43.5151 132.965 42.5484 132.83 42.4318C132.267 41.9428 134.123 44.3369 134.873 46.0063C135.607 47.6404 135.574 49.1685 135.214 50.3132C134.842 51.4968 133.671 52.1249 132.602 52.8816C131.78 53.4166 130.963 53.9617 129.87 54.5932C129.603 54.7215 129.395 54.7699 128.817 54.8198" stroke="black" stroke-width="4" stroke-linecap="round"/>
<path d="M57 46H60.5V52.5L57 55V46Z" fill="#060000"/>
<path d="M63 46H66.5V52.5L63 55V46Z" fill="#060000"/>
<path d="M73 46H76.5V52.5L73 55V46Z" fill="#060000"/>
<path d="M78 46H81.5V52.5L78 55V46Z" fill="#060000"/>
<path d="M86 46H89.5V52.5L86 55V46Z" fill="#060000"/>
<path d="M90 46H93.5V52.5L90 55V46Z" fill="#060000"/>
<path d="M93 46H96.5V52.5L93 55V46Z" fill="#060000"/>
<path d="M95 46H98.5V52.5L95 55V46Z" fill="#060000"/>
<path d="M97 46H100.5V52.5L97 55V46Z" fill="#060000"/>
<path d="M100 46H103.5V52.5L100 55V46Z" fill="#060000"/>
<path d="M103 46H106.5V52.5L103 55V46Z" fill="#060000"/>
<path d="M106 46H109.5V52.5L106 55V46Z" fill="#060000"/>
<path d="M109 46H112.5V52.5L109 55V46Z" fill="#060000"/>
<path d="M106 46H113V52.5L106 55V46Z" fill="#060000"/>
<path d="M112 46H119V52.5L112 55V46Z" fill="#060000"/>
<path d="M117 46H124V52.5L117 55V46Z" fill="#060000"/>
<path d="M123 46H130V52.5L123 55V46Z" fill="#060000"/>
<path d="M127 46H134V52.5L127 55V46Z" fill="#060000"/>
<path d="M82 46H85.5V52.5L82 55V46Z" fill="#060000"/>
<path d="M68 46H71.5V52.5L68 55V46Z" fill="#060000"/>
<path d="M68 46H71.5V52.5L68 55V46Z" fill="#060000"/>
<path d="M51 46H54.5V52.5L51 55V46Z" fill="#060000"/>
<path d="M46 46H49.5V52.5L46 55V46Z" fill="#060000"/>
<path d="M61.5487 50.2877C61.439 50.3777 61.1731 50.5883 60.9491 50.687C60.7908 50.7567 60.5334 50.8467 60.3953 50.9027C60.2573 50.9587 60.2442 50.9729 60.2286 51.0306C60.1864 51.1867 60.1773 51.3665 60.1885 51.5048C60.1937 51.5699 60.2214 51.6216 60.3439 51.7882C60.4665 51.9548 60.6891 52.2339 60.8574 52.454C61.1391 52.8221 61.2566 52.997 61.2839 53.0232C61.3123 53.0505 61.1913 52.8219 60.946 52.3827C60.8355 52.1849 60.7733 52.0268 60.7307 51.9039C60.688 51.7811 60.6719 51.6956 60.6623 51.5527C60.6244 50.9896 60.6857 50.904 60.7283 50.8361C60.7683 50.7722 60.8781 50.7423 61.058 50.6663C61.1675 50.62 61.234 50.5629 61.2655 50.5482C61.2787 50.5421 61.2914 50.5562 61.2984 50.5753C61.3403 50.6903 61.3788 50.81 61.5679 51.149C61.6779 51.3461 61.8301 51.6915 61.9679 51.946C62.1057 52.2006 62.2154 52.3585 62.2811 52.4479C62.3468 52.5373 62.3652 52.5532 62.3914 52.573C62.4175 52.5928 62.451 52.6159 62.4068 52.4812C62.3626 52.3465 62.2398 52.0533 62.1399 51.7346C62.0401 51.4159 61.9669 51.0806 61.9252 50.8222C61.8563 50.395 61.8635 50.1926 61.8578 50.147C61.8474 50.0648 61.8335 49.983 61.7887 49.6219C61.7632 49.4164 61.7085 49.0747 61.6747 48.8777C61.6337 48.6379 61.5945 48.5602 61.5467 48.469C61.4042 48.1968 61.2584 48.0879 61.2216 48.0574C61.2053 48.044 61.1957 48.0324 61.191 48.0549C61.1862 48.0773 61.1871 48.1335 61.2009 48.2828C61.2148 48.4321 61.2418 48.6729 61.2556 48.9866C61.2695 49.3003 61.2694 49.6797 61.2677 49.8855C61.2649 50.2195 61.1321 50.4672 61.0527 50.5658C60.9367 50.71 60.8458 50.7053 60.7959 50.7109C60.7768 50.713 60.7718 50.6876 60.7741 50.6702C60.7886 50.5569 61.0201 50.3417 61.0817 50.215C61.0913 50.1952 61.0931 50.1661 61.0962 49.9817C61.0994 49.7972 61.0999 49.4569 61.0968 49.2567C61.091 48.8802 60.993 48.6776 60.9621 48.6033C60.8942 48.4402 60.6579 48.2201 60.5487 48.1493C60.4824 48.1064 60.4175 48.08 60.3793 48.0532C60.3467 48.0302 60.3307 47.9938 60.3243 47.9457C60.3165 47.8877 60.3382 47.8281 60.3725 47.7789C60.4561 47.6594 60.6317 47.6119 60.7504 47.6145C60.8346 47.6163 60.8809 47.7052 60.9282 47.7898C60.9767 47.8767 60.9421 47.9995 60.8989 48.0607C60.8757 48.0936 60.8254 48.1041 60.7608 48.1153C60.6635 48.1323 60.571 48.1022 60.5096 48.0625C60.4496 48.0237 60.4148 47.9819 60.3978 47.9252C60.3649 47.8153 60.3975 47.7049 60.4322 47.6322C60.516 47.457 60.6832 47.4226 60.7961 47.3991C60.8336 47.3912 60.8696 47.4002 60.9018 47.4084C60.9954 47.4323 61.0657 47.5872 61.089 47.7187C61.1179 47.8818 61.0223 47.9966 60.977 48.0552C60.9411 48.1016 60.7472 48.1134 60.4835 48.111C60.3514 48.1098 60.3038 48.0497 60.2699 48.0056C60.2322 47.9565 60.2313 47.8807 60.2324 47.8144C60.2348 47.6705 60.4913 47.4298 60.618 47.3424C60.7585 47.2454 60.9771 47.3457 61.0044 47.3656C61.0982 47.4341 61.1405 47.6333 61.1406 47.8221C61.1375 47.8626 61.1313 47.8798 61.12 47.9046C61.1086 47.9295 61.0923 47.9616 61.0706 47.9976" stroke="black" stroke-width="0.6" stroke-linecap="round"/>
<path d="M60.9209 48.8267C60.9185 48.8267 60.8022 48.8986 60.5836 49.0374C60.3914 49.164 60.239 49.2519 60.0933 49.2932C60.0086 49.3081 59.9022 49.3108 59.7925 49.3136" stroke="black" stroke-width="0.6" stroke-linecap="round"/>
<path d="M61.6216 48.728C61.6216 48.736 61.6234 48.814 61.6301 48.9497C61.6355 49.0594 61.7091 49.2547 61.8596 49.5803C61.952 49.7585 62.0769 49.9633 62.1734 50.1067C62.27 50.2501 62.3343 50.3259 62.4249 50.428" stroke="black" stroke-width="0.6" stroke-linecap="round"/>
<path d="M54.7272 53.6465C54.6915 53.0979 54.6731 52.763 54.6898 52.6531C54.7542 52.2285 55.3089 51.8899 55.6177 51.8318C55.935 51.7721 56.0891 51.8791 56.4075 51.99C56.4737 52.0131 56.4908 52.0422 56.4659 52.0664C56.308 52.2196 55.9985 52.3603 55.7372 52.5689C55.591 52.6857 55.5653 53.0547 55.5097 53.4067C55.4926 53.5146 55.5009 53.4794 55.5282 53.4167C55.6849 53.0568 55.8311 52.7583 56.0702 52.4942C56.4198 52.108 56.7565 51.927 56.83 51.9131C56.8685 51.9059 56.9112 51.9084 56.9409 51.9219C56.9707 51.9355 56.9867 51.9625 56.9918 51.9615C57.022 51.9559 56.9845 51.8433 56.9617 51.7567C56.9163 51.5836 56.619 51.7867 56.58 51.7906C56.3089 51.8179 57.1039 51.2393 57.1823 51.0694C57.2619 50.8969 57.2235 50.6253 57.1601 50.2446C57.0777 49.7488 56.7405 49.4769 56.6138 49.4168C56.5775 49.3996 56.5291 49.3986 56.4915 49.4019C56.4234 49.4079 56.3656 49.481 56.3145 49.5657C56.2916 49.6036 56.2865 49.6372 56.2972 49.6581C56.3079 49.6789 56.3375 49.6875 56.3769 49.6782C56.4695 49.6564 56.5441 49.5955 56.6042 49.5537C56.6716 49.5068 56.7089 49.4264 56.7116 49.3525C56.7141 49.2809 56.5883 49.2597 56.4958 49.2451C56.4123 49.232 56.3331 49.2579 56.2577 49.3054C56.1723 49.3592 56.127 49.4424 56.1021 49.5103C56.0889 49.5462 56.0936 49.5906 56.1051 49.6232C56.1165 49.6558 56.1395 49.6768 56.1667 49.6885C56.1939 49.7002 56.2247 49.7021 56.2558 49.694C56.406 49.655 56.4976 49.486 56.5474 49.3994C56.5688 49.3621 56.5668 49.3305 56.5494 49.3082C56.5319 49.2859 56.4952 49.2718 56.4596 49.2684C56.424 49.2649 56.3907 49.2726 56.3654 49.2889C56.3162 49.3203 56.296 49.3899 56.2894 49.4578C56.2739 49.6165 56.529 49.728 56.6255 49.9199C56.8111 50.2894 56.7559 50.6594 56.7196 50.8807C56.6968 50.9377 56.6581 51.0184 56.5823 51.1525C56.5065 51.2866 56.3948 51.4715 56.2403 51.717" stroke="black" stroke-width="0.6" stroke-linecap="round"/>
<path d="M50.2108 48.997C50.2108 48.9993 50.2108 49.0998 50.2359 49.2411C50.2444 49.2893 50.3111 49.2649 50.3532 49.2314C50.4396 49.1625 50.4773 49.0676 50.4893 49.0027C50.4953 48.9705 50.4595 48.9386 50.4094 48.9152C50.2919 48.8604 50.1735 48.863 50.1121 48.8796C50.0501 48.8964 50.056 49.1095 50.0713 49.3194C50.0761 49.385 50.1174 49.3608 50.1542 49.3397C50.3089 49.2511 50.4247 49.22 50.4686 49.1798C50.4907 49.1596 50.4923 49.1225 50.4731 49.1023C50.4251 49.0517 50.3251 49.0698 50.2648 49.0864C50.1516 49.1176 50.2041 49.2922 50.2214 49.3522C50.2644 49.5007 50.446 49.5721 50.4981 49.7508C50.6002 50.1009 50.2871 50.6003 50.023 51.0136C49.853 51.2797 49.6534 51.3238 49.388 51.5441C49.2195 51.684 49.0674 51.8435 48.7804 51.9847C48.6897 52.0293 48.618 52.0578 48.5659 52.0727C48.5244 52.0846 48.5906 51.9639 48.6339 51.9057C48.6827 51.8402 48.9798 51.6732 49.4464 51.4292C50.0034 51.1379 50.1906 51.0846 50.2704 51.0448C50.2999 51.03 50.3202 51.0707 50.3287 51.1101C50.3651 51.2796 50.2664 51.4432 50.2542 52.1142C50.2479 52.4565 50.471 52.801 50.5866 52.9795C50.621 53.0326 50.538 52.6992 50.4693 52.2834C50.3646 51.6507 50.426 51.2175 50.4346 51.1181C50.4573 50.8543 50.5643 50.4855 50.6873 50.1986C50.7661 50.0149 50.7152 49.8298 50.6793 49.572C50.6441 49.3193 50.5897 50.0258 50.5468 50.0752C50.4222 50.2189 50.0911 50.0978 49.3225 50.0193C49.1478 49.9925 49.089 49.9637 49.0293 49.944C48.9696 49.9242 48.9109 49.9143 48.8503 49.9042" stroke="black" stroke-width="0.6" stroke-linecap="round"/>
<path d="M77.2543 48.6528C77.2398 48.6748 77.1979 48.7423 77.1751 48.8493C77.1698 48.8745 77.1692 48.8907 77.1753 48.8994C77.209 48.9475 77.3335 48.9002 77.4204 48.8551C77.4752 48.8267 77.4581 48.7416 77.4496 48.6871C77.4462 48.6655 77.4239 48.6621 77.4009 48.6648C77.3483 48.6711 77.3053 48.6969 77.2765 48.7144C77.2509 48.7351 77.2355 48.766 77.2308 48.8049C77.2292 48.8242 77.2292 48.8429 77.2292 48.8621" stroke="black" stroke-width="0.6" stroke-linecap="round"/>
<path d="M77.2944 48.9004C77.333 48.907 77.4297 48.917 77.6076 49.0514C77.695 49.1176 77.809 49.2414 77.8942 49.3373C78.0359 49.4966 78.0844 49.5974 78.1112 49.6642C78.1529 49.7873 78.1817 49.884 78.1873 49.9501C78.1894 49.9973 78.19 50.0722 78.1825 50.1387" stroke="black" stroke-width="0.6" stroke-linecap="round"/>
<path d="M77.7104 48.8758C77.7104 48.8747 77.7592 48.8736 77.8414 48.8704C77.8918 48.8632 77.9339 48.8395 78.0718 48.6939C78.1849 48.5673 78.3855 48.3336 78.5922 48.0928" stroke="black" stroke-width="0.6" stroke-linecap="round"/>
<path d="M72.1079 50.2207C72.1608 50.2207 72.3099 50.2284 72.7244 50.4727C72.8862 50.5868 73.0945 50.7499 73.2523 50.8866C73.4101 51.0233 73.5112 51.1286 73.6483 51.2679" stroke="black" stroke-width="0.6" stroke-linecap="round"/>
<path d="M72.0513 50.1474C72.0533 50.1474 72.0553 49.9383 72.0605 49.641C72.062 49.5527 72.072 49.5919 72.0758 49.6233C72.0822 49.6769 72.0863 49.7361 72.1066 49.8054C72.1267 49.8744 72.2548 50.0129 72.4812 50.2129C73.0028 50.4424 73.1573 50.5299 73.2624 50.6108C73.3154 50.6545 73.3678 50.7038 73.43 50.7722" stroke="black" stroke-width="0.6" stroke-linecap="round"/>
<path d="M33.0693 42.7685C23.976 43.0397 16.3958 36.2631 16.1384 27.6326C15.8811 19.0022 21.9356 24.8529 31.0289 24.5818C40.1223 24.3106 48.811 18.0203 49.0684 26.6508C49.3257 35.2812 42.1627 42.4974 33.0693 42.7685Z" fill="#EDE6D6"/>
<path d="M45.5 32.5734C45.5 34.2303 41.4706 35.5734 36.5 35.5734C31.5294 35.5734 27.5 34.2303 27.5 32.5734C27.5 30.9166 31.5294 29.5734 36.5 29.5734C41.4706 29.5734 45.5 30.9166 45.5 32.5734Z" fill="black"/>
<path d="M37.0762 34.5517C36.0036 34.5836 35.0942 33.2693 35.0449 31.6173C34.9957 29.9652 35.7228 30.0979 36.7954 30.0659C37.868 30.0339 38.8798 29.8494 38.929 31.5015C38.9783 33.1535 38.1488 34.5197 37.0762 34.5517Z" fill="#EDE6D6"/>
</svg>
