<svg width="198" height="169" viewBox="0 0 198 169" fill="none" xmlns="http://www.w3.org/2000/svg">
<path d="M26.2209 122.583C26.2209 122.271 26.2209 121.959 26.1937 116.295C26.1666 110.631 26.1122 99.6251 26.9081 89.6818C27.7041 79.7385 29.3519 71.1913 30.5324 65.5892C32.2253 57.5556 34.6435 51.259 38.9743 42.652C44.4628 31.7442 51.4874 24.4928 55.6596 20.0348C65.1672 9.87564 75.9774 6.14483 80.1271 5.47565C86.0511 4.52033 93.5975 5.10592 99.4199 6.32859C106.598 7.83598 107.861 14.1896 109.456 18.3705C110.736 21.7266 111.87 28.7692 112.511 36.6567C112.812 39.6474 113.399 44.2635 113.744 48.9974C114.088 53.7313 114.172 58.4431 114.259 63.2978" stroke="black" stroke-width="10" stroke-linecap="round"/>
<path d="M129.592 53.1411H130.3" stroke="black" stroke-width="10" stroke-linecap="round"/>
<path d="M129.642 35.6055H129.491" stroke="black" stroke-width="10" stroke-linecap="round"/>
<path d="M126.634 20.3535H126.71" stroke="black" stroke-width="10" stroke-linecap="round"/>
<path d="M118.776 6.61035H119.371" stroke="black" stroke-width="10" stroke-linecap="round"/>
<path d="M33.1885 66.1357H194.082" stroke="black" stroke-width="7" stroke-linecap="round"/>
<path d="M62.0132 75.9365H92.5409" stroke="black" stroke-width="7" stroke-linecap="round"/>
<path d="M74.123 85.9604L74.1992 86.0106" stroke="black" stroke-width="7" stroke-linecap="round"/>
<path d="M25.6582 125.352H57.4194" stroke="black" stroke-width="7" stroke-linecap="round"/>
<path d="M42.1416 127.984V152.384" stroke="black" stroke-width="7" stroke-linecap="round"/>
<path d="M122.855 67.9775V154.433" stroke="black" stroke-width="7" stroke-linecap="round"/>
<path d="M42.8301 153.492C42.8862 154.127 43.8935 156.335 46.6875 158.484C47.9302 159.44 50.4323 160.186 54.431 161.305C58.4298 162.424 64.019 163.622 71.0713 164.377C78.1237 165.132 86.4698 165.409 92.0322 165.339C100.135 165.238 103.434 164.201 104.706 163.864C107.71 163.068 113.421 160.756 115.413 159.165C116.771 158.082 118.233 156.388 119.961 154.677C120.555 154.1 121.033 153.628 121.443 153.124C121.631 152.852 121.779 152.546 122.085 151.95" stroke="black" stroke-width="7" stroke-linecap="round"/>
<path d="M57.4582 65.031C57.4791 65.031 58.2989 65.0241 59.9179 64.9137C61.5393 64.803 65.419 62.9565 71.235 60.047C73.9984 58.6646 76.2131 57.1516 78.1898 55.6742C80.1666 54.1969 81.7955 52.7188 83.5585 50.7941C85.3215 48.8694 87.1692 46.5428 88.6603 44.4689C90.1514 42.395 91.23 40.6443 92.8575 37.4086C94.4851 34.1728 96.629 29.5051 98.094 25.5009C99.559 21.4967 100.28 18.2974 100.755 16.8055C101.23 15.3136 101.437 15.6259 101.727 16.5142C103.067 20.6185 103.189 22.2789 104.187 24.8437C105.086 27.1563 105.768 31.3461 106.421 37.3704C106.78 40.6796 106.643 44.5488 106.748 48.5655C106.853 52.5822 107.062 56.6416 106.246 58.7549C105.43 60.8682 103.583 60.9124 99.5708 61.2846C95.5588 61.6567 89.4381 62.3554 84.2698 62.7153C75.0864 63.3548 71.3363 62.9897 72.2361 62.7029C73.3223 62.3568 76.2023 61.0664 80.6461 59.3831C87.1613 56.9153 88.5541 54.5148 90.2273 52.314C91.6477 50.4457 94.0415 46.9137 96.1977 42.9782C98.3538 39.0426 100.152 34.7752 101.247 31.9493C102.342 29.1234 102.679 27.8682 102.882 27.372C103.085 26.8758 103.143 27.1766 103.128 31.872C103.112 36.5674 103.02 45.6484 103.007 50.5628C102.988 57.6529 104.628 60.3917 105.254 60.9292C105.978 61.5512 107.422 61.2663 108.577 61.0345C109.071 60.9354 109.19 60.3393 108.98 59.519C107.618 54.1849 103.262 50.4201 101.419 49.3417C100.486 48.796 99.3737 49.0859 98.596 49.2077C97.0753 49.4458 96.4653 51.8287 90.7725 57.8951C88.2002 60.6362 97.2789 51.6199 99.2238 48.0248C100.609 45.4648 100.215 42.2031 100.216 42.9257C100.22 45.208 100.22 51.3796 100.243 54.7495C100.266 58.1193 100.309 58.5005 100.275 58.8295C100.03 61.1948 92.9634 59.2971 91.486 58.5573C91.2734 58.4509 91.5249 58.1427 91.9331 57.9299C94.0217 56.8408 97.5766 57.0957 101.036 56.6231C102.241 56.4584 101.991 55.2052 101.899 52.4194C101.808 49.6335 101.796 45.0356 102.095 40.7042C102.394 36.3727 103.004 32.447 103.308 29.1234C103.612 25.7998 103.592 23.1973 103.32 20.43C102.765 14.7807 101.85 11.4456 101.604 10.9503C100.789 9.31513 100.937 16.262 99.3723 20.7541C98.1245 24.3365 95.6959 30.4709 93.9808 34.5201C92.2657 38.5693 91.2713 40.3236 90.2348 41.8848C88.27 44.8443 86.027 47.1582 82.7849 49.9228C80.6592 51.7354 77.2599 54.0146 74.4557 55.8524C71.6515 57.6902 69.4691 58.9242 67.1343 59.9863C64.7995 61.0484 62.3785 61.9013 59.7713 62.6259C57.1641 63.3504 54.4441 63.9207 51.8906 64.2788C49.3372 64.637 47.0327 64.7657 44.2002 64.8532C41.3678 64.9407 38.0771 64.9832 34.5474 64.6004" stroke="black" stroke-width="7" stroke-linecap="round"/>
<path d="M3.5 65.0435H191.968" stroke="black" stroke-width="7" stroke-linecap="round"/>
<path d="M47.0859 127.465V141.351" stroke="black" stroke-width="2" stroke-linecap="round"/>
<path d="M50.0698 128.206V138.788" stroke="black" stroke-width="2" stroke-linecap="round"/>
<path d="M53.54 128.248V135.644" stroke="black" stroke-width="2" stroke-linecap="round"/>
<path d="M56.2192 127.875V132.431" stroke="black" stroke-width="2" stroke-linecap="round"/>
</svg>
