<svg width="307" height="327" viewBox="0 0 307 327" fill="none" xmlns="http://www.w3.org/2000/svg">
<path d="M142.847 80.5C143.397 81.2164 146.155 84.1925 149.367 86.6935C151.842 88.6205 153.33 89.3266 158.059 93.5238C159.487 94.7912 160.668 96.0782 163.779 98.8873C166.89 101.697 171.851 106.036 176.177 109.346C183.781 115.165 188.23 117.227 190.366 118.064C191.964 118.69 194.596 119.751 201.433 122.492C208.27 125.234 219.229 129.63 225.058 131.993C231.27 134.51 231.99 134.881 232.822 135.204C233.887 135.617 239.749 137.852 248.048 140.879C251.064 141.969 251.655 142.15 252.195 142.356C252.734 142.562 253.203 142.787 254.27 143.166" stroke="black" stroke-width="5.5" stroke-linecap="round"/>
<path d="M142.897 81.8872C143.021 82.568 144.062 84.8811 147.022 90.2029C151.161 97.6426 150.402 99.7283 150.97 100.715C151.678 101.947 153.476 102.086 155.921 102.371C160.789 102.938 164.911 102.85 167.269 103.536C170.62 104.509 173.181 105.888 174.569 106.713C175.889 107.497 171.967 105.686 163.835 101.417C157.499 98.0899 154.137 96.1374 153.17 95.2068C152.551 94.6114 150.578 90.6912 149.027 85.9356C148.672 84.8473 151.677 86.3431 155.294 89.0292C158.911 91.7154 163.683 95.5194 166.515 97.706C169.347 99.8926 170.095 100.346 172.411 102.02C174.727 103.694 178.588 106.574 184.695 110.289C190.803 114.003 199.039 118.465 205.266 121.416C211.492 124.368 215.458 125.674 221.987 128.502C228.515 131.329 237.486 135.638 244.102 138.504C250.717 141.37 254.705 142.663 258.46 144.285C262.215 145.907 265.617 147.819 268.062 149.275C270.508 150.73 271.895 151.671 273.323 152.64" stroke="black" stroke-width="7" stroke-linecap="round"/>
<path d="M154.426 101.279C155.174 101.279 156.45 101.381 159.978 103.521C163.098 105.415 168.546 109.532 172.202 111.937C175.859 114.343 177.464 115.062 181.96 117.394C186.456 119.727 193.793 123.651 201.767 127.489C209.741 131.326 218.129 134.958 225.113 137.781C232.098 140.605 237.425 142.511 240.34 143.539C243.256 144.568 243.599 144.662 244.15 144.784" stroke="black" stroke-width="7" stroke-linecap="round"/>
<path d="M163.773 199.22C164.243 199.318 169.382 201.111 176.448 203.881C179.317 205.006 180.783 205.416 182.445 205.843C184.106 206.27 185.931 206.664 198.093 210.742C210.255 214.819 232.698 222.568 249.696 228.949C266.693 235.33 277.565 240.109 284.4 243.02C291.234 245.931 293.702 246.829 295.769 247.734C297.837 248.638 299.429 249.522 300.529 250.155C301.629 250.788 302.188 251.144 302.53 251.568" stroke="black" stroke-width="7" stroke-linecap="round"/>
<path d="M163.712 195.88C164.949 195.833 167.011 195.552 173.348 191.941C178.373 189.078 187.62 183.162 195.434 178.546C203.247 173.93 209.256 170.638 213.284 168.302C219.264 164.832 222.6 162.601 225.376 161.132C227.639 159.79 230.783 157.454 235.761 153.791C238.616 151.812 242.138 149.588 245.941 147.189" stroke="black" stroke-width="7" stroke-linecap="round"/>
<path d="M162.121 196.796V301.987" stroke="black" stroke-width="7" stroke-linecap="round"/>
<path d="M164.155 200.465C164.178 200.465 164.747 200.593 167.024 201.596C171.799 203.698 176.082 206.225 180.569 207.434C183.52 208.23 187.902 209.147 195.317 211.378C202.731 213.609 213.061 217.062 218.819 219.049C224.577 221.035 225.451 221.449 233.075 224.539C240.698 227.629 255.044 233.382 263.352 236.846C271.661 240.31 273.498 241.311 277.44 243.089C281.382 244.868 287.372 247.394 293.592 250.136" stroke="black" stroke-width="7" stroke-linecap="round"/>
<path d="M69.4028 158.081C69.4028 157.882 69.581 157.037 70.9773 154.617C72.1195 152.638 74.4483 149.317 76.1411 147.012C77.834 144.707 78.8986 143.564 80.0486 142.528C81.1986 141.491 82.4018 140.595 83.7979 139.377C85.194 138.159 86.7467 136.646 88.148 135.403C89.5494 134.159 90.7524 133.231 91.7271 132.417C92.7019 131.604 93.412 130.933 96.4157 128.8C99.4193 126.667 104.695 123.093 109.48 120.141C114.265 117.188 118.399 114.967 121.839 113.385C125.28 111.802 127.901 110.926 130.483 110.236C133.064 109.546 135.527 109.069 137.619 108.624C139.711 108.178 141.359 107.779 143.665 107.41C145.972 107.041 148.886 106.715 151.582 106.566C154.278 106.416 156.666 106.455 159.007 106.625C161.348 106.795 163.57 107.096 164.888 107.302C166.207 107.508 166.555 107.611 167.147 107.824C167.74 108.037 168.566 108.358 169.417 108.688" stroke="black" stroke-width="7" stroke-linecap="round"/>
<path d="M161.249 310.584C160.716 310.533 158.708 309.448 157.587 307.723C156.463 305.994 158.47 301.5 160.003 295.616C161.6 289.488 161.488 284.923 161.856 283.066C162.228 281.189 162.278 278.025 162.467 274.491C162.559 272.782 162.953 267.738 163.36 261.133C163.51 258.698 163.624 258.128 163.626 255.851C163.627 253.573 163.532 249.607 163.369 246.526C162.977 241.37 162.625 238.797 162.418 237.763C162.328 237.164 162.267 236.414 162.167 235.598" stroke="black" stroke-width="7" stroke-linecap="round"/>
<path d="M70.7486 156.88C70.383 157.64 65.9641 165.406 63.212 171.043C60.9468 175.683 60.505 182.599 60.1288 188.007C59.937 190.764 60.3192 193.236 60.8585 196.392C61.2789 198.853 63.1786 202.436 65.992 207.454C68.7001 212.283 72.3249 216.149 75.0198 219.127C77.428 221.788 81.3836 225.21 84.4221 227.444C85.1609 227.988 86.214 228.756 89.7574 231.346C93.3008 233.935 99.3112 238.31 103.001 240.884C106.69 243.458 107.876 244.098 109.973 245.097C112.07 246.097 115.042 247.436 120.952 249.758C126.862 252.08 135.619 255.344 141.516 257.822C150.344 261.531 153.687 263.928 154.926 264.72C157.165 266.601 158.878 269.83 159.651 273.989C159.951 276.346 160.064 279.204 159.97 282.956" stroke="black" stroke-width="7" stroke-linecap="round"/>
<path d="M137.025 255.974C137.146 255.974 137.808 256.031 139.297 256.359C141.345 257.114 147.6 259.379 155.631 262.277C158.601 263.407 159.327 263.847 160.356 264.484" stroke="black" stroke-width="7" stroke-linecap="round"/>
<path d="M160.753 228.98C159.57 228.949 156.448 228.608 152.713 226.849C146.053 223.713 143.878 220.872 141.363 217.589C139.996 215.804 139.412 212.972 138.275 207.205C137.157 201.537 138.638 196.941 139.486 194.621C141.684 188.609 144.041 186.092 146.485 184.327C148.953 182.545 151.24 183.336 155.521 183.011C157.418 182.867 160.204 182.347 163.879 182.188C172.016 181.835 178.153 182.521 180.711 182.862C181.746 182.978 182.246 182.978 182.794 183.01C183.342 183.041 183.922 183.105 185.441 183.17" stroke="black" stroke-width="7" stroke-linecap="round"/>
<path d="M150.025 203.467L150.93 203.746" stroke="black" stroke-width="7" stroke-linecap="round"/>
<path d="M159.442 177.125C159.06 177.272 158.438 177.758 157.832 178.562C156.466 180.376 159.316 183.535 160.144 184.305C160.508 184.643 160.901 184.7 161.324 184.686C162.238 184.654 163.162 184.054 163.998 183.107C165.068 181.894 165.286 179.913 165.429 178.351C165.492 177.668 164.987 177.213 164.586 176.911C163.841 176.352 162.725 176.342 161.439 176.451C159.973 176.576 158.496 177.642 157.285 178.849C156.405 179.727 156.459 181.622 156.616 183.675C156.68 184.51 156.96 184.898 157.405 185.233C158.412 185.992 159.554 186.177 160.407 186.29C161.53 186.44 162.56 186.11 163.573 185.287C167.064 182.456 166.952 179.304 166.844 178.207C166.713 177.675 166.428 177.193 166.011 176.91C165.594 176.627 165.054 176.558 164.199 176.486" stroke="black" stroke-width="7" stroke-linecap="round"/>
<path d="M164.199 178.507C164.288 178.507 164.377 178.507 168.447 178.507C172.518 178.507 180.567 178.507 185.642 178.286C195.296 177.864 197.402 175.632 201.306 172.703C203.019 171.417 205.321 170.107 208.674 168.137C212.72 165.76 216.243 162.618 219.391 160.135C222.302 157.838 225.763 155.903 229.741 153.498C234.189 150.494 237.012 148.595 238.386 147.815C239.335 147.241 240.796 146.304 242.3 145.338" stroke="black" stroke-width="7" stroke-linecap="round"/>
<path d="M138.466 215.055C138.5 215.055 138.04 215.25 137.338 215.776C137.018 216.016 137.155 216.568 137.313 217.043C137.47 217.518 137.742 217.994 138.206 218.381C139.203 219.214 141.283 219.371 143.553 219.236C144.537 219.177 145.133 218.728 145.481 218.253C146.16 217.331 145.976 215.403 145.699 213.356C145.576 212.45 144.865 211.957 144.395 211.666C142.312 210.375 138.985 211.519 138.034 212.031C137.624 212.32 137.36 212.669 137.209 213.077C137.059 213.485 137.03 213.942 137.442 215.354" stroke="black" stroke-width="7" stroke-linecap="round"/>
<path d="M157.054 216.971C157.083 216.971 157.534 216.975 158.14 216.783C158.708 216.602 158.083 214.949 158.051 213.871C158.047 213.725 157.595 214.654 157.137 215.297C156.711 215.895 157.379 216.884 157.86 217.627C157.997 217.839 157.507 217.868 157.453 217.997C157.399 218.126 157.69 218.393 158.021 218.617C158.352 218.841 158.714 219.013 159.087 219.191" stroke="black" stroke-width="7" stroke-linecap="round"/>
<path d="M80.6255 168.692C83.0238 168.715 91.7196 169.558 96.1673 170.919C97.2332 171.245 98.2146 172.028 100.134 173.879C103.58 177.202 106.224 181.628 108.058 185.103C109.658 188.133 109.926 190.596 110.138 192.96C110.504 197.031 110.056 200.359 109.034 203.163C108.284 205.221 106.81 208.471 104.655 212.366C102.5 216.26 99.6437 220.676 97.5934 223.512C95.5431 226.349 94.3857 227.472 93.5594 228.192C92.733 228.912 92.2727 229.194 91.424 229.53" stroke="black" stroke-width="7" stroke-linecap="round"/>
<path d="M64.9428 169.904C64.914 169.904 65.5823 169.904 69.5911 169.803C78.8662 169.57 85.4958 169.388 87.2627 170.006C90.6466 171.187 93.5143 173.102 95.0825 174.36C96.2746 175.316 96.7718 176.902 97.3361 178.82C98.0021 181.083 98.162 186.255 98.1596 192.477C98.1585 195.599 96.5658 199.951 94.1308 206.24C89.9531 213.694 87.3746 217.124 85.7565 218.712C84.8729 219.427 83.8624 219.956 82.4949 220.503" stroke="black" stroke-width="7" stroke-linecap="round"/>
<path d="M68.1691 166.91C68.1404 166.91 71.7093 166.916 78.3069 167.127C83.6879 167.298 88.0192 168.846 91.5915 170.308C94.585 171.532 96.0119 172.99 97.5354 174.822C100.97 178.954 103.091 182.715 103.713 185.648C104.927 191.372 105.152 197.036 104.721 200.779C104.296 204.48 101.499 208.101 98.7253 211.907C94.559 217.623 90.5826 219.718 87.545 222.017C87.0118 222.42 86.5586 222.876 86.5077 223.207C86.4139 223.817 87.6498 224.208 88.6368 224.62C89.7311 225.077 90.8185 224.668 91.5158 224.341C92.2592 223.992 94.7295 218.935 98.4252 211.139C99.8942 207.967 100.538 206.386 101.495 203.436C102.451 200.486 103.701 196.215 104.772 191.728" stroke="black" stroke-width="7" stroke-linecap="round"/>
<path d="M104.772 191.727C104.772 191.626 104.582 191.074 104.183 190.139C103.973 189.703 103.75 189.347 103.622 189.512C103.495 189.677 103.472 190.374 103.32 191.184" stroke="black" stroke-width="7" stroke-linecap="round"/>
<path d="M18.8806 195.546C17.7426 194.526 16.4678 192.93 15.6545 190.399C15.3049 189.312 15.2337 187.498 15.1281 185.475C14.9071 181.242 15.2769 178.094 15.8524 176.242C16.9652 172.659 17.9315 171.814 19.2483 169.959C20.2566 168.538 21.7638 168.403 24.5848 167.859C25.2669 167.727 25.7522 167.775 26.1294 167.89C27.3988 168.274 27.7193 169.451 28.2314 170.889C28.8005 172.485 28.2136 174.376 27.5414 175.503C26.9636 176.471 25.389 177.021 23.512 177.234C22.9844 177.294 26.3135 177.953 29.1907 178.154C30.6534 178.256 31.6096 177.186 33.6103 174.756C34.4996 173.676 34.4977 172.755 34.4822 170.725C34.4752 169.808 34.1393 169.054 33.2619 167.796C31.5208 165.301 29.0987 163.359 27.6405 162.252C26.7886 161.604 24.8994 161.22 22.3904 160.691C20.9437 160.386 18.2212 160.397 14.5642 160.48C11.3189 160.553 9.52344 161.927 8.47895 162.91C6.99369 164.307 6.15137 165.781 5.78261 166.441C5.34233 167.229 4.64701 170.009 3.82438 175.436C3.35348 178.543 3.52827 182.457 3.55023 184.634C3.57568 187.157 3.99402 188.475 4.69568 190.493C5.94776 194.094 7.45757 195.371 9.23985 196.74C11.3811 198.385 13.7924 199.39 15.5379 200.131C17.7692 201.078 20.2699 201.61 22.589 201.887C24.871 202.159 26.3589 201.884 27.7891 201.341C28.9254 200.909 30.8506 200.048 32.5846 199.182C35.8485 197.554 38.0268 195.848 40.2379 193.095C41.8287 191.115 43.9809 187.651 45.7215 185.194C47.462 182.736 48.626 181.313 50.0327 179.308C51.4394 177.303 53.0536 174.759 54.2278 172.632C56.2549 168.961 57.0209 166.182 57.478 163.933C58.0191 161.271 58.3814 158.795 58.7769 156.277C59.0177 154.745 59.0812 152.661 59.0776 151.255C59.074 149.85 58.9353 149.177 57.9497 146.077C56.9641 142.977 55.1358 137.469 53.9678 133.298C52.7997 129.126 52.3474 126.456 52.1219 125.195C51.8964 123.935 51.9116 124.163 52.9134 127.249C53.9153 130.334 55.9034 136.269 57.6894 140.853C59.4755 145.436 60.9992 148.489 61.9897 150.658C63.5029 153.972 63.9534 156.178 64.1854 158.75C64.5425 162.709 64.2468 165.71 63.8475 167.268C63.5969 168.245 63.1435 169.574 62.9235 170.118C62.7034 170.661 62.7034 170.372 62.7273 170.112C62.7512 169.852 62.799 169.631 63.8755 166.935C64.952 164.239 67.0557 159.076 68.5724 155.502C70.8792 150.065 72.086 147.258 72.4631 147.646C73.4043 148.614 72.6315 152.66 72.7476 155.048C72.9988 160.215 74.9808 162.524 75.8177 163.398C75.9657 163.552 76.1903 163.617 76.0972 163.547C74.6975 162.494 72.7306 162.147 71.931 162.116C71.5785 162.103 71.3459 162.34 71.1782 162.56C70.918 163.037 70.8187 163.51 70.7249 163.911C70.6352 164.103 70.4597 164.274 70.0621 164.526" stroke="black" stroke-width="7" stroke-linecap="round"/>
<path d="M20.0989 195.378C20.0827 195.378 20.8772 195.378 22.2978 195.35C23.3269 195.329 26.1834 193.837 30.4089 191.367C33.3601 189.642 35.4469 187.513 37.215 185.657C38.1097 184.717 38.6663 183.787 40.3788 181.274C41.6719 179.376 43.9621 176.309 45.4713 174.009C47.841 170.398 48.5878 168.157 48.9087 167.032C49.0361 166.585 49.0673 166.384 49.3782 162.294C49.6892 158.204 50.2728 150.229 50.6401 146.331C51.0073 142.433 51.1406 142.855 51.3251 146.368C51.5095 149.881 51.7411 156.473 51.5441 161.074C51.3471 165.675 50.7145 168.084 50.3447 169.465C49.9748 170.846 49.8869 171.125 49.8755 171.129C49.6103 171.224 50.5383 169.687 51.901 166.694C52.842 164.627 53.8268 161.251 54.3888 158.469C54.9507 155.687 54.9417 153.551 54.826 152.034C54.7102 150.518 54.4879 149.685 54.1937 148.372C53.8996 147.058 53.5402 145.289 53.17 143.466" stroke="black" stroke-width="7" stroke-linecap="round"/>
<path d="M51.0439 112.641C51.0651 112.662 51.1278 114.835 52.2365 120.895C52.9631 124.866 55.3536 130.356 57.0641 134.656C58.7746 138.956 60.0729 141.824 61.4232 144.302C62.7736 146.78 64.1366 148.781 65.0625 149.931C65.9884 151.081 66.4357 151.32 66.6983 150.632C67.5303 148.454 66.9489 146.394 66.6422 145.924C66.3672 145.503 65.3945 145.108 64.5319 144.622C65.886 144.442 67.3722 144.929 67.9363 145.119C68.2454 145.2 68.6009 145.252 69.2728 145.305" stroke="black" stroke-width="7" stroke-linecap="round"/>
<path d="M11.0098 199.657C11.0098 199.727 11.1843 202.902 11.7725 209.165C12.0672 212.303 12.8337 215.305 13.4821 217.681C14.1304 220.058 14.7599 221.705 15.6073 223.442C16.4547 225.179 17.5009 226.956 18.5604 228.42C19.6199 229.884 20.6609 230.982 22.7229 232.46C24.7849 233.938 27.8363 235.762 30.1447 236.929C32.453 238.095 33.9258 238.547 37.401 238.951C40.8762 239.356 46.3092 239.7 51.4889 239.637C56.6687 239.574 61.4305 239.095 66.1246 238.051C70.8188 237.007 75.301 235.412 77.8906 234.524C80.4802 233.635 81.0414 233.5 82.7178 233.372C84.3942 233.243 87.1688 233.123 90.0752 233.055" stroke="black" stroke-width="7" stroke-linecap="round"/>
<path d="M29.0952 228.382C28.7261 228.395 27.0357 228.806 25.4372 229.587C24.0064 230.285 23.0421 232.639 22.4443 235.754C22.1684 237.192 22.5348 238.19 22.8321 238.77C23.6477 240.361 26.773 241.067 30.2265 241.289C32.2001 241.415 33.7458 239.895 34.6173 238.598C35.4807 237.313 35.5972 234.94 35.5331 232.75C35.4807 230.958 33.1511 229.723 31.8268 229.04C30.3631 228.286 28.0238 229.086 27.7708 229.475C26.8775 230.847 27.8282 233.226 28.5642 234.111C28.8351 234.437 29.4429 234.304 30.0258 234.162C30.3147 234.066 30.5896 233.921 30.7403 233.739C30.8911 233.558 30.9093 233.345 30.8277 233.072" stroke="black" stroke-width="7" stroke-linecap="round"/>
<path d="M25.918 206.125C25.918 206.352 26.0836 207.095 26.9575 208.821C28.4464 211.763 30.7977 213.558 32.6576 214.79C33.8794 215.599 35.8096 216.554 37.8276 217.456C39.8455 218.358 41.9296 219.121 44.3226 219.748C46.7157 220.374 49.3547 220.841 53.3996 221.111C57.4446 221.382 62.8157 221.442 65.7673 221.433C69.0885 221.343 70.2665 221.001 71.64 220.525C72.2164 220.309 72.5475 220.143 73.0091 219.761" stroke="black" stroke-width="7" stroke-linecap="round"/>
<path d="M50.3234 217.54C50.0937 218.421 49.823 220.192 50.2568 221.305C50.8448 222.812 52.5393 223.245 54.1204 223.641C54.4731 223.729 54.7769 223.659 54.9966 223.52C55.9564 222.914 55.8192 218.984 55.3609 216.934C54.9624 215.151 51.7225 216.681 51.2566 216.862C50.7426 217.062 50.2247 217.969 49.6735 218.982C49.1307 219.98 50.3838 222.403 51.3272 223.979C51.5897 224.418 52.26 224.64 53.0292 224.782C53.7895 224.692 54.9294 224.18 56.1409 223.468C56.5989 223.162 56.7386 222.967 56.8825 222.766" stroke="black" stroke-width="7" stroke-linecap="round"/>
<path d="M76.45 218.939C77.8239 218.97 81.0074 218.859 82.9168 217.841C84.8869 216.792 86.2107 215.089 87.8545 212.568C89.128 210.615 90.8259 207.008 92.3395 203.215C93.8531 199.421 95.0114 195.478 95.6789 191.983C96.3465 188.489 96.4881 185.563 96.5533 183.959C96.6552 181.454 95.8198 179.965 94.573 178.125C94.1324 177.475 92.7209 176.408 90.8738 174.985C90.0187 174.326 88.3083 173.642 85.6107 172.654C84.4276 172.221 83.567 172.083 81.6734 171.958C79.7798 171.832 76.8652 171.763 74.0999 171.891C71.3345 172.02 68.8066 172.346 67.0633 172.515C64.4446 172.767 63.3374 172.64 62.0907 172.316C61.0354 172.035 59.1221 171.514 57.9745 171.158C56.8268 170.803 56.5028 170.628 55.8047 170.077" stroke="black" stroke-width="7" stroke-linecap="round"/>
<path d="M70.8076 222.021C71.298 222.021 72.2337 222.083 74.1124 223.093C78.0725 226.02 78.9757 227.215 79.5486 228.273C79.646 228.514 79.7355 228.791 79.8277 229.077" stroke="black" stroke-width="7" stroke-linecap="round"/>
<path d="M18.838 197.334C18.8715 197.334 20.4269 197.334 22.9811 197.298C24.4486 197.277 27.295 195.76 31.5753 193.132C37.6126 189.424 39.819 187.259 39.9911 187.517C40.2811 187.953 38.7613 189.08 36.9573 190.642C32.6781 194.348 29.1635 196.597 29.2413 196.734C29.6358 197.433 32.2589 195.664 32.4117 195.615C34.306 194.998 26.6678 197.372 22.9818 197.75C16.9584 198.369 15.6136 197.307 14.5672 196.673C13.8424 196.234 12.4545 194.712 10.7649 192.804C9.85607 191.778 8.97296 188.787 7.63055 184.005C7.01505 181.812 6.72044 180.045 6.64496 179.509C6.03895 175.212 11.8389 189.855 11.9602 189.558C12.2274 188.903 11.1724 187.09 10.5252 183.608C9.87798 180.125 9.22571 174.993 8.88969 172.048C8.48573 168.507 8.66485 167.232 9.11217 166.134C9.53729 165.09 10.9704 165.135 12.9959 165.03C20.7174 164.627 21.6572 164.786 21.8615 164.609C23.5316 163.168 17.0973 166.138 13.1842 169.676C9.35741 173.136 9.47358 176.535 9.33094 179.425C9.19861 182.106 10.3113 172.43 11.4339 169.288C11.8422 168.145 11.9598 167.933 12.1203 167.732C12.2808 167.53 12.4901 167.349 12.6785 167.397C12.8669 167.446 13.0281 167.729 13.049 168.061C13.1568 169.772 12.3237 174.308 12.1438 178.033C12.0261 180.469 11.9102 172.389 11.6023 171.857C11.4612 171.613 11.1012 171.618 10.8796 171.71C10.5216 172.03 9.81491 173.798 8.94955 176.374C8.65044 177.418 8.63565 177.927 8.27686 178.255" stroke="black" stroke-width="4" stroke-linecap="round"/>
<path d="M25.2173 115.934V174.678" stroke="black" stroke-width="4" stroke-linecap="round"/>
<path d="M26.1753 169.472V207.777" stroke="black" stroke-width="4" stroke-linecap="round"/>
<path d="M24.0972 177.968V204.085" stroke="black" stroke-width="4" stroke-linecap="round"/>
<path d="M33.5635 122.924C33.533 122.924 33.5025 122.924 31.1002 122.982C28.6979 123.04 23.9248 123.156 20.2921 123.457C14.2811 123.955 10.886 125.403 9.18233 126.917C8.36186 127.646 8.12846 128.774 8.14646 129.912C8.16446 131.05 8.56815 132.286 9.01641 133.04C9.70986 134.207 12.0435 134.78 15.9005 135.812C20.9406 137.16 25.1159 137.853 27.2862 138.857C30.6194 140.4 31.4018 142.098 32.662 142.819C33.4491 143.269 35.0929 143.298 36.8728 143.255C39.2015 143.198 40.5464 138.965 41.2728 135.761C42.3427 131.041 41.2313 129.498 39.671 126.48C39.0483 125.661 37.5468 124.748 35.2844 123.577C34.279 123.118 33.5636 122.932 32.7603 122.741" stroke="black" stroke-width="4" stroke-linecap="round"/>
<path d="M34.2437 132.575V132.515" stroke="black" stroke-width="4" stroke-linecap="round"/>
<path d="M23.5352 114.308C23.9119 114.402 25.1708 114.591 26.0079 114.46C26.2701 114.419 26.075 114.066 25.869 113.834C25.663 113.602 25.4195 113.41 25.1404 113.315C24.8613 113.22 24.5539 113.229 24.3998 113.361C24.2456 113.493 24.2539 113.747 24.3758 113.836C24.4977 113.925 24.7329 113.84 24.7495 113.71C24.766 113.581 24.5567 113.409 24.3543 113.403C24.1518 113.397 23.9625 113.564 24.3819 114.065" stroke="black" stroke-width="4" stroke-linecap="round"/>
<path d="M300.851 249.699C300.188 249.825 296.337 251.969 287.68 261.581C285.002 264.554 284.456 266.444 283.739 268.28C282.484 271.495 280.801 276.837 279.737 282.67C279.074 286.306 279.007 292.298 279.268 301.012C279.616 312.672 282.063 316.157 283.009 318.975C283.241 319.665 283.627 320.406 283.482 320.85C283.179 321.776 281.034 321.525 270.906 320.403C261.743 319.387 244.461 317.034 225.256 315.094C206.051 313.154 185.46 311.587 174.764 310.56C164.068 309.534 163.89 309.095 163.773 308.477C163.656 307.858 163.605 307.073 163.339 306.592C163.072 306.111 162.592 305.959 161.242 306.021" stroke="black" stroke-width="10" stroke-linecap="round"/>
<path d="M242.775 141.768C242.833 141.768 244.642 142.965 250.551 146.108C261.11 150.707 268.345 153.509 269.531 153.632C270.105 153.688 270.624 153.734 271.521 153.915" stroke="black" stroke-width="10" stroke-linecap="round"/>
<path d="M271.521 153.915C272.574 156.555 273.627 159.196 277.568 167.847C281.508 176.497 288.304 191.078 292.412 200.964C296.52 210.85 297.735 215.599 298.535 219.239C300.044 229.121 300.124 232.616 300.24 236.218C300.279 239.17 300.279 244.405 300.279 249.798" stroke="black" stroke-width="10" stroke-linecap="round"/>
<path d="M247.845 149.713V226.037" stroke="black" stroke-width="10" stroke-linecap="round"/>
<path d="M171.57 196.764C171.558 196.764 171.546 196.764 174.939 195.127C178.332 193.49 185.131 190.216 189.928 187.698C197.441 183.753 200.265 181.676 200.845 181.405C201.445 181.124 202.219 180.695 208.414 176.9C214.152 173.383 225.03 166.432 230.818 162.749C237.693 158.248 239.207 157.096 240.755 155.696C241.114 155.396 241.403 155.216 241.824 154.795" stroke="black" stroke-width="10" stroke-linecap="round"/>
<path d="M177.476 199.951C177.496 199.951 177.804 199.951 179.022 199.658C181.558 199.048 185.309 196.795 189.467 194.109C194.99 190.542 195.884 189.057 199.413 187.037C203.911 184.463 206.905 182.293 207.571 181.76C208.261 181.208 210.886 179.3 214.429 176.712C217.34 174.585 220.092 172.639 224.086 169.666C228.819 166.144 232.264 163.859 233.144 163.451C234.669 162.745 236.14 161.462 237.713 160.387C239.661 159.141 240.698 158.757 241.135 158.438C241.226 158.235 241.051 157.949 240.871 157.654" stroke="black" stroke-width="10" stroke-linecap="round"/>
<path d="M183.978 201.571C184.302 201.543 185.496 201.108 186.981 200.242C188.366 199.433 189.897 198.319 193.951 196.003C197.199 194.147 202.825 190.843 206.865 188.423C210.905 186.003 213.179 184.55 215.398 183.017C219.771 179.997 222.909 177.673 225.873 175.725C227.827 174.442 230.593 172.409 232.727 170.83C236.255 168.15 237.949 166.853 238.533 166.448C238.859 166.207 239.242 165.893 240.282 165.12" stroke="black" stroke-width="10" stroke-linecap="round"/>
<path d="M162.993 108.295V177.695" stroke="black" stroke-width="10" stroke-linecap="round"/>
<path d="M166.817 141.863H237.607" stroke="black" stroke-width="10" stroke-linecap="round"/>
<path d="M169.81 133.282C169.81 133.254 169.81 127.516 170.067 119.097C170.15 116.389 170.84 116.902 171.295 117.528C172.234 118.821 172.89 120.072 174.23 121.176C176.547 123.084 179.801 124.268 187.51 126.838C193.776 128.928 204.877 132.438 205.986 134.239C207.096 136.04 197.894 135.981 191.544 135.757C177.715 135.27 175.192 134.378 173.978 133.543C173.199 133.008 173.418 130.475 173.524 127.764C173.564 126.737 173.84 126.438 174.473 126.706C176.332 127.493 178.04 129.068 181.556 130.169C184.236 131.008 188.859 131.982 194.372 132.598C199.885 133.213 206.18 133.329 209.979 133.606C213.778 133.883 214.892 134.319 216.019 134.643C217.146 134.968 218.253 135.167 219.754 135.483" stroke="black" stroke-width="10" stroke-linecap="round"/>
<path d="M168.264 173.832C168.242 173.832 169.409 173.832 171.373 173.852C172.517 173.864 176.518 173.955 182.348 173.906C185.193 173.882 188.192 173.004 192.927 171.588C195.337 170.868 197.707 169.971 199.29 169.363C200.872 168.755 201.581 168.419 203.921 167.002C206.26 165.584 210.209 163.096 214.777 159.942C219.344 156.789 224.411 153.046 227.152 151.038C229.893 149.03 230.155 148.87 230.422 148.708C230.689 148.547 230.954 148.388 231.714 147.831" stroke="black" stroke-width="10" stroke-linecap="round"/>
<path d="M125.394 147.265L125.681 147.583" stroke="black" stroke-width="10" stroke-linecap="round"/>
<path d="M146.041 140.392V140.539" stroke="black" stroke-width="10" stroke-linecap="round"/>
<path d="M106.942 162.244H106.989" stroke="black" stroke-width="10" stroke-linecap="round"/>
<path d="M64.0169 199.641C64.0169 199.673 63.6165 199.777 62.8105 200.008C62.4048 200.152 62.0058 200.349 61.5909 200.47C61.1759 200.59 60.7569 200.629 59.8218 200.915" stroke="black" stroke-width="10" stroke-linecap="round"/>
<path d="M98.0889 34.0416C98.0889 34.1821 98.1451 34.6538 98.3455 35.0872C98.8494 36.1774 100.153 38.3542 100.798 39.0999C101.248 39.62 102.012 39.98 104.278 40.8213C105.569 41.301 107.746 41.2446 108.901 41.1947C109.43 41.1719 110.119 40.8571 111.817 40.0253C113.093 39.4001 113.82 38.5254 114.355 37.955C115.191 37.065 115.865 35.9991 116.335 35.0703C116.808 34.1333 116.896 33.4403 116.927 32.8167C116.992 31.4848 116.83 30.2254 116.584 29.4744C116.122 28.0644 115.277 27.5397 114.466 26.6846C113.771 25.9521 112.769 25.2892 111.732 24.6459C110.693 24.0011 109.893 23.7269 109.289 23.437C108.22 22.924 107.155 22.6783 106.409 22.5992C104.522 22.3991 103.029 23.2346 101.465 24.2309C100.994 24.5311 100.174 25.5429 99.0084 27.0147C98.33 27.8715 98.1538 28.4854 98.0107 29.0205C97.8516 29.615 97.8683 30.8507 97.9179 32.352C97.948 33.261 98.26 33.782 98.5899 34.303C99.033 35.0028 99.8016 35.518 100.887 36.0468C102.621 36.8914 104.337 37.2155 105.71 37.3049C107.617 37.429 108.926 37.2885 109.346 37.1645C110.909 36.7024 112.465 34.8205 113.163 33.8001C113.696 33.021 113.323 31.8753 113.128 31.362C112.845 30.6146 111.297 29.4353 109.906 28.619C108.298 27.6747 106.906 28.0542 105.907 28.3991C104.53 28.8746 103.746 29.6681 103.582 29.9872C103.282 30.5695 103.334 31.847 103.457 33.2083C103.54 34.1121 104.692 34.4647 105.526 34.7735C105.983 34.9425 106.519 34.9358 107.185 34.8905C108.026 34.8333 108.662 33.4518 108.95 32.6127C109.069 32.2652 108.951 31.927 108.908 31.7095C108.866 31.4976 108.605 31.255 108.299 30.9883C107.765 30.724 106.764 30.6578 105.776 30.6978C105.384 30.7318 105.215 30.7937 104.82 30.8617" stroke="black" stroke-width="6" stroke-linecap="round"/>
<path d="M142.623 23.7896C142.584 23.7896 141.526 23.7896 138.163 23.9222C135.836 24.014 132.258 24.3203 130.319 24.4773C128.19 24.6497 127.183 24.8067 125.865 24.9429C125.198 25.0118 123.823 25.0943 121.549 25.3386C119.576 25.6482 118.135 26.0081 117.207 26.3697C116.791 26.5467 116.486 26.7107 116.133 26.9152" stroke="black" stroke-width="5" stroke-linecap="round"/>
<path d="M96.4884 36.1543C96.4695 36.1543 96.3209 36.2186 95.1245 37.1853C94.0431 38.059 92.0947 39.8262 89.8022 41.984C87.5098 44.1418 84.9569 46.6662 82.6999 49.2519C80.4429 51.8377 78.5593 54.4083 77.268 56.3624C75.9767 58.3166 75.3348 59.5764 74.2595 62.083C73.1842 64.5896 71.6949 68.3049 70.5877 71.6888C69.4804 75.0727 68.8003 78.0127 68.0996 81.0418" stroke="black" stroke-width="5" stroke-linecap="round"/>
<path d="M68.7301 79.8633C68.7199 80.2588 68.4128 82.2104 68.1323 83.1598C68.059 83.4079 68.0506 83.6899 67.8908 84.5893C67.5145 86.7081 66.9992 88.7223 66.8723 89.7646C66.8242 90.1598 66.8265 90.2852 66.7486 94.4096C66.6707 98.534 66.517 106.654 66.6445 112.137C66.7721 117.619 67.1855 120.218 67.5708 122.078C67.956 123.938 68.3005 124.98 68.939 126.783C69.5775 128.586 70.4997 131.118 71.0079 132.564C71.5824 134.294 71.7275 134.724 71.9011 134.977C71.9979 135.091 72.1122 135.177 72.3749 135.407" stroke="black" stroke-width="5" stroke-linecap="round"/>
<path d="M71.1304 132.367C71.1304 132.376 71.1462 132.603 71.5251 133.493C72.3369 135.398 73.4252 136.608 74.2237 137.896C74.9261 138.979 76.2319 140.933 76.9426 142.002C77.6533 143.071 77.7292 143.196 77.8977 143.377" stroke="black" stroke-width="5" stroke-linecap="round"/>
<path d="M89.0251 115.876C89.0251 115.857 88.7238 115.131 88.1889 113.773C87.7297 112.606 87.467 111.024 87.1944 108.47C87.0283 106.914 87.0627 104.806 87.0959 103.372C87.1658 100.352 87.4914 99.3776 87.6091 98.4916C87.6685 98.0441 87.6456 97.5958 87.7673 96.6581C88.0313 94.6243 88.4703 92.3532 88.9152 90.8639C89.2974 89.5849 90.1142 88.0659 91.3176 86.3394C93.6115 83.0504 93.886 82.78 94.0838 82.6224C94.1894 82.5428 94.3058 82.464 94.618 82.1699" stroke="black" stroke-width="5" stroke-linecap="round"/>
<path d="M96.2664 71.4661C96.2664 71.4753 96.2637 72.4399 96.2301 74.0631C96.2093 75.0679 96.0797 76.6492 96.1385 78.633C96.1842 80.1743 97.3929 80.912 97.9643 81.2697C98.543 81.6321 100.101 81.5 101.154 81.3142C102.31 81.1105 103.305 79.7058 104.471 77.7773C105.471 76.1247 105.611 75.0951 105.737 73.9359C105.86 72.8126 105.733 72.0075 105.642 71.7365C105.523 71.3838 104.38 70.5065 102.818 69.3472C101.448 68.3304 99.4364 68.0427 97.9041 67.9725C97.2413 67.9421 96.7489 68.3089 96.1917 68.7601C95.5446 69.2841 95.2754 70.4751 95.3545 71.7893C95.4645 73.6167 96.4897 74.9964 97.1786 75.8313C97.9597 76.7778 99.1527 76.8116 100.402 76.8027C100.927 76.7989 101.275 76.5334 101.572 76.1949C102.314 75.3489 102.221 74.3678 102.09 73.2761C101.987 72.4135 100.959 71.931 100.096 71.6678C99.6106 71.5197 99.1592 71.6999 98.8383 71.9424C98.1955 72.4282 98.186 73.1406 98.1423 74.5446C98.1072 75.6728 98.8517 76.2535 99.6292 76.8706C100.663 77.6914 101.222 77.6425 101.556 77.6601C102.329 77.7008 102.774 76.3406 103.187 75.0619C103.428 74.3128 103.197 73.6864 103.005 73.3652C102.596 72.6801 100.99 72.7076 98.9674 72.6834C98.0876 72.6729 97.3754 73.4819 96.7151 73.9845C96.0232 74.5111 95.5341 74.8145 95.1851 75.3728C94.4108 76.6111 94.3959 79.7654 94.6307 80.8959C94.6576 81.0254 94.8114 81.0751 94.8435 81.0424C94.9692 80.9143 94.5174 80.0256 93.9904 78.4249C93.3408 76.452 93.4062 74.4181 93.4308 73.0612C93.4564 71.6536 94.2082 70.4077 94.8431 69.7107C95.4583 69.0352 96.6021 68.6975 97.5649 68.3565C98.4017 68.0602 99.8728 68.0864 101.558 68.1327C103.375 68.1827 105.039 69.3944 105.914 69.9655C107.33 70.8896 107.539 72.1902 107.697 73.2263C107.889 74.4844 107.369 76.0048 106.729 77.2108C106.228 78.1551 105.524 78.6558 104.84 79.1874C103.881 79.9329 102.626 80.5041 101.432 80.9248C99.2651 81.6883 97.5726 81.2521 96.7618 80.9215C96.2622 80.6161 95.83 80.2934 95.5364 80.0018C95.3985 79.8538 95.2832 79.7058 95.1074 79.4075" stroke="black" stroke-width="5" stroke-linecap="round"/>
<path d="M106.399 72.1326C106.556 72.1326 107.208 72.0548 108.51 71.4373C110.809 70.3467 111.75 69.1439 112.661 68.4839C113.456 67.9073 114.726 67.2562 116.555 66.085C118.435 64.8807 120.295 64.2737 121.538 63.8605C122.326 63.5984 123.283 63.3746 124.717 63.0062C126.356 62.5847 127.606 62.5189 129.606 62.502C131.286 62.4879 134.315 62.4516 135.975 62.4305C137.834 62.402 138.274 62.3644 138.87 62.3191C139.232 62.3037 139.716 62.3037 140.215 62.3037" stroke="black" stroke-width="5" stroke-linecap="round"/>
<path d="M52.116 45.735C52.116 45.7647 52.116 47.6758 52.1314 50.6758C52.1384 52.036 52.4721 53.7059 52.9303 56.0526C53.3634 58.2704 54.2329 59.6587 55.2211 60.8428C55.6372 61.3415 56.8355 61.542 60.3122 61.4699C62.8505 61.4172 64.3078 60.3512 64.638 60.1616C65.5238 59.6531 66.7876 59.0291 67.3717 58.7651C67.9808 58.4899 69.253 57.372 70.4894 55.9023C71.47 54.7368 71.9147 53.5748 72.0668 53.1165C72.4967 51.8206 72.13 49.668 71.7234 48.7626C71.0141 47.1833 70.3985 46.4836 69.7175 45.6688C68.7589 44.5218 67.2756 44.1308 65.9024 43.7372C65.1369 43.5177 63.7624 43.1948 62.148 43.0015C60.5336 42.8083 58.7147 42.7775 57.6951 42.7749C56.5099 42.7719 55.8352 43.014 54.7636 43.5146C52.7184 45.2193 52.1348 46.6552 51.9643 47.3322C51.9356 47.4904 51.9207 47.644 51.9053 47.8022" stroke="black" stroke-width="5" stroke-linecap="round"/>
<path d="M55.4365 47.8021C55.5903 47.6176 57.0713 46.5896 58.9429 45.821C59.6644 45.5247 61.6163 45.5137 64.2529 45.5529C66.7988 45.5908 67.7007 46.7001 68.2768 47.3377C69.4877 48.6778 69.3544 50.3588 69.3691 51.5193C69.3816 52.5191 67.1152 54.5101 65.4211 55.7995C64.1112 56.7965 62.4653 57.1386 61.5314 57.4144C60.8587 57.6131 60.245 57.581 59.6676 57.5275C58.7071 57.4385 57.9286 55.8231 57.1633 53.9755C56.9175 53.3822 56.9284 52.54 56.9657 51.6182C56.9851 51.1399 58.2733 50.3923 60.1283 49.376C61.8211 48.4485 63.985 48.5709 64.85 48.9482C65.751 49.3411 65.3952 51.1954 65.2965 52.1299C65.2078 52.9693 64.318 53.5796 63.8646 53.9139C63.3562 54.2886 62.5904 54.3594 61.1182 54.3441C60.793 54.3408 60.6483 54.1934 60.5492 54.03C60.3354 53.6772 60.3583 53.0939 60.4119 52.5584C60.501 51.6697 63.4888 51.6097 65.7951 51.6221C66.1258 51.6239 66.1098 51.9137 65.718 52.3522C65.3263 52.7906 64.5442 53.4674 63.4632 54.2256C61.0863 55.8925 59.5202 56.758 59.3068 57C58.694 57.6949 57.7076 58.3097 57.1084 58.3304C56.9081 58.1964 56.8127 57.9847 56.7563 57.7419C56.7143 57.6184 56.6449 57.4943 56.5735 57.3664" stroke="black" stroke-width="5" stroke-linecap="round"/>
<path d="M68.4946 43.7097C68.4946 43.6899 68.5254 43.4849 69.1987 42.2052C69.7858 41.0894 71.0946 39.1515 71.7926 38.0588C72.5921 36.807 73.3197 35.4663 74.4434 33.4012C75.2497 31.9192 76.2708 30.5329 77.1846 29.1447C77.6559 28.4287 78.0174 28.0908 78.789 27.2262C80.4135 25.4061 81.8022 24.1545 82.5679 23.5242C83.9941 22.3502 85.4464 21.0727 86.7263 19.9169C87.4383 19.2739 88.3615 18.6129 89.8524 17.6298C91.3433 16.6467 93.3956 15.3863 94.8258 14.5446C96.9787 13.2776 98.4606 12.6445 99.9041 11.9956C100.67 11.651 101.454 11.1662 102.701 10.5569C103.947 9.94767 105.62 9.20067 106.761 8.74328C108.435 8.07241 109.894 7.87867 111.416 7.66615C112.08 7.56616 112.522 7.48211 112.825 7.43882C113.128 7.39553 113.278 7.39553 113.535 7.37842" stroke="black" stroke-width="5" stroke-linecap="round"/>
<path d="M107.81 8.78797C107.845 8.76399 108.335 8.51058 109.966 7.87883C111.108 7.43693 112.96 6.95516 114.133 6.59903C115.305 6.2429 115.762 6.07979 117.009 5.80558C118.256 5.53137 120.279 5.15101 121.448 4.9262C122.872 4.65228 123.264 4.56601 123.772 4.44932C124.15 4.36246 124.76 4.17255 126.241 3.91339C127.723 3.65424 130.053 3.31961 131.866 3.14654C133.679 2.97348 134.904 2.97213 135.615 2.9618C136.486 2.94914 137.435 2.87632 138.675 2.80455C139.234 2.73444 139.752 2.63336 140.484 2.53384C140.804 2.5 141.021 2.5 141.245 2.5" stroke="black" stroke-width="5" stroke-linecap="round"/>
<path d="M89.0997 116.556C88.7314 117.077 87.638 118.789 87.2769 119.684C86.9244 120.559 86.8892 122.37 86.8141 124.212C86.766 125.393 87.4722 126.212 87.9443 126.709C88.8955 127.708 90.225 127.982 90.9985 128.083C92.3443 128.259 93.5407 127.611 94.4737 127.153C95.6629 126.569 96.4049 125.769 96.9173 125.032C97.4804 124.223 97.7159 123.436 97.764 122.863C97.9396 120.768 96.7446 119.301 96.1132 118.816C95.0436 117.994 92.7829 118.174 91.6241 118.454C90.6463 118.689 90.4258 120.087 89.8314 122.128C89.3803 123.677 89.7179 124.701 89.8967 124.938C90.2737 125.437 91.4512 125.235 92.2862 125.027C93.1252 124.818 93.6897 123.577 94.0995 122.836C94.1852 122.682 94.197 122.567 94.1603 122.453C93.9614 121.841 92.6798 121.676 91.7215 121.422C91.0009 121.232 90.6025 120.403 90.3161 119.793C90.0237 119.171 89.9886 118.5 90.0036 118.1C90.0226 117.597 90.5906 117.263 91.3462 116.826C91.93 116.488 94.0863 116.51 95.7967 116.627C97.0428 116.713 97.4762 117.296 97.9305 117.558C98.6911 117.997 99.0897 118.877 99.424 120.314C99.7475 121.706 99.4578 122.796 99.3485 123.239C99.1993 123.845 98.7185 124.589 98.0634 125.46C97.3253 126.442 96.2221 127.194 95.2504 127.87C94.4491 128.428 93.8117 128.636 93.2848 128.788C92.5101 129.012 91.0499 129.045 89.4544 129.033C88.5703 129.026 88.1616 128.755 87.882 128.593C87.3664 128.295 86.7654 126.899 86.3339 125.71C85.8983 124.509 85.9135 122.445 85.9063 120.535C85.901 119.138 86.9322 117.608 87.5352 116.819C87.6286 116.726 87.7017 116.644 87.8135 116.564C87.9252 116.484 88.0735 116.41 88.3782 116.309" stroke="black" stroke-width="5" stroke-linecap="round"/>
<path d="M51.0859 78.8831C50.9253 79.0769 50.6974 79.4374 50.5092 80.0488C50.4052 80.3864 50.5295 80.832 50.734 81.1051C51.1316 81.6362 52.0746 81.5825 52.7833 81.4876C53.0672 81.4497 53.1423 81.2032 53.1922 80.8535C53.242 80.5038 53.2503 79.9999 53.1433 79.6511C52.9611 79.0569 52.3749 78.8109 51.9522 78.6212C51.7393 78.5608 51.5298 78.5732 51.3519 78.6226C51.174 78.672 51.0342 78.7578 50.7477 79.1908" stroke="black" stroke-width="7" stroke-linecap="round"/>
<path d="M51.5771 78.9278C51.5771 78.936 51.5771 78.9443 51.751 73.5586C51.9248 68.1729 52.2725 57.3931 52.6306 46.2866" stroke="black" stroke-width="7" stroke-linecap="round"/>
<path d="M53.9243 77.1506C53.9243 76.9361 53.9344 75.8784 54.4536 72.5792C54.8277 70.2019 55.9704 66.4987 56.9948 63.5384C58.0192 60.5782 59.0298 58.4991 59.624 57.3271C60.2181 56.1551 60.3651 55.9533 60.7953 55.4312" stroke="black" stroke-width="7" stroke-linecap="round"/>
<path d="M52.1021 80.8589C52.1021 81.1015 52.1013 81.6744 52.074 82.5361C52.0475 82.95 51.9952 83.3161 51.9683 93.4571C51.9414 103.598 51.9414 123.503 51.9414 144.011" stroke="black" stroke-width="7" stroke-linecap="round"/>
<path d="M67.1401 119.31C67.1401 119.387 67.1401 119.463 67.1556 120.394C67.1711 121.325 67.2021 123.108 68.467 127.843C69.732 132.577 72.2298 140.207 73.5453 144.348C74.8607 148.489 74.918 148.909 74.9541 149.372C74.9903 149.835 75.0035 150.328 75.027 150.898" stroke="black" stroke-width="7" stroke-linecap="round"/>
<path d="M66.9322 118.414C66.9202 118.414 66.7505 118.414 66.4185 118.365C66.0558 118.313 65.7855 117.887 65.5866 117.423C65.4064 117.002 65.4982 116.536 65.6368 116.131C65.7744 115.728 66.2162 115.59 66.5676 115.534C66.7501 115.504 66.9476 115.525 67.1028 115.59C67.8962 115.924 68.1793 116.999 68.1822 117.338C68.1855 117.728 67.6278 118.164 67.068 118.578C66.686 118.86 66.1682 118.641 65.705 118.433C65.4925 118.337 65.3334 118.246 65.2496 117.981C65.0355 117.304 65.2657 116.618 65.4987 116.248C65.7134 115.906 66.3854 115.835 67.1339 115.87C67.5915 115.891 67.902 116.202 68.1901 116.514C68.4297 116.773 68.4369 117.14 68.3608 117.451C68.2453 117.924 67.5682 117.987 67.2403 118.062C67.0743 118.088 66.9094 118.088 66.7781 118.022C66.6468 117.957 66.5542 117.826 66.3275 117.473" stroke="black" stroke-width="7" stroke-linecap="round"/>
<path d="M67.0381 72.6216C67.0381 73.2237 67.1152 74.8065 67.689 75.5048C67.9198 75.7856 68.7089 75.7403 69.6123 75.7094C70.5017 75.679 71.1486 74.5913 71.8537 73.2944C72.5007 72.1044 72.0157 70.8978 71.85 70.5973C71.1015 69.2397 68.1781 70.483 67.7471 70.7679C67.0377 71.2368 67.1932 73.5431 67.7019 75.4985C67.8431 76.0411 68.2381 76.2651 68.5205 76.4366C68.8056 76.6098 69.511 76.654 70.4259 76.6077C71.0625 76.5755 71.5551 76.0101 72.0461 75.4408C73.2374 74.0595 72.3461 71.4974 72.0616 71.1137C71.767 70.7163 71.1452 70.6398 70.6103 70.5545C70.146 70.5255 69.7542 70.629 69.4029 70.8673C69.2245 71.0021 69.0458 71.1652 68.7926 71.4413" stroke="black" stroke-width="7" stroke-linecap="round"/>
<path d="M57.3495 132.883C57.3495 132.851 57.3395 131.786 56.8438 128.345C56.4957 125.928 55.3968 122.247 54.5633 118.115C53.7298 113.983 53.0532 109.536 52.7317 107.733C52.4101 105.931 52.4642 106.906 52.9873 110.733C53.5103 114.559 54.5005 121.207 55.3814 125.83C56.2623 130.453 57.0037 132.848 59.184 137.374C61.3643 141.901 64.961 148.486 65.5294 148.377C66.0978 148.268 63.529 141.265 60.746 132.598C57.9629 123.932 55.0436 113.815 53.5225 108.394C52.0014 102.974 51.967 102.557 51.9406 100.334C51.9143 98.1107 51.8971 94.094 51.9435 91.7624C52.0005 88.9023 52.2152 88.0647 52.7544 85.014C53.2423 82.2545 54.3693 77.0735 54.971 74.1145C55.6879 70.589 56.0483 69.0369 56.659 67.2076C57.3481 65.5903 58.1631 63.4059 58.9652 61.0227C59.3253 60.0527 59.59 59.569 60.066 58.7876" stroke="black" stroke-width="7" stroke-linecap="round"/>
<path d="M21.5005 60.5581C21.5005 62.2113 21.6759 66.1617 22.4409 68.3743C22.9796 69.9323 23.7352 72.1104 24.7083 74.3934C25.142 75.4109 25.5661 76.0924 28.7642 79.472C31.9622 82.8517 37.9501 88.896 41.4953 92.6657C45.0405 96.4353 45.9614 97.7471 47.008 99.6306C48.0545 101.514 49.1988 103.93 50.0921 106.105C50.9853 108.281 51.5929 110.144 52.1658 112.959C52.7387 115.773 53.2585 119.482 53.5757 121.679C53.893 123.875 53.9919 124.445 54.0667 125.267" stroke="black" stroke-width="7" stroke-linecap="round"/>
<path d="M53.0732 12.9116C53.0732 13.0111 53.0732 13.1107 53.1245 25.3758C53.1758 37.6409 53.2784 62.0687 53.1828 75.7221C53.0872 89.3756 52.7903 91.5147 52.4844 93.7185" stroke="black" stroke-width="7" stroke-linecap="round"/>
</svg>
