<svg width="341" height="309" viewBox="0 0 341 309" fill="none" xmlns="http://www.w3.org/2000/svg">
<path d="M95.0967 109.641C95.1267 109.641 95.6083 109.664 108.31 112.894C120.568 116.011 144.536 122.487 157.716 126.088C170.896 129.688 172.539 130.308 177.958 132.084C183.377 133.86 192.521 136.774 198.85 138.997C205.179 141.219 208.415 142.662 210.849 143.696C214.794 145.37 217.969 146.604 221.673 148.294C226.494 150.494 230.138 152.511 233.546 154.556C239.851 158.339 246.025 161.075 249.41 162.455C251.709 163.541 253.125 164.326 254.279 164.937C254.906 165.243 255.619 165.538 257.198 166.404" stroke="black" stroke-width="5.5" stroke-linecap="round"/>
<path d="M204.744 49.9253C205.245 49.9168 208.249 49.5012 212.533 48.287C216.245 47.2349 219.361 46.4734 221.734 45.6933C223.271 45.1879 225.416 44.2627 229.107 43.2715C232.797 42.2803 237.951 41.2008 242.796 40.3352C247.64 39.4696 252.019 38.8507 264.137 38.5097C276.255 38.1688 295.978 38.1245 306.625 38.1455C317.272 38.1665 318.245 38.254 319.195 38.406C320.146 38.558 321.045 38.7718 321.724 38.92C322.404 39.0683 322.836 39.1445 323.387 39.26" stroke="black" stroke-width="5.5" stroke-linecap="round"/>
<path d="M203.963 51.6139C203.963 51.6903 203.985 52.1577 204.102 52.9737C204.304 54.3826 207.243 55.7118 209.924 56.8255C210.788 57.184 212.231 57.4726 220.92 57.8428C229.609 58.2129 245.535 58.5597 254.086 58.7802C262.637 59.0006 263.331 59.0843 268.881 59.1592C274.431 59.2341 284.816 59.2977 293.995 58.7814C303.174 58.2651 310.832 57.1669 315.361 56.3972C322.775 55.1372 324.384 53.6279 325.895 52.1255C327.519 50.5106 327.115 47.2173 326.863 44.4017C325.346 41.2565 324.103 40.607 322.365 39.6413C321.986 39.424 321.73 39.2917 321.006 39.1538" stroke="black" stroke-width="5.5" stroke-linecap="round"/>
<path d="M209.375 53.1152H323.806" stroke="black" stroke-width="5.5" stroke-linecap="round"/>
<path d="M239.671 55.2373H303.417" stroke="black" stroke-width="5.5" stroke-linecap="round"/>
<path d="M308.342 59.0283C308.787 59.1003 312.821 60.3457 315.875 61.4378C317.97 62.1866 322.187 63.4109 324.731 64.5353C327.171 65.6139 328.76 69.5951 329.367 73.1138C329.867 76.0176 329.475 78.715 329.917 82.1229C331.978 93.6006 332.328 95.3158 332.601 95.9548C332.766 96.2749 332.985 96.5867 333.474 97.4204" stroke="black" stroke-width="5.5" stroke-linecap="round"/>
<path d="M293.211 58.9062C293.577 59.0039 295.823 60.1905 298.43 61.8546C301.193 63.6183 302.327 65.4984 304.128 67.3442C305.622 68.875 307.413 70.1719 309.642 72.1047C311.673 73.8649 312.636 76.5122 313.272 80.2129C313.839 83.5093 313.402 85.8653 313.493 87.9292C313.705 92.78 313.923 98.1471 314.417 101.852C314.746 104.325 315.192 106.177 315.99 109.565C317.634 115.977 318.861 120.445 319.21 121.374C319.396 121.91 319.602 122.578 319.546 123.562" stroke="black" stroke-width="5.5" stroke-linecap="round"/>
<path d="M271.251 60.354C271.708 60.5192 276.29 64.071 281.817 69.6778C283.556 71.4418 284.632 73.2155 285.82 75.0053C287.595 77.6795 288.08 79.4283 288.874 81.2516C289.252 82.1178 289.46 83.2007 289.843 84.709C290.38 86.821 291.331 92.7499 292.452 99.9951C293.014 103.625 293.157 106.217 293.568 108.491C294.156 111.749 295.878 117.474 297.466 121.647C300.139 128.673 302.815 133.332 303.584 134.33C304.166 135.071 304.665 135.593 305.226 136.08C305.536 136.356 305.897 136.691 306.806 137.524" stroke="black" stroke-width="5.5" stroke-linecap="round"/>
<path d="M245.503 59.1665C245.827 59.2385 250.614 62.4656 255.842 67.0418C257.858 68.8064 259.134 69.8023 261.834 71.8552C264.245 73.6879 267.064 76.8353 269.072 78.8041C270.672 80.3722 272.464 82.2922 276.727 88.2289C278.69 90.9624 280.048 93.6693 281.374 97.0478C282.465 99.8309 283.326 104.228 284.068 107.431C284.255 108.236 284.892 112.427 285.914 118.403C286.624 122.551 287.05 125.246 287.628 127.536C288.524 131.085 289.395 134.561 289.937 137.13C290.577 140.162 292.114 144.224 293.694 149.131C294.414 151.569 294.968 153.902 295.324 155.29C295.679 156.679 295.818 157.053 296.253 157.814" stroke="black" stroke-width="5.5" stroke-linecap="round"/>
<path d="M323.698 33.8066C323.863 34.1406 325.45 37.0124 328.629 44.6235C330.177 48.3291 331.814 54.6469 332.921 58.6592C334.46 64.2437 334.564 66.2885 334.801 67.9417C335.324 71.5888 335.985 77.6378 336.358 83.3893C336.539 85.8432 336.582 89.6384 336.353 94.9707C336.124 96.8937 335.666 97.2274 335.195 97.5712" stroke="black" stroke-width="5.5" stroke-linecap="round"/>
<path d="M289.837 178.26C289.268 177.255 287.809 174.538 285.434 169.514C282.687 163.704 281.245 161.586 279.171 156.869C277.083 152.121 277.494 149.563 277.115 143.155C276.867 138.959 276.952 131.486 276.872 127.388C276.783 122.782 275.762 119.915 274.316 116.052C273.515 113.911 273.107 112.989 272.04 110.722C269.387 105.085 266.634 100.59 265.55 99.066C263.976 96.8523 260.257 94.2328 256.041 90.7399C254.629 89.5702 253.036 88.6966 250.225 87.3332C242.427 83.551 240.432 81.9504 238.742 80.47C237.192 79.6143 235.173 78.7218 233.181 77.4792C232.497 77.05 231.587 76.4996 230.542 75.8081" stroke="black" stroke-width="5.5" stroke-linecap="round"/>
<path d="M214.95 88.8462C214.95 88.8149 215.657 88.9767 218.709 90.1067C225.129 92.4842 229.794 94.9594 231.965 96.5447C235.854 99.3859 238.475 102.628 239.906 104.888C243.758 110.971 246.82 114.7 248.132 116.442C249.648 118.456 252.505 123.739 255.085 128.198C255.721 129.298 256.968 131.686 258.452 135.085C259.284 136.99 260.348 139.677 261.654 144.601C262.381 147.343 262.678 150.713 263.356 154.026C264.034 157.339 264.94 160.526 265.659 162.661C266.377 164.796 266.88 165.783 267.974 167.526" stroke="black" stroke-width="5.5" stroke-linecap="round"/>
<path d="M206.688 102.738C207.207 102.803 209.406 103.683 212.544 105.773C214.429 107.029 217.519 109.833 220.201 112.279C222.883 114.725 224.952 116.883 227.371 119.286C229.791 121.689 232.498 124.272 235.63 127.745C238.762 131.218 242.236 135.502 244.459 138.434C246.682 141.367 247.549 142.818 249.181 146.317C250.813 149.816 253.184 155.318 254.515 158.459C255.845 161.6 256.063 162.212 256.254 162.923C256.445 163.633 256.603 164.424 257.092 166.077" stroke="black" stroke-width="5.5" stroke-linecap="round"/>
<path d="M200.368 118.59C200.74 118.61 208.633 123.044 213.988 126.573C215.53 127.59 217.437 129.513 219.796 132.613C221.038 134.473 222.372 136.917 224.344 140.179C226.316 143.441 228.887 147.447 231.868 152.113" stroke="black" stroke-width="5.5" stroke-linecap="round"/>
<path d="M199.056 135.25C199.091 135.25 199.126 131.707 199.257 125.642C199.342 121.718 199.854 119.366 200.15 116.286C200.356 114.135 200.813 110.802 201.361 108.171C201.91 105.54 202.571 103.714 204.473 100.353C206.375 96.9916 209.497 92.1497 211.482 89.2957C214.052 85.5998 216.437 83.8104 218.815 81.8168C220.222 80.6381 222.592 78.174 226.507 74.0551C230.031 69.4668 233.158 65.7844 236.846 63.4361C239.106 62.3007 242.152 61.2796 245.432 60.0767" stroke="black" stroke-width="5.5" stroke-linecap="round"/>
<path d="M57.4414 94.7812C57.7447 94.8596 58.7868 95.26 59.9707 96.0706C60.7972 96.6366 62.0733 97.5291 74.6084 102.645C87.1434 107.761 110.896 117.077 135.963 125.518C161.03 133.96 186.691 141.245 200.318 145.163C213.946 149.08 214.764 149.408 215.976 149.988C217.188 150.568 218.769 151.389 221.479 152.638C227.942 155.618 232.345 157.501 233.905 158.395C236.733 160.015 239.002 161.296 240.779 162.298C244.047 164.408 247.939 166.779 250.969 168.484C252.172 169.189 252.694 169.567 253.231 169.957" stroke="black" stroke-width="7" stroke-linecap="round"/>
<path d="M93.1934 113.93C93.294 113.93 94.8594 113.981 101.311 115.591C106.336 116.844 114.567 120.212 131.905 126.267C149.244 132.323 175.351 141.277 193.728 148.151C212.106 155.025 221.962 159.546 228.643 162.863C235.324 166.181 238.53 168.158 240.334 169.314C243.121 171.099 244.669 172.442 246.499 173.769C247.152 174.243 248.433 174.45 249.459 174.336C250.485 174.222 251.307 173.625 251.893 173.147C252.48 172.669 252.807 172.329 252.566 171.855C251.882 170.514 247.562 169.125 242.573 167.484C238.959 166.296 236.198 165.191 232.366 162.853C230.029 161.426 227.033 159.288 221.736 156.06C216.439 152.833 208.966 148.524 203.019 145.582C197.071 142.641 192.875 141.197 187.262 139.564C181.648 137.931 174.745 136.153 169.65 134.612C164.555 133.071 161.478 131.82 159.366 130.865C156.201 129.287 151.939 127.421 146.294 125.455C143.827 124.714 142.165 124.493 139.816 123.984" stroke="black" stroke-width="7" stroke-linecap="round"/>
<path d="M3.50098 276.152C3.75609 276.063 6.43029 274.416 11.5542 270.793C14.5962 268.643 18.5192 265.835 20.9642 264.169C25.349 261.182 27.116 260.661 31.3913 258.569C34.8368 256.883 40.9957 254.187 44.3106 252.673C47.9561 251.008 51.3857 249.455 56.4403 247.246C59.0298 245.976 62.5516 243.419 67.2263 239.841C69.054 238.417 69.7758 237.789 70.767 236.698" stroke="black" stroke-width="7" stroke-linecap="round"/>
<path d="M73.0382 235.99C73.0154 235.99 77.3042 235.939 85.2514 235.55C88.9093 235.372 91.7609 234.593 101.297 232.342C110.833 230.09 126.956 226.226 135.719 224.03C144.482 221.834 145.397 221.423 146.134 220.922" stroke="black" stroke-width="7" stroke-linecap="round"/>
<path d="M146.019 219.026C146.03 219.026 146.042 219.026 147.417 219.014C148.792 219.003 151.529 218.98 160.878 216.559C170.226 214.138 186.101 209.32 196.979 206.242C207.857 203.164 213.257 201.973 216.315 201.26C219.373 200.546 219.926 200.347 222.519 198.94C225.112 197.532 229.728 194.922 233.786 192.453C237.844 189.984 241.206 187.735 243.482 186.117C246.917 183.676 249.161 181.216 251.374 178.693C253.207 176.832 254.804 175.034 256.105 173.245C256.646 172.478 256.946 171.995 257.164 171.2" stroke="black" stroke-width="7" stroke-linecap="round"/>
<path d="M257.761 176.137C258.029 176.137 264.052 176.612 274.508 177.666C287.811 179.007 293.995 183.938 297.346 186.76C299.503 189.333 300.419 191.02 300.777 192.38C300.902 193.068 300.912 193.754 300.516 195.276" stroke="black" stroke-width="7" stroke-linecap="round"/>
<path d="M292.077 179.196C292.077 179.109 292.091 177.365 292.674 172.033C293.073 168.377 294.366 162.883 295.148 159.489C295.929 156.094 296.335 154.989 297.177 153.136C298.02 151.283 299.288 148.715 300.243 146.952C301.706 144.254 303.224 141.948 304.724 139.355C305.88 137.354 307.739 135.469 310.128 132.778C311.444 131.295 312.764 129.398 314.659 127.319C316.554 125.239 318.931 122.991 320.71 121.107C322.488 119.224 323.596 117.775 325.357 115.02C327.118 112.265 329.499 108.249 331.037 105.437C333.345 101.216 334.095 99.1608 334.635 98.294C335.611 96.7499 335.848 95.5047 335.862 93.0144C335.843 92.4297 335.806 92.1005 335.646 91.2114" stroke="black" stroke-width="7" stroke-linecap="round"/>
<path d="M330.081 86.831C330.081 87.0388 330.059 87.9866 329.929 90.1599C329.74 93.3003 329.399 95.6232 329.03 97.5203C328.751 98.9532 328.023 101.283 327.073 103.648C326.124 106.013 324.908 108.328 323.912 110.232C322.173 113.558 321.114 115.395 320.754 115.639C320.64 115.716 320.888 114.887 322.091 112.402C323.294 109.918 325.501 105.596 326.779 102.797C329.15 97.608 329.011 96.1843 329.162 93.6373C329.267 91.862 329.179 89.0961 328.953 86.5463C328.523 81.7187 327.764 79.1188 327.578 78.4413C326.892 75.9451 325.327 71.7076 323.802 69.4147C323.159 68.4488 321.788 67.3893 319.769 65.8961C317.325 64.089 314.877 63.3516 313.386 62.9901C312.663 62.8425 312.007 62.7677 310.305 62.7033C308.603 62.639 305.876 62.5874 302.644 62.3008" stroke="black" stroke-width="7" stroke-linecap="round"/>
<path d="M316.382 61.9795C318.341 61.8979 322.633 61.5717 323.715 61.73C324.843 61.8952 325.918 67.2686 326.818 70.2991C327.064 71.1273 327.326 73.6771 328.276 79.0886C328.871 82.4807 330.353 87.0529 331.161 88.7333C331.968 90.4137 332.224 89.0303 332.358 86.8964C332.671 81.9279 332.342 78.5778 331.878 77.479C331.178 75.8264 330.023 73.0442 328.702 69.7021C327.609 66.936 326.542 65.7047 326.226 65.1619C324.7 62.5416 321.068 59.8832 319.458 59.0434C318.963 58.7849 318.043 58.6685 317.701 58.5545C316.731 58.2317 321.448 59.8739 325.454 63.2925C327.701 65.21 328.766 67.2864 329.809 69.4938C330.453 71.033 331.33 73.4227 331.823 75.042C332.315 76.6613 332.397 77.4378 332.481 78.3821" stroke="black" stroke-width="7" stroke-linecap="round"/>
<path d="M289.733 61.521C290.104 61.521 290.826 61.5987 292.834 62.6978C294.606 63.6675 297.787 65.6821 299.682 66.9087C302.113 68.483 303.082 69.6912 304.114 71.1275C304.643 71.8643 305.074 72.6929 305.81 74.6886C306.545 76.6843 307.544 79.8414 308.183 82.5863C308.822 85.3311 309.071 87.568 309.218 90.0145C309.365 92.461 309.402 95.0493 309.598 98.0641C309.794 101.079 310.149 104.442 310.918 108.753C311.687 113.064 312.861 118.221 314.07 123.534" stroke="black" stroke-width="7" stroke-linecap="round"/>
<path d="M273.85 60.8828C273.832 60.8828 274.21 61.1453 276.145 62.9799C277.746 64.498 280.392 67.4255 281.934 69.1043C283.812 71.1496 285.163 73.2938 287.184 76.7009C289.111 79.9482 289.919 82.2529 290.393 83.9268C290.722 85.0886 291.102 86.9192 291.5 91.583C291.898 96.2468 292.27 103.697 292.863 108.554C293.456 113.411 294.259 115.449 295.502 118.167C296.745 120.884 298.403 124.22 299.726 126.599C301.05 128.979 301.988 130.301 302.635 131.351C303.282 132.4 303.61 133.136 303.99 134.076" stroke="black" stroke-width="7" stroke-linecap="round"/>
<path d="M292.768 63.6341C291.629 63.071 288.049 61.681 284.687 61.3029C282.762 61.0864 280.363 61.168 279.297 61.1814C278.231 61.1949 278.564 61.2266 280.916 61.9109C283.268 62.5952 287.629 63.931 290.379 64.6943C294.104 65.7284 295.809 65.9841 297.09 66.4913C298.414 67.0158 299.525 67.8706 301.024 69.2291C303.617 71.5777 305.556 74.1435 306.769 76.5733C307.425 78.14 308.163 80.3843 308.599 81.9597C309.036 83.535 309.149 84.3734 309.227 85.3964" stroke="black" stroke-width="7" stroke-linecap="round"/>
<path d="M249.825 60.001C249.81 60.0095 249.991 60.2701 251.597 61.7525C252.974 63.0237 255.655 65.1672 258.87 67.7556C262.084 70.3439 265.794 73.2658 268.847 76.0704C271.901 78.875 274.188 81.4738 275.534 83.0865C277.289 85.1888 277.858 86.4624 278.808 88.9783C279.506 90.8274 280.471 93.9013 281.493 98.3444C282.514 102.788 283.52 108.523 284.462 115.963C285.405 123.404 286.255 132.376 287.036 138.689C287.816 145.001 288.503 148.382 288.958 150.347C289.96 153.431 290.547 154.258 291.292 154.772C291.557 154.84 291.924 154.849 292.302 154.858" stroke="black" stroke-width="7" stroke-linecap="round"/>
<path d="M288.674 144.053C288.674 144.196 288.706 145.671 289.144 149.339C289.416 151.624 290.327 154.692 290.772 156.494C291.32 158.716 291.585 159.972 291.903 162.062C292.09 165.042 291.859 168.459 291.416 171.129C291.266 172.14 291.266 172.453 291.266 172.776" stroke="black" stroke-width="7" stroke-linecap="round"/>
<path d="M299.707 127.206C299.707 128.267 299.801 131.182 300.164 135.86C300.479 139.915 300.065 142.626 299.573 144.205C299.16 145.432 298.418 147.522 297.75 149.416C297.082 151.311 296.511 152.948 295.724 154.644" stroke="black" stroke-width="7" stroke-linecap="round"/>
<path d="M229.933 75.0674C230.327 75.4855 231.838 76.8342 235.662 79.0446C236.794 79.6992 237.6 80.0119 239.326 80.7775C242.678 82.2647 246.048 83.5508 249.532 86.0457C251.994 87.8088 255.495 91.0699 257.652 93.0699C260.523 95.731 261.915 97.9766 263.577 100.551C265.058 102.845 266.372 105.102 267.681 108.989C268.572 111.638 269.43 115.813 270.001 118.589C270.572 121.366 270.704 122.657 271.412 129.216C272.12 135.774 273.4 147.561 274.223 154.19C275.188 161.959 276.326 164.237 277.35 166.113C279.575 168.653 282.896 171.779 284.706 174.371C285.122 174.97 285.336 175.267 285.661 175.779" stroke="black" stroke-width="7" stroke-linecap="round"/>
<path d="M233.11 68.8301C233.11 68.8501 233.123 69.2028 233.236 69.8443C233.342 70.4485 234.307 71.2358 236.702 73.242C238.454 74.7092 241.478 76.8613 244.268 78.8121C247.058 80.7629 249.568 82.3891 252.206 84.3294C254.843 86.2697 257.532 88.4748 260.027 91.1134C262.521 93.7519 264.74 96.7571 266.16 98.8594C268.271 101.983 269.165 104.509 270.484 110.168C271.344 114.53 272.594 121.917 273.362 127.969C274.129 134.021 274.377 138.515 274.632 143.145" stroke="black" stroke-width="7" stroke-linecap="round"/>
<path d="M217.58 85.5288C217.602 85.5288 217.957 85.5684 221.368 87.463C224.5 89.2033 230.211 92.9873 233.701 95.4103C237.192 97.8332 238.22 98.8985 239.893 101.013C241.565 103.128 243.851 106.26 245.896 109.502C247.94 112.743 249.674 115.999 250.989 118.696C253.27 123.377 254.24 125.891 254.997 126.879C256.251 128.518 258.123 131.089 260.242 136.403C261.642 139.916 263.024 145.338 265.125 151.628C267.226 157.919 269.83 164.978 271.296 168.791C273.009 172.955 274.026 174.02 276.162 175.712C277.537 176.701 279.503 177.955 281.826 179.313" stroke="black" stroke-width="7" stroke-linecap="round"/>
<path d="M284.601 179.242C282.747 176.973 277.735 171.028 276.74 170.072C274.277 167.705 281.614 175.108 281.633 175.551C281.864 180.747 271.964 174.029 269.503 173.263C266.364 172.285 263.273 170.456 261.001 168.789C256.941 165.809 256.163 163.407 256.019 162.925C255.904 162.539 260.077 164.698 265.553 167.407C268.65 168.706 270.785 169.228 272.41 169.494C272.856 169.532 272.535 169.372 272.205 169.208" stroke="black" stroke-width="7" stroke-linecap="round"/>
<path d="M272.205 169.208C271.503 168.964 268.14 166.708 264.365 163.384C262.65 161.874 261.531 160.512 259.423 157.401C257.316 154.29 254.302 149.416 252.68 146.771C250.9 143.87 250.153 142.107 248.674 138.989C247.879 137.315 246.731 135.588 242.711 131.353C238.691 127.118 231.767 120.462 226.696 115.978C221.625 111.495 218.618 109.386 215.477 107.561C212.335 105.737 209.151 104.262 208.01 103.979C206.869 103.697 207.869 104.653 211.237 107.198C214.604 109.743 220.31 113.849 224.827 117.672C229.344 121.496 232.5 124.914 235.026 127.901C237.551 130.888 239.35 133.342 240.937 135.977C242.524 138.612 243.845 141.354 245.142 144.806C246.439 148.258 247.672 152.337 248.393 155.184C249.114 158.032 249.286 159.525 249.432 161.383" stroke="black" stroke-width="7" stroke-linecap="round"/>
<path d="M251.437 114.982C251.553 115.341 254.89 119.805 258.486 125.61C259.289 126.908 259.616 128.54 260.419 131.714C261.222 134.887 262.296 139.654 262.92 142.319C263.543 144.984 263.683 145.401 264.434 148.397C265.185 151.393 266.544 156.954 267.449 162.718" stroke="black" stroke-width="7" stroke-linecap="round"/>
<path d="M253.589 117.374C252.951 116.608 249.576 111.827 247.674 109.115C246.846 107.933 242.287 102.728 239.31 99.336C238.628 98.7375 237.812 98.1883 236.773 97.603C236.197 97.2912 235.526 96.9493 234.772 96.5469" stroke="black" stroke-width="7" stroke-linecap="round"/>
<path d="M202.207 121.635C203.144 121.678 207.909 123.658 213.722 127.099C217.642 129.419 219.594 132.301 221.165 134.761C222.418 136.721 223.159 138.993 224.14 141.916C225.367 145.569 226.796 148.316 228.714 150.819C230.134 152.672 233.474 154.807 236.156 156.643C238.838 158.479 241.02 159.722 241.874 160.123C242.164 160.26 238.235 157.222 231.854 152.325C228.73 149.928 226.379 147.043 224.701 145.099C223.024 143.155 222.23 142.068 222.116 141.655C221.985 141.183 223.622 142.136 225.927 144.154C227.847 145.835 231.141 149.018 234.218 151.56C237.296 154.103 240.018 155.952 241.785 157.08C243.552 158.207 244.28 158.557 241.782 156.665C239.283 154.772 233.536 150.626 229.342 147.281C225.149 143.936 222.684 141.519 220.789 139.349C218.894 137.179 217.644 135.33 216.291 132.942C213.362 127.772 212.275 125.058 212.722 125.739C213.608 127.087 214.557 128.474 215.405 130.561C215.701 131.291 215.711 131.999 216.098 133.245C216.831 135.609 218.438 139.321 220.075 142.925C221.547 146.165 224.607 148.877 226.269 150.345C226.614 150.65 224.718 147.851 221.45 143.56C220.008 141.667 219.288 140.141 218.509 138.255C217.729 136.37 216.984 134.119 215.723 131.371C212.952 125.33 210.486 121.585 209.753 120.587C208.815 119.307 207.251 118.108 205.429 117.065C204.599 116.59 206.784 117.939 211.751 120.999C214.15 122.476 215.973 124.304 217.367 125.68C218.761 127.056 219.588 128.053 221.513 131.084C223.438 134.115 226.436 139.149 229.167 143.07C231.899 146.991 234.272 149.647 235.877 151.313C237.482 152.98 238.248 153.577 240.118 154.722C241.988 155.868 244.939 157.543 248.099 159.361" stroke="black" stroke-width="7" stroke-linecap="round"/>
<path d="M236.156 70.1859C236.342 69.7995 238.746 66.6741 242.947 63.4371C246.341 62.2155 248.394 61.9289 249.186 61.915C249.535 61.901 249.776 61.8731 249.973 61.6621" stroke="black" stroke-width="7" stroke-linecap="round"/>
<path d="M304.796 39.1372C304.814 39.1372 306.202 39.1372 309.595 39.3728C314.258 39.6966 317.278 40.715 318.168 41.1023C319.344 41.6134 320.313 42.2843 320.943 42.9052C321.567 43.5211 321.83 44.1581 321.935 45.0201C322.015 45.6684 321.971 46.7606 321.56 47.6013C321.149 48.4421 320.326 49.0023 320.026 49.2157C319.512 49.5813 321.995 47.7143 322.723 45.8908C323.063 45.0412 322.387 44.1054 321.676 43.4785C320.219 42.1929 317.979 41.9648 311.92 41.6371C306.886 41.3648 297.854 41.354 286.544 41.3782C275.234 41.4024 261.915 41.5837 253.113 41.923C244.311 42.2622 240.43 42.7539 238.077 43.0978C233.734 43.7327 231.499 45.0839 230.077 45.8895C229.178 46.3988 228.324 46.8121 227.107 47.4525C226.157 47.9527 225.053 47.9828 222.375 49.1219C220.391 49.9659 218.501 49.8384 217.656 50.0352C217.324 49.9551 217.188 49.5095 217.109 49.1635C217.03 48.8175 217.011 48.5848 216.992 48.3449" stroke="black" stroke-width="7" stroke-linecap="round"/>
<path d="M312.878 52.0248C313.727 52.0056 315.832 51.7431 317.977 50.3689C319.318 49.5099 319.831 48.5208 319.84 48.0196C319.866 46.5478 318.449 45.3213 316.865 44.351C316.488 44.1201 316.181 44.049 316.607 44.1092C317.033 44.1694 318.18 44.4029 318.87 44.5934C319.561 44.7839 319.76 44.9244 319.985 45.584" stroke="black" stroke-width="7" stroke-linecap="round"/>
<path d="M329.64 29.9038C329.64 30.9873 329.682 35.3137 330.303 39.8725C330.572 41.8447 331.084 43.0867 331.559 45.1422C332.645 49.8349 333.195 53.4213 333.399 54.7801C333.743 57.0748 334.1 59.0547 334.346 63.2249C334.473 66.8312 334.606 73.4628 334.514 78.1141C334.423 82.7653 334.103 85.2352 333.748 88.0944" stroke="black" stroke-width="7" stroke-linecap="round"/>
<path d="M302.249 53.8669C303.036 53.8438 305.342 52.9935 308.847 50.0541C309.864 49.2015 311.013 47.278 312.597 44.3903C313.314 43.0834 313.491 41.9149 313.665 41.453C313.782 41.1399 314.063 43.8751 313.869 48.3389C313.779 50.4089 312.959 52.0166 312.679 52.6909C312.369 53.437 315.268 50.0118 316.453 47.6423C318.06 44.4308 318.326 40.3365 319.104 39.3646C319.331 39.0806 319.357 38.6107 319.409 38.2225C319.461 37.8344 319.471 37.5 318.345 37.6943C317.218 37.8887 314.953 38.6219 312.435 39.0073C309.916 39.3928 307.213 39.4082 306.643 39.1395C306.072 38.8707 307.716 38.3172 310.152 37.3286C312.588 36.34 315.766 34.933 317.954 33.8179C321.337 32.0938 323.234 30.2471 324.772 28.6181C326.011 27.3057 327.332 24.896 328.824 21.987C329.755 20.1708 330.082 19.2851 330.524 18.253C331.503 15.9626 332.217 13.6621 332.756 12.1807C333.692 9.6054 334.577 7.70241 335.354 6.2015C335.571 5.85816 335.883 5.38466 336.137 4.91042C336.39 4.43619 336.576 3.97556 336.767 3.50098" stroke="black" stroke-width="7" stroke-linecap="round"/>
<path d="M297.868 155.872C297.85 155.872 297.812 157.183 297.741 159.332C297.702 160.495 297.589 162.13 297.724 164.427C297.913 167.622 300.246 169.586 300.884 170.423C301.444 171.156 302.285 172.054 303.745 173.097C304.078 173.334 304.049 171.61 304.831 168.15C305.614 164.691 307.129 158.976 308.836 153.592C310.544 148.209 312.399 143.331 315.099 137.382C317.799 131.433 321.288 124.56 324.175 118.576C327.062 112.592 329.242 107.706 331.488 102.671" stroke="black" stroke-width="7" stroke-linecap="round"/>
<path d="M305.804 172.678C305.645 173.858 305.314 175.814 304.796 179.013C304.228 182.519 303.719 184.893 303.52 186.028C303.366 186.909 302.995 188.39 302.3 191.045C301.605 193.701 300.569 197.482 299.075 201.743C297.581 206.004 295.661 210.631 294.491 213.256C293.321 215.881 292.959 216.364 291.363 218.236C289.767 220.109 286.948 223.356 285.278 225.339C283.609 227.323 283.174 227.945 281.011 230.188C278.847 232.431 274.967 236.277 270.622 240.345" stroke="black" stroke-width="7" stroke-linecap="round"/>
<path d="M236.392 194.607C236.538 194.607 237.68 194.643 239.502 194.744C240.68 194.809 242.791 195.111 246.843 195.068C249.204 195.043 252.165 194.507 256.395 194.392C260.626 194.276 266.031 194.467 269.492 194.708C272.954 194.949 274.308 195.233 275.823 195.687C277.339 196.14 278.975 196.755 280.374 197.387C282.936 198.545 284.406 199.552 285.285 200.233C286.496 201.173 287.874 202.962 289.211 204.801C290.791 206.974 291.084 209.358 291.287 210.474C291.358 210.952 291.447 211.452 291.562 212.045C291.615 212.369 291.655 212.739 291.696 213.12" stroke="black" stroke-width="7" stroke-linecap="round"/>
<path d="M255.617 178.644C257.496 178.644 261.517 178.682 263.838 179.186C265.831 179.618 269.449 180.541 272.914 181.346C276.378 182.15 279.571 182.842 282.056 183.513C284.542 184.185 286.223 184.814 287.784 185.524C290.788 186.891 292.788 188.374 293.916 189.501C294.891 190.476 295.319 191.399 295.695 192.195C296.182 193.395 296.688 195.511 297.039 198.301C297.163 199.694 297.178 201.043 297.145 202.298" stroke="black" stroke-width="7" stroke-linecap="round"/>
<path d="M296.398 196.053C296.398 194.845 296.248 191.419 296.006 187.702C295.904 186.133 295.514 183.846 295.344 182.195C295.173 180.543 295.17 179.601 295.371 177.779C295.573 175.956 295.98 173.281 296.399 170.354" stroke="black" stroke-width="7" stroke-linecap="round"/>
<path d="M283.739 181.702C284.146 181.722 287.672 183.748 289.903 185.845C291.533 187.376 292.167 189.464 292.62 190.463C292.992 191.281 293.431 193.765 294.019 198.438C294.241 201.036 294.307 204.094 294.282 206.06C294.257 208.026 294.139 208.806 294.018 209.61" stroke="black" stroke-width="7" stroke-linecap="round"/>
<path d="M230.418 196.501C230.44 196.501 230.463 196.501 236.225 196.634C241.988 196.768 253.49 197.034 260.385 197.322C267.28 197.609 269.219 197.909 271.188 198.4C273.156 198.89 275.095 199.562 276.815 200.348C280.065 201.832 281.65 203.06 282.201 203.561C283.932 205.136 284.215 206.042 284.445 206.952C284.876 208.664 284.722 209.733 284.656 213.654C284.64 214.648 284.43 215.262 283.385 217.451C282.341 219.641 280.404 223.386 280.052 224.742C279.7 226.099 280.992 224.952 282.83 222.705C284.667 220.457 287.012 217.144 288.303 215.282C290.093 212.551 290.541 211.752 290.77 211.136C290.872 210.826 290.944 210.522 291.026 210.107" stroke="black" stroke-width="7" stroke-linecap="round"/>
<path d="M291.026 210.107C290.974 210.186 290.611 210.724 288.673 213.392C287.089 215.574 284.216 219.386 281.761 223.122C279.306 226.857 277.339 230.387 275.873 232.767C274.408 235.148 273.503 236.273 272.44 237.637" stroke="black" stroke-width="7" stroke-linecap="round"/>
<path d="M203.05 207.141C203.749 207.141 205.515 207.066 206.945 207.272C209.754 207.677 211.323 208.295 212.761 208.295C213.983 208.295 216.205 208.295 219.813 208.247C223.422 208.199 228.349 208.103 232.296 208.275C236.243 208.447 239.06 208.891 241.959 209.661C244.857 210.431 247.751 211.513 249.855 212.367C251.959 213.221 253.185 213.815 254.377 214.537C255.57 215.26 256.692 216.093 258.358 217.591C260.025 219.089 262.202 221.226 263.476 222.529C265.1 224.189 265.978 226.02 266.948 228.26C267.454 229.429 267.533 232.325 267.582 236.289C267.603 237.963 266.892 239.386 265.736 241.694C265.156 242.853 264.407 243.89 263.11 245.442C261.812 246.994 259.943 249.005 258.608 250.328C257.272 251.651 256.528 252.227 254.906 253.221C253.284 254.216 250.808 255.612 246.168 257.7C241.528 259.787 234.799 262.524 231.237 263.989C227.107 265.833 226.473 266.308 225.949 266.596C225.694 266.724 225.457 266.814 225.176 266.916" stroke="black" stroke-width="7" stroke-linecap="round"/>
<path d="M248.265 257.277C248.735 257.277 250.937 257.093 255.298 255.02C257.049 254.189 259.196 252.467 261.75 250.471C264.304 248.474 267.097 246.066 269.002 244.315C271.921 241.633 272.982 240.339 273.643 239.701C274.132 239.228 274.89 238.413 276.908 235.447C278.925 232.481 282.168 227.377 284.355 223.53C286.541 219.682 287.573 217.245 288.133 215.894C288.692 214.542 288.748 214.351 288.776 214.13C288.805 213.91 288.805 213.667 288.805 213.417" stroke="black" stroke-width="7" stroke-linecap="round"/>
<path d="M172.626 287.049C172.747 287.049 173.252 287.049 177.189 286.077C180.709 285.207 187.211 283.16 192.649 281.346C198.087 279.532 202.235 277.908 206.986 276.134C211.736 274.359 216.963 272.483 223.722 269.892C230.481 267.301 238.614 264.051 243.265 262.095C247.916 260.14 248.841 259.576 249.965 258.953C252.363 257.624 254.119 256.717 255.976 255.136C257.436 253.817 259.946 251.451 261.835 249.516C263.724 247.581 264.916 246.149 266.175 244.588" stroke="black" stroke-width="7" stroke-linecap="round"/>
<path d="M160.763 220.36C160.753 220.351 160.744 220.342 164.436 220.502C168.128 220.662 175.522 220.992 182.091 221.924C188.66 222.857 194.181 224.382 197.611 225.435C201.04 226.488 202.21 227.022 203.817 227.996C205.424 228.969 207.433 230.365 209.878 232.872C212.323 235.378 215.144 238.952 217.208 241.406C220.385 245.182 221.935 246.634 222.342 247.401C222.934 248.514 223.243 249.821 223.417 251.81C223.738 255.462 223.444 258.127 223.054 259.714C222.206 263.163 221.202 265.773 221.6 265.19C222.257 264.223 223.567 261.724 224.386 260.045C225.663 255.567 225.588 253.109 225.342 252.768C225.205 252.614 225.044 252.498 224.878 252.379" stroke="black" stroke-width="7" stroke-linecap="round"/>
<path d="M224.878 252.379C225.197 252.867 227.239 255.27 229.12 256.912C229.726 257.441 230.423 257.687 232.644 258.296C234.539 258.814 238.036 259.587 240.238 260.027C242.439 260.466 243.249 260.503 243.753 260.533C244.257 260.563 244.43 260.585 242.086 260.573C239.742 260.561 234.876 260.515 232.252 260.53C229.394 260.546 227.64 261.602 226.238 262.412C226.351 262.319 228.138 261.204 229.269 260.587C230.399 259.97 230.818 259.884 231.254 259.764" stroke="black" stroke-width="7" stroke-linecap="round"/>
<path d="M171.069 215.646C171.871 215.655 174.756 216.212 179.112 217.669C182.137 218.682 186.935 219.868 189.571 220.597C192.578 221.429 193.818 221.873 197.451 223.282C200.231 224.36 204.805 226.445 207.934 227.987C211.063 229.53 212.58 230.536 213.807 231.423C215.968 232.985 217.269 234.367 217.987 235.335C218.284 235.735 218.412 235.974 219.774 238.163C221.136 240.351 223.721 244.489 225.163 246.755C226.605 249.022 226.826 249.291 228.057 250.297C229.288 251.302 231.522 253.036 232.784 253.99C234.249 255.097 235.608 255.415 237.862 255.749C241.513 256.291 242.921 255.478 244.964 255.182C247.28 254.845 249.811 253.765 251.636 252.863C252.623 252.376 254.738 251.239 258.306 249.303C261.484 247.227 263.171 245.976 263.876 245.064C264.414 244.305 265.32 242.944 266.254 241.543" stroke="black" stroke-width="7" stroke-linecap="round"/>
<path d="M142.774 227.304C142.833 227.304 143.316 227.304 144.377 227.182C145.773 227.021 148.318 226.191 151.448 225.461C152.776 225.151 153.531 224.779 154.7 224.527C155.869 224.274 157.417 224.106 159.953 224.038C162.489 223.969 165.966 224.004 171.615 224.771C177.263 225.539 184.979 227.037 190.246 228.226C195.513 229.415 198.097 230.25 200.378 231.144C202.659 232.039 204.559 232.969 207.393 235.233C210.226 237.498 213.934 241.069 215.903 242.992C218.015 245.055 218.633 246.582 219.535 249.138C219.962 250.35 220.115 251.459 220.222 252.935C220.328 254.411 220.328 256.239 220.048 258.185C219.769 260.132 219.21 262.141 218.754 263.557C218.045 265.764 217.226 267.118 216.422 268.253C215.671 269.316 213.77 270.535 211.2 271.882C209.238 272.911 206.642 273.414 204.021 273.919C202.681 274.177 201.74 273.592 200.835 272.996C200.464 272.752 200.345 272.527 199.011 270.763C197.677 268.998 195.149 265.675 193.095 263.144C191.041 260.613 189.537 258.975 186.447 256.209C183.357 253.442 178.727 249.596 174.836 246.207C170.946 242.818 167.935 240.002 164.635 237.371C161.335 234.739 157.836 232.378 154.042 230.379C150.248 228.38 146.265 226.816 144.121 225.989C141.977 225.162 141.792 225.12 141.448 225.093C141.105 225.066 140.607 225.055 139.979 225.104" stroke="black" stroke-width="7" stroke-linecap="round"/>
<path d="M94.5391 238.259C95.0133 238.259 96.4823 238.259 98.6465 238.184C99.5883 238.151 100.203 237.957 104.924 236.051C109.645 234.145 118.451 230.488 124.275 228.339C130.099 226.191 132.673 225.661 134.886 225.377C138.854 224.869 141.01 225.079 142.678 225.585C144.057 226.003 146.444 226.976 148.612 227.971C150.781 228.965 152.64 230.01 153.873 230.784C155.106 231.558 155.657 232.029 156.155 232.496C156.653 232.963 157.081 233.411 157.522 233.872" stroke="black" stroke-width="7" stroke-linecap="round"/>
<path d="M102.892 241.68C103.041 241.68 104.158 241.635 108.456 240.607C111.766 239.815 117.161 237.701 121.221 236.127C125.282 234.554 127.792 233.387 129.882 232.537C131.973 231.687 133.568 231.189 136.386 230.884C139.203 230.579 143.195 230.483 146.122 230.615C150.812 230.827 153.083 231.662 154.069 232.051C155.049 232.437 156.776 233.715 159.063 235.532C160.873 236.971 161.681 238.082 162.399 239.114C162.935 239.882 163.758 241.19 165.484 243.272C167.21 245.354 169.8 248.182 171.765 250.157C173.73 252.132 174.991 253.169 176.026 254.165C177.923 255.993 178.752 257.158 179.533 257.648C181.283 258.748 182.909 259.547 184.153 260.751C186.596 263.115 188.59 265.568 189.813 266.762C191.306 269.167 192.372 272.117 192.685 274.047C192.805 275.255 192.85 276.925 192.895 278.645" stroke="black" stroke-width="7" stroke-linecap="round"/>
<path d="M191.492 267.599C191.729 267.781 192.249 268.485 192.541 269.757C192.907 270.419 193.972 272.189 195.62 274.934C196.433 276.231 197.199 277.331 197.987 278.465" stroke="black" stroke-width="7" stroke-linecap="round"/>
<path d="M187.72 282.073C187.72 282.055 187.72 282.037 187.712 279.919C187.704 277.801 187.689 273.584 187.538 271.002C187.338 267.577 186.323 265.946 185.475 264.571C185.122 263.998 184.88 263.705 180.212 259.403C175.543 255.101 166.443 246.805 160.528 241.756C154.612 236.706 152.156 235.154 150.728 234.277C148.976 233.248 148.373 233.037 144.962 232.947C141.82 232.91 135.814 232.891 129.625 232.872" stroke="black" stroke-width="7" stroke-linecap="round"/>
<path d="M89.7236 237.988C90.5559 238.004 92.6866 238.247 95.3934 239.419C97.5229 240.341 101.116 242.087 105.788 244.026C110.46 245.964 116.084 248.083 120.247 249.803C124.41 251.524 126.942 252.782 129.947 254.592C132.953 256.402 136.355 258.725 139.428 261.152C142.502 263.578 145.143 266.037 147.207 268.246C150.873 272.169 153.097 275.998 154.835 279.12C156.152 281.581 156.871 283.04 157.153 283.826C157.277 284.237 157.364 284.672 157.452 285.737" stroke="black" stroke-width="7" stroke-linecap="round"/>
<path d="M70.4141 239.414C70.5426 239.414 70.6711 239.414 73.978 239.543C77.2849 239.672 83.7663 239.931 88.6562 240.406C93.5462 240.881 96.6482 241.563 101.234 243.067C105.82 244.572 111.797 246.876 116.046 248.768C120.295 250.659 122.636 252.067 125.5 253.991C128.364 255.914 131.679 258.31 134.145 259.99C138.06 262.656 139.961 263.698 141.063 264.77C143.352 266.998 145.136 269.249 146.297 271.095C148.083 273.937 149.455 277.712 150.452 280.903C150.828 282.224 150.94 282.941 150.997 284.25C151.055 285.559 151.055 287.439 151.055 289.376" stroke="black" stroke-width="7" stroke-linecap="round"/>
<path d="M151.055 289.376C151.232 289.376 151.409 289.376 154.67 289.298C157.931 289.219 164.27 289.063 169.229 288.63C174.187 288.198 177.574 287.495 179.818 286.971C183.079 286.209 185.589 285.066 188.655 283.519C193.789 280.528 195.038 279.267 196.576 276.696C197.002 276.021 197.409 275.493 198.169 274.326" stroke="black" stroke-width="7" stroke-linecap="round"/>
<path d="M198.169 274.326C198.126 274.326 197.551 274.326 194.884 275.433C192.679 276.347 189.108 278.753 184.148 280.657C179.188 282.562 173.038 284.09 168.03 284.988C163.022 285.887 159.341 286.11 160.231 286.213C161.121 286.316 166.693 286.292 171.472 285.68C176.251 285.067 180.069 283.867 183.163 282.773C186.258 281.679 188.515 280.727 187.79 281.003C187.065 281.278 183.292 282.809 179.782 284.001C176.272 285.194 173.14 286.001 169.913 286.834" stroke="black" stroke-width="7" stroke-linecap="round"/>
<path d="M5.20996 278.293C6.29459 278.293 8.84278 278.534 11.3995 279.488C12.1891 279.782 13.0585 280.255 16.058 281.184C19.0576 282.112 24.1418 283.528 29.2363 285.252C34.3307 286.976 39.2813 288.964 43.5912 290.782C47.9012 292.599 51.4206 294.184 56.0441 296.508C60.6675 298.833 66.2885 301.848 72.0798 304.956" stroke="black" stroke-width="7" stroke-linecap="round"/>
<path d="M4.87598 278.044C5.13205 278.334 6.41138 279.191 13.9294 281.94C17.9485 283.41 24.6192 285.168 33.114 288.227C41.6089 291.287 51.7897 295.407 57.8844 298.022C65.679 301.624 68.2352 303.055 69.6456 303.773C70.2513 304.077 70.6335 304.257 71.2591 304.617" stroke="black" stroke-width="7" stroke-linecap="round"/>
<path d="M71.2593 304.617C71.4626 304.617 72.9083 304.617 77.7509 304.011C81.2769 303.57 86.8738 302.195 89.9503 301.513C93.3962 300.748 95.8863 300.126 100.051 299.34C102.078 298.957 103.977 298.866 106.075 298.617C108.172 298.368 110.424 298.029 114.331 297.727C118.238 297.424 123.733 297.168 128.498 296.534C133.263 295.9 137.133 294.897 139.903 294.065C146.187 291.721 148 290.688 150.025 289.585C150.964 289.036 151.724 288.512 152.941 287.364" stroke="black" stroke-width="7" stroke-linecap="round"/>
<path d="M152.941 287.364C152.863 287.364 151.966 287.364 149.835 287.684C146.779 288.141 142.771 289.969 136.648 291.267C132.967 292.047 128.001 292.46 122.932 292.878C117.863 293.296 112.81 293.55 105.447 294.635C98.0832 295.719 88.5623 297.626 82.5276 299.053C76.4929 300.48 74.2329 301.37 72.965 301.935C71.697 302.5 71.4896 302.713 71.2759 302.933" stroke="black" stroke-width="7" stroke-linecap="round"/>
<path d="M132.011 295.748C134.27 295.748 137.627 295.685 141.599 294.555C145.16 293.541 151.794 291.417 158.111 289.739C164.427 288.062 170.206 286.838 176.788 284.991C183.37 283.144 190.579 280.709 194.41 279.383C198.24 278.058 198.473 277.914 198.713 277.767" stroke="black" stroke-width="7" stroke-linecap="round"/>
<path d="M51.2944 251.737C51.9507 251.737 53.8279 251.864 58.1796 253.508C61.9574 254.935 68.7799 257.928 75.0529 261.381C81.3258 264.833 86.8061 268.745 91.6179 272.698C96.4296 276.65 100.407 280.524 103.34 283.574C106.274 286.624 108.044 288.733 110.066 291.089" stroke="black" stroke-width="7" stroke-linecap="round"/>
<path d="M45.1626 254.036C46.4238 254.036 49.735 254.134 54.5049 255.495C58.4944 256.633 65.5178 259.181 71.4128 261.508C77.3077 263.835 81.8227 265.992 86.1353 268.503C90.4479 271.013 94.4212 273.812 97.5105 276.495C100.6 279.179 102.685 281.662 104.26 283.767C107.971 289.496 108.327 290.934 108.556 292.504C108.634 293.185 108.634 293.631 108.634 294.09" stroke="black" stroke-width="7" stroke-linecap="round"/>
<path d="M123.829 294.09C123.022 293.748 119.751 291.905 115.962 289.35C113.921 287.973 111.719 286.318 106.4 282.772C101.081 279.225 92.733 273.809 88.2369 270.86C83.3221 267.636 82.0615 266.718 80.2061 265.618C78.2518 264.46 75.4957 262.917 71.4 260.679C66.0397 257.75 62.0539 256.833 61.0376 256.605C58.9355 256.335 55.8305 255.7 50.8619 254.759C48.2395 254.404 45.4122 254.299 41.792 253.925" stroke="black" stroke-width="7" stroke-linecap="round"/>
<path d="M87.269 270.667C87.2955 270.667 87.5669 270.89 89.1128 272.153C92.6884 275.075 96.3077 278.411 98.317 281.002C100.383 283.665 100.617 286.918 101.208 289.09C101.44 289.456 101.862 289.882 102.976 290.116C104.09 290.35 105.885 290.38 107.733 290.41" stroke="black" stroke-width="7" stroke-linecap="round"/>
<path d="M151.718 274.222C151.718 274.265 152.923 275.267 155.959 277.425C157.79 278.604 160.213 279.953 162.264 280.91C164.316 281.867 165.923 282.391 167.963 282.977" stroke="black" stroke-width="7" stroke-linecap="round"/>
<path d="M24.6709 265.752C25.8062 265.752 28.5526 265.902 31.5731 267.13C33.9816 268.109 37.9945 270.214 42.0436 272.651C46.0927 275.089 50.0119 277.9 54.438 281.818C58.864 285.737 63.6781 290.678 66.2381 293.373C68.9584 296.365 69.5685 297.154 70.3763 297.999C70.7392 298.362 71.0065 298.592 71.5287 298.954" stroke="black" stroke-width="7" stroke-linecap="round"/>
<path d="M81.9453 299.411C81.9453 299.44 79.6162 299.47 75.7144 299.386C73.3755 299.335 70.6455 297.572 67.4547 295.453C65.8069 294.358 64.7388 292.922 61.837 289.791C59.7696 287.561 56.1274 284.382 53.6774 281.967C51.2274 279.551 49.9861 278.086 48.4179 276.603C46.8498 275.12 44.9926 273.663 42.6191 272.212C37.5539 269.115 33.6968 267.428 31.9496 266.466C29.9937 265.388 28.1101 264.903 27.2058 264.639C27.0894 264.605 28.3942 264.747 32.19 266.327C35.2317 267.593 40.332 270.271 47.2192 274.623C54.1065 278.976 62.5735 285.042 69.3889 289.353C76.2044 293.664 81.1117 296.036 84.3492 297.374C87.5866 298.712 89.0055 298.944 90.1414 299.127" stroke="black" stroke-width="7" stroke-linecap="round"/>
<path d="M298.255 171.274C298.349 172.089 299.501 177.536 300.815 181.2C301.017 181.764 301.202 182.295 301.206 182.087C301.232 180.895 300.887 178.762 300.864 177.527C300.813 174.726 300.175 183.405 300.147 183.201C298.702 172.458 300.706 170.07 301.137 168.7C302.051 165.795 302.041 176.638 302.02 180.408C302.014 181.554 301.88 181.139 301.748 180.152C301.617 179.164 301.456 177.617 301.347 172.763C301.237 167.909 301.182 159.795 301.193 155.449C301.207 150.107 301.759 148.269 302.645 146.48C303.443 144.87 304.842 142.831 306.456 140.432C308.288 137.71 310.695 135.544 312.642 133.578C314.376 131.626 316.081 129.355 317.521 127.08C318.086 126.081 318.316 125.399 318.709 124.381" stroke="black" stroke-width="4" stroke-linecap="round"/>
</svg>
